<?xml version="1.0" encoding="UTF-8" standalone="no"?>
<!-- Created with Inkscape (http://www.inkscape.org/) -->
<svg
   xmlns:dc="http://purl.org/dc/elements/1.1/"
   xmlns:cc="http://web.resource.org/cc/"
   xmlns:rdf="http://www.w3.org/1999/02/22-rdf-syntax-ns#"
   xmlns:svg="http://www.w3.org/2000/svg"
   xmlns="http://www.w3.org/2000/svg"
   xmlns:sodipodi="http://sodipodi.sourceforge.net/DTD/sodipodi-0.dtd"
   xmlns:inkscape="http://www.inkscape.org/namespaces/inkscape"
   height="908.91748"
   width="767.24603"
   id="svg2612"
   sodipodi:version="0.32"
   inkscape:version="0.44"
   version="1.0"
   sodipodi:docbase="E:\Inkscape - rysunki\WIKIPEDIA\Grafiki SVG"
   sodipodi:docname="POL_gmina_Udanin_COA.svg">
  <defs
     id="defs2614" />
  <sodipodi:namedview
     id="base"
     pagecolor="#ffffff"
     bordercolor="#666666"
     borderopacity="1.0"
     inkscape:pageopacity="0.0"
     inkscape:pageshadow="2"
     inkscape:cx="375"
     inkscape:cy="520"
     inkscape:zoom="0.35"
     inkscape:document-units="px"
     inkscape:current-layer="layer1"
     inkscape:window-width="888"
     inkscape:window-height="573"
     inkscape:window-x="44"
     inkscape:window-y="58" />
  <metadata
     id="metadata2617">
    <rdf:RDF>
      <cc:Work
         rdf:about="">
        <dc:format>image/svg+xml</dc:format>
        <dc:type
           rdf:resource="http://purl.org/dc/dcmitype/StillImage" />
      </cc:Work>
    </rdf:RDF>
  </metadata>
  <g
     inkscape:groupmode="layer"
     inkscape:label="Warstwa 1"
     id="layer1"
     transform="translate(52.19443,-80.76057)">
    <g
       id="g6842"
       transform="translate(-61.33004,73.30944)">
      <g
         id="g3144">
        <path
           sodipodi:nodetypes="ccccc"
           id="path3005"
           d="M 393.05511,429.47238 L 391.72628,910.61799 C 232.0442,907.96749 18.675866,776.10483 11.793086,598.52093 L 11.793086,428.83046 L 393.05511,429.47238 z "
           style="fill:white;fill-opacity:1;fill-rule:evenodd;stroke:none;stroke-width:5.31496096;stroke-linecap:round;stroke-linejoin:miter;stroke-miterlimit:4;stroke-dasharray:none;stroke-dashoffset:0;stroke-opacity:1" />
        <path
           sodipodi:nodetypes="ccccc"
           id="path3009"
           d="M 393.71023,428.45522 L 395.18773,10.108611 L 773.72413,10.108611 L 773.72413,429.96939 L 393.71023,428.45522 z "
           style="fill:#d40000;fill-opacity:1;fill-rule:evenodd;stroke:black;stroke-width:5.31496096;stroke-linecap:round;stroke-linejoin:miter;stroke-miterlimit:4;stroke-dasharray:none;stroke-dashoffset:0;stroke-opacity:1" />
        <path
           sodipodi:nodetypes="cccccc"
           id="path3003"
           d="M 773.72413,427.96939 L 773.72413,598.52093 C 766.15311,797.9715 568.61541,913.93113 391.72628,910.61799 L 391.96562,913.71115 L 393.71023,427.95522 L 773.72413,427.96939 z "
           style="fill:yellow;fill-opacity:1;fill-rule:evenodd;stroke:black;stroke-width:5.31496096;stroke-linecap:round;stroke-linejoin:miter;stroke-miterlimit:4;stroke-dasharray:none;stroke-dashoffset:0;stroke-opacity:1" />
        <path
           sodipodi:nodetypes="cccccc"
           id="path4304"
           d="M 11.793086,427.83046 L 11.793086,10.108611 L 394.18773,10.108611 L 393.05511,428.47238 L 392.72453,428.48365 L 11.793086,427.83046 z "
           style="fill:white;fill-opacity:1;fill-rule:evenodd;stroke:black;stroke-width:5.31496096;stroke-linecap:round;stroke-linejoin:miter;stroke-miterlimit:4;stroke-dasharray:none;stroke-dashoffset:0;stroke-opacity:1" />
        <rect
           y="430.19153"
           x="322.82639"
           height="68.748047"
           width="66.623558"
           id="rect3023"
           style="fill:red;fill-opacity:1;fill-rule:evenodd;stroke:none;stroke-width:5.31496048;stroke-linecap:round;stroke-linejoin:miter;stroke-miterlimit:4;stroke-dasharray:none;stroke-dashoffset:0;stroke-opacity:1" />
        <rect
           style="fill:red;fill-opacity:1;fill-rule:evenodd;stroke:none;stroke-width:5.31496048;stroke-linecap:round;stroke-linejoin:miter;stroke-miterlimit:4;stroke-dasharray:none;stroke-dashoffset:0;stroke-opacity:1"
           id="rect3025"
           width="68.261841"
           height="68.748047"
           x="187.9543"
           y="430.19153" />
        <rect
           y="498.44006"
           x="255.10616"
           height="68.748047"
           width="68.261841"
           id="rect3027"
           style="fill:red;fill-opacity:1;fill-rule:evenodd;stroke:none;stroke-width:5.31496048;stroke-linecap:round;stroke-linejoin:miter;stroke-miterlimit:4;stroke-dasharray:none;stroke-dashoffset:0;stroke-opacity:1" />
        <rect
           y="430.19153"
           x="53.623852"
           height="68.748047"
           width="67.988792"
           id="rect3029"
           style="fill:red;fill-opacity:1;fill-rule:evenodd;stroke:none;stroke-width:5.31496048;stroke-linecap:round;stroke-linejoin:miter;stroke-miterlimit:4;stroke-dasharray:none;stroke-dashoffset:0;stroke-opacity:1" />
        <rect
           style="fill:red;fill-opacity:1;fill-rule:evenodd;stroke:none;stroke-width:5.31496048;stroke-linecap:round;stroke-linejoin:miter;stroke-miterlimit:4;stroke-dasharray:none;stroke-dashoffset:0;stroke-opacity:1"
           id="rect3031"
           width="67.988792"
           height="68.748047"
           x="120.5071"
           y="498.44006" />
        <rect
           style="fill:red;fill-opacity:1;fill-rule:evenodd;stroke:none;stroke-width:5.31496048;stroke-linecap:round;stroke-linejoin:miter;stroke-miterlimit:4;stroke-dasharray:none;stroke-dashoffset:0;stroke-opacity:1"
           id="rect3033"
           width="66.623558"
           height="68.748047"
           x="322.82639"
           y="566.14691" />
        <rect
           y="566.14691"
           x="187.9543"
           height="68.748047"
           width="68.261841"
           id="rect3035"
           style="fill:red;fill-opacity:1;fill-rule:evenodd;stroke:none;stroke-width:5.31496048;stroke-linecap:round;stroke-linejoin:miter;stroke-miterlimit:4;stroke-dasharray:none;stroke-dashoffset:0;stroke-opacity:1" />
        <rect
           style="fill:red;fill-opacity:1;fill-rule:evenodd;stroke:none;stroke-width:5.31496048;stroke-linecap:round;stroke-linejoin:miter;stroke-miterlimit:4;stroke-dasharray:none;stroke-dashoffset:0;stroke-opacity:1"
           id="rect3037"
           width="68.261841"
           height="68.748047"
           x="255.10616"
           y="634.39545" />
        <rect
           style="fill:red;fill-opacity:1;fill-rule:evenodd;stroke:none;stroke-width:5.31496048;stroke-linecap:round;stroke-linejoin:miter;stroke-miterlimit:4;stroke-dasharray:none;stroke-dashoffset:0;stroke-opacity:1"
           id="rect3039"
           width="67.988792"
           height="68.748047"
           x="53.623852"
           y="566.14691" />
        <rect
           y="634.39545"
           x="120.5071"
           height="68.748047"
           width="67.988792"
           id="rect3041"
           style="fill:red;fill-opacity:1;fill-rule:evenodd;stroke:none;stroke-width:5.31496048;stroke-linecap:round;stroke-linejoin:miter;stroke-miterlimit:4;stroke-dasharray:none;stroke-dashoffset:0;stroke-opacity:1" />
        <rect
           y="703.72729"
           x="322.82639"
           height="68.748047"
           width="66.623558"
           id="rect3043"
           style="fill:red;fill-opacity:1;fill-rule:evenodd;stroke:none;stroke-width:5.31496048;stroke-linecap:round;stroke-linejoin:miter;stroke-miterlimit:4;stroke-dasharray:none;stroke-dashoffset:0;stroke-opacity:1" />
        <rect
           style="fill:red;fill-opacity:1;fill-rule:evenodd;stroke:none;stroke-width:5.31496048;stroke-linecap:round;stroke-linejoin:miter;stroke-miterlimit:4;stroke-dasharray:none;stroke-dashoffset:0;stroke-opacity:1"
           id="rect3045"
           width="68.261841"
           height="68.748047"
           x="187.9543"
           y="703.72729" />
        <rect
           y="771.97583"
           x="255.10616"
           height="68.748047"
           width="68.261841"
           id="rect3047"
           style="fill:red;fill-opacity:1;fill-rule:evenodd;stroke:none;stroke-width:5.31496048;stroke-linecap:round;stroke-linejoin:miter;stroke-miterlimit:4;stroke-dasharray:none;stroke-dashoffset:0;stroke-opacity:1" />
        <path
           style="fill:red;fill-opacity:1;fill-rule:evenodd;stroke:none;stroke-width:5.31496048;stroke-linecap:round;stroke-linejoin:miter;stroke-miterlimit:4;stroke-dasharray:none;stroke-dashoffset:0;stroke-opacity:1"
           d="M 53.625,703.71875 L 53.625,724.96875 C 64.413213,741.69099 76.982667,757.56794 90.9375,772.46875 L 121.625,772.46875 L 121.625,703.71875 L 53.625,703.71875 z "
           id="rect3049" />
        <path
           style="fill:red;fill-opacity:1;fill-rule:evenodd;stroke:none;stroke-width:5.31496048;stroke-linecap:round;stroke-linejoin:miter;stroke-miterlimit:4;stroke-dasharray:none;stroke-dashoffset:0;stroke-opacity:1"
           d="M 120.5,771.96875 L 120.5,800.875 C 137.27815,815.40965 155.37696,828.74316 174.34375,840.71875 L 188.5,840.71875 L 188.5,771.96875 L 120.5,771.96875 z "
           id="rect3051" />
        <path
           style="fill:red;fill-opacity:1;fill-rule:evenodd;stroke:none;stroke-width:5.31496048;stroke-linecap:round;stroke-linejoin:miter;stroke-miterlimit:4;stroke-dasharray:none;stroke-dashoffset:0;stroke-opacity:1"
           d="M 322.8125,839.6875 L 322.8125,902.25 C 335.24731,904.9574 347.57542,907.02795 359.71875,908.4375 L 389.4375,908.4375 L 389.4375,839.6875 L 322.8125,839.6875 z "
           id="rect3053" />
        <path
           style="fill:red;fill-opacity:1;fill-rule:evenodd;stroke:none;stroke-width:5.31496048;stroke-linecap:round;stroke-linejoin:miter;stroke-miterlimit:4;stroke-dasharray:none;stroke-dashoffset:0;stroke-opacity:1"
           d="M 187.96875,839.6875 L 187.96875,849 C 209.95837,861.86988 232.94412,872.92899 256.21875,882 L 256.21875,839.6875 L 187.96875,839.6875 z "
           id="rect3055" />
        <path
           style="fill:red;fill-opacity:1;fill-rule:evenodd;stroke:none;stroke-width:5.31496048;stroke-linecap:round;stroke-linejoin:miter;stroke-miterlimit:4;stroke-dasharray:none;stroke-dashoffset:0;stroke-opacity:1"
           d="M 11.78125,498.4375 L 11.78125,567.1875 L 54.71875,567.1875 L 54.71875,498.4375 L 11.78125,498.4375 z "
           id="rect3057" />
        <path
           style="fill:red;fill-opacity:1;fill-rule:evenodd;stroke:none;stroke-width:5.31496048;stroke-linecap:round;stroke-linejoin:miter;stroke-miterlimit:4;stroke-dasharray:none;stroke-dashoffset:0;stroke-opacity:1"
           d="M 16.0625,634.40625 C 20.839094,658.42043 29.341182,681.40502 40.84375,703.15625 L 54.71875,703.15625 L 54.71875,634.40625 L 16.0625,634.40625 z "
           id="rect3059" />
        <g
           style="fill:none;stroke:black;stroke-width:5.21495295;stroke-miterlimit:4;stroke-dasharray:none;stroke-opacity:1"
           transform="matrix(1.038722,0,0,1,1.193373,-0.576734)"
           inkscape:label="Warstwa 1"
           id="g3101" />
        <path
           style="fill:none;fill-opacity:1;fill-rule:evenodd;stroke:black;stroke-width:5.31496096;stroke-linecap:round;stroke-linejoin:miter;stroke-miterlimit:4;stroke-dasharray:none;stroke-dashoffset:0;stroke-opacity:1"
           d="M 393.05511,429.47238 L 391.72628,910.61799 C 232.0442,907.96749 18.675866,776.10483 11.793086,598.52093 L 11.793086,428.83046 L 393.05511,429.47238 z "
           id="path3142"
           sodipodi:nodetypes="ccccc" />
      </g>
      <g
         transform="matrix(0.785134,0,0,0.785134,-411.0909,-319.0781)"
         id="g3433">
        <path
           style="fill:#fcf691;fill-opacity:1;fill-rule:evenodd;stroke:#654500;stroke-width:4.6062994;stroke-linecap:butt;stroke-linejoin:miter;stroke-miterlimit:4;stroke-dasharray:none;stroke-opacity:1"
           d="M 1221.3496,885.02495 C 1207.4213,814.83457 1138.1358,782.37941 1092.9716,766.42983 C 1089.2177,766.64613 1075.7998,794.53 1078.1693,796.42579 C 1114.0382,806.43683 1184.2268,809.43255 1212.6349,885.88096 L 1221.3496,885.02495 z "
           id="path2459"
           sodipodi:nodetypes="ccccc" />
        <path
           style="fill:#fcf691;fill-opacity:1;fill-rule:evenodd;stroke:#654500;stroke-width:4.6062994;stroke-linecap:butt;stroke-linejoin:miter;stroke-miterlimit:4;stroke-dasharray:none;stroke-opacity:1"
           d="M 1077.616,796.21291 C 1080.9231,842.50185 1103.5454,869.40136 1144.4518,897.64264 C 1151.9008,900.35176 1154.7808,895.15642 1146.9006,887.70278 C 1121.9583,864.11064 1107.8972,836.67863 1105.3024,802.43502 L 1077.616,796.21291 z "
           id="path2461"
           sodipodi:nodetypes="ccscc" />
        <path
           sodipodi:nodetypes="ccccc"
           id="path2469"
           d="M 1309.9892,885.02495 C 1323.9175,814.83457 1393.2031,782.37941 1438.3673,766.42983 C 1442.1212,766.64613 1455.539,794.53 1453.1695,796.42579 C 1417.3007,806.43683 1347.112,809.43255 1318.704,885.88096 L 1309.9892,885.02495 z "
           style="fill:#fcf691;fill-opacity:1;fill-rule:evenodd;stroke:#654500;stroke-width:4.6062994;stroke-linecap:butt;stroke-linejoin:miter;stroke-miterlimit:4;stroke-dasharray:none;stroke-opacity:1" />
        <path
           sodipodi:nodetypes="ccscc"
           id="path2471"
           d="M 1453.7228,796.21291 C 1450.4157,842.50185 1427.7934,869.40136 1386.887,897.64264 C 1379.4381,900.35176 1376.5581,895.15642 1384.4383,887.70278 C 1409.3806,864.11064 1423.4417,836.67863 1426.0365,802.43502 L 1453.7228,796.21291 z "
           style="fill:#fcf691;fill-opacity:1;fill-rule:evenodd;stroke:#654500;stroke-width:4.6062994;stroke-linecap:butt;stroke-linejoin:miter;stroke-miterlimit:4;stroke-dasharray:none;stroke-opacity:1" />
        <g
           id="g2477"
           transform="translate(1637.696,58.16686)"
           style="fill:#fcf691;fill-opacity:1;stroke:#654500;stroke-width:4.6062994;stroke-miterlimit:4;stroke-dasharray:none;stroke-opacity:1">
          <path
             sodipodi:nodetypes="cccc"
             id="path2473"
             d="M -417.60383,825.36442 C -437.84682,721.81055 -519.34183,677.41127 -563.35664,557.30093 L -591.7535,565.91694 C -535.24179,709.86819 -453.0249,715.70564 -417.60383,825.36442 z "
             style="fill:#fcf691;fill-opacity:1;fill-rule:evenodd;stroke:#654500;stroke-width:4.6062994;stroke-linecap:butt;stroke-linejoin:miter;stroke-miterlimit:4;stroke-dasharray:none;stroke-opacity:1" />
          <path
             sodipodi:nodetypes="ccccc"
             id="path2475"
             d="M -592.64202,566.03366 C -605.29313,579.78128 -599.66427,662.23117 -564.74778,686.75549 C -557.03547,689.72706 -560.56097,685.8469 -560.65535,682.3129 C -569.09789,657.95294 -578.32552,633.97515 -572.82543,607.29142 L -592.64202,566.03366 z "
             style="fill:#fcf691;fill-opacity:1;fill-rule:evenodd;stroke:#654500;stroke-width:4.6062994;stroke-linecap:butt;stroke-linejoin:round;stroke-miterlimit:4;stroke-dasharray:none;stroke-opacity:1" />
        </g>
        <g
           id="g2481"
           transform="matrix(-1,0,0,1,885.7023,58.16686)"
           style="fill:#fcf691;fill-opacity:1;stroke:#654500;stroke-width:4.6062994;stroke-miterlimit:4;stroke-dasharray:none;stroke-opacity:1">
          <path
             style="fill:#fcf691;fill-opacity:1;fill-rule:evenodd;stroke:#654500;stroke-width:4.6062994;stroke-linecap:butt;stroke-linejoin:miter;stroke-miterlimit:4;stroke-dasharray:none;stroke-opacity:1"
             d="M -417.60383,825.36442 C -437.84682,721.81055 -519.34183,677.41127 -563.35664,557.30093 L -591.7535,565.91694 C -535.24179,709.86819 -453.0249,715.70564 -417.60383,825.36442 z "
             id="path2483"
             sodipodi:nodetypes="cccc" />
          <path
             style="fill:#fcf691;fill-opacity:1;fill-rule:evenodd;stroke:#654500;stroke-width:4.6062994;stroke-linecap:butt;stroke-linejoin:round;stroke-miterlimit:4;stroke-dasharray:none;stroke-opacity:1"
             d="M -592.64202,566.03366 C -605.29313,579.78128 -599.66427,662.23117 -564.74778,686.75549 C -557.03547,689.72706 -560.56097,685.8469 -560.65535,682.3129 C -569.09789,657.95294 -578.32552,633.97515 -572.82543,607.29142 L -592.64202,566.03366 z "
             id="path2485"
             sodipodi:nodetypes="ccccc" />
        </g>
        <g
           id="g2493"
           transform="translate(1637.696,58.16686)"
           style="fill:#fcf691;fill-opacity:1;stroke:#654500;stroke-width:4.6062994;stroke-miterlimit:4;stroke-dasharray:none;stroke-opacity:1">
          <path
             sodipodi:nodetypes="cccccccccccccccccccccccc"
             id="path2491"
             d="M -479.5993,572.30768 L -526.09974,555.10326 L -573.45925,483.53747 L -565.26117,476.54485 L -528.88016,530.13952 L -562.91952,472.72986 L -554.72143,465.80652 L -521.76746,522.01072 L -552.82779,463.01687 L -543.92306,455.32684 L -517.19501,505.24507 L -541.20268,453.30388 L -531.35113,447.19804 L -507.54205,496.60822 L -527.61465,447.32736 L -516.92713,442.43622 L -497.8891,495.08407 L -513.38002,441.17995 L -502.38303,437.64208 L -482.6476,507.78532 L -499.34397,437.13403 L -490.12055,433.707 C -481.65684,462.69765 -471.1458,497.28158 -464.72729,520.67593 L -479.5993,572.30768 z "
             style="fill:#fcf691;fill-opacity:1;fill-rule:evenodd;stroke:#654500;stroke-width:4.6062994;stroke-linecap:butt;stroke-linejoin:miter;stroke-miterlimit:4;stroke-dasharray:none;stroke-opacity:1" />
          <path
             sodipodi:nodetypes="cccccccccccccccccccccc"
             id="path2487"
             d="M -513.20683,497.67996 C -487.16809,512.75368 -476.80944,536.00831 -481.93107,567.33962 C -478.23856,547.29247 -488.96289,525.88439 -460.60669,519.00435 C -433.21496,556.38189 -482.99511,584.51575 -462.02831,605.72351 C -475.78257,591.80641 -457.5671,571.53816 -452.07693,555.96661 C -414.96064,600.53292 -460.646,610.96422 -449.23368,642.68577 C -454.34306,628.00662 -443.31359,607.93112 -435.931,601.76163 C -402.44777,636.92186 -447.36096,645.84993 -437.86068,676.80479 C -441.51397,652.22629 -430.00051,646.18492 -422.2228,635.57764 C -399.55263,671.54665 -412.84535,681.87353 -422.5258,698.43217 C -409.72811,748.69466 -394.3358,763.7611 -399.47679,821.81059 L -417.10914,822.77638 C -411.49498,769.67514 -426.88762,740.81251 -437.93919,706.94096 C -445.40494,695.89486 -474.79781,711.52418 -482.6476,665.7889 C -459.26606,661.83748 -446.62739,671.31463 -439.46334,687.63506 C -453.00088,645.81325 -494.39555,681.58692 -498.9052,630.22539 C -478.24449,625.48359 -463.68039,631.5802 -455.21289,648.5152 C -465.20778,612.14442 -513.49781,641.24196 -513.63866,587.54919 C -491.05878,587.01773 -477.80091,595.03145 -471.4705,609.39534 C -482.32078,574.67259 -523.36255,597.36187 -529.38821,556.05008 C -510.17031,549.2624 -494.60996,550.7042 -486.20395,568.24328 C -488.65795,544.83756 -526.08638,556.32523 -513.20683,497.67996 z "
             style="fill:#fcf691;fill-opacity:1;fill-rule:evenodd;stroke:#654500;stroke-width:4.6062994;stroke-linecap:butt;stroke-linejoin:miter;stroke-miterlimit:4;stroke-dasharray:none;stroke-opacity:1" />
        </g>
        <g
           id="g2497"
           transform="matrix(-1,0,0,1,882.7632,58.16686)"
           style="fill:#fcf691;fill-opacity:1;stroke:#654500;stroke-width:4.6062994;stroke-miterlimit:4;stroke-dasharray:none;stroke-opacity:1">
          <path
             style="fill:#fcf691;fill-opacity:1;fill-rule:evenodd;stroke:#654500;stroke-width:4.6062994;stroke-linecap:butt;stroke-linejoin:miter;stroke-miterlimit:4;stroke-dasharray:none;stroke-opacity:1"
             d="M -479.5993,572.30768 L -526.09974,555.10326 L -573.45925,483.53747 L -565.26117,476.54485 L -528.88016,530.13952 L -562.91952,472.72986 L -554.72143,465.80652 L -521.76746,522.01072 L -552.82779,463.01687 L -543.92306,455.32684 L -517.19501,505.24507 L -541.20268,453.30388 L -531.35113,447.19804 L -507.54205,496.60822 L -527.61465,447.32736 L -516.92713,442.43622 L -497.8891,495.08407 L -513.38002,441.17995 L -502.38303,437.64208 L -482.6476,507.78532 L -499.34397,437.13403 L -490.12055,433.707 C -481.65684,462.69765 -471.1458,497.28158 -464.72729,520.67593 L -479.5993,572.30768 z "
             id="path2499"
             sodipodi:nodetypes="cccccccccccccccccccccccc" />
          <path
             style="fill:#fcf691;fill-opacity:1;fill-rule:evenodd;stroke:#654500;stroke-width:4.6062994;stroke-linecap:butt;stroke-linejoin:miter;stroke-miterlimit:4;stroke-dasharray:none;stroke-opacity:1"
             d="M -513.20683,497.67996 C -487.16809,512.75368 -476.80944,536.00831 -481.93107,567.33962 C -478.23856,547.29247 -488.96289,525.88439 -460.60669,519.00435 C -433.21496,556.38189 -482.99511,584.51575 -462.02831,605.72351 C -475.78257,591.80641 -457.5671,571.53816 -452.07693,555.96661 C -414.96064,600.53292 -460.646,610.96422 -449.23368,642.68577 C -454.34306,628.00662 -443.31359,607.93112 -435.931,601.76163 C -402.44777,636.92186 -447.36096,645.84993 -437.86068,676.80479 C -441.51397,652.22629 -430.00051,646.18492 -422.2228,635.57764 C -399.55263,671.54665 -412.84535,681.87353 -422.5258,698.43217 C -409.72811,748.69466 -394.3358,763.7611 -399.47679,821.81059 L -417.10914,822.77638 C -411.49498,769.67514 -426.88762,740.81251 -437.93919,706.94096 C -445.40494,695.89486 -474.79781,711.52418 -482.6476,665.7889 C -459.26606,661.83748 -446.62739,671.31463 -439.46334,687.63506 C -453.00088,645.81325 -494.39555,681.58692 -498.9052,630.22539 C -478.24449,625.48359 -463.68039,631.5802 -455.21289,648.5152 C -465.20778,612.14442 -513.49781,641.24196 -513.63866,587.54919 C -491.05878,587.01773 -477.80091,595.03145 -471.4705,609.39534 C -482.32078,574.67259 -523.36255,597.36187 -529.38821,556.05008 C -510.17031,549.2624 -494.60996,550.7042 -486.20395,568.24328 C -488.65795,544.83756 -526.08638,556.32523 -513.20683,497.67996 z "
             id="path2501"
             sodipodi:nodetypes="cccccccccccccccccccccc" />
        </g>
        <path
           id="path2505"
           style="fill:#fcf691;fill-opacity:1;fill-rule:evenodd;stroke:#654500;stroke-width:4.6062994;stroke-linecap:butt;stroke-linejoin:miter;stroke-miterlimit:4;stroke-dasharray:none;stroke-opacity:1"
           d="M 1225.6688,577.72617 L 1210.5775,482.61599 L 1222.5102,481.56311 L 1230.2313,551.40416 L 1225.3178,477.70255 L 1235.8466,477.70255 L 1239.7072,538.06768 L 1238.6543,475.42131 L 1249.5341,475.24583 L 1251.2889,527.88984 L 1252.3418,473.49103 L 1263.2215,473.84199 L 1263.2215,527.53888 L 1266.3802,476.29871 L 1276.2071,476.64967 L 1274.1013,535.26 L 1279.0147,480.15927 L 1290.5964,480.51023 L 1282.1734,558.0724 L 1293.7551,484.01983 L 1305.6877,484.37079 L 1292.3512,575.62041 L 1260.7648,607.20681 L 1225.6688,577.72617 z "
           sodipodi:nodetypes="cccccccccccccccccccccccc" />
        <path
           style="fill:#fcf691;fill-opacity:1;fill-rule:evenodd;stroke:#654500;stroke-width:4.6062994;stroke-linecap:butt;stroke-linejoin:miter;stroke-miterlimit:4;stroke-dasharray:none;stroke-opacity:1"
           d="M 1249.482,875.40772 L 1270.2453,875.40772 C 1271.6264,834.97382 1264.8232,794.15156 1265.2798,754.57938 C 1293.2865,744.86785 1288.2418,720.99138 1291.7627,700.78594 C 1277.0674,706.62784 1266.1924,715.40845 1263.6246,730.57923 C 1264.0996,699.78409 1296.8887,714.45042 1291.7627,663.54433 C 1281.0681,664.03692 1265.4286,664.26064 1263.6246,692.51003 C 1263.3894,650.07406 1294.1608,679.74777 1291.5374,618.80229 C 1275.7887,617.56459 1262.695,629.62106 1261.9955,642.62926 C 1261.5583,613.40314 1293.4223,631.20962 1290.1075,574.99205 C 1278.2121,579.51213 1266.0396,574.951 1258.6591,609.75089 C 1259.7879,575.71058 1287.9306,579.53733 1257.8315,535.26766 C 1232.2783,577.34861 1256.1513,584.30433 1254.4475,598.78377 C 1247.908,581.79721 1238.4872,579.69816 1227.0726,577.02425 C 1226.0217,636.36234 1250.4314,606.2215 1251.6399,648.26914 C 1245.783,617.30884 1236.6511,621.28195 1228.1255,618.78849 C 1226.4846,681.2125 1253.2459,648.88531 1251.9908,692.84106 C 1251.0606,675.87985 1244.922,663.51433 1228.1255,660.55274 C 1225.1725,718.56463 1248.9927,694.06331 1251.9908,730.39379 C 1249.5867,716.67085 1243.0192,706.47073 1228.4765,703.0189 C 1228.1401,724.43015 1231.2506,743.96129 1251.2889,754.25907 L 1249.482,875.40772 z "
           id="path2503"
           sodipodi:nodetypes="cccccccccccccccccccccc" />
      </g>
      <g
         transform="translate(829.751,6.012688)"
         id="g3480">
        <path
           style="opacity:1;fill:white;fill-opacity:1;fill-rule:evenodd;stroke:black;stroke-width:3.54330707;stroke-linecap:round;stroke-linejoin:miter;stroke-miterlimit:4;stroke-dasharray:none;stroke-dashoffset:0;stroke-opacity:1"
           d="M -278.28125,448.375 L -278.28125,462.28125 L -293.5625,462.28125 L -293.5625,474.78125 L -278.28125,474.78125 L -278.28125,511.5 L -265.4375,511.5 L -265.4375,474.78125 L -251.375,474.78125 L -251.375,462.28125 L -265.4375,462.28125 L -265.4375,448.375 L -278.28125,448.375 z "
           id="rect3454" />
        <rect
           style="opacity:1;fill:red;fill-opacity:1;fill-rule:evenodd;stroke:black;stroke-width:3.54330707;stroke-linecap:round;stroke-linejoin:miter;stroke-miterlimit:4;stroke-dasharray:none;stroke-dashoffset:0;stroke-opacity:1"
           id="rect3473"
           width="82.173409"
           height="91.192436"
           x="-312.02167"
           y="527.75171" />
        <path
           style="fill:black;fill-opacity:1;fill-rule:evenodd;stroke:none;stroke-width:3.54330707;stroke-linecap:round;stroke-linejoin:miter;stroke-miterlimit:4;stroke-dashoffset:0;stroke-opacity:1"
           d="M -282.02364,541.36742 C -276.12938,532.44561 -266.08137,532.17574 -259.7027,541.36742 L -259.7027,572.19166 L -282.02364,572.19166 L -282.02364,541.36742 z "
           id="rect3475"
           sodipodi:nodetypes="ccccc" />
        <g
           id="g3467"
           transform="translate(0,-36.07613)">
          <path
             style="fill:red;fill-opacity:1;fill-rule:evenodd;stroke:black;stroke-width:3.54330707;stroke-linecap:butt;stroke-linejoin:miter;stroke-miterlimit:4;stroke-dasharray:none;stroke-opacity:1"
             d="M -410.67744,765.38831 L -271.478,605.26662 L -132.56352,765.88936 L -410.67744,765.38831 z "
             id="path3469"
             sodipodi:nodetypes="cccc" />
        </g>
        <g
           id="g3463">
          <path
             id="path3459"
             d="M -399.65418,755.36716 L -272.12581,608.92078 L -146.09207,755.36716 L -399.65418,755.36716 z "
             style="fill:red;fill-opacity:1;fill-rule:evenodd;stroke:black;stroke-width:3.54330707;stroke-linecap:butt;stroke-linejoin:miter;stroke-miterlimit:4;stroke-dasharray:none;stroke-opacity:1"
             sodipodi:nodetypes="cccc" />
          <rect
             y="647.00336"
             x="-279.59"
             height="33.570843"
             width="17.03595"
             id="rect3461"
             style="opacity:1;fill:black;fill-opacity:1;fill-rule:evenodd;stroke:black;stroke-width:3.54330707;stroke-linecap:round;stroke-linejoin:miter;stroke-miterlimit:4;stroke-dasharray:none;stroke-dashoffset:0;stroke-opacity:1" />
        </g>
        <path
           style="fill:red;fill-opacity:1;fill-rule:evenodd;stroke:black;stroke-width:3.54330707;stroke-linecap:butt;stroke-linejoin:miter;stroke-miterlimit:4;stroke-dasharray:none;stroke-opacity:1"
           d="M -312.49353,527.19535 L -279.18923,510.1889 L -264.66289,510.5432 L -229.94138,527.54965 L -312.49353,527.19535 z "
           id="path3478" />
      </g>
      <g
         transform="matrix(1.006881,0,0,1.006881,-868.1911,-21.4404)"
         id="g2717" />
      <g
         transform="matrix(1.006881,0,0,1.006881,-1002.803,-25.06824)"
         id="g2251">
        <g
           id="g2190"
           transform="translate(-628.0498,0)" />
        <g
           id="g2211"
           transform="translate(-629.804,0)" />
        <g
           id="g2245"
           transform="translate(-624.7934,0)" />
      </g>
      <g
         id="g3870"
         inkscape:label="Warstwa 1"
         transform="matrix(1.004356,0,0,1.004356,-2001.199,602.283)"
         style="stroke:none" />
      <g
         transform="translate(1210.636,0)"
         id="g6790">
        <g
           id="g3414"
           transform="matrix(-0.59071,0,0,0.657688,-805.1973,-175.1837)">
          <path
             sodipodi:nodetypes="ccc"
             id="path3412"
             d="M 381.76764,374.75605 C 420.04274,360.52424 465.84083,404.80047 480.16556,358.89178 C 453.26822,388.92414 414.97168,338.30858 381.76764,374.75605 z "
             style="fill:#f60400;fill-opacity:1;fill-rule:evenodd;stroke:black;stroke-width:3.54330707;stroke-linecap:butt;stroke-linejoin:miter;stroke-miterlimit:4;stroke-dasharray:none;stroke-opacity:1" />
          <g
             transform="matrix(0.872533,0,0,0.872533,2.280111,206.3698)"
             id="g2433">
            <path
               sodipodi:nodetypes="ccccccccccccccccccccccccccc"
               d="M 491.06765,527.00081 C 496.44743,544.06995 540.2917,579.30379 560.65336,601.45569 C 570.36285,607.11797 580.34959,612.28417 596.41892,606.56647 C 620.8869,600.36944 625.76071,586.81262 638.60205,591.02665 C 639.22957,596.64269 638.57693,602.621 647.89578,605.77751 C 647.41314,622.47103 633.73128,618.18743 626.21361,610.90201 C 619.58801,618.3556 610.45438,625.79668 587.57931,617.09476 C 597.50345,626.44168 611.69063,630.40259 625.98768,634.22468 C 634.95398,626.53756 643.44912,635.69225 641.6875,642.80169 C 627.64776,639.82288 630.36419,650.83903 627.65856,657.3266 M 627.65856,657.3266 C 622.25407,655.80096 617.49641,658.22463 610.13932,644.77704 C 596.75796,644.4376 587.76713,638.75365 581.77586,629.41837 L 596.52783,656.08687 C 604.82067,664.63624 599.97793,677.0846 595.50257,678.37168 C 587.93762,671.97394 581.47426,671.22395 576.15244,676.32633 C 564.71471,669.46136 571.9195,663.67528 577.15993,657.77554 C 570.17005,652.64635 569.15262,644.14194 572.91216,632.93792 C 563.02725,639.5267 553.59794,642.60639 545.13987,638.20577 C 537.91939,646.92925 530.87395,646.17053 523.85736,643.84921 C 526.23292,634.16563 521.17276,630.20878 516.87789,625.66252 C 527.74024,611.30803 538.97615,637.71685 563.76178,624.27721 C 547.43629,613.03873 540.13378,608.61733 525.28748,596.86384 C 503.13274,580.59244 466.48525,558.26991 458.70866,542.41506 L 455.58248,523.32756 L 473.19061,517.20704 L 491.06765,527.00081"
               style="fill:#f9f400;fill-opacity:1;fill-rule:evenodd;stroke:black;stroke-width:3.54330707;stroke-linecap:butt;stroke-linejoin:miter;stroke-miterlimit:4;stroke-dasharray:none;stroke-opacity:1"
               id="path5294" />
            <g
               style="fill:black;fill-opacity:1;stroke:#df0029;stroke-width:3.54330707;stroke-miterlimit:4;stroke-dasharray:none;stroke-opacity:1"
               transform="translate(771.425,8.83437)"
               id="g5424">
              <path
                 sodipodi:nodetypes="ccccccccccscsccccscccccsccccccccccccccccccccccccsc"
                 id="path5420"
                 transform="matrix(1.146088,0,0,1.146088,130.8283,-245.3524)"
                 d="M -447.0038,315.63152 L -446.75,891.50198 C -442.3024,887.95481 -432.1817,868.80687 -410.01747,860.02429 C -408.51008,853.85665 -424.9159,857.65826 -432.60757,842.00848 C -411.57138,829.08839 -388.27792,843.24423 -392.51683,855.40133 C -370.41986,836.72052 -381.60923,810.4635 -411.75246,814.45598 C -406.29631,809.98483 -399.42918,803.49238 -398.97404,797.65168 C -425.85665,789.75911 -426.4274,777.07319 -422.52561,762.83033 C -405.12801,808.501 -357.32304,778.62864 -352.60513,823.23683 C -336.38663,826.7812 -330.52036,842.10672 -336.13033,860.69009 C -277.21001,836.50609 -301.60804,783.85669 -337.05453,781.69514 C -398.47768,777.94953 -409.15612,755.85387 -412.20747,744.50351 C -397.76726,743.34637 -396.47684,752.23572 -376.46389,752.9875 C -361.5372,753.54821 -359.06176,745.30138 -347.43155,744.58628 C -353.42029,711.61026 -414.81251,745.6378 -420.34375,711.5 C -415.86432,706.15371 -410.25193,701.94882 -395.9375,706.4375 C -409.72438,695.70371 -417.41609,668.90608 -410.10655,649.38216 C -387.83645,673.3794 -384.55504,675.45859 -387.36012,712.44807 C -387.62117,715.8905 -367.30111,704.85943 -375.06982,680.9247 C -367.57722,704.42199 -363.67016,704.44733 -353.1122,704.02942 C -351.00565,699.07315 -345.55541,686.68643 -358.15808,669.38598 C -340.86466,689.12955 -333.56859,688.18991 -322.125,683.59375 C -342.60229,679.44831 -342.8251,649.0911 -355.90625,643.1875 C -355.90631,643.18052 -355.90643,643.15812 -355.90625,643.15625 C -357.75388,633.25158 -379.12391,604.55846 -378.65625,604.9375 C -398.20512,596.52424 -401.37884,557.51356 -389.00842,523.41314 C -390.33282,547.44164 -364.34345,624.05219 -340.15582,626.9375 C -342.58965,599.18419 -342.45702,581.03562 -340.62457,561.35556 C -336.28728,611.43239 -314.40351,675.8064 -273.875,683.5 C -277.72837,651.45064 -299.78296,604.467 -289.08099,555.32847 C -264.80728,638.51092 -226.77782,720.46074 -175.60693,720.86823 C -191.56667,677.35352 -259.54008,571.47183 -227.61926,534.75833 C -207.98859,584.65668 -189.31161,601.86342 -151.59332,601.92569 C -185.15723,559.96028 -180.92738,536.52331 -189.95068,487.59618 C -176.69986,500.32646 -161.99613,512.19838 -146.27509,506.09462 C -185.89369,460.19202 -170.51438,427.9908 -185.65272,410.4262 C -179.64993,414.73873 -168.47973,430.62886 -152.26393,425.60839 C -199.59626,372.91858 -174.12451,318.01347 -236.16323,310.82911 C -270.16992,312.4813 -257.22611,345.85615 -255.0383,364.34375 C -262.01907,375.3471 -271.52887,401.7944 -261.34036,421.86711 C -274.73586,422.3546 -292.75615,441.03919 -290.2397,452.51069 C -308.93299,452.86311 -321.15813,455.96397 -329.47577,476.79786 C -337.44429,479.26194 -335.43569,480.98866 -343.59375,481.1875 C -368.13228,485.62567 -386.66293,461.0723 -393.63551,433.85983 C -384.11349,438.24456 -375.73723,439.5267 -370.88212,429.35194 C -387.44356,424.7968 -394.31659,418.78789 -398.64934,410.94819 C -394.90332,408.57145 -390.83411,412.08917 -379.52827,411.7068 C -381.5485,397.67038 -407.93241,397.29241 -412.67421,384.51441 C -416.31303,376.05751 -367.81049,334.27762 -374.78388,324.18598 C -389.8554,302.37502 -442.34191,313.31682 -447.0038,315.63152 z "
                 style="fill:black;fill-opacity:1;fill-rule:evenodd;stroke:none;stroke-width:3.54330707;stroke-linecap:butt;stroke-linejoin:miter;stroke-miterlimit:4;stroke-dasharray:none;stroke-opacity:1" />
            </g>
            <g
               style="fill:black;fill-opacity:1;stroke:#df0029;stroke-width:3.54330707;stroke-miterlimit:4;stroke-dasharray:none;stroke-opacity:1"
               transform="translate(771.425,8.83437)"
               id="g5338" />
            <g
               style="fill:black;fill-opacity:1;stroke:#df0029;stroke-width:3.54330707;stroke-miterlimit:4;stroke-dasharray:none;stroke-opacity:1"
               transform="translate(771.425,8.83437)"
               id="g5428" />
            <g
               style="fill:black;fill-opacity:1;stroke:#df0029;stroke-width:3.13107562;stroke-miterlimit:4;stroke-dasharray:none;stroke-opacity:1"
               transform="matrix(1.271083,-0.122007,0.156248,0.992529,825.9303,-31.68961)"
               id="g5342" />
            <path
               sodipodi:nodetypes="cccc"
               id="path5301"
               d="M 637.74308,590.4481 C 637.75014,596.87798 639.10438,602.83959 646.85792,606.57683 C 653.65956,599.98393 661.74981,598.40854 671.85666,604.68518 C 668.37721,586.75145 657.12785,581.80217 637.74308,590.4481 z "
               style="fill:#f9f400;fill-opacity:1;fill-rule:evenodd;stroke:black;stroke-width:3.54330707;stroke-linecap:butt;stroke-linejoin:miter;stroke-miterlimit:4;stroke-dasharray:none;stroke-opacity:1" />
            <path
               sodipodi:nodetypes="cccc"
               id="path5303"
               d="M 641.80677,641.88309 C 648.88768,661.39828 637.87292,664.56681 631.38109,671.82112 C 634.95976,665.70137 635.19327,660.2341 627.31853,656.34837 C 628.2263,646.43465 632.38395,640.74066 641.80677,641.88309 z "
               style="fill:#f9f400;fill-opacity:1;fill-rule:evenodd;stroke:black;stroke-width:3.54330707;stroke-linecap:butt;stroke-linejoin:miter;stroke-miterlimit:4;stroke-dasharray:none;stroke-opacity:1" />
            <path
               sodipodi:nodetypes="cccc"
               id="path5305"
               d="M 576.21208,675.86703 C 577.76035,685.32109 572.94462,691.39792 565.20155,695.92129 C 584.6306,698.71872 593.58818,691.5263 596.42117,678.49094 C 589.9941,675.23419 583.8476,669.81648 576.21208,675.86703 z "
               style="fill:#f9f400;fill-opacity:1;fill-rule:evenodd;stroke:black;stroke-width:3.54330707;stroke-linecap:butt;stroke-linejoin:miter;stroke-miterlimit:4;stroke-dasharray:none;stroke-opacity:1" />
            <path
               sodipodi:nodetypes="cccc"
               id="path5307"
               d="M 516.5975,624.225 C 521.67409,629.35834 527.52888,634.1072 524.89523,643.04989 C 514.06172,643.31492 507.27073,647.34116 504.21537,654.84309 C 498.41084,644.39626 498.93129,634.10279 516.5975,624.225 z "
               style="fill:#f9f400;fill-opacity:1;fill-rule:evenodd;stroke:black;stroke-width:3.54330707;stroke-linecap:butt;stroke-linejoin:miter;stroke-miterlimit:4;stroke-dasharray:none;stroke-opacity:1" />
            <g
               style="fill:black;fill-opacity:1;stroke:#df0029;stroke-width:3.61423635;stroke-miterlimit:4;stroke-dasharray:none;stroke-opacity:1"
               id="g5348"
               transform="matrix(1.10542,-0.409344,0.356605,0.737422,752.7312,-32.72192)" />
            <g
               style="fill:black;fill-opacity:1;stroke:#df0029;stroke-width:3.54330707;stroke-miterlimit:4;stroke-dasharray:none;stroke-opacity:1"
               transform="translate(771.425,8.83437)"
               id="g5412" />
            <g
               style="fill:black;fill-opacity:1;stroke:#df0029;stroke-width:3.61423779;stroke-miterlimit:4;stroke-dasharray:none;stroke-opacity:1"
               transform="matrix(1.008242,-0.610707,0.489431,0.656822,712.8995,-87.20543)"
               id="g5354" />
            <g
               style="fill:black;fill-opacity:1;stroke:#df0029;stroke-width:3.61423659;stroke-miterlimit:4;stroke-dasharray:none;stroke-opacity:1"
               id="g5360"
               transform="matrix(0.711257,-0.940016,0.69748,0.429511,576.0163,-134.0167)" />
            <g
               style="fill:black;fill-opacity:1;stroke:#df0029;stroke-width:3.61423707;stroke-miterlimit:4;stroke-dasharray:none;stroke-opacity:1"
               transform="matrix(0.455982,-1.087013,0.782194,0.243167,481.4673,-145.7101)"
               id="g5366" />
            <g
               style="fill:black;fill-opacity:1;stroke:#df0029;stroke-width:3.2827034;stroke-miterlimit:4;stroke-dasharray:none;stroke-opacity:1"
               transform="matrix(1.091889,0,0,1.067028,779.336,40.9861)"
               id="g5398" />
            <g
               style="fill:black;fill-opacity:1;stroke:#df0029;stroke-width:3.61423707;stroke-miterlimit:4;stroke-dasharray:none;stroke-opacity:1"
               id="g5372"
               transform="matrix(0.455982,-1.087013,0.782194,0.243167,482.6728,-183.0791)" />
            <g
               style="fill:black;fill-opacity:1;stroke:#df0029;stroke-width:3.54330707;stroke-miterlimit:4;stroke-dasharray:none;stroke-opacity:1"
               transform="translate(771.425,8.83437)"
               id="g5394" />
            <g
               style="fill:black;fill-opacity:1;stroke:#df0029;stroke-width:4.02591944;stroke-miterlimit:4;stroke-dasharray:none;stroke-opacity:1"
               id="g5384"
               transform="matrix(0.241536,-0.929867,0.814117,7.285505e-2,419.6579,-141.7709)" />
            <g
               style="fill:black;fill-opacity:1;stroke:#df0029;stroke-width:4.02591944;stroke-miterlimit:4;stroke-dasharray:none;stroke-opacity:1"
               transform="matrix(0.241536,-0.929867,0.814117,7.285505e-2,416.0415,-109.8264)"
               id="g5378" />
            <g
               style="fill:black;fill-opacity:1;stroke:#df0029;stroke-width:3.54330707;stroke-miterlimit:4;stroke-dasharray:none;stroke-opacity:1"
               transform="translate(771.425,8.83437)"
               id="g5254">
              <path
                 style="fill:white;fill-opacity:1;fill-rule:evenodd;stroke:black;stroke-width:3.54330707;stroke-linecap:butt;stroke-linejoin:miter;stroke-miterlimit:4;stroke-dasharray:none;stroke-opacity:1"
                 d="M -361.80076,143.40177 C -348.54962,133.79426 -337.3704,122.25407 -318.6914,136.66359 C -332.38632,150.93268 -345.34785,153.53935 -361.80076,143.40177 z "
                 id="path5180"
                 sodipodi:nodetypes="ccc" />
              <path
                 transform="translate(-2.292411,-2.292411)"
                 sodipodi:type="arc"
                 style="fill:black;fill-opacity:1;stroke:none;stroke-width:3.54330707;stroke-linecap:round;stroke-linejoin:round;stroke-miterlimit:4;stroke-dasharray:none;stroke-opacity:1"
                 id="path5182"
                 sodipodi:cx="-334.8356"
                 sodipodi:cy="139.7281"
                 sodipodi:rx="7.3370352"
                 sodipodi:ry="7.0035338"
                 d="M -327.49857 139.7281 A 7.3370352 7.0035338 0 1 1  -342.17264,139.7281 A 7.3370352 7.0035338 0 1 1  -327.49857 139.7281 z" />
            </g>
            <path
               style="fill:#f9f400;fill-opacity:1;fill-rule:evenodd;stroke:black;stroke-width:3.54330707;stroke-linecap:butt;stroke-linejoin:miter;stroke-miterlimit:4;stroke-dasharray:none;stroke-opacity:1"
               d="M 496.88777,181.69637 C 520.39084,153.99833 495.38302,130.13389 467.41909,135.18208 C 464.04949,166.96515 385.90389,159.93761 426.21539,205.15879 C 449.28671,214.19003 479.57607,203.38368 485.84067,195.25037 C 458.48344,195.53757 439.45452,191.64701 441.93257,185.70427 C 443.82611,174.18659 494.25578,157.88273 496.88777,181.69637 z "
               id="path6228"
               sodipodi:nodetypes="cccccc" />
          </g>
        </g>
        <g
           transform="matrix(0.581419,0,0,0.647343,-1206.322,-169.1629)"
           id="g5851">
          <g
             id="g5855"
             transform="matrix(0.872533,0,0,0.872533,2.280111,206.3698)">
            <path
               id="path5857"
               style="fill:#f9f400;fill-opacity:1;fill-rule:evenodd;stroke:black;stroke-width:3.54330707;stroke-linecap:butt;stroke-linejoin:miter;stroke-miterlimit:4;stroke-dasharray:none;stroke-opacity:1"
               d="M 491.06765,527.00081 C 496.44743,544.06995 540.2917,579.30379 560.65336,601.45569 C 570.36285,607.11797 580.34959,612.28417 596.41892,606.56647 C 620.8869,600.36944 625.76071,586.81262 638.60205,591.02665 C 639.22957,596.64269 638.57693,602.621 647.89578,605.77751 C 647.41314,622.47103 633.73128,618.18743 626.21361,610.90201 C 619.58801,618.3556 610.45438,625.79668 587.57931,617.09476 C 597.50345,626.44168 611.69063,630.40259 625.98768,634.22468 C 634.95398,626.53756 643.44912,635.69225 641.6875,642.80169 C 627.64776,639.82288 630.36419,650.83903 627.65856,657.3266 M 627.65856,657.3266 C 622.25407,655.80096 617.49641,658.22463 610.13932,644.77704 C 596.75796,644.4376 587.76713,638.75365 581.77586,629.41837 L 596.52783,656.08687 C 604.82067,664.63624 599.97793,677.0846 595.50257,678.37168 C 587.93762,671.97394 581.47426,671.22395 576.15244,676.32633 C 564.71471,669.46136 571.9195,663.67528 577.15993,657.77554 C 570.17005,652.64635 569.15262,644.14194 572.91216,632.93792 C 563.02725,639.5267 553.59794,642.60639 545.13987,638.20577 C 537.91939,646.92925 530.87395,646.17053 523.85736,643.84921 C 526.23292,634.16563 521.17276,630.20878 516.87789,625.66252 C 527.74024,611.30803 538.97615,637.71685 563.76178,624.27721 C 547.43629,613.03873 540.13378,608.61733 525.28748,596.86384 C 503.13274,580.59244 466.48525,558.26991 458.70866,542.41506 L 455.58248,523.32756 L 473.19061,517.20704 L 491.06765,527.00081"
               sodipodi:nodetypes="ccccccccccccccccccccccccccc" />
            <g
               id="g5859"
               transform="translate(771.425,8.83437)"
               style="fill:black;fill-opacity:1;stroke:#df0029;stroke-width:3.54330707;stroke-miterlimit:4;stroke-dasharray:none;stroke-opacity:1">
              <path
                 style="fill:red;fill-opacity:1;fill-rule:evenodd;stroke:black;stroke-width:3.54330707;stroke-linecap:butt;stroke-linejoin:miter;stroke-miterlimit:4;stroke-dasharray:none;stroke-opacity:1"
                 d="M -447.0038,311.68424 L -446.75,891.50198 C -442.3024,887.95481 -432.1817,868.80687 -410.01747,860.02429 C -408.51008,853.85665 -424.9159,857.65826 -432.60757,842.00848 C -411.57138,829.08839 -388.27792,843.24423 -392.51683,855.40133 C -370.41986,836.72052 -381.60923,810.4635 -411.75246,814.45598 C -406.29631,809.98483 -399.42918,803.49238 -398.97404,797.65168 C -425.85665,789.75911 -426.4274,777.07319 -422.52561,762.83033 C -405.12801,808.501 -357.32304,778.62864 -352.60513,823.23683 C -336.38663,826.7812 -330.52036,842.10672 -336.13033,860.69009 C -277.21001,836.50609 -301.60804,783.85669 -337.05453,781.69514 C -398.47768,777.94953 -409.15612,755.85387 -412.20747,744.50351 C -397.76726,743.34637 -396.47684,752.23572 -376.46389,752.9875 C -361.5372,753.54821 -359.06176,745.30138 -347.43155,744.58628 C -353.42029,711.61026 -414.81251,745.6378 -420.34375,711.5 C -415.86432,706.15371 -410.25193,701.94882 -395.9375,706.4375 C -409.72438,695.70371 -417.41609,668.90608 -410.10655,649.38216 C -387.83645,673.3794 -384.55504,675.45859 -387.36012,712.44807 C -387.62117,715.8905 -367.30111,704.85943 -375.06982,680.9247 C -367.57722,704.42199 -363.67016,704.44733 -353.1122,704.02942 C -351.00565,699.07315 -345.55541,686.68643 -358.15808,669.38598 C -340.86466,689.12955 -333.56859,688.18991 -322.125,683.59375 C -342.60229,679.44831 -342.8251,649.0911 -355.90625,643.1875 C -355.90631,643.18052 -355.90506,643.15779 -355.90625,643.15625 C -365.3469,630.97833 -385.8487,623.02028 -392.69783,608.08926 C -407.35681,552.65242 -409.94605,549.85428 -387.44378,513.64516 C -388.76818,537.67366 -394.15117,605.03603 -360.07664,615.5328 C -362.51047,587.77949 -349.68001,560.27984 -347.84756,540.59978 C -343.51027,590.67661 -327.10134,652.99699 -286.57283,660.69059 C -290.4262,628.64123 -311.57892,574.03365 -284.84375,535.03125 C -271.86935,616.94512 -238.07714,716.65501 -186.90625,717.0625 C -202.86599,673.54779 -268.01457,541.026 -236.09375,504.3125 C -216.46308,554.21085 -202.35907,612.80958 -160.40354,602.72324 C -193.96745,560.75783 -192.2267,508.61463 -201.25,459.6875 C -186.92278,487.40284 -183.14393,507.03568 -161.97256,506.73515 C -167.68752,490.73617 -180.20084,416.95538 -196.06631,411.42853 C -187.24476,413.31735 -180.26771,419.98364 -160.46332,418.50935 C -200.76071,379.22739 -200.64769,296.1897 -241.94645,302.25887 C -258.41873,304.67959 -274.42364,310.33509 -266.36923,355.29012 C -273.35,366.29347 -281.76891,387.14916 -271.5804,407.22187 C -284.9759,407.70936 -289.57044,428.27524 -287.05399,439.74674 C -305.74728,440.09916 -320.53254,448.25598 -319.25,477.28125 C -327.21852,479.74533 -335.43569,480.98866 -343.59375,481.1875 C -343.92813,468.77779 -359.76778,457.80501 -385.20811,462.35473 C -392.14167,434.81235 -413.19515,443.56955 -414.78524,427.27723 C -409.47406,423.39678 -396.0001,410.59533 -396.02726,403.23902 C -405.31409,395.34077 -415.96353,381.86475 -394.99735,379.97822 C -409.27795,370.8493 -411.25757,355.9777 -396.955,345.29427 C -440.89258,325.98915 -387.18666,323.72529 -394.68959,303.39124 C -419.31535,319.58609 -430.56848,308.79987 -447.0038,311.68424 z "
                 transform="matrix(1.146088,0,0,1.146088,130.8283,-245.3524)"
                 id="path5861"
                 sodipodi:nodetypes="ccccccccccscsccccscccccscccccccccccccscccccccccccc" />
            </g>
            <g
               id="g5863"
               transform="translate(771.425,8.83437)"
               style="fill:black;fill-opacity:1;stroke:#df0029;stroke-width:3.54330707;stroke-miterlimit:4;stroke-dasharray:none;stroke-opacity:1" />
            <g
               id="g5865"
               transform="translate(771.425,8.83437)"
               style="fill:black;fill-opacity:1;stroke:#df0029;stroke-width:3.54330707;stroke-miterlimit:4;stroke-dasharray:none;stroke-opacity:1" />
            <g
               id="g5867"
               transform="matrix(1.271083,-0.122007,0.156248,0.992529,825.9303,-31.68961)"
               style="fill:black;fill-opacity:1;stroke:#df0029;stroke-width:3.13107562;stroke-miterlimit:4;stroke-dasharray:none;stroke-opacity:1" />
            <path
               style="fill:#f9f400;fill-opacity:1;fill-rule:evenodd;stroke:black;stroke-width:3.54330707;stroke-linecap:butt;stroke-linejoin:miter;stroke-miterlimit:4;stroke-dasharray:none;stroke-opacity:1"
               d="M 637.74308,590.4481 C 637.75014,596.87798 639.10438,602.83959 646.85792,606.57683 C 653.65956,599.98393 661.74981,598.40854 671.85666,604.68518 C 668.37721,586.75145 657.12785,581.80217 637.74308,590.4481 z "
               id="path5869"
               sodipodi:nodetypes="cccc" />
            <path
               style="fill:#f9f400;fill-opacity:1;fill-rule:evenodd;stroke:black;stroke-width:3.54330707;stroke-linecap:butt;stroke-linejoin:miter;stroke-miterlimit:4;stroke-dasharray:none;stroke-opacity:1"
               d="M 641.80677,641.88309 C 648.88768,661.39828 637.87292,664.56681 631.38109,671.82112 C 634.95976,665.70137 635.19327,660.2341 627.31853,656.34837 C 628.2263,646.43465 632.38395,640.74066 641.80677,641.88309 z "
               id="path5871"
               sodipodi:nodetypes="cccc" />
            <path
               style="fill:#f9f400;fill-opacity:1;fill-rule:evenodd;stroke:black;stroke-width:3.54330707;stroke-linecap:butt;stroke-linejoin:miter;stroke-miterlimit:4;stroke-dasharray:none;stroke-opacity:1"
               d="M 576.21208,675.86703 C 577.76035,685.32109 572.94462,691.39792 565.20155,695.92129 C 584.6306,698.71872 593.58818,691.5263 596.42117,678.49094 C 589.9941,675.23419 583.8476,669.81648 576.21208,675.86703 z "
               id="path5873"
               sodipodi:nodetypes="cccc" />
            <path
               style="fill:#f9f400;fill-opacity:1;fill-rule:evenodd;stroke:black;stroke-width:3.54330707;stroke-linecap:butt;stroke-linejoin:miter;stroke-miterlimit:4;stroke-dasharray:none;stroke-opacity:1"
               d="M 516.5975,624.225 C 521.67409,629.35834 527.52888,634.1072 524.89523,643.04989 C 514.06172,643.31492 507.27073,647.34116 504.21537,654.84309 C 498.41084,644.39626 498.93129,634.10279 516.5975,624.225 z "
               id="path5875"
               sodipodi:nodetypes="cccc" />
            <g
               transform="matrix(1.10542,-0.409344,0.356605,0.737422,752.7312,-32.72192)"
               id="g5877"
               style="fill:black;fill-opacity:1;stroke:#df0029;stroke-width:3.61423635;stroke-miterlimit:4;stroke-dasharray:none;stroke-opacity:1" />
            <g
               id="g5879"
               transform="translate(771.425,8.83437)"
               style="fill:black;fill-opacity:1;stroke:#df0029;stroke-width:3.54330707;stroke-miterlimit:4;stroke-dasharray:none;stroke-opacity:1" />
            <g
               id="g5881"
               transform="matrix(1.008242,-0.610707,0.489431,0.656822,712.8995,-87.20543)"
               style="fill:black;fill-opacity:1;stroke:#df0029;stroke-width:3.61423779;stroke-miterlimit:4;stroke-dasharray:none;stroke-opacity:1" />
            <g
               transform="matrix(0.711257,-0.940016,0.69748,0.429511,576.0163,-134.0167)"
               id="g5883"
               style="fill:black;fill-opacity:1;stroke:#df0029;stroke-width:3.61423659;stroke-miterlimit:4;stroke-dasharray:none;stroke-opacity:1" />
            <g
               id="g5885"
               transform="matrix(0.455982,-1.087013,0.782194,0.243167,481.4673,-145.7101)"
               style="fill:black;fill-opacity:1;stroke:#df0029;stroke-width:3.61423707;stroke-miterlimit:4;stroke-dasharray:none;stroke-opacity:1" />
            <g
               id="g5887"
               transform="matrix(1.091889,0,0,1.067028,779.336,40.9861)"
               style="fill:black;fill-opacity:1;stroke:#df0029;stroke-width:3.2827034;stroke-miterlimit:4;stroke-dasharray:none;stroke-opacity:1" />
            <g
               transform="matrix(0.455982,-1.087013,0.782194,0.243167,482.6728,-183.0791)"
               id="g5889"
               style="fill:black;fill-opacity:1;stroke:#df0029;stroke-width:3.61423707;stroke-miterlimit:4;stroke-dasharray:none;stroke-opacity:1" />
            <g
               id="g5891"
               transform="translate(771.425,8.83437)"
               style="fill:black;fill-opacity:1;stroke:#df0029;stroke-width:3.54330707;stroke-miterlimit:4;stroke-dasharray:none;stroke-opacity:1" />
            <g
               transform="matrix(0.241536,-0.929867,0.814117,7.285505e-2,419.6579,-141.7709)"
               id="g5893"
               style="fill:black;fill-opacity:1;stroke:#df0029;stroke-width:4.02591944;stroke-miterlimit:4;stroke-dasharray:none;stroke-opacity:1" />
            <g
               id="g5895"
               transform="matrix(0.241536,-0.929867,0.814117,7.285505e-2,416.0415,-109.8264)"
               style="fill:black;fill-opacity:1;stroke:#df0029;stroke-width:4.02591944;stroke-miterlimit:4;stroke-dasharray:none;stroke-opacity:1" />
            <g
               id="g5897"
               transform="translate(771.425,8.83437)"
               style="fill:black;fill-opacity:1;stroke:#df0029;stroke-width:3.54330707;stroke-miterlimit:4;stroke-dasharray:none;stroke-opacity:1" />
          </g>
        </g>
      </g>
    </g>
  </g>
</svg>
