<?xml version="1.0" encoding="UTF-8" standalone="no"?>
<!-- Creator: CorelDRAW -->
<svg
   xmlns:dc="http://purl.org/dc/elements/1.1/"
   xmlns:cc="http://web.resource.org/cc/"
   xmlns:rdf="http://www.w3.org/1999/02/22-rdf-syntax-ns#"
   xmlns:svg="http://www.w3.org/2000/svg"
   xmlns="http://www.w3.org/2000/svg"
   xmlns:sodipodi="http://sodipodi.sourceforge.net/DTD/sodipodi-0.dtd"
   xmlns:inkscape="http://www.inkscape.org/namespaces/inkscape"
   xml:space="preserve"
   width="744"
   height="892.66602"
   style="shape-rendering:geometricPrecision; text-rendering:geometricPrecision; image-rendering:optimizeQuality; fill-rule:evenodd; clip-rule:evenodd"
   viewBox="0 0 210 297"
   id="svg2"
   sodipodi:version="0.32"
   inkscape:version="0.45.1"
   sodipodi:docname="POL gmina Kostomłoty COA.svg"
   inkscape:output_extension="org.inkscape.output.svg.inkscape"
   sodipodi:docbase="C:\Users\Mistrz\Desktop"
   version="1.0"><metadata
   id="metadata107"><rdf:RDF><cc:Work
       rdf:about=""><dc:format>image/svg+xml</dc:format><dc:type
         rdf:resource="http://purl.org/dc/dcmitype/StillImage" /></cc:Work></rdf:RDF></metadata><sodipodi:namedview
   inkscape:window-height="480"
   inkscape:window-width="640"
   inkscape:pageshadow="2"
   inkscape:pageopacity="0.0"
   guidetolerance="10.0"
   gridtolerance="10.0"
   objecttolerance="10.0"
   borderopacity="1.0"
   bordercolor="#666666"
   pagecolor="#ffffff"
   id="base" />
 <defs
   id="defs4">
  <style
   type="text/css"
   id="style6">
   
    .str0 {stroke:#1F1A17;stroke-width:0.0762}
    .str1 {stroke:#1F1A17;stroke-width:0.0975}
    .str3 {stroke:#1F1A17;stroke-width:0.1219}
    .str2 {stroke:#1F1A17;stroke-width:0.1219;stroke-linecap:round;stroke-linejoin:round}
    .fil5 {fill:none}
    .fil8 {fill:none;fill-rule:nonzero}
    .fil0 {fill:#0A0B0C}
    .fil4 {fill:#1F1A17}
    .fil3 {fill:#DA251D}
    .fil7 {fill:#F2AEA9}
    .fil6 {fill:#F8C300}
    .fil1 {fill:white}
    .fil2 {fill:#1F1A17;fill-rule:nonzero}
   
  </style>
 </defs>
 <g
   id="Warstwa_x0020_1"
   transform="matrix(9.9518823,0,0,9.9518823,-939.94764,-1329.3565)">
  <metadata
   id="CorelCorpID_0Corel-Layer" />
  <g
   id="_109032272">
   <path
   id="_75106280"
   class="fil0"
   d="M 92.5633,150.594 L 92.5989,133.5784 L 117.3822,133.6062 L 117.4367,151.3549 C 117.1452,157.4446 111.9754,160.9572 104.8222,163.422 C 97.5495,161.0212 92.8032,155.8483 92.5633,150.594 L 92.5633,150.594 z "
   style="fill:#0a0b0c" />
   <path
   id="_75106328"
   class="fil1"
   d="M 93.1226,150.499 L 93.1566,134.1388 L 116.8239,134.1655 L 116.8759,151.2306 C 116.5975,157.0857 111.6605,160.4631 104.8295,162.8329 C 97.8843,160.5246 93.3517,155.5509 93.1226,150.499 z "
   style="fill:#ffffff" />
   <path
   id="_75106472"
   class="fil2"
   d="M 106.108,140.389 L 106.2579,140.2364 C 106.2642,140.2298 106.2714,140.2245 106.279,140.2203 L 106.2788,140.2199 L 106.4519,140.1212 C 106.4884,140.1002 106.5329,140.1058 106.5633,140.1315 L 107.295,140.6749 C 107.4099,140.7034 107.9519,140.861 108.3011,141.3565 C 108.5478,141.6611 108.7072,141.9913 108.9233,142.3094 C 108.9831,142.3582 109.4293,142.7513 109.3312,143.5685 C 109.3304,143.5765 109.3285,143.5842 109.3259,143.5913 L 109.3135,143.6338 C 109.397,143.6388 109.4941,143.6939 109.5897,143.8591 C 109.5975,143.8726 109.6018,143.8872 109.6026,143.9016 L 109.6347,144.1521 L 109.7308,144.1824 C 109.7654,144.1934 109.7895,144.2218 109.7967,144.2549 C 109.8128,144.3101 109.9274,144.7088 109.944,144.9741 C 110.032,145.0852 110.3702,145.5364 110.3702,145.9085 L 110.3701,145.9108 L 110.3702,145.9108 C 110.3701,145.9144 110.3374,147.1442 110.3963,147.4146 C 110.4354,147.4903 110.5928,147.8383 110.4095,148.2529 C 110.4065,148.2596 110.4028,148.2659 110.3988,148.2715 C 110.3528,148.3434 109.8021,149.2302 109.9517,150.1525 C 109.9522,150.1558 109.9525,150.1591 109.9528,150.1625 L 109.9528,150.1625 C 109.953,150.1657 110.0264,151.2833 109.7426,151.7322 L 109.4633,152.6656 C 109.448,152.7171 109.3938,152.7465 109.3422,152.7311 C 109.3209,152.7248 109.3034,152.7118 109.2913,152.6952 C 109.2476,152.6417 108.7789,152.0676 108.7789,151.9175 C 108.7789,151.9118 108.7794,151.9062 108.7803,151.9009 L 108.9085,150.6749 L 108.905,150.5521 C 108.8343,150.5533 108.6539,150.5649 108.6539,150.6545 C 108.6539,150.658 108.6538,150.6615 108.6534,150.6649 C 108.6518,150.7475 108.6362,151.3687 108.5032,151.6148 C 108.479,151.6701 108.1994,152.3181 108.1994,152.9054 C 108.1994,152.9388 108.1826,152.9683 108.1571,152.9859 L 107.1726,153.782 C 107.1529,153.8843 107.0756,154.1377 106.7742,154.361 C 106.7054,154.4524 106.2792,154.9866 105.5747,155.2035 C 105.5542,155.2098 105.5334,155.2089 105.5146,155.2024 L 105.5145,155.2026 C 105.509,155.2008 103.5677,154.5389 103.0289,153.914 L 103.0288,153.914 L 102.9897,153.871 C 102.9723,153.852 102.9639,153.8279 102.9644,153.8038 L 102.9346,152.8973 L 102.8198,152.7333 L 102.529,152.4223 L 102.5287,152.4224 L 102.1568,152.0495 C 102.0918,152.0441 101.9496,152.037 101.919,152.0764 L 102.0652,153.1678 L 102.0653,153.1682 L 102.1525,153.7287 C 102.1607,153.7816 102.1243,153.8314 102.0713,153.8394 C 102.0512,153.8425 102.0317,153.8393 102.0147,153.8312 L 102.0146,153.8315 C 102.0119,153.8302 101.0912,153.4136 100.5538,151.3165 C 100.5531,151.3133 100.5524,151.3102 100.552,151.307 L 100.5515,151.307 C 100.5512,151.3043 100.4108,150.3705 100.4003,149.4099 L 100.4003,149.4099 C 100.4001,149.404 100.3402,147.4055 100.5662,146.8065 L 100.6273,146.2273 L 100.6273,145.425 C 100.6273,145.3844 100.6522,145.3497 100.6874,145.335 C 100.7288,145.3121 100.9487,145.1806 100.9841,144.9642 C 100.9805,144.8924 100.9745,144.4769 101.3051,144.2113 C 101.2878,143.9879 101.2579,143.159 101.7229,142.7516 L 101.9002,142.5478 L 101.9385,142.0023 C 101.9399,141.9817 101.9476,141.9628 101.9597,141.9479 L 101.9597,141.9479 L 101.9598,141.9477 L 101.9626,141.9446 C 101.9929,141.9076 102.277,141.566 102.4572,141.4742 C 102.5562,141.3471 103.1203,140.6471 103.7533,140.376 C 103.8142,140.3269 104.1055,140.1006 104.3315,140.08 L 104.3343,140.0799 L 104.3343,140.0798 C 104.3352,140.0796 104.6641,140.0525 104.7154,140.2153 C 104.731,140.2552 104.9301,140.7503 105.1855,140.7531 C 105.2628,140.7364 105.8191,140.6111 106.108,140.389 L 106.108,140.389 z M 106.3867,140.3827 L 106.2431,140.529 C 106.2399,140.5322 106.2366,140.5352 106.2329,140.538 C 105.8876,140.8079 105.2177,140.945 105.2159,140.9454 L 105.2159,140.9453 C 105.2103,140.9466 105.2045,140.9472 105.1987,140.9473 C 104.7905,140.9593 104.5336,140.2846 104.5329,140.2825 L 104.5329,140.2824 C 104.5313,140.2781 104.5297,140.2733 104.5287,140.2685 C 104.5273,140.262 104.3468,140.2738 104.3465,140.2738 L 104.3465,140.2738 C 104.1615,140.2925 103.8882,140.5168 103.8679,140.5337 C 103.8603,140.5404 103.8513,140.5458 103.8415,140.5499 C 103.1995,140.8182 102.6194,141.5814 102.5978,141.61 C 102.5871,141.6248 102.5718,141.6366 102.5533,141.6436 C 102.4367,141.6874 102.1992,141.9644 102.1304,142.0468 L 102.0921,142.5933 L 102.0921,142.5933 C 102.0907,142.6137 102.0829,142.6337 102.0684,142.6504 L 101.8683,142.8807 C 101.8645,142.8854 101.8602,142.8898 101.8554,142.8939 C 101.3994,143.286 101.4984,144.1973 101.5037,144.2432 C 101.5085,144.2783 101.4938,144.3149 101.4627,144.3365 C 101.1432,144.5583 101.1789,144.96 101.179,144.9611 L 101.1789,144.9611 C 101.1794,144.9676 101.1791,144.9743 101.1782,144.9811 C 101.142,145.2435 100.9246,145.4133 100.8223,145.4798 L 100.8223,146.2299 L 100.8221,146.2299 C 100.8221,146.2332 100.8219,146.2365 100.8216,146.2399 L 100.7584,146.8383 L 100.7584,146.8383 C 100.7575,146.847 100.7554,146.8557 100.7519,146.8642 C 100.5347,147.4085 100.5944,149.3988 100.5946,149.4045 L 100.5946,149.4045 L 100.5946,149.4065 C 100.6044,150.3282 100.7378,151.234 100.744,151.2763 C 101.1149,152.7181 101.6536,153.317 101.9263,153.5394 L 101.873,153.1966 L 101.8724,153.193 L 101.723,152.077 L 101.723,152.077 C 101.7216,152.0657 101.7221,152.0538 101.7248,152.042 C 101.7813,151.8079 102.211,151.8591 102.2122,151.8592 L 102.2121,151.8595 C 102.2331,151.8619 102.2536,151.8713 102.2696,151.8874 L 102.6666,152.2852 L 102.6665,152.2854 L 102.6685,152.2875 L 102.9638,152.6032 C 102.9681,152.6073 102.972,152.6119 102.9756,152.617 L 103.1081,152.8066 C 103.1199,152.8219 103.1271,152.8412 103.1279,152.8622 L 103.1576,153.7663 L 103.1727,153.783 L 103.1726,153.783 L 103.1746,153.7852 C 103.6391,154.3272 105.3045,154.923 105.5477,155.008 C 106.2015,154.7953 106.5846,154.291 106.6226,154.2392 C 106.629,154.2289 106.6374,154.2198 106.6478,154.2122 C 106.9721,153.9774 106.9849,153.7257 106.9849,153.725 L 106.9849,153.725 C 106.9863,153.6984 106.9987,153.6724 107.0209,153.6546 L 108.0051,152.8586 C 108.019,152.2501 108.2968,151.6016 108.3251,151.537 C 108.3266,151.5328 108.3286,151.5285 108.3308,151.5244 C 108.4441,151.3194 108.4579,150.7374 108.4592,150.6616 C 108.459,150.6594 108.4589,150.6568 108.4589,150.6545 C 108.4589,150.421 108.7202,150.3708 108.8565,150.3604 L 108.8971,150.1779 L 108.8972,150.1779 C 108.9065,150.1354 108.9438,150.1031 108.9894,150.1018 C 109.043,150.1004 109.0877,150.1426 109.089,150.1963 L 109.1028,150.6712 C 109.1033,150.6771 109.1033,150.683 109.1026,150.6893 L 108.9739,151.9191 C 108.9774,151.98 109.1913,152.2584 109.3298,152.4328 L 109.559,151.666 C 109.5617,151.6559 109.566,151.646 109.5721,151.6369 C 109.8206,151.2642 109.7628,150.2466 109.7587,150.1776 C 109.6027,149.1973 110.1733,148.2641 110.2336,148.1689 C 110.3851,147.8204 110.244,147.5409 110.2228,147.5022 C 110.2169,147.4932 110.2124,147.483 110.2095,147.4721 C 110.142,147.2013 110.1754,145.9285 110.176,145.9068 C 110.1747,145.5647 109.8064,145.1119 109.7759,145.075 C 109.7611,145.0584 109.752,145.0368 109.7513,145.013 C 109.7451,144.8082 109.6578,144.4778 109.6227,144.3527 L 109.517,144.3193 L 109.5171,144.3191 C 109.4821,144.3079 109.4549,144.2773 109.4501,144.2387 L 109.4118,143.9408 C 109.3183,143.7916 109.2464,143.8536 109.2327,143.8679 C 109.2065,143.9033 109.1584,143.9173 109.1163,143.8994 C 109.0668,143.8783 109.0438,143.8212 109.0648,143.7718 C 109.0831,143.7293 109.1263,143.5824 109.1384,143.5403 C 109.1985,143.0266 109.0227,142.7138 108.902,142.5646 C 108.8067,142.8092 108.6159,143.1853 108.6088,143.1996 C 108.5875,143.2419 108.5378,143.2634 108.4915,143.248 C 108.4406,143.2312 108.4129,143.1763 108.4298,143.1254 C 108.5541,142.7528 108.5841,142.208 108.5881,142.1232 C 108.5575,141.984 108.187,141.5244 108.1502,141.4789 C 108.1477,141.4761 108.1452,141.4731 108.143,141.4699 C 107.7955,140.9756 107.235,140.8605 107.2335,140.8601 L 107.2335,140.8601 C 107.22,140.8573 107.2071,140.8516 107.1954,140.843 L 106.4935,140.3218 L 106.3867,140.3827 L 106.3867,140.3827 z "
   style="fill:#1f1a17;fill-rule:nonzero" />
   <path
   id="_75106568"
   class="fil3"
   d="M 106.173,140.461 L 106.3272,140.3041 L 106.5001,140.2052 L 107.2533,140.7645 C 107.2533,140.7645 107.8529,140.8877 108.2226,141.4136 C 108.2226,141.4136 108.6612,141.9515 108.6857,142.1153 C 108.6857,142.1153 108.6612,142.7378 108.522,143.1554 C 108.522,143.1554 108.8576,142.4958 108.8576,142.3813 C 108.8576,142.3813 109.3328,142.7378 109.2345,143.5568 C 109.2345,143.5568 109.1789,143.7524 109.1544,143.8096 C 109.1544,143.8096 109.3258,143.5972 109.5055,143.9076 L 109.5464,144.226 L 109.7014,144.275 C 109.7014,144.275 109.8403,144.7405 109.8485,145.01 C 109.8485,145.01 110.2732,145.5161 110.2732,145.9081 C 110.2732,145.9081 110.239,147.1875 110.3041,147.4479 C 110.3041,147.4479 110.5077,147.7899 110.3204,148.2133 C 110.3204,148.2133 109.6937,149.1697 109.8557,150.1678 C 109.8557,150.1678 109.9285,151.2778 109.6532,151.6906 L 109.3701,152.6375 C 109.3701,152.6375 108.8764,152.0385 108.8764,151.9171 L 109.0058,150.6789 L 108.9919,150.1985 L 108.9348,150.4548 C 108.9348,150.4548 108.5563,150.4408 108.5563,150.6541 C 108.5563,150.6541 108.5487,151.3308 108.4161,151.5708 C 108.4161,151.5708 108.102,152.2718 108.102,152.905 L 107.0819,153.7299 C 107.0819,153.7299 107.0668,154.0288 106.7049,154.2907 C 106.7049,154.2907 106.2851,154.8827 105.5461,155.1101 C 105.5461,155.1101 103.6191,154.453 103.1008,153.8482 L 103.0617,153.8051 L 103.0308,152.8649 L 102.896,152.6723 L 102.5977,152.3534 L 102.2008,151.9556 C 102.2008,151.9556 101.8554,151.9142 101.8193,152.064 L 101.9687,153.1801 L 102.0565,153.7431 C 102.0565,153.7431 101.1738,153.344 100.6479,151.2921 C 100.6479,151.2921 100.5077,150.3588 100.4974,149.4067 C 100.4974,149.4067 100.4369,147.3911 100.6616,146.828 L 100.7248,146.2295 L 100.7248,145.4246 C 100.7248,145.4246 101.0411,145.2623 101.0819,144.9675 C 101.0819,144.9675 101.0411,144.5103 101.4071,144.2561 C 101.4071,144.2561 101.285,143.2557 101.7923,142.8196 L 101.9949,142.5864 L 102.0357,142.0083 C 102.0357,142.0083 102.3576,141.6129 102.5194,141.5521 C 102.5194,141.5521 103.1264,140.7428 103.8042,140.4596 C 103.8042,140.4596 104.1177,140.1966 104.3403,140.1763 C 104.3403,140.1763 104.6033,140.1562 104.6236,140.2471 C 104.6236,140.2471 104.8571,140.8597 105.196,140.8499 C 105.196,140.8499 105.846,140.7167 106.173,140.461 L 106.173,140.461 z "
   style="fill:#da251d" />
   <path
   id="_75106640"
   class="fil4"
   d="M 104.831,160.049 L 104.831,159.9784 L 104.8308,159.976 L 104.8298,159.9671 L 104.8267,159.9521 L 104.8207,159.9317 L 104.8109,159.9066 L 104.7964,159.877 L 104.7758,159.8436 L 104.748,159.8069 L 104.7115,159.7671 L 104.6648,159.7253 L 104.6066,159.6818 L 104.5353,159.6375 L 104.4495,159.5932 L 104.3479,159.5503 L 104.1087,159.4682 L 104.1087,159.3923 L 104.1059,159.3952 L 104.0872,159.4145 L 104.0687,159.4354 L 104.051,159.4575 L 104.0346,159.4802 L 104.0202,159.5032 L 104.0079,159.5261 L 103.9981,159.5486 L 103.9762,159.6136 L 103.8267,159.7746 L 103.3557,160.1954 L 103.0265,160.2895 L 102.9565,160.18 L 102.9527,160.1741 L 102.9474,160.1654 L 102.9399,160.153 L 102.931,160.1378 L 102.9207,160.12 L 102.909,160.0993 L 102.8961,160.0755 L 102.8822,160.0495 L 102.8674,160.0207 L 102.8517,159.9896 L 102.8354,159.9559 L 102.8186,159.92 L 102.8014,159.8817 L 102.7838,159.8413 L 102.7661,159.7986 L 102.7484,159.7539 L 102.7309,159.7074 L 102.7137,159.659 L 102.6967,159.6086 L 102.6804,159.5565 L 102.6647,159.5027 L 102.6499,159.4474 L 102.636,159.3904 L 102.6232,159.332 L 102.6116,159.2723 L 102.6014,159.2112 L 102.5926,159.1487 L 102.5857,159.0853 L 102.5804,159.0206 L 102.5772,158.9548 L 102.5763,158.9005 L 102.5759,158.8976 L 102.574,158.8827 L 102.5715,158.8625 L 102.5683,158.8371 L 102.5647,158.8072 L 102.5603,158.773 L 102.5558,158.7348 L 102.5507,158.6928 L 102.5454,158.6477 L 102.5398,158.5994 L 102.5338,158.5486 L 102.5279,158.4954 L 102.5216,158.4404 L 102.5155,158.3838 L 102.5092,158.3258 L 102.5029,158.2668 L 102.4969,158.2072 L 102.4911,158.1475 L 102.4852,158.0876 L 102.4798,158.028 L 102.4747,157.9693 L 102.4699,157.9116 L 102.4654,157.8551 L 102.4616,157.8002 L 102.4582,157.7472 L 102.4555,157.6966 L 102.4533,157.6484 L 102.4519,157.6029 L 102.4512,157.5602 L 102.4515,157.5202 L 102.454,157.4396 L 102.8274,156.853 L 104.6508,154.6752 L 104.7711,154.7309 L 104.7765,154.7334 L 104.7854,154.7375 L 104.7976,154.743 L 104.8133,154.75 L 104.8316,154.7583 L 104.8528,154.7677 L 104.8764,154.7781 L 104.9022,154.7894 L 104.9302,154.8015 L 104.9598,154.8143 L 104.9912,154.8277 L 105.0239,154.8414 L 105.0577,154.8555 L 105.0925,154.8699 L 105.128,154.8843 L 105.164,154.8988 L 105.2002,154.9131 L 105.2364,154.9271 L 105.2723,154.9407 L 105.3079,154.9537 L 105.3426,154.9661 L 105.3765,154.9778 L 105.4091,154.9886 L 105.4401,154.9984 L 105.4691,155.007 L 105.496,155.0144 L 105.5202,155.0204 L 105.541,155.025 L 105.5524,155.0269 L 105.5627,155.0228 L 105.5817,155.0155 L 105.6037,155.0065 L 105.6288,154.9961 L 105.6566,154.9841 L 105.6868,154.9707 L 105.7193,154.9556 L 105.7542,154.9389 L 105.791,154.9208 L 105.8295,154.901 L 105.8697,154.8795 L 105.9113,154.8564 L 105.9543,154.8316 L 105.9983,154.8051 L 106.0431,154.777 L 106.0884,154.7472 L 106.1345,154.7157 L 106.1808,154.6825 L 106.2273,154.6476 L 106.2736,154.611 L 106.3199,154.5726 L 106.3657,154.5326 L 106.4109,154.4908 L 106.4554,154.4471 L 106.499,154.4018 L 106.5414,154.3548 L 106.5826,154.3059 L 106.6384,154.2349 L 106.6598,154.219 L 106.6703,154.2109 L 106.6879,154.1969 L 106.7112,154.1777 L 106.739,154.1539 L 106.77,154.1262 L 106.803,154.0951 L 106.8366,154.0614 L 106.87,154.0257 L 106.9014,153.9891 L 106.93,153.9522 L 106.9542,153.9164 L 106.9732,153.883 L 106.9861,153.854 L 106.993,153.8313 L 107.0054,153.7349 L 108.2062,152.6938 L 108.2595,153.0092 L 108.2606,153.0374 L 108.2611,153.0651 L 108.2612,153.1 L 108.261,153.1424 C 108.2565,153.6633 108.2343,154.1878 108.1759,154.7055 C 108.1551,154.8708 108.1317,155.034 108.0804,155.1931 L 108.0786,155.1975 L 108.1259,155.6787 L 108.2428,156.9557 L 108.2431,156.9603 L 108.244,156.971 C 108.2491,157.0357 108.2535,157.1005 108.2578,157.1653 C 108.3293,157.8509 108.2882,158.6005 108.2955,159.2678 L 108.2963,159.3048 L 108.2923,159.3488 L 108.2806,159.3984 L 108.2586,159.4511 L 108.2244,159.5036 L 108.1779,159.5517 L 108.1204,159.5922 L 108.0536,159.6239 L 107.9783,159.6464 L 107.8944,159.6607 L 107.8003,159.6666 L 107.6948,159.6643 L 107.6066,159.6559 L 107.601,159.6577 L 107.5913,159.6624 L 107.586,159.6664 L 107.5844,159.6683 L 107.5825,159.6725 L 107.5423,159.984 L 107.3119,159.8304 L 107.3082,159.8279 L 107.3019,159.8237 L 107.2932,159.8181 L 107.2818,159.8109 L 107.2678,159.802 L 107.2513,159.7921 L 107.2325,159.7806 L 107.2116,159.7682 L 107.1883,159.7548 L 107.1629,159.7406 L 107.1356,159.7255 L 107.1063,159.7096 L 107.0751,159.6935 L 107.0422,159.6766 L 107.0077,159.6596 L 106.9715,159.6423 L 106.9337,159.6248 L 106.8946,159.6074 L 106.8543,159.5902 L 106.8127,159.5732 L 106.7698,159.5563 L 106.7259,159.54 L 106.6812,159.5242 L 106.6355,159.5093 L 106.589,159.4949 L 106.5417,159.4815 L 106.4941,159.4689 L 106.4458,159.4575 L 106.3969,159.4472 L 106.3549,159.4395 L 106.349,159.4433 L 106.3347,159.4526 L 106.3186,159.4637 L 106.301,159.4765 L 106.2814,159.4909 L 106.2606,159.5072 L 106.2379,159.5253 L 106.2138,159.5455 L 106.1884,159.5676 L 106.1615,159.592 L 106.1332,159.6186 L 106.1037,159.6474 L 106.0728,159.6786 L 106.0408,159.7122 L 106.0076,159.7483 L 105.9734,159.787 L 105.9381,159.8283 L 105.902,159.8723 L 105.8648,159.9191 L 105.8267,159.969 L 105.7877,160.0215 L 105.7481,160.0773 L 105.7078,160.1361 L 105.6667,160.198 L 105.6089,160.2886 L 105.5792,160.3121 L 105.562,160.3236 L 105.5396,160.3361 L 105.511,160.3487 L 105.477,160.3597 L 105.4373,160.3678 L 105.3928,160.3719 L 105.3445,160.3703 L 105.2932,160.3626 L 105.2391,160.3481 L 105.1834,160.3266 L 105.1258,160.2973 L 105.0667,160.2601 L 105.0059,160.2144 L 104.9431,160.16 L 104.831,160.049 L 104.831,160.049 z "
   style="fill:#1f1a17" />
   <path
   id="_75106712"
   class="fil1"
   d="M 108.089,153.022 C 108.0992,153.0239 108.0753,154.8146 107.905,155.1719 L 107.3776,157.1541 C 107.3776,157.1541 107.499,157.1707 107.9564,155.6951 L 108.0732,156.9709 C 108.0732,156.9709 108.1724,158.1796 108.1209,159.2523 C 108.1209,159.2523 108.2153,159.5611 107.5975,159.4838 C 107.5975,159.4838 107.4087,159.501 107.4087,159.6898 C 107.4087,159.6898 106.9013,159.3434 106.3231,159.2618 C 106.3231,159.2618 105.9437,159.4342 105.4811,160.1728 C 105.4811,160.1728 105.3187,160.3109 105.002,159.9781 C 105.002,159.9781 105.0164,159.5733 104.2799,159.3467 C 104.2799,159.3467 104.2718,159.2495 104.5632,159.2495 C 104.5632,159.2495 104.4986,159.0634 104.1018,159.1768 C 104.1018,159.1768 103.8833,159.3224 103.8267,159.5248 L 103.7076,159.6529 L 103.2718,160.0424 L 103.1022,160.0908 C 103.1022,160.0908 102.7471,159.5421 102.7471,158.8885 C 102.7471,158.8885 102.6075,157.8059 102.6235,157.4922 L 102.9659,156.9543 L 104.6982,154.8853 C 104.6982,154.8853 105.383,155.2005 105.575,155.2005 C 105.575,155.2005 106.3029,154.9599 106.7589,154.3587 C 106.7589,154.3587 107.1589,154.062 107.1668,153.8215 L 108.089,153.022 L 108.089,153.022 z "
   style="fill:#ffffff" />
   <path
   id="_75106832"
   class="fil4"
   d="M 106.068,158.514 C 106.0548,158.5237 105.8089,158.7107 105.7121,159.3334 L 105.708,159.3397 C 105.7282,159.0966 105.7304,158.8527 105.8236,158.624 C 105.8236,158.3853 105.9039,157.876 105.9039,157.876 C 106.3079,156.4907 106.372,155.1451 106.372,155.1451 L 106.2493,155.1451 L 106.2068,155.4083 C 105.9467,157.5304 105.4576,158.4534 105.4576,158.4534 L 104.8848,159.7039 L 104.9688,159.8407 L 105.0442,159.7595 L 105.5493,158.5661 C 105.5855,158.378 105.7298,158.2262 105.7298,158.2262 C 105.7659,158.407 105.701,158.5951 105.701,158.5951 C 105.5696,158.8942 105.5791,159.3947 105.5841,159.525 L 105.2633,160.0051 C 105.2478,160.0542 105.2314,160.105 105.216,160.154 C 105.2783,160.1921 105.331,160.2082 105.3798,160.2067 C 105.3798,160.2067 105.3966,159.9139 105.832,159.5067 C 105.832,159.5067 105.9844,159.2176 106.0987,158.7695 C 106.0987,158.7695 106.1284,158.5516 106.5769,158.5974 C 106.5769,158.5974 106.7164,158.6341 106.8486,159.1053 C 106.8486,159.1053 106.9,159.3188 107.2672,159.3408 C 107.2672,159.3408 107.3778,159.364 107.5008,159.5167 C 107.5575,159.4967 107.6224,159.4905 107.6919,159.4925 C 107.7615,159.4948 107.9995,157.3253 107.9541,156.1665 L 107.8893,156.1603 C 107.8893,156.1603 107.7365,158.5399 107.5127,159.2397 C 107.5127,159.2397 107.3708,159.1618 107.1097,159.1335 C 107.1097,159.1335 106.8977,158.9948 106.9184,158.6523 C 106.9239,158.5591 106.9051,158.5634 106.8629,158.5604 C 106.7635,158.5531 106.5862,158.5162 106.5836,158.3338 C 106.5836,158.3338 107.1272,156.8154 107.1489,155.4359 L 107.0627,155.3726 C 107.0627,155.3726 106.9119,157.5108 106.068,158.514 L 106.068,158.514 z M 104.8847,157.5466 C 104.8097,158.0007 104.8906,158.6182 105.0483,158.8458 L 105.0059,158.9133 C 104.8079,158.7887 104.7406,158.4877 104.726,158.1982 C 104.6622,158.3028 104.6004,158.4377 104.5037,158.691 L 104.4397,158.6833 L 104.4399,158.682 L 104.4401,158.682 C 104.4431,158.6584 104.4494,158.63 104.4582,158.5986 C 104.4668,158.5684 104.4782,158.5339 104.4914,158.4972 C 104.5522,158.3287 104.655,158.1189 104.7227,158.0489 C 104.7239,157.7665 104.7645,157.5286 104.7648,157.5271 L 104.8847,157.5466 L 104.8847,157.5466 z M 105.0761,155.4741 L 105.0761,155.7183 L 105.0761,156.7423 C 105.0795,156.7863 105.129,157.3866 105.3867,157.793 C 105.4079,157.8262 105.4304,157.8581 105.4543,157.8884 C 105.4678,157.9371 105.4618,157.965 105.4471,157.9833 C 105.4178,157.9943 105.3885,157.9928 105.3592,157.9641 C 105.0075,157.5206 104.9547,156.7514 104.9545,156.7492 L 104.9543,156.7445 L 104.9543,155.4741 L 105.0153,155.4741 L 105.0397,155.4741 L 105.0761,155.4741 L 105.0761,155.4741 z "
   style="fill:#1f1a17" />
   <polygon
   id="_75106784"
   class="fil1"
   points="102.896,152.683 102.791,152.584 102.609,152.476 102.546,154.37 102.921,154.061 102.896,152.683 "
   style="fill:#ffffff" />
   <polygon
   id="_75106904"
   class="fil5 str0"
   points="102.896,152.683 102.791,152.584 102.609,152.476 102.546,154.37 102.921,154.061 102.896,152.683 "
   style="fill:none;stroke:#1f1a17;stroke-width:0.0762" />
   <path
   id="_75106112"
   class="fil6"
   d="M 103.527,140.604 L 105.6697,142.3122 L 107.3283,140.7842 C 107.3283,140.7842 107.9175,140.9427 108.2222,141.4133 L 106.1683,143.43 L 106.1619,144.04 L 106.1156,147.3163 L 104.8121,148.9608 L 104.8533,143.1368 L 102.7254,141.3047 C 102.7254,141.3047 103.2054,140.7847 103.527,140.604 L 103.527,140.604 z "
   style="fill:#f8c300" />
   <path
   id="_75106208"
   class="fil5 str1"
   d="M 103.527,140.604 L 105.6697,142.3122 L 107.3283,140.7842 C 107.3283,140.7842 107.9175,140.9427 108.2222,141.4133 L 106.1683,143.43 L 106.1619,144.04 L 106.1156,147.3163 L 104.8121,148.9608 L 104.8533,143.1368 L 102.7254,141.3047 C 102.7254,141.3047 103.2054,140.7847 103.527,140.604 L 103.527,140.604 z "
   style="fill:none;stroke:#1f1a17;stroke-width:0.0975" />
   <path
   id="_75106040"
   class="fil4"
   d="M 106.228,140.141 C 105.6735,140.4691 105.1505,140.4145 104.6588,139.9773 C 104.6396,140.3046 104.6479,141.0085 105.0211,141.0678 C 105.2937,141.1112 105.8794,141.1658 106.1578,140.7671 C 106.1813,140.5584 106.2047,140.3497 106.228,140.141 L 106.228,140.141 z "
   style="fill:#1f1a17" />
   <path
   id="_75105944"
   class="fil2"
   d="M 105.934,160.183 L 105.8905,159.7795 C 105.8905,159.7614 105.937,159.7344 105.9494,159.7232 L 105.9494,159.7232 L 106.3078,159.3988 C 106.3137,159.3934 106.3204,159.3896 106.3274,159.3869 L 106.3274,159.3868 L 106.3286,159.3865 L 106.3287,159.3864 C 106.352,159.3785 106.6798,159.2837 107.5777,159.9353 C 107.5825,159.9386 107.5867,159.9428 107.5902,159.9474 C 107.6245,159.9865 107.9268,160.3493 107.6818,160.7838 C 107.6745,160.7968 107.6632,160.8061 107.6501,160.811 C 107.6497,160.8111 107.5532,160.8485 107.4579,160.8378 C 107.4379,160.9124 107.377,161.0115 107.1948,161.0033 C 107.1545,161.0705 107.0551,161.1959 106.8816,161.1791 C 106.8175,161.2601 106.63,161.4403 106.3299,161.2666 C 106.3262,161.2645 106.3229,161.262 106.3198,161.2592 C 106.2917,161.2355 105.9703,160.9491 105.934,160.1865 L 105.934,160.183 L 105.934,160.183 z M 106.0512,159.7948 L 106.0555,160.18 L 106.0555,160.1807 C 106.0883,160.8732 106.3581,161.1317 106.3948,161.1636 C 106.6503,161.3086 106.7867,161.1064 106.8003,161.0845 C 106.8128,161.0613 106.8394,161.048 106.8665,161.0538 C 107.0177,161.086 107.0909,160.9443 107.1025,160.9194 C 107.1115,160.8927 107.1384,160.8752 107.1674,160.8788 C 107.3507,160.9014 107.3464,160.7703 107.3461,160.7634 L 107.3461,160.7632 L 107.3461,160.763 L 107.3461,160.763 C 107.3457,160.7527 107.3478,160.7421 107.353,160.7323 C 107.3685,160.7026 107.4053,160.6912 107.4351,160.7068 C 107.4807,160.7309 107.5521,160.7146 107.5871,160.7041 C 107.7671,160.3587 107.537,160.0715 107.5015,160.0303 C 106.7182,159.463 106.4308,159.4869 106.3788,159.4982 L 106.0512,159.7948 L 106.0512,159.7948 z "
   style="fill:#1f1a17;fill-rule:nonzero" />
   <path
   id="_75105824"
   class="fil7"
   d="M 105.995,160.183 L 105.9903,159.7675 L 106.3488,159.4432 C 106.3488,159.4432 106.6376,159.3273 107.5421,159.9839 C 107.5421,159.9839 107.8664,160.3326 107.6291,160.7535 C 107.6291,160.7535 107.4938,160.8059 107.4069,160.7601 C 107.4069,160.7601 107.4207,160.9707 107.1602,160.9386 C 107.1602,160.9386 107.0688,161.1585 106.8541,161.1126 C 106.8541,161.1126 106.685,161.4012 106.3605,161.2134 C 106.3605,161.2134 106.0316,160.9524 105.995,160.183 z "
   style="fill:#f2aea9" />
   <path
   id="_75105728"
   class="fil2"
   d="M 103.281,160.214 L 103.1108,160.3172 C 103.107,160.3196 103.1031,160.3217 103.0992,160.3234 C 103.0987,160.3236 102.9267,160.3903 102.9829,160.6336 C 103.0211,160.6975 103.2515,161.0434 103.7742,161.0586 C 103.8481,161.0607 103.8967,161.065 103.9348,161.0682 C 104.0249,161.0758 104.035,161.0767 104.1158,160.9893 L 104.1161,160.9891 L 104.117,160.9883 L 104.1182,160.9868 L 104.118,160.9866 L 104.1181,160.9865 L 104.1211,160.9836 C 104.1389,160.9634 104.1599,160.9346 104.1836,160.9025 C 104.2185,160.855 104.2588,160.8003 104.3138,160.74 C 104.3199,160.7334 104.3268,160.728 104.3341,160.7238 L 104.334,160.7237 C 104.3349,160.723 104.6658,160.5309 104.703,160.2861 C 104.7043,160.2772 104.707,160.2689 104.7108,160.2612 L 104.7693,160.1189 L 104.7901,160.0044 L 104.6409,159.6934 L 104.3933,159.5592 L 104.1676,159.488 L 104.0471,159.488 L 103.9811,159.5331 C 103.9619,159.559 103.9168,159.6203 103.902,159.6441 C 103.8752,159.6871 103.5301,160.0383 103.5292,160.0394 C 103.5234,160.0451 103.5171,160.0499 103.5103,160.0538 L 103.2889,160.2089 C 103.2863,160.2106 103.2838,160.2123 103.281,160.214 L 103.281,160.214 z M 103.0272,160.1677 L 103.1926,160.0672 L 103.4116,159.9138 C 103.449,159.8758 103.7384,159.5817 103.7561,159.5535 C 103.7828,159.5108 103.8507,159.4205 103.8509,159.4203 L 103.8509,159.4203 C 103.8566,159.4125 103.8636,159.4054 103.8721,159.3997 L 103.9691,159.3335 C 103.9835,159.3225 104.0014,159.316 104.0209,159.316 L 104.1807,159.316 L 104.1807,159.3161 C 104.1892,159.3161 104.1979,159.3173 104.2066,159.32 L 104.4516,159.3972 C 104.4573,159.399 104.4629,159.4012 104.4682,159.4042 L 104.7468,159.5552 L 104.7466,159.5555 C 104.7619,159.5638 104.7749,159.5768 104.7832,159.5938 L 104.9555,159.953 C 104.9638,159.9692 104.967,159.9881 104.9637,160.0074 L 104.937,160.1541 C 104.9362,160.1614 104.9342,160.1688 104.9312,160.1759 L 104.8713,160.3216 C 104.821,160.6103 104.4973,160.8244 104.4317,160.865 C 104.3891,160.9127 104.3532,160.9613 104.322,161.0039 C 104.2963,161.0389 104.2734,161.0703 104.2478,161.0988 C 104.2454,161.102 104.2426,161.1051 104.2396,161.108 L 104.2395,161.1081 L 104.2393,161.108 C 104.1029,161.2549 104.084,161.2533 103.9207,161.2395 C 103.8805,161.236 103.8292,161.2317 103.7696,161.23 C 103.1327,161.2113 102.8594,160.7634 102.83,160.7117 C 102.825,160.704 102.8211,160.6953 102.8188,160.6859 C 102.7268,160.3224 102.982,160.1884 103.0272,160.1677 L 103.0272,160.1677 z "
   style="fill:#1f1a17;fill-rule:nonzero" />
   <path
   id="_75105608"
   class="fil7"
   d="M 103.24,160.139 L 103.0666,160.2443 C 103.0666,160.2443 102.82,160.3405 102.9022,160.6654 C 102.9022,160.6654 103.1469,161.1263 103.7721,161.1446 C 104.0555,161.1529 104.0353,161.2026 104.1788,161.0477 C 104.2323,160.9899 104.2865,160.8972 104.3772,160.7982 C 104.3772,160.7982 104.7448,160.5849 104.7881,160.2993 L 104.852,160.1437 L 104.8794,159.9927 L 104.7059,159.6311 L 104.4273,159.4801 L 104.1808,159.4022 L 104.021,159.4022 L 103.9205,159.4709 C 103.9205,159.4709 103.852,159.5625 103.8292,159.599 C 103.8063,159.6357 103.4684,159.9789 103.4684,159.9789 L 103.24,160.139 L 103.24,160.139 z "
   style="fill:#f2aea9" />
   <path
   id="_75105512"
   class="fil2"
   d="M 106.694,160.619 C 106.6946,160.6196 106.8756,160.8493 106.8956,161.1234 L 106.8251,161.1541 C 106.8059,160.8929 106.66,160.6451 106.6595,160.6443 L 106.694,160.619 z "
   style="fill:#1f1a17;fill-rule:nonzero" />
   <path
   id="_75105392"
   class="fil2"
   d="M 106.994,160.562 C 106.9944,160.5625 107.1699,160.7874 107.2045,160.9534 L 107.1437,160.9709 C 107.1112,160.815 106.9605,160.5888 106.96,160.5881 L 106.994,160.562 z "
   style="fill:#1f1a17;fill-rule:nonzero" />
   <path
   id="_75105296"
   class="fil2"
   d="M 107.322,160.534 C 107.3223,160.5343 107.4185,160.6724 107.4576,160.781 L 107.4074,160.8054 C 107.3704,160.7027 107.287,160.5586 107.2866,160.5584 L 107.322,160.534 L 107.322,160.534 z "
   style="fill:#1f1a17;fill-rule:nonzero" />
   <path
   id="_75105176"
   class="fil2"
   d="M 103.612,161.136 C 103.6118,161.1352 103.4945,160.8656 103.8208,160.6327 L 103.8458,160.6676 C 103.5483,160.8799 103.7005,161.1097 103.705,161.1476 L 103.612,161.136 z "
   style="fill:#1f1a17;fill-rule:nonzero" />
   <path
   id="_75105200"
   class="fil2"
   d="M 103.294,161.034 C 103.294,161.0333 103.326,160.7523 103.5411,160.6356 L 103.5615,160.6732 C 103.3664,160.7792 103.3809,161.0709 103.3808,161.0717 L 103.294,161.034 z "
   style="fill:#1f1a17;fill-rule:nonzero" />
   <path
   id="_75105416"
   class="fil2"
   d="M 103.029,160.846 C 103.0291,160.8452 103.0886,160.5676 103.2433,160.5348 L 103.2522,160.5767 C 103.125,160.6037 103.0972,160.9014 103.097,160.902 L 103.029,160.846 L 103.029,160.846 z "
   style="fill:#1f1a17;fill-rule:nonzero" />
   <path
   id="_75105632"
   class="fil7"
   d="M 106.376,145.23 C 106.5886,145.3069 106.8134,145.2255 107.0321,145.2537 C 107.0321,145.2537 107.144,145.5323 107.2673,145.516 C 107.2673,145.516 107.4584,145.065 107.3434,144.6953 C 107.3434,144.6953 106.6099,144.0415 105.5366,144.1908 C 105.5366,144.1908 104.8266,144.3899 104.7368,144.5042 C 104.7368,144.5042 104.6224,145.0024 105.0307,145.1657 C 105.0307,145.1657 105.3655,145.3126 105.6759,145.1983 C 105.6759,145.1983 105.9363,145.0143 106.376,145.23 z "
   style="fill:#f2aea9" />
   <path
   id="_75105848"
   class="fil2"
   d="M 106.384,145.209 C 106.5048,145.2525 106.6321,145.243 106.76,145.2333 C 106.8513,145.2266 106.943,145.2197 107.035,145.2316 L 107.0509,145.2335 L 107.0535,145.2495 C 107.0535,145.2501 107.1373,145.4812 107.23,145.4871 C 107.2594,145.4124 107.4001,145.0242 107.3018,144.6991 C 107.2448,144.646 106.5556,144.0705 105.5415,144.2106 C 105.5131,144.2187 104.8521,144.4059 104.7568,144.513 C 104.7463,144.5648 104.6708,144.9975 105.0388,145.1447 L 105.0394,145.1448 C 105.0401,145.1453 105.3651,145.2878 105.6665,145.1779 C 105.6956,145.1591 105.9591,145.0012 106.384,145.209 L 106.384,145.209 z M 106.7632,145.2762 C 106.6308,145.2863 106.4987,145.296 106.3687,145.2491 L 106.368,145.2489 L 106.3668,145.2483 C 105.9383,145.0381 105.6887,145.2146 105.6879,145.215 L 105.6855,145.2167 L 105.6833,145.2175 C 105.365,145.3348 105.0234,145.1848 105.0224,145.1845 C 104.5976,145.0141 104.7156,144.5001 104.7159,144.4987 L 104.7169,144.4938 L 104.7199,144.49 C 104.8143,144.37 105.5287,144.1695 105.5308,144.1689 L 105.532,144.1687 L 105.5337,144.1684 C 106.6173,144.0177 107.3336,144.67 107.3355,144.6718 L 107.3398,144.6758 L 107.3413,144.6811 C 107.4587,145.0582 107.2844,145.5409 107.2838,145.5422 L 107.2599,145.5275 L 107.2475,145.5292 C 107.1238,145.5457 107.0253,145.3322 107.0138,145.2722 C 106.9317,145.2636 106.8472,145.2698 106.7632,145.2762 L 106.7632,145.2762 z "
   style="fill:#1f1a17;fill-rule:nonzero" />
   <path
   id="_75106976"
   class="fil2"
   d="M 105.425,144.462 C 105.4236,144.4622 104.9195,144.5673 104.7598,144.8391 L 104.723,144.8175 C 104.8928,144.5283 105.4202,144.441 105.4217,144.4408 L 105.425,144.462 z "
   style="fill:#1f1a17;fill-rule:nonzero" />
   <path
   id="_75106304"
   class="fil2"
   d="M 105.532,144.717 C 105.5306,144.7174 105.0152,144.8736 104.8701,145.0586 L 104.8362,145.0321 C 104.9903,144.8359 105.5253,144.6966 105.5267,144.6962 L 105.532,144.717 z "
   style="fill:#1f1a17;fill-rule:nonzero" />
   <path
   id="_74429248"
   class="fil2"
   d="M 105.541,144.987 C 105.5401,144.9871 105.2061,145.0375 105.0793,145.1766 L 105.0391,145.1602 C 105.1765,145.0095 105.5362,144.9592 105.5371,144.9591 L 105.541,144.987 L 105.541,144.987 z "
   style="fill:#1f1a17;fill-rule:nonzero" />
   <path
   id="_74429224"
   class="fil8 str2"
   d="M 102.652,143.851 L 102.8752,143.6773 C 102.8189,141.8267 102.7458,140.0485 102.6894,138.1981 L 101.939,138.0699 C 101.8901,137.9646 101.8394,137.8514 101.8375,137.743 C 101.8356,137.6274 101.7554,137.6414 101.6609,137.6121 C 101.5878,137.6579 101.5399,137.8144 101.5697,137.9173 C 101.2017,137.8146 100.9279,137.448 100.8053,137.0473 C 100.7635,136.6424 100.806,136.2738 100.9721,135.958 C 101.0889,135.9219 101.2073,135.9197 101.3277,135.958 C 101.3855,135.9918 101.4257,136.0465 101.4612,136.1137 C 101.4945,136.0765 101.5279,136.0395 101.5611,136.0026 C 101.6357,135.862 101.5342,135.6734 101.3944,135.6247 C 101.7602,135.3662 102.1625,135.3071 102.595,135.4134 C 102.8414,135.5228 103.0122,135.6595 103.0729,135.8357 C 102.9484,135.8955 102.8224,135.9452 102.7023,135.9 C 102.6935,135.995 102.6791,136.0493 102.7061,136.147 C 102.776,136.2434 102.8692,136.2854 102.9729,136.3026 C 103.0741,136.2884 103.1713,136.2659 103.2508,136.2026 C 103.3326,136.495 103.3101,136.7738 103.1618,137.0363 C 103.0101,137.244 102.7321,137.3478 102.3282,137.3475 C 102.1707,137.3349 102.0537,137.1864 102.0002,137.0473 C 102.0864,137.0245 102.196,137.0279 102.3393,137.0696 C 102.3193,136.9043 102.2601,136.8072 102.1614,136.7781 C 102.1379,136.631 102.1656,136.4844 102.2136,136.3732 C 102.0342,136.2713 101.9254,136.4235 101.8142,136.5364 C 101.6686,136.5504 101.5286,136.5282 101.3973,136.4526 C 101.3655,136.4876 101.3678,136.5423 101.386,136.6058 C 101.4457,136.7335 101.5139,136.8501 101.6534,136.8978 C 101.7568,136.9329 101.7747,137.2196 101.8613,137.3141 C 102.0196,137.5361 102.292,137.6153 102.6284,137.6143 C 103.073,137.5481 103.3917,137.3036 103.5842,136.8807 C 103.6495,136.3982 103.4758,136.0183 103.1701,135.5804 C 102.8838,135.2546 102.4148,135.0784 101.7279,135.1689 C 101.2643,135.3362 100.891,135.6122 100.6496,136.0469 C 100.5047,136.5658 100.4898,137.066 100.7609,137.5253 C 101.2516,138.2085 101.7266,138.2655 102.406,138.4924 L 102.652,143.851 L 102.652,143.851 z "
   style="fill:none;fill-rule:nonzero;stroke:#1f1a17;stroke-width:0.1219;stroke-linecap:round;stroke-linejoin:round" />
   <path
   id="_74428864"
   class="fil6"
   d="M 102.652,143.851 L 102.8752,143.6773 C 102.8189,141.8267 102.7458,140.0485 102.6894,138.1981 L 101.939,138.0699 C 101.8901,137.9646 101.8394,137.8514 101.8375,137.743 C 101.8356,137.6274 101.7554,137.6414 101.6609,137.6121 C 101.5878,137.6579 101.5399,137.8144 101.5697,137.9173 C 101.2017,137.8146 100.9279,137.448 100.8053,137.0473 C 100.7635,136.6424 100.806,136.2738 100.9721,135.958 C 101.0889,135.9219 101.2073,135.9197 101.3277,135.958 C 101.3855,135.9918 101.4257,136.0465 101.4612,136.1137 C 101.4945,136.0765 101.5279,136.0395 101.5611,136.0026 C 101.6357,135.862 101.5342,135.6734 101.3944,135.6247 C 101.7602,135.3662 102.1625,135.3071 102.595,135.4134 C 102.8414,135.5228 103.0122,135.6595 103.0729,135.8357 C 102.9484,135.8955 102.8224,135.9452 102.7023,135.9 C 102.6935,135.995 102.6791,136.0493 102.7061,136.147 C 102.776,136.2434 102.8692,136.2854 102.9729,136.3026 C 103.0741,136.2884 103.1713,136.2659 103.2508,136.2026 C 103.3326,136.495 103.3101,136.7738 103.1618,137.0363 C 103.0101,137.244 102.7321,137.3478 102.3282,137.3475 C 102.1707,137.3349 102.0537,137.1864 102.0002,137.0473 C 102.0864,137.0245 102.196,137.0279 102.3393,137.0696 C 102.3193,136.9043 102.2601,136.8072 102.1614,136.7781 C 102.1379,136.631 102.1656,136.4844 102.2136,136.3732 C 102.0342,136.2713 101.9254,136.4235 101.8142,136.5364 C 101.6686,136.5504 101.5286,136.5282 101.3973,136.4526 C 101.3655,136.4876 101.3678,136.5423 101.386,136.6058 C 101.4457,136.7335 101.5139,136.8501 101.6534,136.8978 C 101.7568,136.9329 101.7747,137.2196 101.8613,137.3141 C 102.0196,137.5361 102.292,137.6153 102.6284,137.6143 C 103.073,137.5481 103.3917,137.3036 103.5842,136.8807 C 103.6495,136.3982 103.4758,136.0183 103.1701,135.5804 C 102.8838,135.2546 102.4148,135.0784 101.7279,135.1689 C 101.2643,135.3362 100.891,135.6122 100.6496,136.0469 C 100.5047,136.5658 100.4898,137.066 100.7609,137.5253 C 101.2516,138.2085 101.7266,138.2655 102.406,138.4924 L 102.652,143.851 L 102.652,143.851 z "
   style="fill:#f8c300" />
   <path
   id="_74427400"
   class="fil7"
   d="M 101.956,144.633 L 101.8716,144.8096 C 101.8716,144.8096 101.6488,145.5006 102.0943,145.8846 C 102.0943,145.8846 102.4781,146.2072 102.5626,145.9154 C 102.5626,145.9154 102.4773,145.5276 102.4851,145.4585 C 102.4851,145.4585 102.8314,144.8556 103.4072,144.7252 C 103.4072,144.7252 103.6069,144.633 103.6377,144.4563 C 103.6377,144.4563 103.7375,143.7653 103.6759,143.6041 C 103.6759,143.6041 103.0924,143.4811 102.7546,143.7883 C 102.7546,143.7883 102.2862,144.0801 101.956,144.633 L 101.956,144.633 z "
   style="fill:#f2aea9" />
   <path
   id="_74427352"
   class="fil1"
   d="M 102.085,146.427 L 102.0124,146.407 C 102.0124,146.407 101.8143,146.4301 101.8442,146.8129 C 101.8442,146.8129 101.9377,147.5334 102.4171,147.7886 C 102.4171,147.7886 102.6855,147.9338 102.7117,147.5496 L 102.085,146.427 L 102.085,146.427 z "
   style="fill:#ffffff" />
   <path
   id="_74427568"
   class="fil2"
   d="M 101.975,144.644 L 101.8921,144.8171 C 101.8856,144.8382 101.6804,145.4995 102.1084,145.8687 C 102.1094,145.8695 102.4623,146.166 102.5408,145.9149 C 102.5305,145.8674 102.4565,145.5246 102.4641,145.4567 L 102.4645,145.4522 L 102.4668,145.4484 C 102.4678,145.4467 102.817,144.8389 103.4006,144.7052 C 103.421,144.6953 103.5893,144.6092 103.6166,144.4539 L 103.6166,144.4537 L 103.6167,144.4533 L 103.6168,144.4533 C 103.6196,144.433 103.7107,143.7953 103.6599,143.6233 C 103.5754,143.6079 103.0712,143.5304 102.7693,143.8047 L 102.7679,143.806 L 102.7663,143.8071 C 102.7649,143.808 102.3025,144.096 101.975,144.644 L 101.975,144.644 z M 101.8526,144.8008 L 101.937,144.6243 L 101.9376,144.6231 L 101.938,144.6224 C 102.2593,144.0843 102.7099,143.7921 102.7418,143.7719 C 103.0879,143.4589 103.6789,143.5833 103.6805,143.5837 L 103.6922,143.5861 L 103.6963,143.5969 C 103.7599,143.7634 103.6595,144.458 103.6592,144.46 L 103.6591,144.4605 C 103.6264,144.6482 103.417,144.7449 103.4164,144.7451 L 103.4144,144.7461 L 103.4122,144.7466 C 102.8727,144.8689 102.5379,145.4128 102.5063,145.4658 C 102.5027,145.5418 102.5837,145.9103 102.5839,145.9113 L 102.585,145.9164 L 102.5835,145.9217 C 102.49,146.2451 102.0818,145.9024 102.0807,145.9014 L 102.0805,145.9013 C 101.6244,145.5082 101.8507,144.8058 101.8513,144.8036 L 101.8517,144.8028 L 101.8526,144.8008 L 101.8526,144.8008 z "
   style="fill:#1f1a17;fill-rule:nonzero" />
   <path
   id="_74427328"
   class="fil2"
   d="M 102.071,146.445 L 102.0118,146.4287 C 101.9862,146.4341 101.8402,146.4795 101.8659,146.8103 C 101.869,146.8337 101.9654,147.5234 102.4274,147.7694 L 102.4275,147.7693 C 102.4281,147.7697 102.6638,147.8971 102.6901,147.554 L 102.071,146.445 L 102.071,146.445 z M 102.0184,146.3859 L 102.0911,146.406 L 102.0997,146.4085 L 102.104,146.4164 L 102.7306,147.539 L 102.7338,147.5446 L 102.7334,147.5507 C 102.7049,147.9682 102.4083,147.8077 102.4073,147.8073 L 102.4073,147.8073 C 101.9182,147.5468 101.8235,146.8175 101.8232,146.8155 L 101.823,146.8141 C 101.7915,146.411 102.0093,146.3854 102.0099,146.3854 L 102.0143,146.3848 L 102.0184,146.3859 L 102.0184,146.3859 z "
   style="fill:#1f1a17;fill-rule:nonzero" />
   <path
   id="_74427616"
   class="fil1"
   d="M 102.578,145.942 L 102.2515,145.9648 C 102.2515,145.9648 101.9775,145.9271 101.9551,146.0987 C 101.9551,146.0987 101.9068,146.3108 102.1946,146.7455 L 102.617,147.5248 C 102.617,147.5248 102.7553,147.6709 102.8226,147.5472 L 102.7815,146.0748 L 102.578,145.942 L 102.578,145.942 z "
   style="fill:#ffffff" />
   <path
   id="_74427736"
   class="fil4"
   d="M 102.417,147.788 C 102.417,147.788 102.5883,148.2744 102.5349,149.011 L 102.6843,148.3491 L 102.8062,148.0943 L 102.8296,147.6975 L 102.789,147.5849 L 102.7334,147.5443 L 102.6993,147.5697 C 102.7072,147.6469 102.668,147.7028 102.642,147.7641 C 102.584,147.8343 102.4852,147.8219 102.417,147.788 L 102.417,147.788 z "
   style="fill:#1f1a17" />
   <path
   id="_74427808"
   class="fil5 str0"
   d="M 102.417,147.788 C 102.417,147.788 102.5883,148.2744 102.5349,149.011 L 102.6843,148.3491 L 102.8062,148.0943 L 102.8296,147.6975 L 102.789,147.5849 L 102.7334,147.5443 L 102.6993,147.5697 C 102.7072,147.6469 102.668,147.7028 102.642,147.7641 C 102.584,147.8343 102.4852,147.8219 102.417,147.788 L 102.417,147.788 z "
   style="fill:none;stroke:#1f1a17;stroke-width:0.0762" />
   <path
   id="_74427880"
   class="fil4"
   d="M 102.437,149.624 L 102.5147,149.391 C 102.5147,149.391 102.3597,150.827 102.898,151.4673 L 102.9284,151.5485 L 102.9513,152.1367 C 102.9513,152.1367 102.311,151.0501 102.437,149.624 z "
   style="fill:#1f1a17" />
   <path
   id="_74427952"
   class="fil5 str0"
   d="M 102.437,149.624 L 102.5147,149.391 C 102.5147,149.391 102.3597,150.827 102.898,151.4673 L 102.9284,151.5485 L 102.9513,152.1367 C 102.9513,152.1367 102.311,151.0501 102.437,149.624 z "
   style="fill:none;stroke:#1f1a17;stroke-width:0.0762" />
   <path
   id="_74428024"
   class="fil2"
   d="M 102.572,145.964 L 102.2526,145.9863 L 102.2504,145.9863 L 102.2484,145.9861 C 102.2478,145.9861 101.9956,145.9515 101.976,146.1015 L 101.9759,146.1026 C 101.9757,146.1033 101.9291,146.3064 102.212,146.7336 L 102.2126,146.7343 L 102.2131,146.7353 L 102.634,147.5119 C 102.6486,147.5266 102.7501,147.6242 102.8007,147.5419 L 102.76,146.0866 L 102.572,145.964 z M 102.2516,145.9432 L 102.5762,145.9206 L 102.5832,145.9201 L 102.5893,145.9242 L 102.7928,146.0568 L 102.8022,146.0629 L 102.8025,146.0742 L 102.8437,147.5466 L 102.8439,147.5524 L 102.8412,147.5575 C 102.7597,147.707 102.6014,147.5398 102.601,147.5395 L 102.5991,147.5375 L 102.5977,147.5349 L 102.1758,146.7565 C 101.8835,146.3149 101.9336,146.0953 101.9337,146.0947 L 101.9337,146.0947 C 101.9588,145.9123 102.2252,145.9401 102.2516,145.9432 L 102.2516,145.9432 z "
   style="fill:#1f1a17;fill-rule:nonzero" />
   <polygon
   id="_74428096"
   class="fil8 str3"
   points="103.245,159.904 103.239,160.17 103.069,160.17 102.895,152.885 102.899,150.816 102.729,145.784 102.906,145.771 103.067,150.869 103.055,152.275 103.232,158.397 103.245,159.904 "
   style="fill:none;fill-rule:nonzero;stroke:#1f1a17;stroke-width:0.1219" />
   <polygon
   id="_74428168"
   class="fil6"
   points="103.245,159.904 103.239,160.17 103.069,160.17 102.895,152.885 102.899,150.816 102.729,145.784 102.906,145.771 103.067,150.869 103.055,152.275 103.232,158.397 103.245,159.904 "
   style="fill:#f8c300" />
   <path
   id="_74428240"
   class="fil2"
   d="M 103.082,143.944 C 103.0827,143.9436 103.3379,143.7994 103.6969,143.8195 L 103.6949,143.8696 C 103.3483,143.8502 103.0896,143.9641 103.0955,143.9679 L 103.082,143.944 L 103.082,143.944 z "
   style="fill:#1f1a17;fill-rule:nonzero" />
   <path
   id="_74428312"
   class="fil2"
   d="M 103.157,144.311 C 103.1577,144.3104 103.4328,144.1561 103.6713,144.1547 L 103.6715,144.1976 C 103.4443,144.1988 103.1702,144.3347 103.1702,144.3347 L 103.157,144.311 L 103.157,144.311 z "
   style="fill:#1f1a17;fill-rule:nonzero" />
   <path
   id="_74428384"
   class="fil2"
   d="M 103.237,144.533 C 103.2376,144.5326 103.4503,144.4236 103.6403,144.3788 L 103.6501,144.4206 C 103.4653,144.4642 103.2518,144.5585 103.2512,144.5588 L 103.237,144.533 z "
   style="fill:#1f1a17;fill-rule:nonzero" />
   <path
   id="_74428456"
   class="fil6"
   d="M 107.26,145.553 L 107.04,145.2944 C 107.04,145.2944 106.5425,145.7012 106.5427,146.7361 L 107.0852,146.0585 L 107.26,145.553 L 107.26,145.553 z "
   style="fill:#f8c300" />
   <path
   id="_74428528"
   class="fil5 str0"
   d="M 107.26,145.553 L 107.04,145.2944 C 107.04,145.2944 106.5425,145.7012 106.5427,146.7361 L 107.0852,146.0585 L 107.26,145.553 L 107.26,145.553 z "
   style="fill:none;stroke:#1f1a17;stroke-width:0.0762" />
   <path
   id="_74428600"
   class="fil6"
   d="M 107.361,145.463 L 107.4825,144.423 L 109.0099,144.423 L 109.0099,145.9606 C 109.0099,145.9606 108.8498,146.7567 108.1665,147.5933 L 106.1853,150.1893 C 106.1853,150.1893 105.099,151.4416 104.9178,151.9157 C 104.9178,151.9157 104.5134,152.4594 104.5274,153.3378 L 102.9632,152.7686 L 103.0552,152.2745 C 103.0552,152.2745 103.4965,150.7721 104.6638,149.2715 L 106.6505,146.7063 C 106.6505,146.7063 107.1746,146.1961 107.361,145.463 L 107.361,145.463 z "
   style="fill:#f8c300" />
   <path
   id="_74427640"
   class="fil5 str3"
   d="M 107.361,145.463 L 107.4825,144.423 L 109.0099,144.423 L 109.0099,145.9606 C 109.0099,145.9606 108.8498,146.7567 108.1665,147.5933 L 106.1853,150.1893 C 106.1853,150.1893 105.099,151.4416 104.9178,151.9157 C 104.9178,151.9157 104.5134,152.4594 104.5274,153.3378 L 102.9632,152.7686 L 103.0552,152.2745 C 103.0552,152.2745 103.4965,150.7721 104.6638,149.2715 L 106.6505,146.7063 C 106.6505,146.7063 107.1746,146.1961 107.361,145.463 L 107.361,145.463 z "
   style="fill:none;stroke:#1f1a17;stroke-width:0.1219" />
   <path
   id="_74429320"
   class="fil6"
   d="M 105.736,151.012 L 105.6239,150.9677 C 105.2735,151.3986 104.4451,152.7041 104.5274,153.3382 C 104.6447,153.4229 105.1426,152.8333 105.2127,152.7497 C 105.3609,152.5722 105.6002,152.2229 105.9336,151.5447 C 105.9336,151.5447 106.1166,151.1106 105.736,151.012 L 105.736,151.012 z "
   style="fill:#f8c300" />
   <path
   id="_74429296"
   class="fil5 str3"
   d="M 105.736,151.012 L 105.6239,150.9677 C 105.2735,151.3986 104.4451,152.7041 104.5274,153.3382 C 104.6447,153.4229 105.1426,152.8333 105.2127,152.7497 C 105.3609,152.5722 105.6002,152.2229 105.9336,151.5447 C 105.9336,151.5447 106.1166,151.1106 105.736,151.012 L 105.736,151.012 z "
   style="fill:none;stroke:#1f1a17;stroke-width:0.1219" />
   <path
   id="_74427496"
   class="fil6"
   d="M 105.785,152.399 L 105.7655,151.874 C 105.7655,151.874 105.0584,153.291 104.5273,153.3375 C 104.5273,153.3375 104.0936,153.2525 103.8082,153.0928 L 102.6577,154.346 C 102.6577,154.346 100.8176,155.675 100.6187,157.2797 C 100.6187,157.2797 100.4197,158.2942 101.0365,159.4876 L 101.3878,160.1705 L 101.7621,159.9748 L 101.7883,159.7354 C 102.2257,159.7215 102.2617,160.337 102.2617,160.337 C 102.3392,160.1948 102.2746,159.8525 102.2746,159.8525 C 102.0808,159.465 102.1051,158.5023 102.1051,158.5023 L 102.1095,158.4402 C 102.1095,158.4402 102.3037,157.6467 102.4526,157.4797 L 104.7863,154.4599 C 104.7863,154.4599 105.3878,153.4664 105.785,152.399 L 105.785,152.399 z "
   style="fill:#f8c300" />
   <path
   id="_74429200"
   class="fil5 str3"
   d="M 105.785,152.399 L 105.7655,151.874 C 105.7655,151.874 105.0584,153.291 104.5273,153.3375 C 104.5273,153.3375 104.0936,153.2525 103.8082,153.0928 L 102.6577,154.346 C 102.6577,154.346 100.8176,155.675 100.6187,157.2797 C 100.6187,157.2797 100.4197,158.2942 101.0365,159.4876 L 101.3878,160.1705 L 101.7621,159.9748 L 101.7883,159.7354 C 102.2257,159.7215 102.2617,160.337 102.2617,160.337 C 102.3392,160.1948 102.2746,159.8525 102.2746,159.8525 C 102.0808,159.465 102.1051,158.5023 102.1051,158.5023 L 102.1095,158.4402 C 102.1095,158.4402 102.3037,157.6467 102.4526,157.4797 L 104.7863,154.4599 C 104.7863,154.4599 105.3878,153.4664 105.785,152.399 L 105.785,152.399 z "
   style="fill:none;stroke:#1f1a17;stroke-width:0.1219" />
   <path
   id="_74428888"
   class="fil4"
   d="M 108.903,143.61 C 108.903,143.61 108.4742,144.0016 108.3063,144.0638 C 108.5474,144.1532 108.9371,143.6743 108.903,143.61 z "
   style="fill:#1f1a17" />
   <path
   id="_74428984"
   class="fil4"
   d="M 108.997,144.609 L 109.01,144.3564 C 109.01,144.3564 109.5974,145.0662 109.5486,146.718 C 109.5486,146.718 109.5536,145.493 109.0732,144.8547 L 108.997,144.609 L 108.997,144.609 z "
   style="fill:#1f1a17" />
   <path
   id="_109028648"
   class="fil4"
   d="M 109.811,144.683 L 109.7553,144.4409 C 109.7553,144.4409 109.7476,145.2261 109.7111,145.3236 C 109.7111,145.3236 109.831,144.7765 109.811,144.683 z "
   style="fill:#1f1a17" />
   <path
   id="_109030880"
   class="fil4"
   d="M 108.967,146.121 C 108.967,146.121 109.2208,147.3592 108.9785,148.5344 C 108.9785,148.5344 108.873,149.0859 108.873,149.4236 L 108.8734,150.0168 C 108.8734,150.0168 108.7785,148.5111 108.6581,148.2341 L 108.5965,147.3329 L 108.5558,147.037 L 108.6359,146.897 L 108.7663,148.1591 L 108.8198,148.2365 L 108.8793,148.1888 L 108.9031,148.0877 C 108.9031,148.0877 109.0903,147.1817 108.9363,146.4414 L 108.9012,146.3169 L 108.967,146.121 L 108.967,146.121 z "
   style="fill:#1f1a17" />
   <path
   id="_109031096"
   class="fil5 str0"
   d="M 108.967,146.121 C 108.967,146.121 109.2208,147.3592 108.9785,148.5344 C 108.9785,148.5344 108.873,149.0859 108.873,149.4236 L 108.8734,150.0168 C 108.8734,150.0168 108.7785,148.5111 108.6581,148.2341 L 108.5965,147.3329 L 108.5558,147.037 L 108.6359,146.897 L 108.7663,148.1591 L 108.8198,148.2365 L 108.8793,148.1888 L 108.9031,148.0877 C 108.9031,148.0877 109.0903,147.1817 108.9363,146.4414 L 108.9012,146.3169 L 108.967,146.121 L 108.967,146.121 z "
   style="fill:none;stroke:#1f1a17;stroke-width:0.0762" />
   <path
   id="_109028576"
   class="fil4"
   d="M 108.137,147.633 L 108.3762,147.3696 C 108.3762,147.3696 108.2373,148.568 108.191,149.1121 L 108.1331,147.7805 L 108.137,147.633 z "
   style="fill:#1f1a17" />
   <path
   id="_109028696"
   class="fil4"
   d="M 108.1,150.373 L 108.0973,149.301 C 108.0973,149.301 108.0464,150.1762 108.0613,150.6122 C 108.0656,150.7444 108.0766,150.7937 108.1376,150.9086 C 108.2109,151.0471 108.3948,151.3295 108.4894,151.4205 L 108.5262,151.1201 C 108.5262,151.1201 108.1282,150.9056 108.1,150.373 L 108.1,150.373 z "
   style="fill:#1f1a17" />
   <path
   id="_109028936"
   class="fil4"
   d="M 108.261,150.745 C 108.261,150.745 108.3626,150.4523 108.7867,150.4748 C 108.7867,150.4748 108.5534,150.5243 108.5374,150.7833 C 108.5214,151.0423 108.5114,150.9002 108.5114,150.9002 C 108.4358,150.7829 108.409,150.6417 108.261,150.745 z "
   style="fill:#1f1a17" />
   <path
   id="_109028888"
   class="fil4"
   d="M 109.198,150.191 L 109.0876,150.1619 L 108.9922,150.1981 C 108.9922,150.1981 109.2369,150.2243 109.3203,150.58 C 109.3203,150.58 109.3425,150.8135 109.5036,150.6298 C 109.5036,150.6298 109.6708,150.0841 109.8418,149.9569 C 109.8418,149.9569 109.818,149.8014 109.8513,149.5722 C 109.8513,149.5722 109.7038,150.1409 109.5092,150.2075 C 109.5092,150.2075 109.4092,150.2409 109.198,150.191 L 109.198,150.191 z "
   style="fill:#1f1a17" />
   <path
   id="_109028984"
   class="fil4"
   d="M 101.948,142.64 L 102.0366,142.4077 C 102.0366,142.4077 102.0916,142.7217 102.185,142.9035 C 102.185,142.9035 101.9969,142.7675 101.948,142.64 z "
   style="fill:#1f1a17" />
   <path
   id="_109030688"
   class="fil4"
   d="M 102.164,144.336 C 102.1463,144.204 102.1028,144.2252 101.973,144.295 C 101.8414,144.3658 101.6894,144.4682 101.5991,144.6639 C 101.5991,144.6639 101.2708,145.2111 101.2598,145.2876 L 101.3606,145.3317 C 101.3606,145.3317 101.5651,144.8048 101.7031,144.7679 C 101.7031,144.7679 101.8845,144.8367 102.0106,144.5862 L 102.164,144.336 L 102.164,144.336 z "
   style="fill:#1f1a17" />
   <path
   id="_109028768"
   class="fil4"
   d="M 100.651,146.791 L 100.7115,146.2703 C 100.7115,146.2703 100.9637,145.9267 101.133,145.5569 L 101.1173,145.8043 C 101.1173,145.8043 100.8723,146.5326 100.651,146.791 z "
   style="fill:#1f1a17" />
   <path
   id="_109029488"
   class="fil4"
   d="M 107.013,138.45 C 106.9364,138.3543 106.8459,138.275 106.7656,138.2574 L 106.766,137.5834 C 106.766,137.5834 107.1316,137.255 107.1927,136.965 C 107.1927,136.965 107.2024,136.3792 107.0519,136.1504 L 106.0967,135.0632 L 105.9923,135.2235 C 105.9923,135.2235 105.806,135.1762 105.7114,135.073 C 105.7114,135.073 105.6478,134.9857 105.3361,135.153 C 105.3361,135.153 104.4517,135.7331 104.0739,136.1771 C 103.9331,136.3425 103.9404,136.4042 103.94,136.6212 C 103.9396,136.7701 103.9459,136.9526 103.972,137.0866 C 103.9888,137.1725 104.0167,137.2198 104.0629,137.2927 C 104.1117,137.3694 104.1849,137.4823 104.2573,137.5855 L 104.2741,137.6972 L 104.2714,138.0675 C 104.2714,138.0675 103.6447,138.4085 103.7505,139.0887 C 103.7505,139.0887 103.7493,139.1377 103.8606,139.3078 C 103.8606,139.3078 103.74,140.0547 104.0966,140.1552 C 104.453,140.2556 104.888,140.3676 104.888,140.3676 L 105.801,140.4401 L 106.1436,140.3531 L 106.5748,140.1278 C 106.5748,140.1278 107.0202,140.0943 107.1093,139.7874 C 107.1093,139.7874 107.1577,139.5719 107.0965,139.2984 C 107.0965,139.2984 107.141,138.6063 107.013,138.45 L 107.013,138.45 z "
   style="fill:#1f1a17" />
   <path
   id="_109029392"
   class="fil4"
   d="M 101.662,146.093 L 101.5105,146.0666 C 101.5105,146.0666 101.6982,147.3604 101.667,147.955 L 101.667,149.4679 L 101.684,149.6179 C 100.6893,149.6729 100.5146,149.9207 100.5146,149.9207 L 100.527,150.13 L 100.5927,150.1617 C 100.7167,149.6656 101.7915,149.7399 101.7944,149.7286 L 101.8254,149.609 L 101.8496,149.3871 L 101.861,149.3914 C 101.9314,149.4615 102.1666,150.2552 102.0636,150.7185 L 102.0441,150.811 L 102.0909,150.8726 C 102.1619,150.9658 102.1807,149.567 101.9211,149.1433 L 101.9211,149.1434 C 101.8449,148.6161 101.6982,147.5146 101.7504,147.183 L 101.7352,146.9928 L 101.845,146.9305 L 101.8422,146.7761 L 101.82,146.7293 L 101.6986,146.726 C 101.6986,146.726 101.696,146.6187 101.6855,146.5769 C 101.6752,146.5351 101.6308,146.1766 101.662,146.093 L 101.662,146.093 z "
   style="fill:#1f1a17" />
   <path
   id="_109029248"
   class="fil4"
   d="M 100.526,150.11 L 100.6052,150.1223 C 100.6052,150.1223 100.6118,150.4525 101.4352,150.4322 C 101.4352,150.4322 101.9423,150.4341 102.1492,150.9139 C 102.1492,150.9139 102.1585,151.0312 102.1797,151.4933 C 102.1797,151.4933 102.1616,151.513 102.091,151.5504 C 102.1065,151.6699 102.1658,151.9523 102.1658,151.9523 L 102.0142,151.9544 C 102.0302,151.9134 102.0296,151.675 102.0288,151.5811 C 101.9996,151.5948 101.9648,151.6098 101.9241,151.6265 C 101.9241,151.6265 101.518,151.9513 101.4976,153.0844 L 101.4878,153.2271 L 101.281,152.9172 C 101.281,152.9172 101.2309,152.3298 101.8435,151.5062 C 101.8435,151.5062 102.0528,151.4638 102.0343,151.0744 C 102.0158,150.685 101.7481,150.5321 101.4568,150.517 C 101.4568,150.517 100.6337,150.5099 100.5381,150.2825 L 100.526,150.11 L 100.526,150.11 z "
   style="fill:#1f1a17" />
   <path
   id="_109029224"
   class="fil4"
   d="M 101.388,144.059 L 101.3963,143.8888 C 101.3963,143.8888 101.524,143.9322 101.568,143.8112 C 101.568,143.8112 101.6229,143.9212 101.5571,143.9928 C 101.5571,143.9928 101.4653,144.0733 101.388,144.059 L 101.388,144.059 z "
   style="fill:#1f1a17" />
   <path
   id="_109029320"
   class="fil6"
   d="M 104.463,137.545 L 104.4574,137.9659 C 104.4574,137.9659 106.0646,137.8631 106.5815,138.0766 L 106.5978,137.6322 C 106.6067,137.3934 104.6088,137.4393 104.463,137.545 z "
   style="fill:#f8c300" />
   <path
   id="_109029752"
   class="fil1"
   d="M 104.09,138.428 L 104.3652,138.1935 C 104.3652,138.1935 104.3471,139.02 104.3799,139.1844 C 104.3799,139.1844 104.6299,139.7316 104.6573,139.8028 C 104.6573,139.8028 104.6699,140.0725 104.4073,140.067 C 104.4073,140.067 103.9094,140.1603 103.9532,139.5791 L 104.0735,139.2447 C 104.0735,139.2447 103.8219,139.2064 103.8438,138.9269 C 103.8438,138.9269 103.893,138.554 104.09,138.428 L 104.09,138.428 z "
   style="fill:#ffffff" />
   <path
   id="_109029848"
   class="fil1"
   d="M 106.765,138.394 L 106.7104,138.3995 C 106.7104,138.3995 106.5847,138.4926 106.5847,138.6075 C 106.5847,138.6075 106.6011,139.2478 106.5136,139.4285 C 106.5136,139.4285 106.3607,139.8391 106.2842,139.9484 C 106.2842,139.9484 106.1914,140.0415 106.3936,140.0579 C 106.3936,140.0579 106.7868,140.0743 106.7868,139.8883 C 106.7868,139.8883 107.0436,139.9102 107.0382,139.5762 C 107.0382,139.5762 107.0763,139.4012 106.9507,139.3354 C 106.9507,139.3354 107,138.6513 106.8797,138.5582 C 106.8797,138.5582 106.8878,138.4296 106.765,138.394 L 106.765,138.394 z "
   style="fill:#ffffff" />
   <path
   id="_109029584"
   class="fil7"
   d="M 106.556,138.09 C 105.813,137.9589 105.1592,137.9801 104.4377,138.0108 C 104.4377,138.0108 104.2923,138.6638 104.4562,139.2388 C 104.4562,139.2388 104.6202,139.8742 104.9974,140.148 C 104.9974,140.148 105.7298,140.5149 106.2054,139.9399 C 106.2054,139.9399 106.5149,139.608 106.5313,139.0875 C 106.5313,139.0875 106.5942,138.2598 106.556,138.09 L 106.556,138.09 z "
   style="fill:#f2aea9" />
   <path
   id="_109029896"
   class="fil3"
   d="M 104.284,137.213 L 104.4242,137.3648 C 104.4242,137.3648 105.8221,137.2009 106.5537,137.3975 C 106.5537,137.3975 106.9032,137.3648 106.925,136.6658 C 106.925,136.6658 106.82,136.3851 106.6344,136.2483 L 105.6868,135.2298 C 105.6868,135.2298 104.6317,135.683 104.3041,136.3273 C 104.3041,136.3273 104.1074,136.6564 104.284,137.213 L 104.284,137.213 z "
   style="fill:#da251d" />
   <path
   id="_109030016"
   class="fil5 str0"
   d="M 104.284,137.213 L 104.4242,137.3648 C 104.4242,137.3648 105.8221,137.2009 106.5537,137.3975 C 106.5537,137.3975 106.9032,137.3648 106.925,136.6658 C 106.925,136.6658 106.82,136.3851 106.6344,136.2483 L 105.6868,135.2298 C 105.6868,135.2298 104.6317,135.683 104.3041,136.3273 C 104.3041,136.3273 104.1074,136.6564 104.284,137.213 L 104.284,137.213 z "
   style="fill:none;stroke:#1f1a17;stroke-width:0.0762" />
   <path
   id="_109030088"
   class="fil6"
   d="M 105.407,136.262 L 105.4017,136.4423 C 105.3434,136.4423 105.285,136.4423 105.2268,136.4423 C 105.1423,136.4353 105.0318,136.4556 104.9627,136.3618 C 104.798,136.3592 104.7455,136.4127 104.6445,136.4565 C 104.6266,136.5252 104.6277,136.591 104.635,136.666 C 104.6795,136.7301 104.7937,136.7485 104.9432,136.7958 C 105.0187,136.7014 105.1213,136.7268 105.2388,136.7168 L 105.3962,136.7207 C 105.3962,136.799 105.3962,136.8772 105.3962,136.9556 C 105.2631,137.025 105.2621,137.1604 105.28,137.3056 C 105.4476,137.3051 105.5571,137.3031 105.7249,137.3028 C 105.7841,137.1717 105.8269,137.0679 105.6473,136.95 L 105.6473,136.6989 C 105.7347,136.6989 105.8221,136.6989 105.9094,136.6989 C 106.0135,136.6994 106.1066,136.7261 106.1757,136.8101 C 106.2838,136.8136 106.3768,136.7799 106.4544,136.7088 C 106.5288,136.6458 106.509,136.5572 106.486,136.4676 C 106.4095,136.4101 106.3111,136.379 106.1908,136.3744 C 106.1102,136.4302 106.0194,136.4448 105.9258,136.448 L 105.6473,136.4477 C 105.6473,136.384 105.6473,136.3203 105.6473,136.2566 C 105.6462,136.1374 105.6925,136.0474 105.7864,135.9866 C 105.7926,135.9088 105.7523,135.8312 105.6657,135.7537 C 105.5744,135.7124 105.4794,135.6934 105.3714,135.7536 C 105.2987,135.7959 105.2597,135.8722 105.2543,135.9822 C 105.3448,136.0755 105.401,136.1687 105.407,136.262 L 105.407,136.262 z "
   style="fill:#f8c300" />
   <polygon
   id="_109030160"
   class="fil4"
   points="102.64,145.209 102.671,145.785 102.963,145.754 102.918,144.956 102.64,145.209 "
   style="fill:#1f1a17" />
   <path
   id="_109030232"
   class="fil4"
   d="M 105.136,139.779 L 105.0866,139.7565 C 105.0526,139.741 105.0601,139.7487 105.0825,139.7202 C 105.1461,139.6392 105.3406,139.3939 105.8136,139.6347 L 105.8094,139.7111 C 105.8094,139.7111 105.5563,139.6509 105.356,139.6703 C 105.2898,139.6767 105.2711,139.682 105.2243,139.7233 C 105.1951,139.7491 105.1567,139.779 105.136,139.779 z "
   style="fill:#1f1a17" />
   <path
   id="_109030304"
   class="fil4"
   d="M 105.673,139.812 L 105.3197,139.8188 C 105.3197,139.8188 105.3044,139.9497 105.4127,139.9558 C 105.5464,139.9668 105.6275,139.9288 105.673,139.812 z "
   style="fill:#1f1a17" />
   <path
   id="_109030376"
   class="fil4"
   d="M 105.122,139.226 C 105.0976,139.2513 105.0733,139.2532 105.0488,139.2319 C 105.0488,139.2319 105.0177,139.0901 105.1096,139.032 C 105.1618,138.9989 105.2064,138.9976 105.2668,139.0285 C 105.3194,139.0554 105.3803,139.1272 105.4737,139.1251 C 105.4737,139.1251 105.7533,139.1357 105.7738,138.9519 C 105.7738,138.9519 105.8843,138.8965 105.8756,139.0277 L 105.8621,139.095 C 105.8387,139.2106 105.4728,139.2737 105.3325,139.1942 C 105.2671,139.1571 105.2324,139.1503 105.1752,139.1736 C 105.153,139.1826 105.1473,139.2005 105.122,139.226 L 105.122,139.226 z "
   style="fill:#1f1a17" />
   <path
   id="_109030448"
   class="fil4"
   d="M 104.983,138.523 C 104.8665,138.5329 104.8142,138.5283 104.7122,138.4735 C 104.7122,138.4735 104.7393,138.279 105.3779,138.3414 C 105.3779,138.3414 105.4829,138.5487 105.25,138.6304 C 105.1886,138.6519 105.0127,138.6273 104.983,138.523 L 104.983,138.523 z "
   style="fill:#1f1a17" />
   <path
   id="_109030520"
   class="fil4"
   d="M 105.991,138.506 C 106.1469,138.5174 106.2184,138.5184 106.3203,138.4636 C 106.3203,138.4636 106.1905,138.263 105.5961,138.3434 C 105.5961,138.3434 105.4909,138.5507 105.7239,138.6324 C 105.7853,138.6539 105.9613,138.6103 105.991,138.506 z "
   style="fill:#1f1a17" />
   <path
   id="_109030592"
   class="fil4"
   d="M 104.054,139.32 L 104.0338,139.2269 C 104.0341,139.2272 104.05,139.2315 104.0734,139.2254 C 104.1376,139.209 104.2697,139.1731 104.3714,139.1432 C 104.3855,139.1389 104.3804,139.1845 104.3804,139.1845 C 104.2888,139.2165 104.201,139.2486 104.1095,139.2805 C 104.0846,139.2846 104.0676,139.2998 104.054,139.32 L 104.054,139.32 z "
   style="fill:#1f1a17" />
   <path
   id="_109029920"
   class="fil7"
   d="M 104.787,140.56 L 104.7953,140.2067 L 104.9761,140.2067 C 104.9761,140.2067 105.3613,140.5786 106.0557,140.2544 L 106.1128,140.2449 L 106.1378,140.4611 C 106.1378,140.4611 105.5599,140.8282 105.1523,140.8479 C 105.0057,140.8551 104.8666,140.6726 104.787,140.56 L 104.787,140.56 z "
   style="fill:#f2aea9" />
   <polygon
   id="_109031192"
   class="fil4"
   points="104.171,154.068 103.841,154.073 103.846,154.382 104.181,154.389 104.171,154.068 "
   style="fill:#1f1a17" />
   <path
   id="_109031528"
   class="fil2"
   d="M 107.9,146.844 L 107.9638,146.7474 C 108.1822,146.8514 108.4138,146.7191 108.5077,146.5101 C 108.5437,146.43 108.5543,146.3569 108.5397,146.2913 C 108.5249,146.2255 108.4873,146.1793 108.4269,146.1522 C 108.3805,146.1314 108.3326,146.1302 108.2823,146.1489 C 108.2321,146.1677 108.1491,146.2268 108.033,146.3266 L 108.0238,146.3343 C 107.7654,146.5563 107.5849,146.6444 107.4829,146.5986 C 107.4455,146.5817 107.4131,146.5543 107.3864,146.5163 C 107.3594,146.4783 107.3404,146.4324 107.3292,146.3785 C 107.3182,146.33 107.3172,146.2776 107.3258,146.221 C 107.3345,146.1641 107.3533,146.1041 107.3812,146.0416 C 107.406,145.9865 107.5032,145.8583 107.547,145.7979 C 107.5743,145.7606 107.6217,145.7073 107.6431,145.6359 L 107.6831,145.5024 L 107.9815,145.6824 L 107.9468,145.7604 C 107.8556,145.7349 107.7442,145.7458 107.6726,145.7829 C 107.6007,145.8202 107.4805,145.9569 107.4379,146.0516 C 107.4036,146.1281 107.3931,146.2006 107.4063,146.2701 C 107.4192,146.3394 107.4525,146.386 107.5055,146.4098 C 107.5726,146.44 107.7124,146.3641 107.9249,146.1829 C 107.964,146.1494 107.9946,146.1236 108.0163,146.1058 C 108.1185,146.0198 108.2022,145.965 108.2669,145.9411 C 108.3318,145.9175 108.3918,145.9178 108.4469,145.9427 C 108.5395,145.9842 108.5951,146.0634 108.6139,146.1803 C 108.6328,146.2971 108.6095,146.4279 108.5448,146.5721 C 108.5122,146.6446 108.4724,146.7116 108.4252,146.7733 C 108.3777,146.8356 108.2854,146.9301 108.2223,146.9822 L 107.9,146.844 L 107.9,146.844 z "
   style="fill:#1f1a17;fill-rule:nonzero" />
   <path
   id="_109031576"
   class="fil2"
   d="M 107.708,147.849 L 107.6663,147.819 C 107.7013,147.7634 107.7164,147.7177 107.711,147.6824 C 107.7057,147.6468 107.6783,147.6111 107.6288,147.5757 L 107.0001,147.1239 C 106.9509,147.0886 106.9088,147.0739 106.8738,147.0802 C 106.8388,147.0866 106.8005,147.1158 106.7588,147.1669 L 106.717,147.1371 L 107.0193,146.7162 L 107.0611,146.7462 C 107.0261,146.8017 107.0109,146.8469 107.0161,146.8822 C 107.0212,146.9174 107.0486,146.9527 107.0978,146.9879 L 107.7265,147.4396 C 107.7761,147.4752 107.8185,147.4898 107.8539,147.4834 C 107.8892,147.4771 107.9274,147.4484 107.9685,147.3982 L 108.0103,147.4281 L 107.708,147.849 L 107.708,147.849 z "
   style="fill:#1f1a17;fill-rule:nonzero" />
   <path
   id="_109031264"
   class="fil2"
   d="M 107.124,148.569 L 107.0848,148.5407 C 107.1177,148.4887 107.1321,148.4459 107.127,148.4127 C 107.1222,148.3794 107.0965,148.3459 107.0501,148.3125 L 106.3314,147.7946 L 106.254,147.902 C 106.2149,147.9563 106.1969,148.0097 106.1996,148.0624 C 106.2026,148.1151 106.2272,148.1753 106.2737,148.243 L 106.2447,148.2834 L 106.0534,148.0978 L 106.6266,147.3023 L 106.8633,147.425 L 106.8351,147.4641 C 106.7565,147.4417 106.6913,147.4376 106.6403,147.4515 C 106.5891,147.4655 106.5437,147.4999 106.5043,147.5544 L 106.4241,147.6659 L 107.1428,148.1838 C 107.1892,148.2171 107.2291,148.2314 107.2622,148.226 C 107.295,148.2205 107.3307,148.1941 107.369,148.1464 L 107.4081,148.1746 L 107.124,148.569 L 107.124,148.569 z "
   style="fill:#1f1a17;fill-rule:nonzero" />
   <path
   id="_109031456"
   class="fil2"
   d="M 101.59,158.083 L 101.6239,157.965 C 101.8777,158.0009 102.0701,157.7937 102.0986,157.5525 C 102.1097,157.4601 102.0971,157.3828 102.0616,157.321 C 102.0259,157.2594 101.9731,157.2245 101.9035,157.2163 C 101.85,157.2098 101.801,157.2239 101.7562,157.2589 C 101.7113,157.2937 101.6462,157.3797 101.5605,157.5175 L 101.5536,157.5283 C 101.3627,157.8347 101.208,157.9813 101.0903,157.9671 C 101.0471,157.962 101.0057,157.9445 100.9666,157.9143 C 100.9273,157.8846 100.8935,157.8442 100.865,157.7933 C 100.8387,157.7478 100.8209,157.695 100.8116,157.6352 C 100.8024,157.5747 100.8023,157.5082 100.8108,157.436 C 100.8183,157.3725 100.8759,157.2119 100.9012,157.1371 C 100.9168,157.0907 100.948,157.0217 100.947,156.9427 L 100.9451,156.7949 L 101.3039,156.8824 L 101.2936,156.9723 C 101.1934,156.9754 101.0842,157.0217 101.0234,157.082 C 100.9624,157.1425 100.8843,157.3189 100.8712,157.4281 C 100.8608,157.5164 100.8733,157.5932 100.9087,157.6591 C 100.9438,157.7253 100.9923,157.7617 101.0533,157.769 C 101.1306,157.7782 101.248,157.6572 101.4056,157.4064 C 101.4344,157.3601 101.4572,157.3244 101.4735,157.2995 C 101.5495,157.1801 101.6167,157.0981 101.6747,157.0536 C 101.7328,157.009 101.7936,156.9904 101.8572,156.9979 C 101.9639,157.0107 102.0455,157.073 102.1017,157.1852 C 102.1576,157.2975 102.1756,157.4371 102.1559,157.6035 C 102.1459,157.6871 102.1268,157.7674 102.0988,157.8449 C 102.0706,157.9229 102.007,158.0477 101.9599,158.1205 L 101.59,158.083 L 101.59,158.083 z "
   style="fill:#1f1a17;fill-rule:nonzero" />
   <path
   id="_109031840"
   class="fil2"
   d="M 103.047,155.624 L 103.1364,155.5399 C 103.3364,155.7002 103.6076,155.6201 103.7551,155.4273 C 103.8119,155.3534 103.8405,155.2807 103.8415,155.2094 C 103.8421,155.138 103.8145,155.081 103.7589,155.0385 C 103.7161,155.0057 103.6669,154.9929 103.6105,154.9998 C 103.5541,155.0071 103.4541,155.0479 103.3102,155.1226 L 103.2987,155.1284 C 102.9783,155.2946 102.7706,155.3416 102.6763,155.2696 C 102.6418,155.243 102.6151,155.2069 102.597,155.1611 C 102.5783,155.1154 102.5698,155.0635 102.5714,155.0051 C 102.5719,154.9523 102.5834,154.898 102.6061,154.8418 C 102.6289,154.7851 102.6629,154.7278 102.707,154.6702 C 102.7458,154.6194 102.8773,154.5105 102.9372,154.4591 C 102.9743,154.4271 103.0362,154.3836 103.0757,154.3152 L 103.1495,154.1872 L 103.4135,154.4455 L 103.3588,154.5175 C 103.2709,154.4691 103.1533,154.4532 103.0704,154.474 C 102.9871,154.495 102.8299,154.6069 102.7631,154.6942 C 102.709,154.7647 102.6806,154.8372 102.6773,154.9119 C 102.6738,154.9868 102.6968,155.0428 102.7456,155.0803 C 102.8075,155.1275 102.9701,155.0835 103.2335,154.9481 C 103.282,154.923 103.3198,154.9038 103.3464,154.8908 C 103.4729,154.8268 103.5725,154.7906 103.6451,154.7819 C 103.7178,154.7731 103.7796,154.7881 103.8305,154.8271 C 103.9159,154.8924 103.9541,154.9878 103.945,155.1129 C 103.936,155.2379 103.8802,155.3672 103.7784,155.5002 C 103.7272,155.5672 103.6698,155.6265 103.6061,155.6789 C 103.5421,155.7315 103.4238,155.8065 103.3461,155.845 L 103.047,155.624 L 103.047,155.624 z "
   style="fill:#1f1a17;fill-rule:nonzero" />
   <path
   id="_109031912"
   class="fil2"
   d="M 102.468,155.754 C 102.2696,155.6562 102.0893,155.6186 101.9264,155.6408 C 101.7631,155.663 101.6493,155.7401 101.5845,155.8715 C 101.5237,155.9949 101.5273,156.1166 101.5953,156.2369 C 101.6636,156.3569 101.789,156.4619 101.9713,156.5518 C 102.1697,156.6496 102.3505,156.6872 102.5142,156.6648 C 102.678,156.6427 102.7923,156.566 102.8568,156.4351 C 102.9166,156.3136 102.9122,156.1918 102.8429,156.0702 C 102.7738,155.9484 102.6489,155.843 102.468,155.754 L 102.468,155.754 z M 102.9061,156.481 C 102.815,156.6662 102.6778,156.7849 102.4951,156.8375 C 102.3123,156.8901 102.1186,156.866 101.9144,156.7653 C 101.8211,156.7194 101.7399,156.6586 101.6714,156.5839 C 101.6029,156.5087 101.5513,156.425 101.5174,156.3327 C 101.4841,156.2411 101.469,156.1531 101.4726,156.0682 C 101.4762,155.9838 101.4985,155.8997 101.5394,155.8167 C 101.5771,155.7401 101.6235,155.6756 101.6784,155.6224 C 101.7332,155.5698 101.7967,155.5289 101.8685,155.4999 C 101.9716,155.458 102.076,155.4397 102.1819,155.4445 C 102.2876,155.4495 102.3929,155.4776 102.4978,155.5293 C 102.5966,155.578 102.6836,155.642 102.7586,155.7207 C 102.8337,155.7995 102.8874,155.8834 102.92,155.972 C 102.9545,156.0665 102.9707,156.1547 102.9688,156.2365 C 102.9668,156.3189 102.946,156.4002 102.9061,156.481 L 102.9061,156.481 z "
   style="fill:#1f1a17;fill-rule:nonzero" />
   <path
   id="_109031984"
   class="fil2"
   d="M 104.693,152.201 C 104.6259,152.1973 104.5394,152.1944 104.4335,152.1931 C 104.3989,152.1924 104.3737,152.1924 104.3583,152.1923 L 103.7639,152.1824 C 103.6561,152.1805 103.5865,152.1865 103.5555,152.2001 C 103.5245,152.2137 103.5037,152.2387 103.4928,152.275 L 103.4877,152.2921 L 103.4434,152.2706 L 103.5836,151.8032 L 103.6279,151.8248 L 103.6247,151.8356 C 103.6119,151.8779 103.6074,151.9114 103.6106,151.9366 C 103.6139,151.9612 103.625,151.9782 103.6438,151.9873 C 103.6497,151.9903 103.6573,151.9925 103.6668,151.9939 C 103.6765,151.9957 103.6881,151.9967 103.7023,151.9975 L 104.5268,152.0216 L 104.0142,151.4735 L 104.0073,151.4663 C 103.9289,151.3823 103.8798,151.3353 103.86,151.3257 C 103.8373,151.3146 103.8159,151.3188 103.7956,151.3381 C 103.7754,151.3573 103.7584,151.3904 103.7442,151.4379 L 103.7378,151.4592 L 103.6935,151.4377 L 103.8102,151.0492 L 103.8544,151.0708 L 103.8512,151.0815 C 103.8306,151.1496 103.8857,151.2533 104.0158,151.3934 L 104.0186,151.3957 L 104.4243,151.8312 L 104.4707,151.8814 C 104.6118,152.0328 104.693,152.1158 104.7142,152.1302 L 104.693,152.201 L 104.693,152.201 z "
   style="fill:#1f1a17;fill-rule:nonzero" />
   <path
   id="_109032056"
   class="fil2"
   d="M 104.956,151.601 L 104.9137,151.572 C 104.9475,151.5157 104.9618,151.4697 104.9558,151.4345 C 104.9499,151.399 104.9217,151.3639 104.8716,151.3294 L 104.2342,150.89 C 104.1843,150.8555 104.142,150.8416 104.1071,150.8486 C 104.0724,150.8556 104.0346,150.8856 103.9937,150.9376 L 103.9514,150.9084 L 104.2457,150.4819 L 104.2879,150.511 C 104.2541,150.5671 104.2397,150.6128 104.2457,150.6479 C 104.2513,150.683 104.2794,150.7176 104.3294,150.7521 L 104.9667,151.1915 C 105.0168,151.226 105.0596,151.2399 105.0949,151.2327 C 105.13,151.226 105.1677,151.1965 105.2079,151.1453 L 105.2502,151.1744 L 104.956,151.601 L 104.956,151.601 z "
   style="fill:#1f1a17;fill-rule:nonzero" />
   <path
   id="_109032128"
   class="fil2"
   d="M 105.56,149.878 L 105.58,149.8374 L 105.8056,149.9748 L 105.9282,150.0056 L 105.8818,150.079 L 105.8257,150.0693 C 105.8268,150.0696 105.7951,150.1744 105.7941,150.1793 C 105.7809,150.2484 105.7589,150.3147 105.7279,150.3777 C 105.6502,150.5357 105.5367,150.6397 105.387,150.6887 C 105.2375,150.7383 105.0818,150.7233 104.9205,150.6439 C 104.8514,150.61 104.7906,150.5687 104.7383,150.5197 C 104.686,150.4706 104.6428,150.4153 104.609,150.3536 C 104.5655,150.2746 104.5432,150.19 104.5429,150.1 C 104.5423,150.01 104.5638,149.9213 104.6064,149.8343 C 104.6364,149.7735 104.6721,149.7181 104.7141,149.6675 C 104.7561,149.6169 104.8333,149.5612 104.8868,149.5211 L 104.8561,149.4159 L 104.8787,149.3795 L 105.1462,149.5741 L 105.1106,149.6158 C 105.0104,149.6069 104.8876,149.6629 104.8128,149.7009 C 104.7383,149.7388 104.6815,149.7973 104.6426,149.8767 C 104.5909,149.9819 104.5936,150.088 104.6511,150.1948 C 104.7081,150.3014 104.8114,150.3914 104.96,150.4642 C 105.1215,150.5437 105.2684,150.5736 105.4008,150.5538 C 105.5328,150.5341 105.6257,150.4699 105.6793,150.361 C 105.7188,150.2803 105.7279,150.1968 105.7067,150.11 C 105.6853,150.0235 105.6363,149.9461 105.56,149.878 L 105.56,149.878 z "
   style="fill:#1f1a17;fill-rule:nonzero" />
   <path
   id="_109032200"
   class="fil2"
   d="M 105.711,149.445 C 105.7841,149.6298 106.2464,149.5896 106.3716,149.499 C 106.4219,149.4626 106.4648,149.4158 106.4996,149.3593 C 106.5449,149.2857 106.5617,149.1886 106.5669,149.114 C 106.5721,149.0392 106.5005,148.9387 106.4638,148.887 L 106.4799,148.8733 L 106.8217,149.0701 C 106.8133,149.079 106.8049,149.0879 106.7965,149.0967 C 106.7447,149.0956 106.7065,149.1032 106.6819,149.1193 C 106.6734,149.125 106.6345,149.311 106.577,149.4043 C 106.4895,149.5464 106.3726,149.643 106.2258,149.694 C 106.1248,149.7293 106.0214,149.7388 105.9152,149.7226 C 105.8302,149.7091 105.7504,149.6795 105.6769,149.6343 C 105.5749,149.5716 105.4957,149.4868 105.4396,149.3803 C 105.384,149.2748 105.3587,149.1654 105.3628,149.0525 C 105.3671,148.9394 105.4006,148.832 105.4632,148.7303 C 105.4862,148.6931 105.5071,148.6638 105.5257,148.6425 C 105.5447,148.6213 105.5754,148.5923 105.6182,148.5551 C 105.6272,148.5477 105.6341,148.5402 105.6388,148.5324 C 105.6475,148.5182 105.6568,148.4725 105.6446,148.4606 L 105.6558,148.4423 L 105.9745,148.5893 L 105.9711,148.6124 C 105.8992,148.6076 105.7581,148.5806 105.6997,148.6122 C 105.6414,148.6442 105.5919,148.6929 105.5519,148.7581 C 105.4968,148.8475 105.4718,148.9403 105.4772,149.0366 C 105.4825,149.1329 105.5422,149.3337 105.6295,149.3904 L 106.0509,148.8339 C 106.0811,148.7938 106.0915,148.7614 106.0935,148.7454 C 106.0955,148.7293 106.0875,148.7084 106.0692,148.6829 L 106.0818,148.6625 L 106.3118,148.8896 L 106.2992,148.91 C 106.2934,148.9056 106.2887,148.9023 106.2856,148.9004 C 106.2658,148.8883 106.2029,148.8385 106.1898,148.8436 C 106.1766,148.8489 106.1645,148.8669 106.1451,148.8915 L 105.711,149.445 L 105.711,149.445 z "
   style="fill:#1f1a17;fill-rule:nonzero" />
   <polygon
   id="_109032296"
   class="fil4"
   points="107.378,144.888 107.433,144.37 107.283,144.647 107.378,144.888 "
   style="fill:#1f1a17" />
  </g>
 </g>
</svg>