<svg width="904.604" xmlns="http://www.w3.org/2000/svg" height="998.04657" viewBox="0 0 904.60395 998.04646">
<defs/>
<g stroke="#000">
<path fill="#fff" stroke-linecap="round" stroke-width="8" d="m3.9833,4.013v577.6544h.1474c1.9518,75.6445 26.3781,147.3454 67.2303,209.0987 79.7844,120.6044 222.2204,203.2672 382.2485,203.2672 241.9678,0 440.5269-190.539 446.2903-413.918l.6819-576.1023h-896.5966z"/>
<g stroke-width="4">
<path d="m368.145,27.0954h12.3586l9.8868,678.6425h-32.1322z"/>
<path d="m127.0315,72.8973 670.1156-.01-1.6031,12.9449-670.1155,.01z"/>
<path fill="#f00" d="m138.4783,65.8469c0,0-164.9536,487.257 421.1496,523.8819 0,0-24.2913-268.6513 235.7172-526.8541z"/>
</g>
<path stroke-width="4.171" d="m718.5201,724.9964 12.7102-240.511 21.7235,0 5.0326,191.3733c0,0 47.3498-6.6392 58.7907,45.9012z"/>
</g>
<g stroke="#fff" stroke-width="6">
<path d="m674.1746,710.3739c14.6093-74.4046 54.7374-67.4656 64.32-167.8602h-148.5175l-27.5033,53.235c0,0-275.1018,15.8653-446.9475-103.6684 0,0-13.5941,140.7765 62.0395,236.0395 214.1992-4.5091 328.6212,50.8601 496.6088-17.7459z"/>
<path d="m581.6727,507.3896 211.7198,0 0,19.5678-211.7198,0z"/>
</g>
<path fill="#fff" stroke="#000" stroke-width="4.176" d="m312.8556,88.7187c0,0 33.8438,5.8864 33.8438,131.8125-122.5225,0-127.6562-33.875-127.6562-33.875 0,0 7.7812,40.7892 7.7812,57.3125 0,16.3441-7.5542,58.0594-7.7188,58.9688 .7768-3.0151 10.6582-27.125 127.5938-27.125 0,99.2343-9.4691,111.16-16.1875,124.4688-83.7133-17.505-149.3814-84.12-165.5-168.3438-1.5538,10.344-2.375,20.9416-2.375,31.7188 0,116.9113 94.7762,211.6875 211.6875,211.6875 116.9113,0 211.6875-94.7762 211.6875-211.6875 0-10.744-.7993-21.3113-2.3438-31.625-16.1669,84.2777-81.95,150.9074-165.7812,168.3125-6.7106-15.0193-15.9062-28.4761-15.9062-124.5312 122.5225,0 127.6562,25.5 127.6562,25.5 0,0-7.7812-40.8204-7.7812-57.3438 0-16.5233 7.7812-57.3125 7.7812-57.3125 0,0-6.0903,33.875-127.6562,33.875 0-120.0927 29.749-130.8752 33.4688-131.75-1.1962,.2056-44.827,7.7188-61.125,7.7188-16.5232,0-61.4688-7.7812-61.4688-7.7812z"/>
<g stroke="#fff" stroke-width="6">
<path d="m171.7154,725.2332c0,0-96.315-112.3707-52.538-257.3865l29.3721,17.4433c-35.2036,122.1602 56.2834,237.5521 56.2834,237.5521"/>
<g fill="none">
<path d="m143.7732,572.2065c134.1235,77.3575 315.3446,86.1791 508.1949,78.3462"/>
<path d="m561.0374,595.7533c0,0 68.1706,1.0564 124.6472-.8592"/>
<path d="m159.7513,644.3925c150.0976,67.8489 505.1241,71.0489 505.1241,71.0489"/>
<path d="m698.9594,542.7358c-2.9901,77.7434-83.7966,149.2301-83.7966,149.2301"/>
</g>
</g>
<g stroke="#000" stroke-width="3.932" transform="matrix(.98619 0 0 .92409 20.52467 75.31372)">
<path fill="#00d9ff" d="m3.694,666.238c26.2559,109.0181 174.3308,323.9926 436.7899,323.9926 262.4591,0 396.8914-213.8446 429.3981-321.8283-46.7106,0-99.2866,30.7224-144.8479,30.7224-45.5611,0-83.9603-32.8867-141.7151-32.8867-57.7547,0-87.9287,32.8867-144.4773,32.8867-56.5484,0-86.6852-32.8867-144.4399-32.8867-57.7545,0-93.9615,31.299-141.7151,32.8867-47.7536,1.5877-99.772-32.8867-148.9926-32.8867z"/>
<path fill="#fff" d="m295.594,768.278c-56.8174,0-92.4284,31.3205-139.4071,32.9082-31.2164,1.055-74.0061-17.6524-105.142-30.3193 21.9399,35.803 62.7084,90.0327 115.7327,124.3491 41.6026,0 85.0759-26.6353 128.8165-26.6353 56.8176,0 86.4712,32.88 142.102,32.88 55.631,0 85.3148-32.88 142.1323-32.88 43.9895,0 90.2024,27.4829 130.5946,27.4829 51.6735-36.9398 93.2392-87.2296 112.1082-125.9597-31.3632,12.313-73.1626,31.0822-103.2956,31.0822-44.8219,0-82.5896-32.9082-139.4072-32.9082-56.8176,0-86.5013,32.9082-142.1323,32.9082-55.6309,0-85.2844-32.9082-142.102-32.9082z"/>
</g>
</svg>
