<?xml version="1.0" encoding="utf-8"?>
<!-- Generator: Adobe Illustrator 22.1.0, SVG Export Plug-In . SVG Version: 6.00 Build 0)  -->
<svg version="1.1" id="Warstwa_1" xmlns="http://www.w3.org/2000/svg" xmlns:xlink="http://www.w3.org/1999/xlink" x="0px" y="0px"
	 viewBox="0 0 260 260" style="enable-background:new 0 0 260 260;" xml:space="preserve">
<style type="text/css">
	.st0{fill:#279237;}
</style>
<g transform="translate(-0.002 -90.653)">
	<g transform="translate(0.002 90.653)">
		<path class="st0" d="M251,143c-11-19.3-34-28.4-55.2-22l-25.9-60.4h18.5c2.9-0.1,5.3-2.5,5.2-5.4c-0.1-2.9-2.4-5.2-5.2-5.2h-26.5
			c-2.9,0-5.3,2.4-5.3,5.3c0,0.7,0.1,1.4,0.4,2.1l10.9,25.5l-66.2,18.9l-10.6-20h12.4c2.9-0.1,5.3-2.5,5.2-5.4
			c-0.1-2.9-2.4-5.2-5.2-5.2H66.4c-2.9-0.1-5.3,2.3-5.4,5.2c-0.1,2.9,2.3,5.3,5.2,5.4c0.1,0,0.1,0,0.2,0h12.7L92.5,107l-16.1,19.6
			c-22.1-14.3-51.6-8-65.9,14.2s-8,51.6,14.2,65.9c22.1,14.3,51.6,8,65.9-14.2c4-6.2,6.5-13.3,7.3-20.6h32.1c0.4,0,0.7,0,1.1-0.1
			c0.3-0.1,0.6-0.2,0.9-0.3c1.1-0.4,2.1-1.2,2.7-2.3l0.1-0.2l38.9-72.9l12.4,29c-22.9,13-30.8,42.1-17.8,65s42.1,30.8,65,17.8
			C256.1,194.9,264.1,165.8,251,143z M50.5,203.8c-20.5,0.1-37.2-16.5-37.2-37c-0.1-20.5,16.5-37.2,37-37.2c6.8,0,13.5,1.8,19.3,5.4
			l-23.2,28.4c-1.9,2.3-1.5,5.6,0.7,7.5c0.9,0.8,2.1,1.2,3.4,1.2h36.7C84.6,190.2,69,203.7,50.5,203.8z M61.7,161.4l16.1-19.7
			c5,5.5,8.3,12.4,9.4,19.7H61.7z M97.9,161.4c-1.2-10.6-5.9-20.4-13.3-28l13.3-16.2l23.4,44.2L97.9,161.4z M130.1,155.4l-23.3-44
			l55.1-15.7L130.1,155.4z M219.7,202.4c-19.7,5.6-40.2-5.9-45.8-25.7c-4.5-16,2.2-33.1,16.4-41.7l14.4,33.7c1.2,2.7,4.3,3.9,7,2.8
			c2.7-1.2,3.9-4.3,2.8-7L200,130.9c19.7-5.5,40.2,6.1,45.7,25.8c5.5,19.7-6.1,40.2-25.8,45.7C219.8,202.4,219.7,202.4,219.7,202.4
			L219.7,202.4z"/>
	</g>
</g>
</svg>
