<svg xmlns="http://www.w3.org/2000/svg" viewBox="0 0 633.3 90.8"><defs><style>.a{fill:#fff;}</style></defs><g transform="translate(-778.6 -5342.7)"><g transform="translate(756 5320)"><path class="a" d="M90.7,56.7v-17h10.8v2.6H93.8v4.3h6.8v2.6H93.8v7.4H90.7Z"/><path class="a" d="M113.9,56c-.6.1-1.3.3-2.2.5a14.166,14.166,0,0,1-3,.2,6.772,6.772,0,0,1-2.6-.4,4.344,4.344,0,0,1-1.7-1.2,4.8,4.8,0,0,1-.9-1.9,9.282,9.282,0,0,1-.3-2.4V43.6h3v6.7a5,5,0,0,0,.6,2.9,2.336,2.336,0,0,0,2.1.9H110c.4,0,.7-.1.9-.1V43.6h3Z"/><path class="a" d="M117.6,44.3c.6-.2,1.3-.3,2.2-.5a14.166,14.166,0,0,1,3-.2,6.772,6.772,0,0,1,2.6.4,4.344,4.344,0,0,1,1.7,1.2,4.8,4.8,0,0,1,.9,1.9,9.282,9.282,0,0,1,.3,2.4v7.2h-3V49.9a9.723,9.723,0,0,0-.1-1.8,3.373,3.373,0,0,0-.4-1.2,2.7,2.7,0,0,0-.8-.7,5.067,5.067,0,0,0-1.3-.2,4.869,4.869,0,0,0-1.2.1c-.4,0-.7.1-.9.1V56.6h-3V44.3Z"/><path class="a" d="M142.6,56c-.6.2-1.3.3-2.2.5a24.583,24.583,0,0,1-2.8.2,7.635,7.635,0,0,1-2.7-.5,7.434,7.434,0,0,1-2.1-1.3,5.71,5.71,0,0,1-1.3-2.1A8.21,8.21,0,0,1,131,50a8.628,8.628,0,0,1,.4-2.8,6.985,6.985,0,0,1,1.1-2.1,6.228,6.228,0,0,1,1.8-1.4,6.042,6.042,0,0,1,2.4-.5,6.959,6.959,0,0,1,1.6.2,3.337,3.337,0,0,1,1.2.5V40.1l3-.5V56Zm-8.5-6.1A4.964,4.964,0,0,0,135,53a3.315,3.315,0,0,0,2.6,1.1,4.121,4.121,0,0,0,1.2-.1c.3,0,.6-.1.8-.1V46.5a9.293,9.293,0,0,0-1-.5,3.178,3.178,0,0,0-1.4-.2,2.775,2.775,0,0,0-2.4,1.1A6.64,6.64,0,0,0,134.1,49.9Z"/><path class="a" d="M156.8,56c-.6.1-1.3.3-2.2.5a14.166,14.166,0,0,1-3,.2,6.772,6.772,0,0,1-2.6-.4,4.344,4.344,0,0,1-1.7-1.2,4.8,4.8,0,0,1-.9-1.9,9.283,9.283,0,0,1-.3-2.4V43.6h3v6.7a5,5,0,0,0,.6,2.9,2.336,2.336,0,0,0,2.1.9h1.1c.4,0,.7-.1.9-.1V43.6h3V56Z"/><path class="a" d="M163.6,54.3a3.419,3.419,0,0,0,1.7-.3,1.1,1.1,0,0,0,.5-1,1.382,1.382,0,0,0-.6-1.1,6.747,6.747,0,0,0-1.9-.9l-1.5-.6a5.025,5.025,0,0,1-1.2-.8,4.44,4.44,0,0,1-.8-1.1,3.339,3.339,0,0,1-.3-1.5,3.285,3.285,0,0,1,1.3-2.8,5.4,5.4,0,0,1,3.5-1,14.978,14.978,0,0,1,2.2.2,7.543,7.543,0,0,1,1.5.4l-.5,2.4a6.833,6.833,0,0,0-1.3-.4,8.969,8.969,0,0,0-1.8-.2,3.339,3.339,0,0,0-1.5.3.961.961,0,0,0-.6.9,1.268,1.268,0,0,0,.1.6,1.756,1.756,0,0,0,.4.5,4.348,4.348,0,0,0,.7.4c.3.1.7.3,1.1.4a15.861,15.861,0,0,1,1.8.8,3.778,3.778,0,0,1,1.2.9,2.589,2.589,0,0,1,.7,1.1,6.052,6.052,0,0,1,.2,1.5,3.242,3.242,0,0,1-1.4,2.8,7.03,7.03,0,0,1-3.9.9,10.063,10.063,0,0,1-2.7-.3,4.169,4.169,0,0,1-1.4-.5l.5-2.5a6.037,6.037,0,0,0,1.6.5A7.509,7.509,0,0,0,163.6,54.3Z"/><path class="a" d="M180.5,45.9c-.3.3-.8.8-1.3,1.4s-1.1,1.3-1.7,2.1l-1.8,2.4c-.6.8-1.2,1.6-1.7,2.4h6.6v2.5H170.4V54.9a23.922,23.922,0,0,1,1.3-2.1c.5-.7,1.1-1.5,1.7-2.3s1.1-1.5,1.7-2.2,1.1-1.3,1.5-1.8h-5.9V44h9.7v1.9Z"/><path class="a" d="M182.1,50a9.427,9.427,0,0,1,.5-3,5.387,5.387,0,0,1,1.3-2.1,5.863,5.863,0,0,1,1.9-1.3,5.7,5.7,0,0,1,2.2-.4,5.139,5.139,0,0,1,4.1,1.6,7.009,7.009,0,0,1,1.5,4.9v1.2h-8.5a3.393,3.393,0,0,0,1.1,2.4,4.067,4.067,0,0,0,2.8.8,12.31,12.31,0,0,0,2-.2,8.4,8.4,0,0,0,1.4-.4l.4,2.4a4.875,4.875,0,0,1-.7.3,2.959,2.959,0,0,1-1,.2c-.4.1-.8.1-1.2.2-.4,0-.9.1-1.3.1a8.361,8.361,0,0,1-2.9-.5,5.957,5.957,0,0,1-2.1-1.4,7.194,7.194,0,0,1-1.2-2.1A7.726,7.726,0,0,1,182.1,50Zm8.6-1.3a5.02,5.02,0,0,0-.2-1.2,3.128,3.128,0,0,0-.5-1,1.555,1.555,0,0,0-.8-.6,1.978,1.978,0,0,0-1.1-.2,2.133,2.133,0,0,0-1.2.3,5.5,5.5,0,0,0-.9.7,3.329,3.329,0,0,0-.6,1c-.1.4-.2.7-.3,1.1h5.6Z"/><path class="a" d="M90.7,79.4v-17h10.9V65H93.8v4.2h7v2.6h-7v5h8.4v2.6H90.7Z"/><path class="a" d="M114.9,78.7c-.6.1-1.3.3-2.2.5a14.166,14.166,0,0,1-3,.2,6.772,6.772,0,0,1-2.6-.4,4.345,4.345,0,0,1-1.7-1.2,4.8,4.8,0,0,1-.9-1.9,9.282,9.282,0,0,1-.3-2.4V66.3h3V73a5,5,0,0,0,.6,2.9,2.336,2.336,0,0,0,2.1.9H111c.4,0,.7-.1.9-.1V66.3h3Z"/><path class="a" d="M125.9,69.2a6.214,6.214,0,0,0-1-.3,6.622,6.622,0,0,0-1.5-.1,3.4,3.4,0,0,0-1,.1,4.537,4.537,0,0,0-.8.2V79.4h-3V67.1q.9-.3,2.1-.6a12.921,12.921,0,0,1,2.9-.3h.7c.3,0,.5.1.8.1s.5.1.8.1a1.072,1.072,0,0,1,.6.2Z"/><path class="a" d="M139.9,72.6a8.628,8.628,0,0,1-.4,2.8,5.71,5.71,0,0,1-1.3,2.1,5.968,5.968,0,0,1-2,1.4,6.963,6.963,0,0,1-2.5.5,6.551,6.551,0,0,1-2.5-.5,4.5,4.5,0,0,1-1.9-1.4,7.434,7.434,0,0,1-1.3-2.1,8.21,8.21,0,0,1-.5-2.8,8.675,8.675,0,0,1,.5-2.8,5.71,5.71,0,0,1,1.3-2.1,5.968,5.968,0,0,1,2-1.4,6.5,6.5,0,0,1,5,0,5.579,5.579,0,0,1,2,1.4,5.71,5.71,0,0,1,1.3,2.1A24.021,24.021,0,0,1,139.9,72.6Zm-3,0a5.1,5.1,0,0,0-.8-3,2.712,2.712,0,0,0-2.3-1.1,2.845,2.845,0,0,0-2.3,1.1,4.641,4.641,0,0,0-.8,3,5.686,5.686,0,0,0,.8,3.1,2.485,2.485,0,0,0,2.3,1.1,2.845,2.845,0,0,0,2.3-1.1A5.685,5.685,0,0,0,136.9,72.6Z"/><path class="a" d="M154.4,73a7.664,7.664,0,0,1-.4,2.7,6.985,6.985,0,0,1-1.1,2.1,6.228,6.228,0,0,1-1.8,1.4,6.042,6.042,0,0,1-2.4.5,8.807,8.807,0,0,1-1.7-.2,5.024,5.024,0,0,1-1.3-.5v5h-3V67c.6-.2,1.3-.3,2.2-.5a12.745,12.745,0,0,1,2.8-.2,7.635,7.635,0,0,1,2.7.5,5.778,5.778,0,0,1,2,1.3,6.249,6.249,0,0,1,1.3,2.1A5.073,5.073,0,0,1,154.4,73Zm-3.1,0a4.771,4.771,0,0,0-.9-3.1,3.69,3.69,0,0,0-2.9-1.1h-.9a2.92,2.92,0,0,0-.9.2v7.3a9.293,9.293,0,0,0,1,.5,3.178,3.178,0,0,0,1.4.2,2.775,2.775,0,0,0,2.4-1.1A4.767,4.767,0,0,0,151.3,73Z"/><path class="a" d="M156.6,72.7a9.427,9.427,0,0,1,.5-3,5.387,5.387,0,0,1,1.3-2.1,5.863,5.863,0,0,1,1.9-1.3,5.7,5.7,0,0,1,2.2-.4,5.139,5.139,0,0,1,4.1,1.6,7.009,7.009,0,0,1,1.5,4.9v1.2h-8.5a3.393,3.393,0,0,0,1.1,2.4,4.067,4.067,0,0,0,2.8.8,12.311,12.311,0,0,0,2-.2,8.4,8.4,0,0,0,1.4-.4l.4,2.4a4.876,4.876,0,0,1-.7.3,2.958,2.958,0,0,1-1,.2c-.4.1-.8.1-1.2.2-.4,0-.9.1-1.3.1a8.361,8.361,0,0,1-2.9-.5,5.957,5.957,0,0,1-2.1-1.4,7.194,7.194,0,0,1-1.2-2.1A7.726,7.726,0,0,1,156.6,72.7Zm8.6-1.3a5.02,5.02,0,0,0-.2-1.2,3.128,3.128,0,0,0-.5-1,1.555,1.555,0,0,0-.8-.6,1.978,1.978,0,0,0-1.1-.2,2.133,2.133,0,0,0-1.2.3,5.5,5.5,0,0,0-.9.7,3.329,3.329,0,0,0-.6,1c-.1.4-.2.7-.3,1.1h5.6Z"/><path class="a" d="M169.5,83.9a3.445,3.445,0,0,1-.9-.1c-.4-.1-.7-.1-1-.2l.4-2.4a5.067,5.067,0,0,0,1.3.2c.7,0,1.2-.2,1.4-.6a3.007,3.007,0,0,0,.4-1.8V66.5h3V79a4.989,4.989,0,0,1-1.2,3.7A4.4,4.4,0,0,1,169.5,83.9Zm5-21.1a1.727,1.727,0,0,1-.5,1.3,1.94,1.94,0,0,1-2.6,0,1.536,1.536,0,0,1-.5-1.3,2.168,2.168,0,0,1,.5-1.4,1.94,1.94,0,0,1,2.6,0A2.168,2.168,0,0,1,174.5,62.8Z"/><path class="a" d="M181,76.9a3.419,3.419,0,0,0,1.7-.3,1.1,1.1,0,0,0,.5-1,1.382,1.382,0,0,0-.6-1.1,6.747,6.747,0,0,0-1.9-.9l-1.5-.6a5.024,5.024,0,0,1-1.2-.8,4.44,4.44,0,0,1-.8-1.1,3.339,3.339,0,0,1-.3-1.5,3.285,3.285,0,0,1,1.3-2.8,5.4,5.4,0,0,1,3.5-1,14.979,14.979,0,0,1,2.2.2,7.543,7.543,0,0,1,1.5.4l-.5,2.4a6.832,6.832,0,0,0-1.3-.4,8.969,8.969,0,0,0-1.8-.2,3.339,3.339,0,0,0-1.5.3.961.961,0,0,0-.6.9,1.268,1.268,0,0,0,.1.6,1.756,1.756,0,0,0,.4.5,4.348,4.348,0,0,0,.7.4c.3.1.7.3,1.1.4a15.861,15.861,0,0,1,1.8.8,3.778,3.778,0,0,1,1.2.9,2.589,2.589,0,0,1,.7,1.1,6.052,6.052,0,0,1,.2,1.5,3.242,3.242,0,0,1-1.4,2.8,7.03,7.03,0,0,1-3.9.9,10.063,10.063,0,0,1-2.7-.3,4.169,4.169,0,0,1-1.4-.5L177,76a6.037,6.037,0,0,0,1.6.5A5.277,5.277,0,0,0,181,76.9Z"/><path class="a" d="M191.8,71.5a15.38,15.38,0,0,0,1.2-1.3c.4-.4.8-.9,1.3-1.4.4-.4.8-.9,1.2-1.3a7.294,7.294,0,0,0,.9-1.1h3.5c-.8.9-1.7,1.9-2.6,2.8s-1.8,1.9-2.7,2.9a10.607,10.607,0,0,1,1.5,1.5c.5.6,1.1,1.2,1.6,1.9a24.257,24.257,0,0,1,1.4,2c.4.7.8,1.3,1.1,1.8h-3.4c-.3-.5-.6-1-1-1.6s-.8-1.1-1.2-1.6-.9-1-1.3-1.5a7.471,7.471,0,0,0-1.4-1.2v5.9h-3V62.8l3-.5v9.2Z"/><path class="a" d="M205.5,62.8a1.727,1.727,0,0,1-.5,1.3,1.94,1.94,0,0,1-2.6,0,1.536,1.536,0,0,1-.5-1.3,2.168,2.168,0,0,1,.5-1.4,1.94,1.94,0,0,1,2.6,0A1.741,1.741,0,0,1,205.5,62.8Zm-.3,16.6h-3V66.5h3Z"/><path class="a" d="M208.1,72.7a9.427,9.427,0,0,1,.5-3,5.387,5.387,0,0,1,1.3-2.1,5.863,5.863,0,0,1,1.9-1.3,5.7,5.7,0,0,1,2.2-.4,5.139,5.139,0,0,1,4.1,1.6,7.009,7.009,0,0,1,1.5,4.9v1.2h-8.5a3.393,3.393,0,0,0,1.1,2.4,4.067,4.067,0,0,0,2.8.8,12.311,12.311,0,0,0,2-.2,8.4,8.4,0,0,0,1.4-.4l.4,2.4a4.876,4.876,0,0,1-.7.3,2.958,2.958,0,0,1-1,.2c-.4.1-.8.1-1.2.2-.4,0-.9.1-1.3.1a8.361,8.361,0,0,1-2.9-.5,5.957,5.957,0,0,1-2.1-1.4,7.194,7.194,0,0,1-1.2-2.1A7.726,7.726,0,0,1,208.1,72.7Zm8.7-1.3a5.02,5.02,0,0,0-.2-1.2,3.128,3.128,0,0,0-.5-1,1.555,1.555,0,0,0-.8-.6,1.978,1.978,0,0,0-1.1-.2,2.133,2.133,0,0,0-1.2.3,5.5,5.5,0,0,0-.9.7,3.329,3.329,0,0,0-.6,1c-.1.4-.2.7-.3,1.1h5.6Z"/></g><g transform="translate(756 5320)"><path class="a" d="M90.7,90.8h1.6V102H90.7Z"/><path class="a" d="M94.9,93.9a10.628,10.628,0,0,1,1.4-.3,12.122,12.122,0,0,1,2-.1,4.309,4.309,0,0,1,1.7.3,4.44,4.44,0,0,1,1.1.8,2.281,2.281,0,0,1,.6,1.2,7.772,7.772,0,0,1,.2,1.6v4.7h-1.5V97.7a4.888,4.888,0,0,0-.1-1.3,4.649,4.649,0,0,0-.3-.9,2.651,2.651,0,0,0-.6-.5,2.959,2.959,0,0,0-1-.2h-1c-.2,0-.3,0-.4.1h-.3V102H95.2V93.9Z"/><path class="a" d="M107.4,89.5a3.75,3.75,0,0,1,1.1.1,6.373,6.373,0,0,1,.7.2l-.3,1.3c-.1-.1-.3-.1-.6-.2a2.22,2.22,0,0,0-.9-.1,1.755,1.755,0,0,0-1.5.6,2.41,2.41,0,0,0-.4,1.5v.7h3.2v1.3h-3.2v7.2H104V92.9a3.742,3.742,0,0,1,.8-2.5A3.573,3.573,0,0,1,107.4,89.5Z"/><path class="a" d="M113.4,93.5h.4a.9.9,0,0,1,.5.1c.2,0,.3.1.4.1s.2.1.3.1l-.3,1.3a3.933,3.933,0,0,1-.6-.2,3.42,3.42,0,0,0-1.1-.1,1.95,1.95,0,0,0-.8.1,1.75,1.75,0,0,1-.5.1v7.1h-1.5V94c.4-.1.8-.3,1.3-.4A11.483,11.483,0,0,1,113.4,93.5Z"/><path class="a" d="M119.2,93.3a6.053,6.053,0,0,1,1.5.2,2.552,2.552,0,0,1,1,.7,3.128,3.128,0,0,1,.5,1,5.067,5.067,0,0,1,.2,1.3v5.3a4.331,4.331,0,0,1-.5.1c-.2,0-.5.1-.8.1s-.6.1-.9.1h-1a5.283,5.283,0,0,1-1.3-.1,3.128,3.128,0,0,1-1-.5,2.7,2.7,0,0,1-.7-.8,2.345,2.345,0,0,1-.2-1.2,2.133,2.133,0,0,1,.3-1.2,2.047,2.047,0,0,1,.8-.8,3.7,3.7,0,0,1,1.1-.5,6.15,6.15,0,0,1,1.4-.1h.5a.9.9,0,0,1,.5.1c.1,0,.3.1.4.1h.2v-.4a1.7,1.7,0,0,0-.1-.7,3.329,3.329,0,0,0-.3-.6c-.1-.2-.3-.3-.6-.5a2.388,2.388,0,0,0-.9-.2,5.283,5.283,0,0,0-1.3.1c-.4.1-.7.1-.8.2l-.2-1.2a4.053,4.053,0,0,1,1-.3C118.2,93.3,118.7,93.3,119.2,93.3Zm.1,7.5h.9a1.483,1.483,0,0,0,.7-.1V98.2a.749.749,0,0,0-.5-.1c-.2,0-.5-.1-.9-.1h-.7a1.445,1.445,0,0,0-.7.2,1,1,0,0,0-.5.4,1.445,1.445,0,0,0-.2.7,1.29,1.29,0,0,0,.5,1.1A2.116,2.116,0,0,0,119.3,100.8Z"/><path class="a" d="M126.8,100.8a4.636,4.636,0,0,0,1.4-.2.812.812,0,0,0,.4-.8.975.975,0,0,0-.4-.9,6.013,6.013,0,0,0-1.4-.7c-.3-.1-.6-.3-.9-.4a2.177,2.177,0,0,1-.8-.5,1.794,1.794,0,0,1-.5-.7,2.959,2.959,0,0,1-.2-1,2.5,2.5,0,0,1,.8-1.8,3.174,3.174,0,0,1,2.3-.7h.7c.2,0,.5.1.7.1a4.332,4.332,0,0,1,.5.1c.2,0,.3.1.4.1l-.3,1.3a3.385,3.385,0,0,0-.8-.3,4.868,4.868,0,0,0-1.2-.1,2.016,2.016,0,0,0-1.1.3.891.891,0,0,0-.5.8.9.9,0,0,0,.1.5c.1.1.2.3.3.4a2.186,2.186,0,0,0,.5.3,6.891,6.891,0,0,0,.8.3,7.6,7.6,0,0,0,1.1.4,2.177,2.177,0,0,1,.8.5,1.794,1.794,0,0,1,.5.7,2.958,2.958,0,0,1,.2,1,2.019,2.019,0,0,1-.9,1.8,4.4,4.4,0,0,1-2.5.6,7.18,7.18,0,0,1-1.7-.2,4.649,4.649,0,0,1-.9-.3l.3-1.3a3.386,3.386,0,0,0,.8.3A2.41,2.41,0,0,0,126.8,100.8Z"/><path class="a" d="M133.4,93.4h3.2v1.3h-3.2v3.9a2.787,2.787,0,0,0,.1,1,3.329,3.329,0,0,0,.3.6.55.55,0,0,0,.5.3c.2,0,.4.1.7.1a3.087,3.087,0,0,0,1.1-.2,3.933,3.933,0,0,1,.6-.2l.3,1.2a3.385,3.385,0,0,1-.8.3,5.067,5.067,0,0,1-1.3.2,5.212,5.212,0,0,1-1.4-.2,1.6,1.6,0,0,1-.9-.7,3.7,3.7,0,0,1-.5-1.1,6.621,6.621,0,0,1-.1-1.5V90.9l1.5-.3v2.8Z"/><path class="a" d="M141.5,93.5h.4a.9.9,0,0,1,.5.1c.2,0,.3.1.4.1s.2.1.3.1L143,95a3.933,3.933,0,0,1-.6-.2,3.421,3.421,0,0,0-1.1-.1,1.949,1.949,0,0,0-.8.1,1.75,1.75,0,0,1-.5.1V102h-1.5V94c.4-.1.8-.3,1.3-.4A9.15,9.15,0,0,1,141.5,93.5Z"/><path class="a" d="M151.3,101.6a10.628,10.628,0,0,1-1.4.3,12.123,12.123,0,0,1-2,.1,3.808,3.808,0,0,1-1.6-.3,4.44,4.44,0,0,1-1.1-.8,2.725,2.725,0,0,1-.6-1.2,6.958,6.958,0,0,1-.2-1.6V93.4h1.5v4.4a3.953,3.953,0,0,0,.5,2.2,2.015,2.015,0,0,0,1.6.7h1.4a.367.367,0,0,0,.3-.1V93.5h1.5v8.1Z"/><path class="a" d="M156.8,97.4a8.119,8.119,0,0,1,1,.9c.4.4.7.8,1.1,1.2a11.317,11.317,0,0,1,1,1.3,8.341,8.341,0,0,1,.8,1.2H159a8.341,8.341,0,0,0-.8-1.2,10.629,10.629,0,0,0-.9-1.1,9.428,9.428,0,0,0-1-1,7.006,7.006,0,0,0-1-.8v4h-1.5V89.7l1.5-.3v7.7l.9-.9a9.015,9.015,0,0,0,.9-1l.9-.9c.3-.3.5-.6.7-.8h1.8a6.469,6.469,0,0,1-.8.9c-.3.3-.6.7-.9,1s-.6.7-.9,1A12.038,12.038,0,0,0,156.8,97.4Z"/><path class="a" d="M163.6,93.4h3.2v1.3h-3.2v3.9a2.787,2.787,0,0,0,.1,1,3.329,3.329,0,0,0,.3.6.55.55,0,0,0,.5.3c.2,0,.4.1.7.1a3.087,3.087,0,0,0,1.1-.2,3.933,3.933,0,0,1,.6-.2l.3,1.2a3.385,3.385,0,0,1-.8.3,5.067,5.067,0,0,1-1.3.2,5.212,5.212,0,0,1-1.4-.2,1.6,1.6,0,0,1-.9-.7,3.7,3.7,0,0,1-.5-1.1,6.621,6.621,0,0,1-.1-1.5V90.9l1.5-.3v2.8Z"/><path class="a" d="M175.3,101.6a10.628,10.628,0,0,1-1.4.3,12.123,12.123,0,0,1-2,.1,3.808,3.808,0,0,1-1.6-.3,4.44,4.44,0,0,1-1.1-.8,2.725,2.725,0,0,1-.6-1.2,6.958,6.958,0,0,1-.2-1.6V93.4h1.5v4.4a3.953,3.953,0,0,0,.5,2.2,2.015,2.015,0,0,0,1.6.7h1.4a.367.367,0,0,0,.3-.1V93.5h1.5v8.1Z"/><path class="a" d="M180.9,93.5h.4a.9.9,0,0,1,.5.1c.2,0,.3.1.4.1s.2.1.3.1l-.3,1.3a3.933,3.933,0,0,1-.6-.2,3.421,3.421,0,0,0-1.1-.1,1.949,1.949,0,0,0-.8.1,1.75,1.75,0,0,1-.5.1v7.1h-1.5V94c.4-.1.8-.3,1.3-.4A11.484,11.484,0,0,1,180.9,93.5Z"/><path class="a" d="M186.7,93.3a6.052,6.052,0,0,1,1.5.2,2.552,2.552,0,0,1,1,.7,3.128,3.128,0,0,1,.5,1,5.066,5.066,0,0,1,.2,1.3v5.3a4.332,4.332,0,0,1-.5.1c-.2,0-.5.1-.8.1s-.6.1-.9.1h-1a5.283,5.283,0,0,1-1.3-.1,3.128,3.128,0,0,1-1-.5,2.7,2.7,0,0,1-.7-.8,2.345,2.345,0,0,1-.2-1.2,2.133,2.133,0,0,1,.3-1.2,2.047,2.047,0,0,1,.8-.8,3.7,3.7,0,0,1,1.1-.5,6.15,6.15,0,0,1,1.4-.1h.5a.9.9,0,0,1,.5.1.756.756,0,0,0,.4.1h.2v-.4a1.7,1.7,0,0,0-.1-.7,3.329,3.329,0,0,0-.3-.6c-.1-.2-.3-.3-.6-.5a1.486,1.486,0,0,0-.9-.2,5.283,5.283,0,0,0-1.3.1c-.4.1-.7.1-.8.2l-.2-1.2a4.053,4.053,0,0,1,1-.3C185.7,93.3,186.2,93.3,186.7,93.3Zm.2,7.5h.9a1.483,1.483,0,0,0,.7-.1V98.2a.749.749,0,0,0-.5-.1c-.2,0-.5-.1-.9-.1h-.7a1.445,1.445,0,0,0-.7.2,1,1,0,0,0-.5.4,1.445,1.445,0,0,0-.2.7,1.29,1.29,0,0,0,.5,1.1A1.955,1.955,0,0,0,186.9,100.8Z"/><path class="a" d="M196.8,92.1a1.025,1.025,0,1,1,.7-.3A.908.908,0,0,1,196.8,92.1Zm.7,10H196V93.7h1.5Z"/><path class="a" d="M206.4,100.7c1.6,0,2.5-.6,2.5-1.7a2.92,2.92,0,0,0-.2-.9,1.167,1.167,0,0,0-.6-.6,5.582,5.582,0,0,0-.8-.5c-.3-.1-.7-.3-1-.4a6.117,6.117,0,0,1-1.2-.5,8.8,8.8,0,0,1-1-.6,1.456,1.456,0,0,1-.6-.9,2.165,2.165,0,0,1-.2-1.2,2.765,2.765,0,0,1,1-2.3,4.067,4.067,0,0,1,2.8-.8,11.076,11.076,0,0,1,1.9.2,2.255,2.255,0,0,1,1.2.5l-.5,1.3a5.133,5.133,0,0,0-1-.4,6.959,6.959,0,0,0-1.6-.2,1.949,1.949,0,0,0-.8.1,4.874,4.874,0,0,0-.7.3c-.2.1-.3.3-.5.5a1.445,1.445,0,0,0-.2.7,1.884,1.884,0,0,0,.2.8,1.205,1.205,0,0,0,.5.5,2.01,2.01,0,0,0,.8.4c.3.1.6.3.9.4.5.2.9.4,1.3.6a4.13,4.13,0,0,1,1.1.7,3.591,3.591,0,0,1,.7,1,2.966,2.966,0,0,1,.2,1.4,2.845,2.845,0,0,1-1.1,2.3,5.1,5.1,0,0,1-3,.8,4.869,4.869,0,0,1-1.2-.1c-.4-.1-.7-.1-1-.2s-.5-.2-.8-.3a1.689,1.689,0,0,0-.5-.2l.5-1.3c.2.1.6.3,1.1.5C205.1,100.6,205.7,100.7,206.4,100.7Zm2.5-12.8-2.3,2.2-.8-.7,2.1-2.5Z"/><path class="a" d="M215.4,93.5h.4a.9.9,0,0,1,.5.1c.2,0,.3.1.4.1s.2.1.3.1l-.3,1.3a3.933,3.933,0,0,1-.6-.2,3.421,3.421,0,0,0-1.1-.1,1.949,1.949,0,0,0-.8.1,1.75,1.75,0,0,1-.5.1v7.1h-1.5V94c.4-.1.8-.3,1.3-.4A10.89,10.89,0,0,1,215.4,93.5Z"/><path class="a" d="M225.9,97.7a4.844,4.844,0,0,1-.3,1.8,6.376,6.376,0,0,1-.8,1.4,3.045,3.045,0,0,1-1.3.9,4.417,4.417,0,0,1-3.2,0,3.805,3.805,0,0,1-1.3-.9,3.924,3.924,0,0,1-.8-1.4,5.55,5.55,0,0,1,0-3.6,6.376,6.376,0,0,1,.8-1.4,3.805,3.805,0,0,1,1.3-.9,4.417,4.417,0,0,1,3.2,0,3.805,3.805,0,0,1,1.3.9,3.924,3.924,0,0,1,.8,1.4A4.844,4.844,0,0,1,225.9,97.7Zm-1.6,0a3.921,3.921,0,0,0-.6-2.3,1.88,1.88,0,0,0-1.7-.8,2.136,2.136,0,0,0-1.7.8,4.708,4.708,0,0,0,0,4.6,1.88,1.88,0,0,0,1.7.8,2.136,2.136,0,0,0,1.7-.8A3.921,3.921,0,0,0,224.3,97.7Z"/><path class="a" d="M233.3,89.6l1.5-.3v12.3a13.046,13.046,0,0,1-1.3.3,10.889,10.889,0,0,1-1.9.1,5.662,5.662,0,0,1-1.8-.3,2.54,2.54,0,0,1-1.3-.9,3.39,3.39,0,0,1-.9-1.4,5.23,5.23,0,0,1-.3-1.8,5.663,5.663,0,0,1,.3-1.8,4.58,4.58,0,0,1,.7-1.4,2.73,2.73,0,0,1,1.2-.9,4.146,4.146,0,0,1,1.6-.3,5.067,5.067,0,0,1,1.3.2,1.915,1.915,0,0,1,.8.4V89.6Zm0,5.6a1.506,1.506,0,0,0-.8-.4,3.125,3.125,0,0,0-2.2,0,5.547,5.547,0,0,0-.8.6,2.321,2.321,0,0,0-.4,1,4.868,4.868,0,0,0-.1,1.2,3.334,3.334,0,0,0,.7,2.3,2.56,2.56,0,0,0,1.9.8,2.787,2.787,0,0,0,1-.1,3.536,3.536,0,0,0,.6-.1V95.2Z"/><path class="a" d="M244.8,97.7a4.844,4.844,0,0,1-.3,1.8,6.376,6.376,0,0,1-.8,1.4,3.045,3.045,0,0,1-1.3.9,4.417,4.417,0,0,1-3.2,0,3.805,3.805,0,0,1-1.3-.9,3.924,3.924,0,0,1-.8-1.4,5.55,5.55,0,0,1,0-3.6,6.376,6.376,0,0,1,.8-1.4,3.805,3.805,0,0,1,1.3-.9,4.417,4.417,0,0,1,3.2,0,3.805,3.805,0,0,1,1.3.9,3.924,3.924,0,0,1,.8,1.4A4.844,4.844,0,0,1,244.8,97.7Zm-1.6,0a3.921,3.921,0,0,0-.6-2.3,1.88,1.88,0,0,0-1.7-.8,2.136,2.136,0,0,0-1.7.8,4.708,4.708,0,0,0,0,4.6,1.88,1.88,0,0,0,1.7.8,2.136,2.136,0,0,0,1.7-.8A3.921,3.921,0,0,0,243.2,97.7Z"/><path class="a" d="M253.5,102.1c-.3-.8-.6-1.7-1-2.7a28.045,28.045,0,0,1-.9-3.1c-.3,1.1-.6,2.1-.9,3.1s-.7,1.9-1,2.7h-1.3c-.5-1.1-1-2.4-1.5-3.8s-.9-3-1.3-4.6h1.6a13.637,13.637,0,0,0,.4,1.7c.2.6.3,1.2.5,1.8s.3,1.2.5,1.7a12.131,12.131,0,0,1,.5,1.4,7.494,7.494,0,0,0,.5-1.6c.2-.6.3-1.1.5-1.7s.3-1.1.5-1.7c.1-.6.3-1.1.4-1.6h1.2a12.438,12.438,0,0,0,.4,1.6,10.927,10.927,0,0,0,.5,1.7c.2.6.3,1.2.5,1.7a14.243,14.243,0,0,1,.5,1.6c.2-.4.3-.9.5-1.4a10.927,10.927,0,0,0,.5-1.7c.2-.6.3-1.2.5-1.8a10.461,10.461,0,0,0,.4-1.7h1.6c-.4,1.7-.9,3.2-1.3,4.6-.5,1.4-1,2.7-1.5,3.8Z"/><path class="a" d="M259.9,92.1a1.025,1.025,0,1,1,.7-.3A1.08,1.08,0,0,1,259.9,92.1Zm.7,10h-1.5V93.7h1.5Z"/><path class="a" d="M265.1,100.8a4.636,4.636,0,0,0,1.4-.2.812.812,0,0,0,.4-.8.975.975,0,0,0-.4-.9,6.012,6.012,0,0,0-1.4-.7c-.3-.1-.6-.3-.9-.4a2.177,2.177,0,0,1-.8-.5,1.794,1.794,0,0,1-.5-.7,2.958,2.958,0,0,1-.2-1,2.5,2.5,0,0,1,.8-1.8,3.174,3.174,0,0,1,2.3-.7h.7c.2,0,.5.1.7.1a4.331,4.331,0,0,1,.5.1c.2,0,.3.1.4.1l-.3,1.3a3.386,3.386,0,0,0-.8-.3,4.868,4.868,0,0,0-1.2-.1,2.016,2.016,0,0,0-1.1.3.891.891,0,0,0-.5.8.9.9,0,0,0,.1.5,1.381,1.381,0,0,0,.3.4,2.186,2.186,0,0,0,.5.3,6.891,6.891,0,0,0,.8.3,7.6,7.6,0,0,0,1.1.4,2.177,2.177,0,0,1,.8.5,1.794,1.794,0,0,1,.5.7,2.958,2.958,0,0,1,.2,1,2.019,2.019,0,0,1-.9,1.8,4.4,4.4,0,0,1-2.5.6,7.181,7.181,0,0,1-1.7-.2,4.648,4.648,0,0,1-.9-.3l.3-1.3a3.386,3.386,0,0,0,.8.3A2.41,2.41,0,0,0,265.1,100.8Z"/><path class="a" d="M273.3,97.4a8.119,8.119,0,0,1,1,.9c.4.4.7.8,1.1,1.2a11.317,11.317,0,0,1,1,1.3,8.341,8.341,0,0,1,.8,1.2h-1.8a8.343,8.343,0,0,0-.8-1.2,10.627,10.627,0,0,0-.9-1.1,9.428,9.428,0,0,0-1-1,7.006,7.006,0,0,0-1-.8v4h-1.5V89.7l1.5-.3v7.7l.9-.9a9.016,9.016,0,0,0,.9-1l.9-.9c.3-.3.5-.6.7-.8h1.8a6.471,6.471,0,0,1-.8.9c-.3.3-.6.7-.9,1s-.6.7-.9,1Z"/><path class="a" d="M285.6,97.7a4.845,4.845,0,0,1-.3,1.8,6.376,6.376,0,0,1-.8,1.4,3.045,3.045,0,0,1-1.3.9,4.417,4.417,0,0,1-3.2,0,3.805,3.805,0,0,1-1.3-.9,3.923,3.923,0,0,1-.8-1.4,5.55,5.55,0,0,1,0-3.6,6.377,6.377,0,0,1,.8-1.4,3.805,3.805,0,0,1,1.3-.9,4.417,4.417,0,0,1,3.2,0,3.805,3.805,0,0,1,1.3.9,3.923,3.923,0,0,1,.8,1.4A4.845,4.845,0,0,1,285.6,97.7Zm-1.5,0a3.921,3.921,0,0,0-.6-2.3,1.88,1.88,0,0,0-1.7-.8,2.136,2.136,0,0,0-1.7.8,4.708,4.708,0,0,0,0,4.6,1.88,1.88,0,0,0,1.7.8,2.136,2.136,0,0,0,1.7-.8A3.921,3.921,0,0,0,284.1,97.7Z"/></g><g transform="translate(756 5320)"><rect class="a" width="102" height="68" transform="translate(553.9 36.9)"/><path d="M602.7,51.7l2.2-1.6,2.1,1.6-.8-2.6,2.2-1.5h-2.7l-.8-2.6-.8,2.6h-2.7l2.1,1.5Z"/><path d="M591.6,54.7l2.1-1.6,2.2,1.6-.8-2.6,2.2-1.5h-2.7l-.9-2.6-.8,2.6h-2.7l2.2,1.5Z"/><path d="M585.6,56.2l-.8,2.5h-2.7l2.1,1.6-.8,2.5,2.2-1.5,2.1,1.5-.8-2.5,2.2-1.6h-2.7Z"/><path d="M582.6,72.4l2.1,1.6-.8-2.6,2.2-1.5h-2.7l-.8-2.6-.8,2.6h-2.7l2.2,1.5-.9,2.6Z"/><path d="M586.4,81l-.8-2.6-.8,2.6h-2.7l2.1,1.6-.8,2.5,2.2-1.5,2.1,1.5-.8-2.5,2.2-1.6Z"/><path d="M594.6,89.2l-.9-2.6-.8,2.6h-2.7l2.2,1.6-.8,2.5,2.1-1.6,2.2,1.6-.8-2.5,2.2-1.6Z"/><path d="M605.7,92.1l-.8-2.5-.8,2.5h-2.7l2.1,1.6-.8,2.6,2.2-1.6,2.1,1.6-.8-2.6,2.2-1.6Z"/><path d="M616.8,89.2l-.8-2.6-.8,2.6h-2.7l2.2,1.6-.8,2.5,2.1-1.6,2.2,1.6-.9-2.5,2.2-1.6Z"/><path d="M625,81l-.8-2.6-.8,2.6h-2.7l2.1,1.6-.8,2.5,2.2-1.5,2.1,1.5-.8-2.5,2.2-1.6Z"/><path d="M630.7,69.8H628l-.9-2.6-.8,2.6h-2.7l2.2,1.6-.8,2.5,2.1-1.5,2.2,1.5-.8-2.5Z"/><path d="M622,62.8l2.2-1.6,2.1,1.6-.8-2.5,2.2-1.6H625l-.8-2.6-.8,2.6h-2.7l2.1,1.6Z"/><path d="M616,48l-.8,2.6h-2.7l2.2,1.5-.8,2.6,2.1-1.6,2.2,1.6-.8-2.6,2.2-1.5h-2.7Z"/><path class="a" d="M393.8,81.1V69.9h6.9v1.3h-5.3v3.3h4.7v1.3h-4.7v3.9h5.7V81h-7.3Z"/><path class="a" d="M409.2,80.7a10.627,10.627,0,0,1-1.4.3,12.122,12.122,0,0,1-2,.1,3.808,3.808,0,0,1-1.6-.3,4.44,4.44,0,0,1-1.1-.8,2.725,2.725,0,0,1-.6-1.2,7.772,7.772,0,0,1-.2-1.6V72.5h1.5v4.4a3.953,3.953,0,0,0,.5,2.2,2.015,2.015,0,0,0,1.6.7h1.4a.367.367,0,0,0,.3-.1V72.6h1.5v8.1Z"/><path class="a" d="M414.9,72.5h.4a.9.9,0,0,1,.5.1c.2,0,.3.1.4.1s.2.1.3.1l-.3,1.3a3.933,3.933,0,0,1-.6-.2,3.42,3.42,0,0,0-1.1-.1,1.949,1.949,0,0,0-.8.1,1.75,1.75,0,0,1-.5.1v7.1h-1.5V73c.4-.1.8-.3,1.3-.4C413.6,72.6,414.2,72.5,414.9,72.5Z"/><path class="a" d="M425.4,76.7a4.845,4.845,0,0,1-.3,1.8,6.377,6.377,0,0,1-.8,1.4,3.045,3.045,0,0,1-1.3.9,4.417,4.417,0,0,1-3.2,0,3.805,3.805,0,0,1-1.3-.9,3.923,3.923,0,0,1-.8-1.4,5.55,5.55,0,0,1,0-3.6,6.377,6.377,0,0,1,.8-1.4,3.805,3.805,0,0,1,1.3-.9,4.417,4.417,0,0,1,3.2,0,3.805,3.805,0,0,1,1.3.9,3.923,3.923,0,0,1,.8,1.4A5.663,5.663,0,0,1,425.4,76.7Zm-1.6,0a3.921,3.921,0,0,0-.6-2.3,1.88,1.88,0,0,0-1.7-.8,2.136,2.136,0,0,0-1.7.8,4.708,4.708,0,0,0,0,4.6,1.88,1.88,0,0,0,1.7.8,2.136,2.136,0,0,0,1.7-.8A3.921,3.921,0,0,0,423.8,76.7Z"/><path class="a" d="M434.8,76.9a5.663,5.663,0,0,1-.3,1.8,6.109,6.109,0,0,1-.7,1.4,2.73,2.73,0,0,1-1.2.9,4.146,4.146,0,0,1-1.6.3,5.066,5.066,0,0,1-1.3-.2,1.915,1.915,0,0,1-.8-.4v3.4h-1.5V73c.4-.1.8-.2,1.3-.3a10.073,10.073,0,0,1,1.9-.2,4.671,4.671,0,0,1,1.7.3,3.045,3.045,0,0,1,1.3.9,4.826,4.826,0,0,1,.9,1.4A5.229,5.229,0,0,1,434.8,76.9Zm-1.6,0a3.334,3.334,0,0,0-.7-2.3,2.56,2.56,0,0,0-1.9-.8h-1.1a3.537,3.537,0,0,0-.6.1v5.3a1.506,1.506,0,0,0,.8.4,3.125,3.125,0,0,0,2.2,0,5.546,5.546,0,0,0,.8-.6,2.321,2.321,0,0,0,.4-1A3.749,3.749,0,0,0,433.2,76.9Z"/><path class="a" d="M436.4,76.7a6.448,6.448,0,0,1,.3-2,3.39,3.39,0,0,1,.9-1.4,4.184,4.184,0,0,1,1.2-.8,3.529,3.529,0,0,1,1.4-.3,3.315,3.315,0,0,1,2.6,1.1,4.885,4.885,0,0,1,.9,3.2v.6H438a3.055,3.055,0,0,0,.8,2,2.541,2.541,0,0,0,2.1.7,4.888,4.888,0,0,0,1.3-.1,3.385,3.385,0,0,0,.8-.3l.2,1.3a4.053,4.053,0,0,1-1,.3,7.772,7.772,0,0,1-1.6.2,5.412,5.412,0,0,1-1.9-.3,3.045,3.045,0,0,1-1.3-.9,6.376,6.376,0,0,1-.8-1.4A5.549,5.549,0,0,1,436.4,76.7Zm5.8-.8a3.1,3.1,0,0,0-.5-1.7,1.513,1.513,0,0,0-1.4-.7,2.388,2.388,0,0,0-.9.2,1.794,1.794,0,0,0-.7.5,2.506,2.506,0,0,0-.4.7,2.92,2.92,0,0,0-.2.9h4.1Z"/><path class="a" d="M444.5,84.2H444a4.331,4.331,0,0,1-.5-.1l.2-1.2c.1,0,.2.1.4.1h.4a1.29,1.29,0,0,0,1.1-.5,2.648,2.648,0,0,0,.3-1.4V72.8h1.5V81a2.677,2.677,0,0,1-2.9,3.2Zm2.1-13a1.025,1.025,0,1,1,.7-.3A1.08,1.08,0,0,1,446.6,71.2Z"/><path class="a" d="M451.8,79.9a4.636,4.636,0,0,0,1.4-.2.812.812,0,0,0,.4-.8.975.975,0,0,0-.4-.9,6.012,6.012,0,0,0-1.4-.7c-.3-.1-.6-.3-.9-.4a2.177,2.177,0,0,1-.8-.5,1.794,1.794,0,0,1-.5-.7,2.958,2.958,0,0,1-.2-1,2.5,2.5,0,0,1,.8-1.8,3.174,3.174,0,0,1,2.3-.7h.7c.2,0,.5.1.7.1a4.331,4.331,0,0,1,.5.1c.2,0,.3.1.4.1l-.3,1.3a3.386,3.386,0,0,0-.8-.3,4.868,4.868,0,0,0-1.2-.1,2.016,2.016,0,0,0-1.1.3.891.891,0,0,0-.5.8.9.9,0,0,0,.1.5c.1.1.2.3.3.4a2.186,2.186,0,0,0,.5.3,6.893,6.893,0,0,0,.8.3,7.6,7.6,0,0,0,1.1.4,2.177,2.177,0,0,1,.8.5,1.794,1.794,0,0,1,.5.7,2.958,2.958,0,0,1,.2,1,2.019,2.019,0,0,1-.9,1.8,4.4,4.4,0,0,1-2.5.6,7.181,7.181,0,0,1-1.7-.2,4.648,4.648,0,0,1-.9-.3l.3-1.3a3.386,3.386,0,0,0,.8.3A2.41,2.41,0,0,0,451.8,79.9Z"/><path class="a" d="M460,76.5a8.119,8.119,0,0,1,1,.9c.4.4.7.8,1.1,1.2a11.317,11.317,0,0,1,1,1.3,8.341,8.341,0,0,1,.8,1.2h-1.8a8.343,8.343,0,0,0-.8-1.2,10.627,10.627,0,0,0-.9-1.1,9.428,9.428,0,0,0-1-1,7.006,7.006,0,0,0-1-.8v4H457V68.8l1.5-.3v7.7l.9-.9a9.016,9.016,0,0,0,.9-1l.9-.9c.3-.3.5-.6.7-.8h1.8a6.471,6.471,0,0,1-.8.9c-.3.3-.6.7-.9,1s-.6.7-.9,1A12.036,12.036,0,0,0,460,76.5Z"/><path class="a" d="M466.1,71.2a1.025,1.025,0,1,1,.7-.3A.908.908,0,0,1,466.1,71.2Zm.8,9.9h-1.5V72.7h1.5Z"/><path class="a" d="M473.1,81.1V69.9h6.8v1.3h-5.2v3.4h4.6V76h-4.6v5.2h-1.6Z"/><path class="a" d="M488,80.7a10.627,10.627,0,0,1-1.4.3,12.122,12.122,0,0,1-2,.1,3.808,3.808,0,0,1-1.6-.3,4.44,4.44,0,0,1-1.1-.8,2.725,2.725,0,0,1-.6-1.2,7.772,7.772,0,0,1-.2-1.6V72.5h1.5v4.4a3.953,3.953,0,0,0,.5,2.2,2.015,2.015,0,0,0,1.6.7h1.4a.367.367,0,0,0,.3-.1V72.6h1.5v8.1Z"/><path class="a" d="M490.5,73a10.627,10.627,0,0,1,1.4-.3,12.122,12.122,0,0,1,2-.1,4.309,4.309,0,0,1,1.7.3,4.44,4.44,0,0,1,1.1.8,2.281,2.281,0,0,1,.6,1.2,7.772,7.772,0,0,1,.2,1.6v4.7H496V76.8a4.888,4.888,0,0,0-.1-1.3,4.651,4.651,0,0,0-.3-.9,2.651,2.651,0,0,0-.6-.5,2.959,2.959,0,0,0-1-.2h-1c-.2,0-.3,0-.4.1h-.3v7.1h-1.5V73Z"/><path class="a" d="M505.1,68.6l1.5-.3V80.6a13.045,13.045,0,0,1-1.3.3,10.889,10.889,0,0,1-1.9.1,4.671,4.671,0,0,1-1.7-.3,3.045,3.045,0,0,1-1.3-.9,3.39,3.39,0,0,1-.9-1.4,5.23,5.23,0,0,1-.3-1.8,5.663,5.663,0,0,1,.3-1.8,4.579,4.579,0,0,1,.7-1.4,2.73,2.73,0,0,1,1.2-.9,4.146,4.146,0,0,1,1.6-.3,5.066,5.066,0,0,1,1.3.2,1.915,1.915,0,0,1,.8.4V68.6Zm0,5.7a1.506,1.506,0,0,0-.8-.4,3.125,3.125,0,0,0-2.2,0,5.546,5.546,0,0,0-.8.6,2.321,2.321,0,0,0-.4,1,4.868,4.868,0,0,0-.1,1.2,3.334,3.334,0,0,0,.7,2.3,2.56,2.56,0,0,0,1.9.8,2.787,2.787,0,0,0,1-.1,3.537,3.537,0,0,0,.6-.1V74.3Z"/><path class="a" d="M515.9,80.7a10.627,10.627,0,0,1-1.4.3,12.122,12.122,0,0,1-2,.1,3.808,3.808,0,0,1-1.6-.3,4.44,4.44,0,0,1-1.1-.8,2.725,2.725,0,0,1-.6-1.2,7.772,7.772,0,0,1-.2-1.6V72.5h1.5v4.4a3.953,3.953,0,0,0,.5,2.2,2.015,2.015,0,0,0,1.6.7H514a.367.367,0,0,0,.3-.1V72.6h1.5v8.1Z"/><path class="a" d="M520.3,79.9a4.636,4.636,0,0,0,1.4-.2.812.812,0,0,0,.4-.8.975.975,0,0,0-.4-.9,6.012,6.012,0,0,0-1.4-.7c-.3-.1-.6-.3-.9-.4a2.178,2.178,0,0,1-.8-.5,1.793,1.793,0,0,1-.5-.7,2.959,2.959,0,0,1-.2-1,2.5,2.5,0,0,1,.8-1.8,3.174,3.174,0,0,1,2.3-.7h.7c.2,0,.5.1.7.1a4.329,4.329,0,0,1,.5.1c.2,0,.3.1.4.1l-.3,1.3a3.386,3.386,0,0,0-.8-.3,4.868,4.868,0,0,0-1.2-.1,2.016,2.016,0,0,0-1.1.3.891.891,0,0,0-.5.8.9.9,0,0,0,.1.5c.1.1.2.3.3.4a2.185,2.185,0,0,0,.5.3,6.893,6.893,0,0,0,.8.3,7.6,7.6,0,0,0,1.1.4,2.178,2.178,0,0,1,.8.5,1.793,1.793,0,0,1,.5.7,2.959,2.959,0,0,1,.2,1,2.019,2.019,0,0,1-.9,1.8,4.4,4.4,0,0,1-2.5.6,7.181,7.181,0,0,1-1.7-.2,4.649,4.649,0,0,1-.9-.3l.3-1.3a3.386,3.386,0,0,0,.8.3A2.411,2.411,0,0,0,520.3,79.9Z"/><path class="a" d="M531.1,73.8c-.2.2-.5.6-.9,1.1L529,76.4c-.4.6-.9,1.1-1.3,1.7s-.8,1.2-1.1,1.7h4.6v1.3h-6.4v-1c.3-.5.6-1,1-1.6s.8-1.1,1.2-1.7.8-1.1,1.2-1.6.7-.9,1-1.3H525V72.6h6.1Z"/><path class="a" d="M372.4,96.3a9.685,9.685,0,0,1,.7.9,12.486,12.486,0,0,1,.8,1.2,9.129,9.129,0,0,1,.8,1.3c.3.5.5.9.7,1.3h-1.7c-.2-.4-.5-.8-.7-1.2-.3-.4-.5-.8-.8-1.2s-.5-.7-.8-1.1a5.5,5.5,0,0,1-.7-.9h-2.2V101h-1.6V89.9a6.052,6.052,0,0,1,1.5-.2c.5,0,1-.1,1.5-.1a5.968,5.968,0,0,1,3.6.9,3.16,3.16,0,0,1,1.2,2.7,3.077,3.077,0,0,1-.6,1.9A3.246,3.246,0,0,1,372.4,96.3ZM370,91h-1.5v4.2h1.1a7.569,7.569,0,0,0,1.5-.1c.4-.1.8-.2,1.1-.3a4.351,4.351,0,0,0,.7-.6c.2-.2.2-.6.2-1.1a3.6,3.6,0,0,0-.2-1.1,1.575,1.575,0,0,0-.7-.7,1.689,1.689,0,0,0-1-.3Z"/><path class="a" d="M384.4,96.6a4.845,4.845,0,0,1-.3,1.8,6.377,6.377,0,0,1-.8,1.4,3.045,3.045,0,0,1-1.3.9,4.417,4.417,0,0,1-3.2,0,3.805,3.805,0,0,1-1.3-.9,3.923,3.923,0,0,1-.8-1.4,5.55,5.55,0,0,1,0-3.6,6.377,6.377,0,0,1,.8-1.4,3.805,3.805,0,0,1,1.3-.9,4.417,4.417,0,0,1,3.2,0,3.805,3.805,0,0,1,1.3.9,3.923,3.923,0,0,1,.8,1.4A4.845,4.845,0,0,1,384.4,96.6Zm-1.6,0a3.921,3.921,0,0,0-.6-2.3,1.88,1.88,0,0,0-1.7-.8,2.136,2.136,0,0,0-1.7.8,4.708,4.708,0,0,0,0,4.6,1.88,1.88,0,0,0,1.7.8,2.136,2.136,0,0,0,1.7-.8A4.142,4.142,0,0,0,382.8,96.6Z"/><path class="a" d="M391.7,93.7c-.2.2-.5.6-.9,1.1l-1.2,1.5c-.4.6-.9,1.1-1.3,1.7s-.8,1.2-1.1,1.7h4.6V101h-6.4v-1c.3-.5.6-1,1-1.6s.8-1.1,1.2-1.7.8-1.1,1.2-1.6.7-.9,1-1.3h-4.2V92.5h6.1v1.2Z"/><path class="a" d="M400.5,101c-.3-.8-.6-1.7-1-2.7a28.045,28.045,0,0,1-.9-3.1c-.3,1.1-.6,2.1-.9,3.1s-.7,1.9-1,2.7h-1.3c-.5-1.1-1-2.4-1.5-3.8s-.9-3-1.3-4.6h1.6a13.64,13.64,0,0,0,.4,1.7c.2.6.3,1.2.5,1.8s.3,1.2.5,1.7a12.128,12.128,0,0,1,.5,1.4,7.494,7.494,0,0,0,.5-1.6,10.926,10.926,0,0,1,.5-1.7c.2-.6.3-1.1.5-1.7.1-.6.3-1.1.4-1.6h1.2a12.441,12.441,0,0,0,.4,1.6,10.926,10.926,0,0,0,.5,1.7c.2.6.3,1.2.5,1.7a9.829,9.829,0,0,1,.5,1.6c.2-.4.3-.9.5-1.4a8.446,8.446,0,0,0,.5-1.7c.2-.6.3-1.2.5-1.8a10.461,10.461,0,0,0,.4-1.7h1.6c-.4,1.7-.9,3.2-1.3,4.6-.5,1.4-1,2.7-1.5,3.8Z"/><path class="a" d="M413.4,96.6a4.845,4.845,0,0,1-.3,1.8,6.377,6.377,0,0,1-.8,1.4,3.045,3.045,0,0,1-1.3.9,4.417,4.417,0,0,1-3.2,0,3.805,3.805,0,0,1-1.3-.9,3.923,3.923,0,0,1-.8-1.4,5.55,5.55,0,0,1,0-3.6,6.377,6.377,0,0,1,.8-1.4,3.805,3.805,0,0,1,1.3-.9,4.417,4.417,0,0,1,3.2,0,3.805,3.805,0,0,1,1.3.9,3.923,3.923,0,0,1,.8,1.4A4.845,4.845,0,0,1,413.4,96.6Zm-1.6,0a3.921,3.921,0,0,0-.6-2.3,1.88,1.88,0,0,0-1.7-.8,2.136,2.136,0,0,0-1.7.8,4.708,4.708,0,0,0,0,4.6,1.88,1.88,0,0,0,1.7.8,2.136,2.136,0,0,0,1.7-.8A4.142,4.142,0,0,0,411.8,96.6Z"/><path class="a" d="M414.1,104h-.5a4.331,4.331,0,0,1-.5-.1l.2-1.2c.1,0,.2.1.4.1h.4a1.29,1.29,0,0,0,1.1-.5,2.648,2.648,0,0,0,.3-1.4V92.6H417v8.3a3.286,3.286,0,0,1-.7,2.4A3.232,3.232,0,0,1,414.1,104Zm2.1-13a1.025,1.025,0,1,1,.7-.3A1.08,1.08,0,0,1,416.2,91Z"/><path class="a" d="M426.2,100.6a10.627,10.627,0,0,1-1.4.3,12.122,12.122,0,0,1-2,.1,3.808,3.808,0,0,1-1.6-.3,4.44,4.44,0,0,1-1.1-.8,2.725,2.725,0,0,1-.6-1.2,7.772,7.772,0,0,1-.2-1.6V92.4h1.5v4.4a3.953,3.953,0,0,0,.5,2.2,2.015,2.015,0,0,0,1.6.7h1.4a.367.367,0,0,0,.3-.1V92.5h1.5v8.1Z"/><path class="a" d="M437.9,96.3a9.685,9.685,0,0,1,.7.9,12.486,12.486,0,0,1,.8,1.2,9.129,9.129,0,0,1,.8,1.3c.3.5.5.9.7,1.3h-1.7c-.2-.4-.5-.8-.7-1.2-.3-.4-.5-.8-.8-1.2s-.5-.7-.8-1.1a5.5,5.5,0,0,1-.7-.9H434V101h-1.6V89.9a6.052,6.052,0,0,1,1.5-.2c.5,0,1-.1,1.5-.1a5.968,5.968,0,0,1,3.6.9,3.16,3.16,0,0,1,1.2,2.7,3.077,3.077,0,0,1-.6,1.9A3.246,3.246,0,0,1,437.9,96.3ZM435.5,91H434v4.2h1.1a7.569,7.569,0,0,0,1.5-.1c.4-.1.8-.2,1.1-.3a4.351,4.351,0,0,0,.7-.6c.2-.2.2-.6.2-1.1a3.6,3.6,0,0,0-.2-1.1,1.575,1.575,0,0,0-.7-.7,1.689,1.689,0,0,0-1-.3Z"/><path class="a" d="M442,96.6a6.448,6.448,0,0,1,.3-2,3.39,3.39,0,0,1,.9-1.4,4.184,4.184,0,0,1,1.2-.8,3.529,3.529,0,0,1,1.4-.3,3.315,3.315,0,0,1,2.6,1.1,4.885,4.885,0,0,1,.9,3.2V97h-5.8a3.055,3.055,0,0,0,.8,2,2.541,2.541,0,0,0,2.1.7,4.888,4.888,0,0,0,1.3-.1,3.385,3.385,0,0,0,.8-.3l.2,1.3a4.053,4.053,0,0,1-1,.3,7.772,7.772,0,0,1-1.6.2,5.412,5.412,0,0,1-1.9-.3,3.045,3.045,0,0,1-1.3-.9,6.376,6.376,0,0,1-.8-1.4A5.918,5.918,0,0,1,442,96.6Zm5.7-.8a3.1,3.1,0,0,0-.5-1.7,1.513,1.513,0,0,0-1.4-.7,2.388,2.388,0,0,0-.9.2,1.794,1.794,0,0,0-.7.5,2.506,2.506,0,0,0-.4.7,2.92,2.92,0,0,0-.2.9h4.1Z"/><path class="a" d="M456.7,100.1a2.192,2.192,0,0,1-.8.3,5.066,5.066,0,0,1-1.3.2,5.9,5.9,0,0,1-1.4-.2,2.8,2.8,0,0,1-1.2-.8,4.11,4.11,0,0,1-.8-1.3,4.845,4.845,0,0,1-.3-1.8,4.672,4.672,0,0,1,.3-1.7,4.111,4.111,0,0,1,.8-1.3,4.276,4.276,0,0,1,1.3-.9,4.671,4.671,0,0,1,1.7-.3,8.969,8.969,0,0,1,1.8.2,13.04,13.04,0,0,1,1.3.3v7.5a3.427,3.427,0,0,1-1,2.8,4.479,4.479,0,0,1-3,.9,7.569,7.569,0,0,1-1.5-.1,10.377,10.377,0,0,1-1.2-.3l.3-1.3c.3.1.7.2,1.1.3a6.149,6.149,0,0,0,1.4.1,3.09,3.09,0,0,0,1.9-.5,2.2,2.2,0,0,0,.6-1.7v-.4Zm0-6.2c-.2,0-.4-.1-.6-.1-.3,0-.6-.1-1-.1a2.56,2.56,0,0,0-1.9.8,3.3,3.3,0,0,0-.7,2.1,3.729,3.729,0,0,0,.2,1.2,4.053,4.053,0,0,0,.5.9,3.039,3.039,0,0,0,.7.5,2.388,2.388,0,0,0,.9.2,3.6,3.6,0,0,0,1.1-.2,2.01,2.01,0,0,0,.8-.4Z"/><path class="a" d="M461.4,91a1.025,1.025,0,1,1,.7-.3A.908.908,0,0,1,461.4,91Zm.8,10h-1.5V92.6h1.5Z"/><path class="a" d="M472.1,96.6a4.845,4.845,0,0,1-.3,1.8,6.377,6.377,0,0,1-.8,1.4,3.045,3.045,0,0,1-1.3.9,4.417,4.417,0,0,1-3.2,0,3.805,3.805,0,0,1-1.3-.9,3.923,3.923,0,0,1-.8-1.4,5.55,5.55,0,0,1,0-3.6,6.377,6.377,0,0,1,.8-1.4,3.805,3.805,0,0,1,1.3-.9,4.417,4.417,0,0,1,3.2,0,3.805,3.805,0,0,1,1.3.9,3.923,3.923,0,0,1,.8,1.4A4.845,4.845,0,0,1,472.1,96.6Zm-1.5,0a3.921,3.921,0,0,0-.6-2.3,1.88,1.88,0,0,0-1.7-.8,2.136,2.136,0,0,0-1.7.8,4.708,4.708,0,0,0,0,4.6,1.88,1.88,0,0,0,1.7.8,2.136,2.136,0,0,0,1.7-.8A4.143,4.143,0,0,0,470.6,96.6Z"/><path class="a" d="M474.2,92.8a10.627,10.627,0,0,1,1.4-.3,12.122,12.122,0,0,1,2-.1,4.309,4.309,0,0,1,1.7.3,4.44,4.44,0,0,1,1.1.8,2.281,2.281,0,0,1,.6,1.2,7.772,7.772,0,0,1,.2,1.6V101h-1.5V96.6a4.888,4.888,0,0,0-.1-1.3,4.651,4.651,0,0,0-.3-.9,2.651,2.651,0,0,0-.6-.5,2.959,2.959,0,0,0-1-.2h-1c-.2,0-.3,0-.4.1H476v7.1h-1.5V92.8Z"/><path class="a" d="M486.1,92.2a6.052,6.052,0,0,1,1.5.2,2.553,2.553,0,0,1,1,.7,3.128,3.128,0,0,1,.5,1,5.066,5.066,0,0,1,.2,1.3v5.3a4.331,4.331,0,0,1-.5.1c-.2,0-.5.1-.8.1s-.6.1-.9.1h-1a5.283,5.283,0,0,1-1.3-.1,3.128,3.128,0,0,1-1-.5,2.7,2.7,0,0,1-.7-.8,2.345,2.345,0,0,1-.2-1.2,2.133,2.133,0,0,1,.3-1.2,2.047,2.047,0,0,1,.8-.8,3.7,3.7,0,0,1,1.1-.5,6.15,6.15,0,0,1,1.4-.1h.5a.9.9,0,0,1,.5.1c.1,0,.3.1.4.1h.2v-.4a1.7,1.7,0,0,0-.1-.7,3.331,3.331,0,0,0-.3-.6c-.1-.2-.3-.3-.6-.5a2.388,2.388,0,0,0-.9-.2,5.283,5.283,0,0,0-1.3.1c-.4.1-.7.1-.8.2l-.2-1.2a4.053,4.053,0,0,1,1-.3C485.1,92.2,485.6,92.2,486.1,92.2Zm.2,7.5h.9a1.483,1.483,0,0,0,.7-.1V97.1a.749.749,0,0,0-.5-.1c-.2,0-.5-.1-.9-.1h-.7a1.445,1.445,0,0,0-.7.2,1,1,0,0,0-.5.4,1.445,1.445,0,0,0-.2.7,1.29,1.29,0,0,0,.5,1.1A1.955,1.955,0,0,0,486.3,99.7Z"/><path class="a" d="M494.3,101a2.814,2.814,0,0,1-2-.6,2.445,2.445,0,0,1-.6-1.8V88.5l1.5-.3V98.3c0,.2,0,.5.1.6a.707.707,0,0,0,.6.6c.2,0,.4.1.6.1Z"/><path class="a" d="M496.1,92.8a10.627,10.627,0,0,1,1.4-.3,12.122,12.122,0,0,1,2-.1,4.309,4.309,0,0,1,1.7.3,4.44,4.44,0,0,1,1.1.8,2.281,2.281,0,0,1,.6,1.2,7.772,7.772,0,0,1,.2,1.6V101h-1.5V96.6a4.888,4.888,0,0,0-.1-1.3,4.651,4.651,0,0,0-.3-.9,2.651,2.651,0,0,0-.6-.5,2.959,2.959,0,0,0-1-.2h-1c-.2,0-.3,0-.4.1h-.3v7.1h-1.5V92.8Z"/><path class="a" d="M504.9,96.6a6.448,6.448,0,0,1,.3-2,3.39,3.39,0,0,1,.9-1.4,4.184,4.184,0,0,1,1.2-.8,3.529,3.529,0,0,1,1.4-.3,3.315,3.315,0,0,1,2.6,1.1,4.885,4.885,0,0,1,.9,3.2V97h-5.8a3.055,3.055,0,0,0,.8,2,2.541,2.541,0,0,0,2.1.7,4.888,4.888,0,0,0,1.3-.1,3.385,3.385,0,0,0,.8-.3l.2,1.3a4.053,4.053,0,0,1-1,.3,7.772,7.772,0,0,1-1.6.2,5.412,5.412,0,0,1-1.9-.3,3.045,3.045,0,0,1-1.3-.9,6.376,6.376,0,0,1-.8-1.4A5.918,5.918,0,0,1,504.9,96.6Zm5.7-.8a3.1,3.1,0,0,0-.5-1.7,1.513,1.513,0,0,0-1.4-.7,2.388,2.388,0,0,0-.9.2,1.794,1.794,0,0,0-.7.5,2.506,2.506,0,0,0-.4.7,2.92,2.92,0,0,0-.2.9h4.1Z"/><path class="a" d="M519.6,100.1a2.192,2.192,0,0,1-.8.3,5.067,5.067,0,0,1-1.3.2,5.9,5.9,0,0,1-1.4-.2,2.8,2.8,0,0,1-1.2-.8,4.111,4.111,0,0,1-.8-1.3,4.844,4.844,0,0,1-.3-1.8,4.671,4.671,0,0,1,.3-1.7,4.111,4.111,0,0,1,.8-1.3,4.276,4.276,0,0,1,1.3-.9,4.671,4.671,0,0,1,1.7-.3,8.969,8.969,0,0,1,1.8.2,13.04,13.04,0,0,1,1.3.3v7.5a3.427,3.427,0,0,1-1,2.8,4.479,4.479,0,0,1-3,.9,7.569,7.569,0,0,1-1.5-.1,10.376,10.376,0,0,1-1.2-.3l.3-1.3c.3.1.7.2,1.1.3a6.149,6.149,0,0,0,1.4.1,3.09,3.09,0,0,0,1.9-.5,2.2,2.2,0,0,0,.6-1.7v-.4Zm0-6.2c-.2,0-.4-.1-.6-.1-.3,0-.6-.1-1-.1a2.561,2.561,0,0,0-1.9.8,3.3,3.3,0,0,0-.7,2.1,3.729,3.729,0,0,0,.2,1.2,4.052,4.052,0,0,0,.5.9,3.039,3.039,0,0,0,.7.5,2.388,2.388,0,0,0,.9.2,3.6,3.6,0,0,0,1.1-.2,2.01,2.01,0,0,0,.8-.4Z"/><path class="a" d="M531,96.6a4.844,4.844,0,0,1-.3,1.8,6.377,6.377,0,0,1-.8,1.4,3.045,3.045,0,0,1-1.3.9,4.416,4.416,0,0,1-3.2,0,3.8,3.8,0,0,1-1.3-.9,3.923,3.923,0,0,1-.8-1.4,5.55,5.55,0,0,1,0-3.6,6.377,6.377,0,0,1,.8-1.4,3.806,3.806,0,0,1,1.3-.9,4.416,4.416,0,0,1,3.2,0,3.8,3.8,0,0,1,1.3.9,3.923,3.923,0,0,1,.8,1.4A4.844,4.844,0,0,1,531,96.6Zm-1.5,0a3.921,3.921,0,0,0-.6-2.3,1.88,1.88,0,0,0-1.7-.8,2.136,2.136,0,0,0-1.7.8,4.709,4.709,0,0,0,0,4.6,1.88,1.88,0,0,0,1.7.8,2.136,2.136,0,0,0,1.7-.8A5.191,5.191,0,0,0,529.5,96.6Z"/><path class="a" d="M360.4,58.5a8.532,8.532,0,0,1-3-.5,5.957,5.957,0,0,1-2.1-1.4,4.451,4.451,0,0,1-1.2-2.1,7.664,7.664,0,0,1-.4-2.7V41.1h3.1V51.4a6.014,6.014,0,0,0,.3,2,3.161,3.161,0,0,0,.7,1.3,4.44,4.44,0,0,0,1.1.8,3.416,3.416,0,0,0,1.5.2,6.8,6.8,0,0,0,1.5-.2,1.779,1.779,0,0,0,1.1-.8,2.729,2.729,0,0,0,.7-1.3,9.431,9.431,0,0,0,.3-2V41.1h3.1V51.7a7.664,7.664,0,0,1-.4,2.7,7.193,7.193,0,0,1-1.2,2.1,4.581,4.581,0,0,1-2.1,1.4A7.306,7.306,0,0,1,360.4,58.5Z"/><path class="a" d="M370.8,46c.6-.2,1.3-.3,2.2-.5a14.166,14.166,0,0,1,3-.2,6.772,6.772,0,0,1,2.6.4,4.345,4.345,0,0,1,1.7,1.2,4.8,4.8,0,0,1,.9,1.9,9.283,9.283,0,0,1,.3,2.4v7.2h-3V51.6a9.722,9.722,0,0,0-.1-1.8,3.374,3.374,0,0,0-.4-1.2,2.7,2.7,0,0,0-.8-.7,5.066,5.066,0,0,0-1.3-.2,4.869,4.869,0,0,0-1.2.1c-.4,0-.7.1-.9.1V58.3h-3V46Z"/><path class="a" d="M388.3,41.9a1.728,1.728,0,0,1-.5,1.3,1.94,1.94,0,0,1-2.6,0,1.536,1.536,0,0,1-.5-1.3,2.168,2.168,0,0,1,.5-1.4,1.94,1.94,0,0,1,2.6,0A1.978,1.978,0,0,1,388.3,41.9ZM388,58.5h-3V45.6h3Z"/><path class="a" d="M395.9,45.1a6.249,6.249,0,0,1,2.5.4,3.661,3.661,0,0,1,1.6,1,4.171,4.171,0,0,1,.9,1.6,6.649,6.649,0,0,1,.3,2.1V58c-.5.1-1.1.2-2.1.4a28.509,28.509,0,0,1-3.1.2,12.482,12.482,0,0,1-2.1-.2,3.9,3.9,0,0,1-1.6-.7,3.482,3.482,0,0,1-1.1-1.3,4.713,4.713,0,0,1,0-3.8,3.447,3.447,0,0,1,1.2-1.2,8.651,8.651,0,0,1,1.7-.7,12.31,12.31,0,0,1,2-.2,3.4,3.4,0,0,1,1,.1,5.987,5.987,0,0,1,1.2.2v-.5a3.4,3.4,0,0,0-.1-1,2.01,2.01,0,0,0-.4-.8,5.548,5.548,0,0,0-.8-.6,4.438,4.438,0,0,0-1.3-.2,11.483,11.483,0,0,0-1.9.1c-.6.1-1,.2-1.4.3l-.4-2.4a12.257,12.257,0,0,1,1.6-.4A8.578,8.578,0,0,1,395.9,45.1Zm.2,11a12.168,12.168,0,0,0,2.1-.1V52.7c-.2,0-.4-.1-.7-.1s-.7-.1-1-.1a3.4,3.4,0,0,0-1,.1,1.613,1.613,0,0,0-.9.3,1.344,1.344,0,0,0-.7.6c-.2.2-.2.5-.2.9a1.579,1.579,0,0,0,.7,1.5A3.085,3.085,0,0,0,396.1,56.1Z"/><path class="a" d="M410.3,58.5v-17h10.9v2.6h-7.8v4.2h7v2.6h-7v5h8.4v2.6H410.3Z"/><path class="a" d="M434.5,57.8c-.6.1-1.3.3-2.2.5a14.166,14.166,0,0,1-3,.2,6.772,6.772,0,0,1-2.6-.4,4.345,4.345,0,0,1-1.7-1.2,4.8,4.8,0,0,1-.9-1.9,9.283,9.283,0,0,1-.3-2.4V45.4h3v6.7a5,5,0,0,0,.6,2.9,2.336,2.336,0,0,0,2.1.9h1.1c.4,0,.7-.1.9-.1V45.4h3Z"/><path class="a" d="M445.4,48.3a6.214,6.214,0,0,0-1-.3,6.622,6.622,0,0,0-1.5-.1,3.4,3.4,0,0,0-1,.1,4.536,4.536,0,0,0-.8.2V58.5h-3V46.2q.9-.3,2.1-.6a12.921,12.921,0,0,1,2.9-.3h.7c.3,0,.5.1.8.1s.5.1.8.1a1.072,1.072,0,0,1,.6.2Z"/><path class="a" d="M459.5,51.7a8.628,8.628,0,0,1-.4,2.8,5.71,5.71,0,0,1-1.3,2.1,5.968,5.968,0,0,1-2,1.4,6.963,6.963,0,0,1-2.5.5,6.551,6.551,0,0,1-2.5-.5,4.5,4.5,0,0,1-1.9-1.4,7.434,7.434,0,0,1-1.3-2.1,8.21,8.21,0,0,1-.5-2.8,8.676,8.676,0,0,1,.5-2.8,5.71,5.71,0,0,1,1.3-2.1,5.968,5.968,0,0,1,2-1.4,6.5,6.5,0,0,1,5,0,5.579,5.579,0,0,1,2,1.4,5.71,5.71,0,0,1,1.3,2.1A24.024,24.024,0,0,1,459.5,51.7Zm-3.1,0a5.1,5.1,0,0,0-.8-3,2.712,2.712,0,0,0-2.3-1.1,2.845,2.845,0,0,0-2.3,1.1,4.641,4.641,0,0,0-.8,3,5.686,5.686,0,0,0,.8,3.1,2.485,2.485,0,0,0,2.3,1.1,2.845,2.845,0,0,0,2.3-1.1A4.944,4.944,0,0,0,456.4,51.7Z"/><path class="a" d="M474,52.1a7.664,7.664,0,0,1-.4,2.7,6.985,6.985,0,0,1-1.1,2.1,6.228,6.228,0,0,1-1.8,1.4,6.042,6.042,0,0,1-2.4.5,8.807,8.807,0,0,1-1.7-.2,5.023,5.023,0,0,1-1.3-.5v5h-3V46c.6-.2,1.4-.3,2.2-.5a12.3,12.3,0,0,1,2.8-.2,7.635,7.635,0,0,1,2.7.5,5.778,5.778,0,0,1,2,1.3,5.71,5.71,0,0,1,1.3,2.1A5.665,5.665,0,0,1,474,52.1Zm-3.1,0A4.771,4.771,0,0,0,470,49a3.69,3.69,0,0,0-2.9-1.1h-.9a2.92,2.92,0,0,0-.9.2v7.3a9.291,9.291,0,0,0,1,.5,3.178,3.178,0,0,0,1.4.2,2.775,2.775,0,0,0,2.4-1.1A4.348,4.348,0,0,0,470.9,52.1Z"/><path class="a" d="M476.2,51.8a9.427,9.427,0,0,1,.5-3,5.387,5.387,0,0,1,1.3-2.1,5.863,5.863,0,0,1,1.9-1.3,5.7,5.7,0,0,1,2.2-.4,5.139,5.139,0,0,1,4.1,1.6,7.009,7.009,0,0,1,1.5,4.9v1.2h-8.5a3.393,3.393,0,0,0,1.1,2.4,3.91,3.91,0,0,0,2.8.8,12.31,12.31,0,0,0,2-.2,8.4,8.4,0,0,0,1.4-.4l.4,2.4a4.875,4.875,0,0,1-.7.3,2.959,2.959,0,0,1-1,.2c-.4.1-.8.1-1.2.2-.4,0-.9.1-1.3.1a8.361,8.361,0,0,1-2.9-.5,5.957,5.957,0,0,1-2.1-1.4,7.194,7.194,0,0,1-1.2-2.1A11.154,11.154,0,0,1,476.2,51.8Zm8.6-1.3a5.019,5.019,0,0,0-.2-1.2,3.128,3.128,0,0,0-.5-1,1.555,1.555,0,0,0-.8-.6,1.978,1.978,0,0,0-1.1-.2,2.133,2.133,0,0,0-1.2.3,5.494,5.494,0,0,0-.9.7,8.794,8.794,0,0,0-.6,1c-.1.4-.2.7-.3,1.1h5.6Z"/><path class="a" d="M489.1,63a3.444,3.444,0,0,1-.9-.1,2.958,2.958,0,0,1-1-.2l.4-2.4a5.066,5.066,0,0,0,1.3.2c.7,0,1.2-.2,1.4-.6a3.007,3.007,0,0,0,.4-1.8V45.6h3V58.1a4.989,4.989,0,0,1-1.2,3.7A4.547,4.547,0,0,1,489.1,63ZM494,41.9a1.728,1.728,0,0,1-.5,1.3,1.94,1.94,0,0,1-2.6,0,1.536,1.536,0,0,1-.5-1.3,2.168,2.168,0,0,1,.5-1.4,1.94,1.94,0,0,1,2.6,0A1.624,1.624,0,0,1,494,41.9Z"/><path class="a" d="M500.6,56a3.419,3.419,0,0,0,1.7-.3,1.1,1.1,0,0,0,.5-1,1.382,1.382,0,0,0-.6-1.1,6.747,6.747,0,0,0-1.9-.9l-1.5-.6a5.025,5.025,0,0,1-1.2-.8,4.44,4.44,0,0,1-.8-1.1,3.339,3.339,0,0,1-.3-1.5,3.285,3.285,0,0,1,1.3-2.8,5.4,5.4,0,0,1,3.5-1,14.979,14.979,0,0,1,2.2.2,7.543,7.543,0,0,1,1.5.4l-.5,2.4a6.833,6.833,0,0,0-1.3-.4,8.969,8.969,0,0,0-1.8-.2,3.339,3.339,0,0,0-1.5.3.961.961,0,0,0-.6.9,1.268,1.268,0,0,0,.1.6,1.756,1.756,0,0,0,.4.5,4.348,4.348,0,0,0,.7.4c.3.1.7.3,1.1.4a15.859,15.859,0,0,1,1.8.8,3.779,3.779,0,0,1,1.2.9,2.589,2.589,0,0,1,.7,1.1,6.052,6.052,0,0,1,.2,1.5,3.242,3.242,0,0,1-1.4,2.8,7.03,7.03,0,0,1-3.9.9,10.063,10.063,0,0,1-2.7-.3,4.168,4.168,0,0,1-1.4-.5l.5-2.5a6.037,6.037,0,0,0,1.6.5A7.1,7.1,0,0,0,500.6,56Z"/><path class="a" d="M511.4,50.6a15.375,15.375,0,0,0,1.2-1.3c.4-.4.8-.9,1.3-1.4.4-.4.8-.9,1.2-1.3a7.293,7.293,0,0,0,.9-1.1h3.5c-.8.9-1.7,1.9-2.6,2.8-.9,1-1.8,1.9-2.7,2.9a10.607,10.607,0,0,1,1.5,1.5c.5.6,1.1,1.2,1.6,1.9a24.265,24.265,0,0,1,1.4,2c.4.7.8,1.3,1.1,1.8h-3.4c-.3-.5-.6-1-1-1.6s-.8-1.1-1.2-1.6a19.2,19.2,0,0,0-1.4-1.5,7.471,7.471,0,0,0-1.4-1.2v5.9h-3V41.9l3-.5v9.2Z"/><path class="a" d="M526.1,45.1a6.249,6.249,0,0,1,2.5.4,3.66,3.66,0,0,1,1.6,1,4.171,4.171,0,0,1,.9,1.6,6.648,6.648,0,0,1,.3,2.1V58c-.5.1-1.1.2-2.1.4a28.51,28.51,0,0,1-3.1.2,12.481,12.481,0,0,1-2.1-.2,3.9,3.9,0,0,1-1.6-.7,3.482,3.482,0,0,1-1.1-1.3,4.712,4.712,0,0,1,0-3.8,3.447,3.447,0,0,1,1.2-1.2,8.65,8.65,0,0,1,1.7-.7,12.31,12.31,0,0,1,2-.2,3.4,3.4,0,0,1,1,.1,5.987,5.987,0,0,1,1.2.2v-.5a3.4,3.4,0,0,0-.1-1,2.01,2.01,0,0,0-.4-.8,5.548,5.548,0,0,0-.8-.6,4.438,4.438,0,0,0-1.3-.2,11.484,11.484,0,0,0-1.9.1c-.6.1-1,.2-1.4.3l-.4-2.4a12.26,12.26,0,0,1,1.6-.4A8.578,8.578,0,0,1,526.1,45.1Zm.2,11a12.167,12.167,0,0,0,2.1-.1V52.7c-.2,0-.4-.1-.7-.1s-.7-.1-1-.1a3.4,3.4,0,0,0-1,.1,1.613,1.613,0,0,0-.9.3,1.344,1.344,0,0,0-.7.6c-.2.2-.2.5-.2.9a1.579,1.579,0,0,0,.7,1.5A3.085,3.085,0,0,0,526.3,56.1Z"/></g><path class="a" d="M63.8,59.4a13.408,13.408,0,0,0,4.3-2V22.7L22.7,36.9v34c2.3.6,4.8.9,6.5-.1,3.7-2.2,9.2-8.9,9.2-8.9s-2.9,7.2-1.8,9.9c1.2,2.8,8.1,3,8.1,3a131.7,131.7,0,0,0-11.5,7.9c-3.8,3.2-6.4,15.1-6.4,15.1s-1.8-7.6-4.2-9.2h0V105L68,113.5V74c-1,.3-2,.6-2.8.9-4,1.6-8.3,13.6-8.3,13.6s-.2-9.9-2-12.8c-1.7-2.7-10.2-1-10.2-1s7.8-5,10.2-9c2.3-3.8,1.4-9.9,1.4-9.9S60.1,60.1,63.8,59.4ZM48.2,54.6c-2.8.5-9.8,7.3-9.8,7.3s4.4-6.9,4.1-9.3c-.3-2.3-4.8-3.2-4.8-3.2s6-1.5,8.5-3.8,4.7-6.9,4.7-6.9.6,3.9,2.8,4.4c2.3.6,8.4-1.9,8.4-1.9a89.723,89.723,0,0,0-6.7,7.1c-2,2.6.8,7.6.8,7.6S51.1,54.1,48.2,54.6Z" transform="translate(756 5320)"/></g></svg>