<?xml version="1.0" encoding="UTF-8" standalone="no"?>
<svg
   xmlns:dc="http://purl.org/dc/elements/1.1/"
   xmlns:cc="http://web.resource.org/cc/"
   xmlns:rdf="http://www.w3.org/1999/02/22-rdf-syntax-ns#"
   xmlns:svg="http://www.w3.org/2000/svg"
   xmlns="http://www.w3.org/2000/svg"
   xmlns:sodipodi="http://sodipodi.sourceforge.net/DTD/sodipodi-0.dtd"
   xmlns:inkscape="http://www.inkscape.org/namespaces/inkscape"
   width="595.162"
   height="704.27"
   id="svg2"
   sodipodi:version="0.32"
   inkscape:version="0.44.1"
   sodipodi:docname="POL powiat średzki (dolnośląski) COA.svg"
   sodipodi:docbase="C:\Documents and Settings\Mistrz\Pulpit">
  <metadata
     id="metadata57">
    <rdf:RDF>
      <cc:Work
         rdf:about="">
        <dc:format>image/svg+xml</dc:format>
        <dc:type
           rdf:resource="http://purl.org/dc/dcmitype/StillImage" />
      </cc:Work>
    </rdf:RDF>
  </metadata>
  <sodipodi:namedview
     inkscape:window-height="480"
     inkscape:window-width="640"
     inkscape:pageshadow="2"
     inkscape:pageopacity="0.0"
     guidetolerance="10.0"
     gridtolerance="10.0"
     objecttolerance="10.0"
     borderopacity="1.0"
     bordercolor="#666666"
     pagecolor="#ffffff"
     id="base" />
  <defs
     id="defs4">
    <marker
       id="ArrowEnd"
       viewBox="0 0 10 10"
       refX="0"
       refY="5"
       markerUnits="strokeWidth"
       markerWidth="4"
       markerHeight="3"
       orient="auto">
      <path
         d="M 0 0 L 10 5 L 0 10 z"
         id="path7" />
    </marker>
    <marker
       id="ArrowStart"
       viewBox="0 0 10 10"
       refX="10"
       refY="5"
       markerUnits="strokeWidth"
       markerWidth="4"
       markerHeight="3"
       orient="auto">
      <path
         d="M 10 0 L 0 5 L 10 10 z"
         id="path10" />
    </marker>
  </defs>
  <g
     id="g2859">
    <g
       id="g12" />
    <path
       id="path18"
       d="M 0.0103269,0 L 586.45,0 L 595.162,8.42401 L 595.162,403.704 C 593.146,573.12 478.234,697.752 305.002,704.16 C 133.354,708.768 -1.35767,567.432 0.0103269,403.704 L 0.0103269,0 z "
       style="fill:black;fill-rule:evenodd;stroke:none" />
    <path
       id="path20"
       d="M 299.818,4.82397 L 582.13,4.82397 L 582.13,399.384 C 576.946,563.328 467.794,686.16 301.114,693 C 300.682,693 300.25,693 299.818,693 L 299.818,4.82397 z "
       style="fill:#239125;fill-rule:evenodd;stroke:none;fill-opacity:1" />
    <path
       id="path22"
       d="M 5.84233,4.82397 L 295.354,4.82397 L 295.354,693.144 C 131.194,696.384 3.17833,561.672 5.84233,399.384 L 5.84233,4.82397 z "
       style="fill:#fc0;fill-rule:evenodd;stroke:none" />
    <path
       id="path24"
       d="M 256.33,126.648 C 263.17,145.656 259.426,160.416 242.722,169.92 C 221.05,172.584 203.05,169.848 207.226,194.328 C 221.914,176.832 227.098,188.136 237.034,185.112 C 220.186,192.024 209.674,204.336 205.57,221.976 C 202.69,219.456 200.386,213.552 199.81,207.432 C 198.874,197.856 191.89,189.504 182.674,201.888 C 180.802,189.792 170.218,186.84 165.466,193.104 C 165.322,176.688 154.234,175.392 148.978,182.952 C 148.762,166.536 138.61,160.128 130.618,169.488 C 132.058,153.216 123.706,148.032 114.418,156.456 C 111.682,149.976 116.938,145.08 109.666,139.176 C 130.474,132.696 140.842,116.208 138.754,87.624 C 131.41,62.64 113.77,50.328 94.5463,50.328 L 94.5463,138.456 C 95.7703,139.104 97.0663,139.464 98.4343,139.68 C 96.3463,140.472 95.2663,142.488 95.1223,145.8 C 94.9063,145.512 94.6903,145.224 94.5463,144.936 L 94.5463,378.072 C 109.594,359.856 117.802,329.832 118.45,292.248 C 119.89,295.128 120.61,298.152 122.77,300.816 L 125.146,296.064 C 122.482,334.8 117.154,373.392 110.602,412.128 C 107.794,427.176 102.034,440.568 94.5463,451.512 L 94.5463,496.872 C 119.458,491.688 144.73,470.808 152.794,431.568 C 160.858,387.648 162.802,339.912 164.746,293.688 L 167.41,289.44 L 169.498,293.472 C 174.466,328.824 174.178,364.968 167.626,402.192 C 199.018,381.24 214.066,345.888 215.578,298.44 L 220.33,312.12 C 221.698,333.72 217.162,353.52 207.658,371.952 L 214.57,372.672 C 210.466,385.848 202.33,396 192.394,404.784 L 200.314,405.072 C 195.202,417.816 185.986,423.072 172.594,420.696 C 175.042,432.288 182.458,440.64 196.93,444.096 L 175.258,493.992 C 166.258,501.12 157.258,498.312 148.978,495.432 C 142.714,490.608 137.314,490.176 132.346,491.688 C 114.058,489.816 110.17,498.528 116.074,514.368 C 119.962,507.6 123.922,503.856 127.81,506.592 C 131.194,514.728 136.81,515.808 144.01,511.992 L 153.802,514.584 L 135.442,516.528 C 126.01,515.736 121.906,519.264 120.178,524.808 C 105.418,534.168 113.482,547.848 128.026,552.456 C 127.954,548.424 119.962,538.992 127.81,540.432 C 132.706,544.824 137.962,543.24 143.506,535.68 C 150.994,537.552 156.538,534.744 160.21,527.112 C 163.738,527.76 167.194,526.176 170.722,524.304 L 156.394,538.488 C 146.674,543.672 143.722,549.576 147.322,555.984 C 142.786,571.896 150.49,577.8 163.81,579.168 C 157.042,572.76 156.034,566.928 160.714,561.672 C 167.77,562.968 171.37,558.864 171.442,549.36 C 176.554,547.344 179.074,543.096 179.074,536.616 C 184.33,534.24 187.57,529.632 186.49,520.272 C 189.946,518.904 192.826,516.312 195.058,511.776 C 198.802,514.728 203.05,513.792 207.442,511.056 C 213.778,517.608 219.754,519.408 224.866,510.84 C 230.41,510.336 232.642,515.304 227.962,520.776 C 241.138,519.912 246.898,500.328 226.306,496.872 C 219.682,484.56 205.93,495.936 195.778,495.432 L 224.146,449.568 C 231.634,457.2 241.57,460.08 253.45,458.28 C 248.05,448.128 245.242,438.264 246.826,428.688 L 253.45,433.224 C 251.218,414.576 252.514,399.6 262.306,391.104 C 262.306,401.184 262.954,410.832 267.994,417.096 L 268.498,456.624 C 239.338,456.912 239.77,489.312 259.93,497.088 L 267.562,497.088 C 261.73,554.616 205.066,554.688 209.098,520.992 C 185.05,538.848 177.49,574.2 215.074,587.736 C 205.21,591.912 194.266,592.128 183.106,591.192 C 202.186,624.384 238.114,632.664 264.538,605.52 C 257.842,633.168 283.402,638.856 295.354,658.368 L 295.354,64.656 C 275.41,48.024 237.394,41.112 238.33,61.128 C 190.882,37.224 174.178,51.984 188.002,91.152 C 193.186,78.408 200.962,74.736 211.258,80.28 C 219.682,82.368 227.458,85.68 233.938,91.584 C 239.626,99.144 247.978,103.68 257.554,106.776 C 263.17,112.68 258.922,117 252.514,111.24 C 237.466,99.144 208.882,67.824 200.026,91.872 C 214.498,87.624 237.61,118.584 256.33,126.648 z M 94.5463,50.328 C 80.7223,50.4 66.1783,56.736 54.0823,69.408 C 40.2583,81.216 38.9623,118.8 45.5143,172.296 C 42.6343,217.512 52.6423,269.064 13.3303,288 C 39.7543,298.728 60.1303,282.024 77.6983,253.008 L 75.8263,288.72 C 73.8823,350.208 55.9543,382.104 19.7383,380.448 C 41.2663,402.768 68.6263,402.12 88.3543,384.552 C 90.5143,382.608 92.6023,380.448 94.5463,378.072 L 94.5463,144.936 C 92.3863,141.84 91.0903,138.744 90.5863,135.648 C 91.8103,136.872 93.1063,137.808 94.5463,138.456 L 94.5463,50.328 L 94.5463,50.328 z M 94.5463,451.512 C 82.0183,469.584 64.4503,481.176 46.2343,482.904 C 57.1063,495.72 75.6823,500.76 94.5463,496.872 L 94.5463,451.512 z "
       style="fill:black;fill-rule:evenodd;stroke:none" />
    <path
       id="path26"
       d="M 265.978,79.344 C 263.602,77.4 262.81,74.52 263.098,69.984 C 264.538,69.84 265.978,70.2 267.418,71.064 C 265.474,73.512 264.61,76.176 265.978,79.344 z "
       style="fill:white;fill-rule:evenodd;stroke:none" />
    <path
       id="path28"
       d="M 133.858,491.256 C 134.506,491.976 135.154,492.84 135.73,493.56 C 138.322,498.168 137.602,502.056 133.426,505.152 C 131.77,506.088 129.754,507.384 128.53,508.176 L 127.81,506.52 L 126.37,505.872 C 127.162,505.152 128.386,504.288 130.258,503.208 C 134.362,501.048 135.082,498.312 132.49,495.072 C 131.626,493.632 130.474,492.408 129.898,491.4 L 132.274,491.616 L 133.858,491.256 z "
       style="fill:white;fill-rule:evenodd;stroke:none" />
    <path
       id="path30"
       d="M 120.538,524.376 C 121.618,524.376 122.698,524.448 123.778,524.52 C 128.962,525.888 131.914,529.416 129.97,537.768 C 129.394,539.208 128.962,540.072 128.458,540.936 L 127.666,540.432 L 125.506,540.288 C 125.794,539.496 126.226,538.488 126.874,536.688 C 128.242,531.36 126.73,528.264 122.482,527.472 C 120.106,527.04 118.522,526.968 117.226,526.896 L 120.538,524.376 z "
       style="fill:white;fill-rule:evenodd;stroke:none" />
    <path
       id="path32"
       d="M 146.962,555.264 C 148.69,553.896 149.986,553.464 152.074,553.248 C 158.05,552.6 162.082,556.2 162.586,561.888 C 161.866,561.816 161.218,561.744 160.786,561.6 C 155.53,555.192 155.314,555.624 147.322,556.272 L 146.962,555.264 z "
       style="fill:white;fill-rule:evenodd;stroke:none" />
    <path
       id="path34"
       d="M 226.162,496.728 L 226.018,498.744 C 223.282,499.968 223.354,503.424 224.002,507.24 C 224.362,508.392 224.65,509.616 224.938,510.768 C 224.362,511.704 223.714,512.496 223.138,513.36 C 221.842,511.344 220.834,508.752 220.258,506.376 C 219.538,503.496 220.258,500.544 221.986,497.664 C 222.706,496.44 223.858,495.576 224.794,494.64 C 225.37,495.36 225.874,496.008 226.162,496.728 z "
       style="fill:white;fill-rule:evenodd;stroke:none" />
    <path
       id="path36"
       d="M 248.986,188.136 C 256.186,183.672 263.314,178.128 265.042,175.608 C 267.994,171.36 263.746,168.984 260.938,172.008 C 259.786,173.304 250.93,179.856 246.178,183.384 C 240.346,187.632 243.298,191.664 248.986,188.136 z "
       style="fill:white;fill-rule:evenodd;stroke:none" />
    <g
       id="g38">
      <path
         id="path40"
         d="M 357.706,446.832 L 358.498,446.544 C 357.922,444.6 358.426,441.648 360.082,438.84 L 360.082,438.84 C 362.314,434.88 365.914,432.72 368.002,433.944 L 369.01,434.448 L 497.962,210.384 L 497.602,210.096 C 495.514,208.872 495.586,204.696 497.89,200.736 L 497.89,200.736 C 499.762,197.424 502.642,195.336 504.802,195.48 L 504.226,192.888 L 492.922,190.944 C 486.154,189.216 481.258,182.736 481.186,176.832 C 480.97,164.16 488.818,153.144 501.202,150.84 C 507.97,149.616 514.522,151.416 517.258,158.328 L 519.922,165.384 L 520.714,157.392 C 521.65,147.456 531.514,144.792 540.874,145.872 C 546.418,146.52 552.61,149.904 556.21,154.368 C 561.682,161.064 564.058,173.736 554.914,179.136 L 548.218,183.096 L 555.202,182.664 C 567.802,181.944 573.418,198.144 566.866,210.816 C 558.586,226.728 541.954,226.8 534.682,215.496 L 531.874,211.032 L 531.082,211.32 C 531.658,213.264 531.154,216.216 529.498,219.024 L 529.498,219.024 C 527.266,222.912 523.666,225.144 521.506,223.92 L 521.362,223.848 L 392.626,448.344 C 393.994,450 393.706,453.672 391.69,457.128 L 391.69,457.128 C 389.746,460.44 386.938,462.528 384.778,462.384 L 385.282,464.904 L 396.586,466.848 C 403.354,468.576 408.25,475.056 408.394,481.032 C 408.61,493.632 400.69,504.72 388.378,507.024 C 381.538,508.248 375.058,506.448 372.322,499.536 L 369.586,492.48 L 368.866,500.472 C 367.93,510.408 357.994,513.072 348.706,511.992 C 343.162,511.344 336.97,507.96 333.298,503.496 C 327.898,496.8 325.522,484.128 334.666,478.656 L 341.29,474.768 L 334.306,475.2 C 321.778,475.92 316.162,459.72 322.714,447.048 C 330.994,431.136 347.626,431.064 354.826,442.368 L 357.706,446.832 z "
         style="fill:black;fill-rule:evenodd;stroke:none" />
      <path
         id="path42"
         d="M 526.546,446.832 L 525.754,446.544 C 526.33,444.6 525.826,441.648 524.17,438.84 L 524.17,438.84 C 521.938,434.88 518.338,432.72 516.178,433.944 L 515.458,434.376 L 380.242,210.168 L 380.386,210.096 C 382.474,208.872 382.402,204.696 380.098,200.736 L 380.098,200.736 C 378.226,197.424 375.346,195.336 373.186,195.48 L 373.762,192.888 L 385.066,190.944 C 391.834,189.216 396.73,182.736 396.802,176.832 C 397.018,164.16 389.17,153.144 376.786,150.84 C 370.018,149.616 363.466,151.416 360.73,158.328 L 358.066,165.384 L 357.274,157.392 C 356.338,147.456 346.474,144.792 337.114,145.872 C 331.57,146.52 325.378,149.904 321.778,154.368 C 316.306,161.064 313.93,173.736 323.074,179.136 L 329.77,183.096 L 322.786,182.664 C 310.186,181.944 304.57,198.144 311.122,210.816 C 319.402,226.728 336.034,226.8 343.306,215.496 L 346.114,211.032 L 346.906,211.32 C 346.33,213.264 346.834,216.216 348.49,219.024 L 348.49,219.024 C 350.722,222.912 354.322,225.144 356.482,223.92 L 356.914,223.704 L 491.77,448.128 C 490.186,449.712 490.474,453.528 492.562,457.128 L 492.562,457.128 C 494.434,460.44 497.314,462.528 499.474,462.384 L 498.898,464.904 L 487.594,466.848 C 480.826,468.576 476.002,475.056 475.858,481.032 C 475.642,493.632 483.562,504.72 495.874,507.024 C 502.714,508.248 509.194,506.448 511.93,499.536 L 514.594,492.48 L 515.386,500.472 C 516.322,510.408 526.186,513.072 535.546,511.992 C 541.09,511.344 547.282,507.96 550.882,503.496 C 556.354,496.8 558.73,484.128 549.586,478.656 L 542.962,474.768 L 549.874,475.2 C 562.474,475.92 568.09,459.72 561.538,447.048 C 553.258,431.136 536.626,431.064 529.354,442.368 L 526.546,446.832 z "
         style="fill:black;fill-rule:evenodd;stroke:none" />
      <path
         id="path44"
         d="M 559.45,456.624 L 559.45,460.224 C 558.802,466.56 554.698,471.672 545.41,470.592 L 535.258,469.44 L 535.258,461.016 L 548.578,453.744 L 535.258,459 L 535.258,443.448 C 541.954,436.68 552.322,438.84 557.146,448.632 C 558.37,451.152 559.162,453.96 559.45,456.624 L 559.45,456.624 z M 535.258,507.384 L 535.258,494.208 L 536.77,496.224 L 535.258,493.56 L 535.258,476.424 L 541.522,479.592 C 552.754,484.344 553.258,497.088 542.962,504.072 C 540.586,505.584 537.922,506.736 535.258,507.384 z M 518.338,445.824 L 511.21,449.928 L 511.21,442.728 L 515.17,440.424 C 516.682,439.56 518.626,440.064 519.49,441.576 L 519.49,441.576 C 520.354,443.088 519.778,444.96 518.338,445.824 L 518.338,445.824 z M 535.258,443.448 C 534.322,444.384 533.458,445.464 532.738,446.76 L 520.21,464.976 L 535.258,459 L 535.258,443.448 L 535.258,443.448 z M 535.258,461.016 L 535.258,469.44 L 522.442,468 L 535.258,461.016 L 535.258,461.016 z M 535.258,476.424 L 535.258,493.56 L 521.722,469.656 L 535.258,476.424 L 535.258,476.424 z M 535.258,494.208 L 519.058,472.248 L 519.562,495.36 C 519.85,506.376 527.626,509.112 535.258,507.384 L 535.258,494.208 L 535.258,494.208 z M 511.21,487.944 L 511.21,475.632 L 517.042,471.528 L 511.21,487.944 L 511.21,487.944 z M 511.21,471.456 L 511.21,468.792 L 514.522,468.36 L 511.21,471.456 L 511.21,471.456 z M 511.21,460.44 L 511.21,454.248 L 517.114,450.792 L 516.97,463.032 L 511.21,460.44 z M 511.21,449.928 L 504.01,454.104 L 504.01,446.904 L 511.21,442.728 L 511.21,449.928 L 511.21,449.928 z M 511.21,454.248 L 511.21,460.44 L 505.234,457.704 L 511.21,454.248 L 511.21,454.248 z M 511.21,468.792 L 511.21,471.456 L 504.01,478.224 L 504.01,469.8 L 511.21,468.792 L 511.21,468.792 z M 511.21,475.632 L 504.01,480.816 L 504.01,499.896 C 506.674,498.24 508.834,495.432 509.914,491.544 L 511.21,487.944 L 511.21,475.632 L 511.21,475.632 z M 504.01,440.928 L 504.01,424.944 L 511.138,436.824 L 504.01,440.928 z M 504.01,454.104 L 501.562,455.544 C 500.05,456.408 498.106,455.832 497.242,454.392 L 497.242,454.392 C 496.378,452.88 496.954,450.936 498.394,450.144 L 504.01,446.904 L 504.01,454.104 L 504.01,454.104 z M 504.01,424.944 L 504.01,440.928 L 496.378,445.32 L 368.146,234.144 L 368.146,217.152 L 376.21,212.544 L 504.01,424.944 L 504.01,424.944 z M 504.01,469.8 L 504.01,478.224 L 492.85,488.736 L 504.01,480.816 L 504.01,499.896 C 498.682,503.28 491.266,502.056 485.794,495.792 C 478.81,487.656 476.938,473.688 491.626,471.6 L 504.01,469.8 L 504.01,469.8 z M 368.146,211.248 L 368.146,204.048 L 371.098,202.32 C 372.61,201.456 374.554,201.96 375.418,203.472 L 375.418,203.472 C 376.282,204.984 375.706,206.856 374.266,207.72 L 368.146,211.248 L 368.146,211.248 z M 368.146,188.064 L 368.146,180.072 L 379.81,169.128 L 368.146,177.408 L 368.146,158.256 C 373.546,154.512 381.25,155.592 386.866,162.072 C 393.85,170.136 395.722,184.176 381.034,186.264 L 368.146,188.064 z M 368.146,158.256 L 368.146,177.408 L 361.45,182.16 L 361.45,169.848 L 362.746,166.32 C 363.754,162.648 365.77,159.984 368.146,158.256 L 368.146,158.256 z M 368.146,180.072 L 361.45,186.408 L 361.45,189.072 L 368.146,188.064 L 368.146,180.072 L 368.146,180.072 z M 368.146,204.048 L 368.146,211.248 L 361.45,215.136 L 361.45,207.936 L 368.146,204.048 L 368.146,204.048 z M 368.146,217.152 L 368.146,234.144 L 361.45,223.056 L 361.45,221.04 L 368.146,217.152 L 368.146,217.152 z M 361.45,203.616 L 361.45,197.424 L 367.426,200.16 L 361.45,203.616 z M 361.45,169.848 L 361.45,182.16 L 355.618,186.336 L 361.45,169.848 L 361.45,169.848 z M 361.45,186.408 L 361.45,189.072 L 358.138,189.504 L 361.45,186.408 L 361.45,186.408 z M 361.45,197.424 L 361.45,203.616 L 355.546,207.072 L 355.69,194.832 L 361.45,197.424 L 361.45,197.424 z M 361.45,207.936 L 361.45,215.136 L 357.49,217.44 C 355.978,218.304 354.034,217.8 353.17,216.288 L 353.17,216.288 C 352.378,214.776 352.882,212.904 354.322,212.04 L 361.45,207.936 L 361.45,207.936 z M 361.45,221.04 L 361.45,223.056 L 360.586,221.544 L 361.45,221.04 L 361.45,221.04 z M 337.402,214.416 C 338.338,213.48 339.202,212.4 339.922,211.104 L 352.45,192.888 L 337.402,198.864 L 337.402,214.416 L 337.402,214.416 z M 337.402,196.848 L 337.402,188.352 L 350.218,189.864 L 337.402,196.848 L 337.402,196.848 z M 337.402,181.44 L 337.402,164.304 L 350.938,188.208 L 337.402,181.44 L 337.402,181.44 z M 337.402,163.656 L 353.602,185.616 L 353.098,162.504 C 352.81,151.488 345.034,148.752 337.402,150.48 L 337.402,163.656 z M 337.402,150.48 L 337.402,163.656 L 335.89,161.64 L 337.402,164.304 L 337.402,181.44 L 331.138,178.272 C 319.906,173.52 319.402,160.776 329.698,153.792 C 332.074,152.28 334.738,151.056 337.402,150.48 L 337.402,150.48 z M 337.402,188.352 L 337.402,196.848 L 324.082,204.12 L 337.402,198.864 L 337.402,214.416 C 330.706,221.184 320.338,219.024 315.514,209.16 C 314.29,206.712 313.498,203.904 313.21,201.168 L 313.21,197.64 C 313.858,191.304 317.962,186.192 327.25,187.2 L 337.402,188.352 z "
         style="fill:#fc0;fill-rule:evenodd;stroke:none" />
      <path
         id="path46"
         d="M 564.778,197.64 L 564.778,201.168 C 564.49,203.904 563.698,206.712 562.474,209.16 C 557.65,219.024 547.282,221.184 540.586,214.416 L 540.586,198.864 L 553.906,204.12 L 540.586,196.848 L 540.586,188.352 L 550.738,187.2 C 560.026,186.192 564.13,191.304 564.778,197.64 L 564.778,197.64 z M 540.586,181.44 L 540.586,164.304 L 542.098,161.64 L 540.586,163.656 L 540.586,150.48 C 543.25,151.056 545.914,152.28 548.218,153.792 C 558.586,160.776 558.082,173.52 546.85,178.272 L 540.586,181.44 z M 540.586,150.48 L 540.586,163.656 L 524.386,185.616 L 524.89,162.504 C 525.178,151.488 532.954,148.752 540.586,150.48 L 540.586,150.48 z M 540.586,164.304 L 527.05,188.208 L 540.586,181.44 L 540.586,164.304 L 540.586,164.304 z M 540.586,188.352 L 540.586,196.848 L 527.77,189.864 L 540.586,188.352 L 540.586,188.352 z M 540.586,198.864 L 525.538,192.888 L 538.066,211.104 C 538.786,212.4 539.65,213.48 540.586,214.416 L 540.586,198.864 L 540.586,198.864 z M 516.538,223.704 L 516.538,221.04 L 517.69,221.688 L 516.538,223.704 L 516.538,223.704 z M 516.538,215.136 L 516.538,207.936 L 523.666,212.04 C 525.106,212.904 525.61,214.776 524.818,216.288 L 524.818,216.288 C 523.954,217.8 522.01,218.304 520.498,217.44 L 516.538,215.136 L 516.538,215.136 z M 516.538,203.616 L 516.538,197.424 L 522.298,194.832 L 522.442,207.072 L 516.538,203.616 L 516.538,203.616 z M 516.538,189.072 L 516.538,186.408 L 519.85,189.504 L 516.538,189.072 L 516.538,189.072 z M 516.538,182.16 L 516.538,169.848 L 522.37,186.336 L 516.538,182.16 z M 516.538,169.848 L 516.538,182.16 L 509.914,177.48 L 509.914,158.328 C 512.29,160.056 514.234,162.72 515.242,166.32 L 516.538,169.848 L 516.538,169.848 z M 516.538,186.408 L 509.914,180.144 L 509.914,188.136 L 516.538,189.072 L 516.538,186.408 L 516.538,186.408 z M 516.538,197.424 L 516.538,203.616 L 510.562,200.16 L 516.538,197.424 L 516.538,197.424 z M 516.538,207.936 L 516.538,215.136 L 509.914,211.32 L 509.914,204.12 L 516.538,207.936 L 516.538,207.936 z M 516.538,221.04 L 516.538,223.704 L 509.914,235.08 L 509.914,217.224 L 516.538,221.04 z M 380.314,454.176 L 382.69,455.544 C 384.202,456.408 386.074,455.832 386.938,454.392 L 386.938,454.392 C 387.802,452.88 387.298,450.936 385.786,450.144 L 380.314,446.976 L 380.314,454.176 L 380.314,454.176 z M 509.914,158.328 L 509.914,177.48 L 498.178,169.128 L 509.914,180.144 L 509.914,188.136 L 496.954,186.264 C 482.266,184.176 484.138,170.136 491.122,162.072 C 496.738,155.52 504.514,154.44 509.914,158.328 L 509.914,158.328 z M 509.914,204.12 L 509.914,211.32 L 503.722,207.72 C 502.282,206.856 501.706,204.984 502.57,203.472 L 502.57,203.472 C 503.434,201.96 505.378,201.456 506.89,202.32 L 509.914,204.12 L 509.914,204.12 z M 509.914,217.224 L 509.914,235.08 L 388.018,445.464 L 380.314,441 L 380.314,424.656 L 501.994,212.688 L 509.914,217.224 L 509.914,217.224 z M 380.314,499.968 L 380.314,480.888 L 391.402,488.736 L 380.314,478.368 L 380.314,469.872 L 392.554,471.6 C 407.314,473.688 405.442,487.656 398.458,495.792 C 393.058,502.056 385.642,503.28 380.314,499.968 z M 373.042,449.928 L 380.314,454.176 L 380.314,446.976 L 373.042,442.728 L 373.042,449.928 L 373.042,449.928 z M 380.314,424.656 L 380.314,441 L 373.33,436.968 L 380.314,424.656 L 380.314,424.656 z M 380.314,469.872 L 380.314,478.368 L 373.042,471.456 L 373.042,468.792 L 380.314,469.872 L 380.314,469.872 z M 380.314,480.888 L 373.042,475.632 L 373.042,487.944 L 374.266,491.544 C 375.418,495.432 377.65,498.312 380.314,499.968 L 380.314,480.888 L 380.314,480.888 z M 373.042,460.44 L 373.042,454.248 L 378.946,457.704 L 373.042,460.44 z M 365.914,445.824 L 373.042,449.928 L 373.042,442.728 L 369.01,440.424 C 367.57,439.56 365.626,440.064 364.762,441.576 L 364.762,441.576 C 363.898,443.088 364.402,444.96 365.914,445.824 L 365.914,445.824 z M 373.042,454.248 L 373.042,460.44 L 367.282,463.032 L 367.066,450.792 L 373.042,454.248 L 373.042,454.248 z M 373.042,468.792 L 373.042,471.456 L 369.73,468.36 L 373.042,468.792 L 373.042,468.792 z M 373.042,475.632 L 373.042,487.944 L 367.21,471.528 L 373.042,475.632 L 373.042,475.632 z M 348.994,507.384 L 348.994,494.208 L 365.194,472.248 L 364.69,495.36 C 364.402,506.376 356.626,509.112 348.994,507.384 L 348.994,507.384 z M 348.994,493.56 L 362.458,469.656 L 348.994,476.424 L 348.994,493.56 L 348.994,493.56 z M 348.994,469.44 L 348.994,461.016 L 361.81,468 L 348.994,469.44 L 348.994,469.44 z M 348.994,459 L 348.994,443.448 C 349.858,444.384 350.722,445.464 351.514,446.76 L 364.042,464.976 L 348.994,459 z M 348.994,443.448 L 348.994,459 L 335.674,453.744 L 348.994,461.016 L 348.994,469.44 L 338.842,470.592 C 329.554,471.672 325.45,466.56 324.802,460.224 L 324.802,456.624 C 325.018,453.96 325.81,451.152 327.034,448.632 C 331.858,438.84 342.298,436.68 348.994,443.448 L 348.994,443.448 z M 348.994,476.424 L 348.994,493.56 L 347.482,496.224 L 348.994,494.208 L 348.994,507.384 C 346.258,506.736 343.594,505.584 341.29,504.072 C 330.994,497.088 331.498,484.344 342.73,479.592 L 348.994,476.424 z "
         style="fill:#fc0;fill-rule:evenodd;stroke:none" />
    </g>
    <g
       id="g48">
      <path
         id="path50"
         d="M 422.938,97.128 L 429.778,97.128 L 429.778,100.368 L 431.506,100.368 L 431.506,97.128 L 438.346,97.128 L 438.346,100.368 L 439.93,100.368 L 439.93,97.128 L 446.842,97.128 L 446.842,100.368 L 448.426,100.368 L 448.426,97.128 L 455.338,97.128 L 455.338,106.56 L 453.826,106.56 L 453.826,138.24 L 457.282,125.136 L 455.698,124.704 L 458.146,115.56 L 464.77,117.36 L 463.978,120.456 L 465.562,120.888 L 466.354,117.72 L 472.978,119.448 L 472.186,122.616 L 473.698,122.976 L 474.562,119.88 L 481.186,121.608 L 480.394,124.776 L 481.978,125.208 L 482.77,122.04 L 489.466,123.768 L 488.386,127.8 L 488.458,127.8 L 487.09,132.912 L 485.506,132.552 L 472.186,182.232 L 461.962,182.232 C 462.754,183.528 463.258,185.256 463.258,187.128 L 463.258,187.128 C 463.258,191.304 460.81,194.76 457.714,194.76 L 456.274,194.76 L 456.274,503.496 L 457.714,503.496 C 460.81,503.496 463.258,506.88 463.258,511.056 L 463.258,511.056 C 463.258,515.232 460.81,518.688 457.714,518.688 L 455.914,518.688 C 455.698,527.328 448.21,534.312 439.066,534.312 C 429.922,534.312 422.434,527.328 422.218,518.688 L 419.41,518.688 C 416.386,518.688 413.866,515.232 413.866,511.056 L 413.866,511.056 C 413.866,506.88 416.386,503.496 419.41,503.496 L 420.922,503.496 L 420.922,194.76 L 419.41,194.76 C 416.386,194.76 413.866,191.304 413.866,187.128 L 413.866,187.128 C 413.866,185.256 414.37,183.528 415.234,182.232 L 405.37,182.232 L 392.122,132.912 L 390.538,133.344 L 389.098,128.232 L 389.098,128.232 L 387.946,124.272 L 394.714,122.4 L 395.578,125.496 L 397.234,124.992 L 396.298,121.896 L 403.066,120.024 L 403.93,123.12 L 405.442,122.688 L 404.578,119.52 L 411.274,117.648 L 412.21,120.744 L 413.794,120.312 L 412.858,117.216 L 419.626,115.272 L 422.218,124.344 L 420.778,124.776 L 424.45,138.528 L 424.45,106.56 L 422.938,106.56 L 422.938,101.232 L 422.938,101.232 L 422.938,97.128 z "
         style="fill:black;fill-rule:evenodd;stroke:none" />
      <path
         id="path52"
         d="M 475.93,153.648 L 475.93,152.928 L 476.146,153 L 475.93,153.648 L 475.93,153.648 z M 475.93,150.84 L 475.93,141.552 L 478.954,142.416 L 476.65,150.984 L 475.93,150.84 L 475.93,150.84 z M 475.93,139.464 L 475.93,130.032 L 481.834,131.616 L 479.458,140.472 L 475.93,139.464 L 475.93,139.464 z M 475.93,128.016 L 486.082,130.68 L 487.594,124.92 L 483.922,123.912 L 483.058,127.08 L 478.522,125.856 L 479.314,122.688 L 475.93,121.824 L 475.93,128.016 z M 475.93,121.824 L 475.93,128.016 L 470.242,126.576 L 470.242,120.312 L 471.178,120.6 L 470.314,123.696 L 474.778,124.848 L 475.642,121.752 L 475.93,121.824 L 475.93,121.824 z M 475.93,130.032 L 475.93,139.464 L 470.242,137.808 L 470.242,137.16 L 472.33,129.096 L 475.93,130.032 L 475.93,130.032 z M 475.93,141.552 L 475.93,150.84 L 470.242,149.184 L 470.242,139.968 L 475.93,141.552 L 475.93,141.552 z M 475.93,152.928 L 475.93,153.648 L 474.346,159.552 C 472.978,159.336 471.61,159.12 470.242,158.904 L 470.242,151.272 L 475.93,152.928 L 475.93,152.928 z M 470.242,175.104 L 470.242,171.288 C 470.53,171.288 470.89,171.36 471.178,171.36 L 470.242,175.104 L 470.242,175.104 z M 470.242,129.168 L 470.386,128.592 L 470.242,128.52 L 470.242,129.168 L 470.242,129.168 z M 471.754,169.416 L 473.842,161.496 C 472.906,161.352 471.97,161.208 471.106,161.064 L 471.106,169.344 C 471.322,169.416 471.538,169.416 471.754,169.416 z M 470.242,120.312 L 470.242,126.576 L 466.786,125.64 L 466.786,122.184 L 467.434,119.592 L 470.242,120.312 L 470.242,120.312 z M 470.242,128.52 L 470.242,129.168 L 468.082,137.232 L 466.786,136.872 L 466.786,127.584 L 470.242,128.52 L 470.242,128.52 z M 470.242,137.16 L 470.026,137.808 L 470.242,137.808 L 470.242,137.16 L 470.242,137.16 z M 470.242,139.968 L 470.242,149.184 L 466.786,148.176 L 466.786,138.96 L 470.242,139.968 L 470.242,139.968 z M 470.242,151.272 L 470.242,158.904 C 469.09,158.76 467.938,158.616 466.786,158.4 L 466.786,150.336 L 470.242,151.272 L 470.242,151.272 z M 470.242,171.288 L 470.242,175.104 L 469.306,178.416 L 466.786,178.416 L 466.786,170.784 C 467.938,170.928 469.09,171.072 470.242,171.288 L 470.242,171.288 z M 466.786,168.768 L 466.786,160.416 C 467.506,160.56 468.298,160.632 469.018,160.776 L 469.018,169.056 C 468.298,168.984 467.506,168.84 466.786,168.768 z M 466.786,122.184 L 466.786,125.64 L 464.554,125.064 L 464.554,122.184 L 466.642,122.76 L 466.786,122.184 L 466.786,122.184 z M 466.786,127.584 L 466.786,136.872 L 464.554,136.224 L 464.554,127.008 L 466.786,127.584 L 466.786,127.584 z M 466.786,138.96 L 466.786,148.176 L 464.554,147.6 L 464.554,138.312 L 466.786,138.96 L 466.786,138.96 z M 466.786,150.336 L 466.786,158.4 C 466.066,158.328 465.274,158.256 464.554,158.112 L 464.554,157.896 L 466.57,150.264 L 466.786,150.336 L 466.786,150.336 z M 466.786,160.416 L 466.786,168.768 C 466.066,168.696 465.274,168.624 464.554,168.48 L 464.554,160.2 C 465.274,160.272 466.066,160.344 466.786,160.416 L 466.786,160.416 z M 466.786,170.784 L 466.786,178.416 L 464.554,178.416 L 464.554,170.568 C 465.274,170.64 466.066,170.712 466.786,170.784 L 466.786,170.784 z M 464.554,149.976 L 464.554,149.688 L 464.626,149.688 L 464.554,149.976 z M 422.578,182.376 L 454.546,182.376 C 457.066,182.376 459.154,184.536 459.154,187.128 L 459.154,187.128 C 459.154,189.792 457.066,191.88 454.546,191.88 L 422.578,191.88 C 422.074,191.88 421.57,191.808 421.066,191.592 L 421.066,182.664 C 421.57,182.52 422.074,182.376 422.578,182.376 L 422.578,182.376 z M 464.554,122.184 L 464.554,125.064 L 457.642,123.264 L 459.226,117.432 L 462.898,118.44 L 462.106,121.536 L 464.554,122.184 L 464.554,122.184 z M 464.554,127.008 L 464.554,136.224 L 458.218,134.424 L 460.522,125.928 L 464.554,127.008 L 464.554,127.008 z M 464.554,138.312 L 464.554,147.6 L 455.41,145.008 L 457.714,136.368 L 464.554,138.312 L 464.554,138.312 z M 464.554,149.688 L 454.906,146.952 L 452.242,156.96 C 455.626,157.176 459.082,157.464 462.466,157.896 L 464.554,149.976 L 464.554,149.688 L 464.554,149.688 z M 464.554,157.896 L 464.554,158.112 C 464.554,158.112 464.554,158.112 464.482,158.112 L 464.554,157.896 L 464.554,157.896 z M 464.554,160.2 L 464.554,168.48 C 460.522,168.048 456.418,167.688 452.314,167.4 L 452.314,159.048 C 456.418,159.264 460.522,159.696 464.554,160.2 L 464.554,160.2 z M 464.554,170.568 L 464.554,178.416 L 463.834,178.416 L 463.834,170.496 C 464.122,170.496 464.338,170.496 464.554,170.568 L 464.554,170.568 z M 421.066,515.52 L 421.066,506.592 C 421.57,506.448 422.074,506.304 422.578,506.304 L 454.546,506.304 C 457.066,506.304 459.154,508.464 459.154,511.056 L 459.154,511.056 C 459.154,513.72 457.066,515.808 454.546,515.808 L 422.578,515.808 C 422.074,515.808 421.57,515.736 421.066,515.52 L 421.066,515.52 z M 421.066,178.416 L 421.066,170.28 C 426.754,169.632 432.514,169.344 438.13,169.272 L 438.13,178.416 L 421.066,178.416 L 421.066,178.416 z M 421.066,168.048 L 421.066,159.408 C 422.65,159.264 424.306,159.192 425.89,159.048 L 425.89,167.616 C 424.306,167.688 422.65,167.904 421.066,168.048 L 421.066,168.048 z M 421.066,157.248 L 421.066,147.744 L 423.226,147.096 L 425.89,156.816 C 424.234,156.96 422.65,157.104 421.066,157.248 L 421.066,157.248 z M 421.066,145.584 L 421.066,138.888 L 422.722,145.152 L 421.066,145.584 L 421.066,145.584 z M 449.938,98.64 L 453.754,98.64 L 453.826,104.616 L 424.45,104.616 L 424.45,98.64 L 428.266,98.64 L 428.266,101.88 L 433.018,101.88 L 433.018,98.64 L 436.834,98.64 L 436.834,101.88 L 441.442,101.88 L 441.442,98.64 L 445.258,98.64 L 445.258,101.88 L 449.938,101.88 L 449.938,98.64 L 449.938,98.64 z M 461.818,170.28 C 454.69,169.56 447.418,169.2 440.146,169.2 L 440.146,178.416 L 461.818,178.416 L 461.818,170.28 L 461.818,170.28 z M 450.226,158.904 C 442.882,158.544 435.466,158.544 427.978,158.904 L 427.906,167.472 C 435.394,166.968 442.882,166.968 450.298,167.328 L 450.226,158.904 L 450.226,158.904 z M 450.226,156.816 L 450.226,148.752 L 440.146,148.752 L 440.146,156.456 C 443.53,156.456 446.914,156.6 450.226,156.816 L 450.226,156.816 z M 438.13,148.752 L 427.978,148.752 L 427.978,156.744 C 431.362,156.528 434.746,156.456 438.13,156.456 L 438.13,148.752 L 438.13,148.752 z M 450.226,146.664 L 450.226,138.24 L 447.13,138.24 L 447.13,146.664 L 450.226,146.664 L 450.226,146.664 z M 445.042,138.24 L 433.378,138.24 L 433.378,146.664 L 445.042,146.664 L 445.042,138.24 L 445.042,138.24 z M 431.362,138.24 L 427.978,138.24 L 427.978,146.664 L 431.362,146.664 L 431.362,138.24 L 431.362,138.24 z M 450.226,136.224 L 450.226,127.944 L 440.146,127.944 L 440.146,136.224 L 450.226,136.224 L 450.226,136.224 z M 438.13,127.944 L 427.978,127.944 L 427.978,136.224 L 438.13,136.224 L 438.13,127.944 L 438.13,127.944 z M 450.226,125.928 L 450.226,117.72 L 447.13,117.72 L 447.13,125.928 L 450.226,125.928 L 450.226,125.928 z M 445.042,117.72 L 433.378,117.72 L 433.378,125.928 L 445.042,125.928 L 445.042,117.72 L 445.042,117.72 z M 431.362,117.72 L 427.978,117.72 L 427.978,125.928 L 431.362,125.928 L 431.362,117.72 L 431.362,117.72 z M 450.226,115.704 L 450.226,106.56 L 440.146,106.56 L 440.146,115.704 L 450.226,115.704 L 450.226,115.704 z M 438.13,106.56 L 427.978,106.56 L 427.978,115.704 L 438.13,115.704 L 438.13,106.56 L 438.13,106.56 z M 451.882,194.76 L 451.882,503.496 L 425.314,503.496 L 425.314,194.76 L 451.882,194.76 L 451.882,194.76 z M 452.026,518.688 C 451.738,524.664 446.05,529.488 439.066,529.488 C 432.082,529.488 426.394,524.664 426.106,518.688 L 452.026,518.688 z M 421.066,191.592 C 419.266,190.944 417.97,189.216 417.97,187.128 L 417.97,187.128 C 417.97,185.112 419.266,183.312 421.066,182.664 L 421.066,191.592 L 421.066,191.592 z M 421.066,138.888 L 421.066,145.584 L 413.146,147.816 L 413.146,138.672 L 420.418,136.584 L 421.066,138.888 L 421.066,138.888 z M 421.066,147.744 L 413.146,149.976 L 413.146,150.048 L 415.234,157.896 C 417.178,157.608 419.122,157.392 421.066,157.248 L 421.066,147.744 L 421.066,147.744 z M 421.066,159.408 L 421.066,168.048 C 418.402,168.336 415.81,168.624 413.146,169.056 L 413.146,160.344 C 415.81,159.984 418.402,159.696 421.066,159.408 L 421.066,159.408 z M 421.066,170.28 L 421.066,178.416 L 416.242,178.416 L 416.242,170.784 C 417.826,170.568 419.41,170.424 421.066,170.28 L 421.066,170.28 z M 421.066,506.592 L 421.066,515.52 C 419.266,514.872 417.97,513.144 417.97,511.056 L 417.97,511.056 C 417.97,509.04 419.266,507.24 421.066,506.592 L 421.066,506.592 z M 413.146,178.416 L 413.146,171.216 C 413.506,171.144 413.866,171.072 414.154,171.072 L 414.154,178.416 L 413.146,178.416 L 413.146,178.416 z M 413.146,158.112 L 413.146,158.04 L 413.218,158.112 C 413.146,158.112 413.146,158.112 413.146,158.112 L 413.146,158.112 z M 413.146,136.512 L 413.146,126.936 L 417.538,125.712 L 419.914,134.64 L 413.146,136.512 L 413.146,136.512 z M 413.146,124.92 L 413.146,122.04 L 415.666,121.32 L 414.802,118.224 L 418.546,117.144 L 420.202,122.904 L 413.146,124.92 z M 413.146,122.04 L 413.146,124.92 L 410.986,125.568 L 410.986,122.184 L 411.13,122.688 L 413.146,122.04 L 413.146,122.04 z M 413.146,126.936 L 413.146,136.512 L 410.986,137.16 L 410.986,127.584 L 413.146,126.936 L 413.146,126.936 z M 413.146,138.672 L 413.146,147.816 L 410.986,148.464 L 410.986,139.248 L 413.146,138.672 L 413.146,138.672 z M 413.146,149.976 L 413.146,150.048 L 413.146,149.976 L 413.146,149.976 L 413.146,149.976 z M 413.146,158.04 L 413.146,158.112 C 412.426,158.256 411.706,158.328 410.986,158.472 L 410.986,150.552 L 411.202,150.552 L 413.146,158.04 L 413.146,158.04 z M 413.146,160.344 L 413.146,169.056 C 412.426,169.128 411.706,169.272 410.986,169.416 L 410.986,160.632 C 411.706,160.488 412.426,160.416 413.146,160.344 L 413.146,160.344 z M 413.146,171.216 L 413.146,178.416 L 410.986,178.416 L 410.986,171.504 C 411.706,171.432 412.426,171.288 413.146,171.216 z M 410.986,122.184 L 410.986,125.568 L 407.602,126.576 L 407.602,120.312 L 410.266,119.52 L 410.986,122.184 L 410.986,122.184 z M 410.986,127.584 L 410.986,137.16 L 409.762,137.52 L 407.602,129.384 L 407.602,128.52 L 410.986,127.584 L 410.986,127.584 z M 410.986,139.248 L 410.986,148.464 L 407.602,149.4 L 407.602,140.256 L 410.986,139.248 L 410.986,139.248 z M 410.986,150.552 L 410.986,158.472 C 409.834,158.616 408.682,158.832 407.602,158.976 L 407.602,151.56 L 410.986,150.552 L 410.986,150.552 z M 410.986,160.632 L 410.986,169.416 C 410.266,169.488 409.474,169.632 408.754,169.776 L 408.754,160.92 C 409.474,160.848 410.266,160.704 410.986,160.632 L 410.986,160.632 z M 410.986,171.504 L 410.986,178.416 L 408.322,178.416 L 407.602,175.608 L 407.602,172.08 C 408.682,171.864 409.834,171.72 410.986,171.504 L 410.986,171.504 z M 407.602,138.096 L 407.746,138.096 L 407.602,137.304 L 407.602,138.096 z M 407.602,120.312 L 407.602,126.576 L 401.842,128.16 L 401.842,121.968 L 401.986,121.896 L 402.85,124.992 L 407.386,123.696 L 406.522,120.6 L 407.602,120.312 L 407.602,120.312 z M 407.602,128.52 L 407.602,129.384 L 407.386,128.592 L 407.602,128.52 L 407.602,128.52 z M 407.602,137.304 L 405.442,129.168 L 401.842,130.176 L 401.842,139.752 L 407.602,138.096 L 407.602,137.304 L 407.602,137.304 z M 407.602,140.256 L 407.602,149.4 L 401.842,151.056 L 401.842,141.84 L 407.602,140.256 L 407.602,140.256 z M 407.602,151.56 L 407.602,158.976 C 406.162,159.264 404.722,159.48 403.354,159.768 L 401.842,154.152 L 401.842,153.144 L 407.602,151.56 L 407.602,151.56 z M 407.602,172.08 L 407.602,175.608 L 406.666,172.224 C 406.954,172.152 407.242,172.152 407.602,172.08 L 407.602,172.08 z M 406.738,161.28 C 405.802,161.424 404.794,161.568 403.858,161.712 L 406.162,170.28 C 406.306,170.208 406.522,170.208 406.738,170.136 L 406.738,161.28 z M 401.842,121.968 L 401.842,128.16 L 391.546,131.112 L 389.89,125.352 L 393.634,124.272 L 394.498,127.368 L 399.106,126.072 L 398.242,122.976 L 401.842,121.968 L 401.842,121.968 z M 401.842,130.176 L 395.866,131.904 L 398.242,140.76 L 401.842,139.752 L 401.842,130.176 L 401.842,130.176 z M 401.842,141.84 L 401.842,151.056 L 401.05,151.272 L 398.746,142.704 L 401.842,141.84 L 401.842,141.84 z M 401.842,153.144 L 401.842,154.152 L 401.554,153.216 L 401.842,153.144 z "
         style="fill:#fc0;fill-rule:evenodd;stroke:none" />
    </g>
    <path
       id="path54"
       d="M 291.898,497.952 C 291.25,528.552 288.946,554.904 280.954,576.36 L 280.954,565.128 C 281.818,562.32 282.61,559.368 283.258,556.344 C 287.074,538.992 288.514,519.264 288.37,497.808 L 288.37,497.376 L 285.778,497.376 C 284.482,510.048 282.898,520.848 280.954,530.208 L 280.954,510.624 C 281.602,506.448 282.25,502.056 282.898,497.376 L 280.954,497.376 L 280.954,492.768 L 295.354,492.768 L 295.354,497.376 L 291.898,497.376 L 291.898,497.952 L 291.898,497.952 z M 280.954,460.656 L 280.954,457.128 L 281.242,457.128 C 281.098,456.984 281.026,456.912 280.954,456.768 L 280.954,451.08 C 281.962,452.232 282.898,453.384 283.762,454.608 C 286.642,450.36 290.026,446.616 293.698,443.16 L 293.698,447.408 C 290.818,450.288 287.866,453.744 285.274,457.128 L 293.698,457.416 L 293.698,460.656 L 280.954,460.656 L 280.954,460.656 z M 280.954,425.736 L 280.954,422.064 C 281.818,422.568 282.682,423.144 283.546,423.648 C 287.218,420.84 290.53,417.384 293.698,413.712 L 293.698,417.888 C 290.386,420.48 288.154,424.8 284.986,426.672 L 283.402,441.648 L 281.962,426.96 C 281.674,426.528 281.386,426.096 280.954,425.736 L 280.954,425.736 z M 280.954,407.808 L 282.106,415.584 L 283.402,396.216 C 286.426,391.392 290.242,390.168 293.698,387.36 L 293.698,383.328 C 288.154,385.992 284.338,389.808 281.314,394.2 C 281.17,394.056 281.098,393.912 280.954,393.768 L 280.954,407.808 L 280.954,407.808 z M 280.954,350.208 L 280.954,345.672 C 284.914,349.2 289.666,351.144 293.698,358.416 L 293.698,364.968 C 290.746,357.48 286.21,353.016 280.954,350.208 L 280.954,350.208 z M 280.954,322.56 L 280.954,317.16 C 285.634,311.76 291.466,307.44 293.698,302.832 L 293.698,309.312 C 289.45,313.632 285.634,316.872 280.954,322.56 L 280.954,322.56 z M 280.954,281.592 L 280.954,251.424 C 281.458,251.424 281.962,251.352 282.538,251.352 L 282.538,228.384 L 280.954,228.384 L 280.954,212.688 L 282.538,212.688 L 282.538,195.048 L 295.354,195.048 L 295.354,280.584 C 294.274,280.656 293.122,280.8 292.042,280.872 C 292.618,281.52 293.194,282.168 293.698,282.816 L 293.698,288.432 C 292.69,285.336 290.242,283.32 287.578,281.232 C 285.49,281.376 283.258,281.52 280.954,281.592 L 280.954,281.592 z M 280.954,81.36 L 280.954,73.152 C 283.69,74.592 286.354,76.248 289.234,78.192 C 287.002,79.2 284.842,79.128 282.898,77.904 C 282.394,79.128 281.746,80.352 280.954,81.36 z M 280.954,576.36 C 278.866,581.976 276.418,587.304 273.466,592.272 L 268.57,594.216 C 273.25,584.928 277.714,575.712 280.954,565.128 L 280.954,576.36 L 280.954,576.36 z M 280.954,530.208 L 280.954,510.624 C 275.41,545.976 269.146,563.688 258.49,577.368 L 258.49,583.344 C 267.274,572.472 275.338,557.712 280.954,530.208 L 280.954,530.208 z M 280.954,497.376 L 279.226,497.376 C 276.778,524.376 269.218,543.672 258.49,558.72 L 258.49,552.744 C 267.562,541.224 272.962,521.784 276.13,497.376 L 267.49,497.376 L 267.49,492.768 L 280.954,492.768 L 280.954,497.376 L 280.954,497.376 z M 280.954,73.152 L 280.954,81.36 C 275.986,87.984 265.546,90.648 258.49,85.536 L 258.49,80.712 C 263.674,87.696 273.538,87.768 280.594,77.112 C 277.282,75.6 269.002,70.704 258.49,69.552 L 258.49,66.024 C 266.698,66.96 273.682,69.192 280.954,73.152 L 280.954,73.152 z M 280.954,212.688 L 280.954,228.384 L 268.066,228.384 L 268.066,212.688 L 280.954,212.688 L 280.954,212.688 z M 280.954,251.424 L 280.954,281.592 C 280.162,281.592 279.442,281.664 278.65,281.664 C 278.002,288.144 277.21,294.552 276.346,300.888 L 275.194,281.736 C 271.954,281.736 268.642,281.664 265.186,281.52 C 262.666,283.536 260.506,285.84 259.93,288.864 L 259.714,304.488 C 263.242,313.416 273.682,313.344 276.346,324 C 277.498,321.48 279.154,319.248 280.954,317.16 L 280.954,322.56 C 280.162,323.496 279.298,324.504 278.434,325.656 L 278.434,343.08 C 279.226,344.088 280.09,344.952 280.954,345.672 L 280.954,350.208 C 280.234,349.848 279.514,349.488 278.794,349.128 L 277.138,375.984 L 274.618,348.552 C 269.146,352.584 264.25,357.336 259.93,362.88 C 259.93,394.488 273.754,384.048 280.954,393.768 L 280.954,407.808 L 279.37,396.72 C 276.058,392.904 272.674,392.4 269.362,391.176 C 266.338,390.096 262.882,387.288 261.082,384.768 C 260.002,383.184 259.138,381.384 258.49,379.44 L 258.49,359.784 C 263.098,352.944 269.506,349.416 274.762,343.872 L 275.05,326.088 C 270.586,318.96 265.402,314.712 259.93,311.688 L 258.49,328.176 L 258.49,285.048 C 259.21,283.752 260.074,282.528 260.938,281.376 C 260.146,281.304 259.354,281.304 258.49,281.232 L 258.49,251.208 C 265.978,251.496 273.466,251.496 280.954,251.424 L 280.954,251.424 z M 280.954,422.064 L 280.954,425.736 C 278.722,423.504 275.05,421.92 272.314,419.976 C 270.586,419.112 269.218,418.104 268.138,416.952 L 269.434,410.904 C 271.954,416.808 276.13,419.184 280.954,422.064 L 280.954,422.064 z M 280.954,451.08 L 280.954,456.768 C 278.578,453.024 275.338,449.568 271.594,446.4 L 272.026,442.368 C 275.338,445.032 278.29,447.912 280.954,451.08 L 280.954,451.08 z M 280.954,457.128 L 280.954,460.656 L 268.21,460.656 L 268.498,457.128 L 280.954,457.128 L 280.954,457.128 z M 258.49,125.424 L 258.49,123.984 C 265.042,125.784 275.05,121.968 270.874,110.952 C 267.634,106.2 263.098,102.888 258.49,99.216 L 258.49,94.608 C 261.586,97.272 264.682,99.936 267.418,102.96 C 280.954,115.776 272.89,129.384 260.218,127.728 L 258.49,125.424 z M 258.49,583.344 C 256.978,585.216 255.466,587.016 253.954,588.672 C 251.65,591.192 249.346,593.424 246.97,595.368 L 246.97,589.968 C 248.842,588.168 250.786,586.152 252.946,583.848 C 254.962,581.76 256.762,579.672 258.49,577.368 L 258.49,583.344 L 258.49,583.344 z M 258.49,558.72 C 256.474,561.6 254.314,564.264 252.01,566.856 C 250.426,568.728 248.77,570.456 246.97,572.184 L 246.97,567.72 C 247.906,566.856 248.77,566.064 249.634,565.2 C 248.698,565.416 247.834,565.632 246.97,565.848 L 246.97,561.96 C 249.058,561.024 250.93,559.944 252.586,558.72 C 254.746,557.064 256.69,555.048 258.49,552.744 L 258.49,558.72 L 258.49,558.72 z M 258.49,66.024 L 258.49,69.552 C 257.41,69.48 256.258,69.408 255.034,69.336 C 255.178,74.088 256.474,77.904 258.49,80.712 L 258.49,85.536 C 254.674,82.656 251.794,77.4 251.578,69.048 L 246.97,68.832 L 246.97,65.592 C 251.146,65.52 254.962,65.664 258.49,66.024 L 258.49,66.024 z M 258.49,94.608 C 253.882,90.504 249.346,86.328 246.97,80.496 L 246.97,87.336 C 250.21,92.376 254.386,95.904 258.49,99.216 L 258.49,94.608 L 258.49,94.608 z M 258.49,123.984 L 258.49,125.424 L 257.05,123.48 C 257.554,123.696 257.986,123.84 258.49,123.984 L 258.49,123.984 z M 258.49,251.208 L 258.49,281.232 C 257.698,281.16 256.906,281.16 256.114,281.088 C 256.978,282.456 257.698,284.04 258.13,285.84 C 258.274,285.624 258.418,285.336 258.49,285.048 L 258.49,328.176 L 257.698,338.184 L 255.754,311.256 C 252.946,314.64 249.922,317.088 246.97,319.896 L 246.97,315.792 C 250.786,312.552 254.314,309.672 255.394,306.072 C 256.042,298.8 255.826,292.608 254.746,287.568 C 253.954,284.76 252.154,282.6 250.066,280.584 C 249.058,280.512 248.05,280.368 246.97,280.296 L 246.97,250.704 C 250.858,250.92 254.674,251.064 258.49,251.208 L 258.49,251.208 z M 258.49,359.784 L 258.49,379.44 C 257.986,377.856 257.554,376.128 257.266,374.328 C 255.97,378.432 254.098,381.888 252.226,384.984 C 250.21,390.168 248.482,396 246.97,402.336 L 246.97,384.984 C 251.146,380.88 254.674,375.48 256.33,365.76 C 253.738,362.808 249.994,360.576 247.978,356.904 C 247.618,357.912 247.33,358.848 246.97,359.784 L 246.97,351.576 C 250.282,355.176 253.738,357.552 256.834,362.592 C 257.338,361.584 257.914,360.648 258.49,359.784 L 258.49,359.784 z M 246.97,429.696 L 246.97,425.376 C 247.762,426.024 248.626,426.528 249.49,427.104 L 247.762,430.344 L 246.97,429.696 z M 246.97,595.368 C 243.874,597.96 240.634,600.048 237.322,601.632 L 237.322,597.816 C 240.49,595.8 243.514,593.28 246.97,589.968 L 246.97,595.368 L 246.97,595.368 z M 246.97,572.184 C 243.946,575.136 240.706,577.944 237.322,580.464 L 237.322,575.568 C 240.778,573.12 243.946,570.456 246.97,567.72 L 246.97,572.184 L 246.97,572.184 z M 246.97,565.848 C 243.586,566.712 240.346,567.288 237.322,567.576 L 237.322,564.336 C 240.778,564.048 244.09,563.184 246.97,561.96 L 246.97,565.848 L 246.97,565.848 z M 246.97,65.592 L 246.97,68.832 L 245.314,68.76 C 244.954,73.368 245.674,77.184 246.97,80.496 L 246.97,87.336 C 243.874,82.368 241.642,76.032 241.282,67.104 C 239.914,66.312 238.618,65.52 237.322,64.8 L 237.322,61.344 L 240.706,61.632 C 241.282,63.288 243.01,64.584 245.026,65.664 C 245.674,65.664 246.322,65.592 246.97,65.592 L 246.97,65.592 z M 246.97,250.704 L 246.97,280.296 C 244.594,280.08 242.218,279.792 239.77,279.504 C 239.194,287.424 238.474,296.064 237.61,302.544 L 237.322,297.36 L 237.322,249.912 C 240.49,250.2 243.73,250.488 246.97,250.704 L 246.97,250.704 z M 246.97,315.792 L 246.97,319.896 C 243.73,322.992 240.634,326.592 238.258,332.424 C 240.562,342.792 243.73,347.832 246.97,351.576 L 246.97,359.784 C 244.162,368.064 240.85,376.344 237.322,384.624 L 237.322,382.104 C 239.77,372.528 242.074,362.88 243.658,353.088 C 241.57,355.392 239.482,357.408 237.322,359.136 L 237.322,354.96 C 238.834,353.592 240.346,352.08 241.858,350.64 C 239.698,347.904 238.186,345.168 237.322,342.432 L 237.322,326.88 C 239.554,322.272 243.37,318.888 246.97,315.792 L 246.97,315.792 z M 246.97,384.984 L 246.97,402.336 C 245.89,407.232 244.882,412.488 244.09,418.104 C 240.418,404.136 245.962,399.024 246.826,389.52 C 243.442,391.752 240.202,394.344 237.322,397.656 L 237.322,393.048 C 240.49,390.312 243.874,388.008 246.97,384.984 L 246.97,384.984 z M 246.97,425.376 C 242.578,422.136 239.122,417.816 237.322,411.624 L 237.322,419.256 C 237.682,419.76 238.114,420.264 238.546,420.696 C 238.186,421.848 237.826,422.856 237.322,423.792 L 237.322,429.336 C 238.69,427.896 239.914,426.24 240.634,424.224 L 242.722,426.312 L 246.97,429.696 L 246.97,425.376 L 246.97,425.376 z M 237.322,447.12 L 237.322,444.096 C 238.474,445.32 239.77,446.544 241.066,449.496 C 239.698,448.776 238.402,447.984 237.322,447.12 z M 237.322,601.632 C 232.354,603.936 227.17,605.088 221.626,604.944 L 221.626,603.576 C 227.962,602.352 232.714,600.624 237.322,597.816 L 237.322,601.632 L 237.322,601.632 z M 237.322,580.464 C 235.018,582.12 232.642,583.704 230.194,585.144 L 223.21,583.992 C 228.322,581.472 233.002,578.664 237.322,575.568 L 237.322,580.464 L 237.322,580.464 z M 237.322,567.576 C 231.49,568.152 226.306,567.792 221.626,566.352 L 221.626,562.608 C 227.026,564.336 232.354,564.84 237.322,564.336 L 237.322,567.576 L 237.322,567.576 z M 237.322,61.344 L 237.322,64.8 C 234.442,63.216 231.634,61.776 229.042,60.552 L 237.322,61.344 L 237.322,61.344 z M 237.322,249.912 L 237.322,297.36 L 236.242,279 C 234.01,278.712 231.778,278.424 229.546,278.064 C 226.666,280.584 223.642,282.6 221.626,284.616 L 221.626,279.648 C 222.49,278.856 223.426,278.064 224.29,277.2 C 223.426,277.056 222.49,276.912 221.626,276.696 L 221.626,248.184 C 226.81,248.904 232.066,249.48 237.322,249.912 L 237.322,249.912 z M 237.322,326.88 L 237.322,342.432 C 236.746,340.704 236.386,338.904 236.314,337.104 L 225.37,357.048 L 234.37,330.912 C 233.506,327.384 232.066,325.224 230.482,323.424 C 227.89,320.472 224.002,317.304 221.626,314.064 L 221.626,306.216 C 222.13,307.512 222.634,308.88 223.282,310.32 C 226.81,317.736 234.586,316.44 237.178,327.096 C 237.25,327.024 237.25,326.952 237.322,326.88 L 237.322,326.88 z M 237.322,354.96 C 231.994,359.784 226.738,363.528 221.626,365.616 L 221.626,370.08 C 222.706,369.864 223.786,369.432 224.866,368.928 C 224.29,373.392 223.138,377.568 221.626,381.528 L 221.626,388.584 C 223.354,386.136 224.866,383.4 226.162,380.376 C 226.882,384.768 228.682,387.504 228.25,393.552 C 226.018,395.064 223.786,396.432 221.626,397.512 L 221.626,401.472 C 223.786,400.392 226.018,398.952 228.394,397.368 C 228.61,404.64 224.29,415.44 221.626,424.872 L 221.626,426.096 L 232.714,403.848 C 232.858,409.608 234.01,414.936 237.322,419.256 L 237.322,411.624 C 236.314,408.168 235.81,404.064 236.026,399.168 C 236.458,398.664 236.89,398.16 237.322,397.656 L 237.322,393.048 C 235.45,394.704 233.578,396.504 231.994,398.736 C 231.85,381.96 227.026,386.712 228.682,364.968 C 231.634,363.384 234.514,361.512 237.322,359.136 L 237.322,354.96 L 237.322,354.96 z M 237.322,382.104 L 237.322,384.624 C 236.746,385.92 236.17,387.216 235.594,388.512 C 236.17,386.424 236.746,384.264 237.322,382.104 L 237.322,382.104 z M 237.322,423.792 L 237.322,429.336 C 236.026,430.56 234.586,431.64 233.002,432.576 C 233.362,435.744 234.154,438.768 235.522,441.576 C 236.026,442.656 236.602,443.376 237.322,444.096 L 237.322,447.12 C 233.074,443.808 230.554,439.416 229.546,434.376 C 226.666,434.808 224.65,436.896 222.202,438.192 C 223.354,441.432 224.866,444.312 226.882,446.76 L 222.778,446.4 L 221.626,444.672 L 221.626,434.88 C 227.026,430.704 234.01,429.696 237.322,423.792 z M 221.626,604.944 C 220.618,604.944 219.682,604.872 218.746,604.8 L 218.746,604.08 C 219.682,603.936 220.69,603.792 221.626,603.576 L 221.626,604.944 L 221.626,604.944 z M 221.626,566.352 C 220.618,566.136 219.682,565.776 218.746,565.416 L 218.746,561.528 C 219.682,561.96 220.618,562.248 221.626,562.608 L 221.626,566.352 L 221.626,566.352 z M 221.626,248.184 L 221.626,276.696 C 220.618,276.552 219.682,276.336 218.746,276.192 L 218.746,247.752 C 219.682,247.896 220.618,248.04 221.626,248.184 L 221.626,248.184 z M 221.626,279.648 L 221.626,284.616 C 220.402,285.768 219.61,286.92 219.322,288.288 C 218.242,293.616 219.178,299.664 221.626,306.216 L 221.626,314.064 C 221.266,313.632 220.978,313.128 220.69,312.696 C 219.898,311.4 219.25,310.032 218.746,308.592 L 218.746,281.952 C 219.682,281.232 220.618,280.44 221.626,279.648 L 221.626,279.648 z M 221.626,365.616 L 221.626,370.08 C 220.762,370.296 219.97,370.44 219.106,370.512 L 218.746,370.224 L 218.746,366.552 C 219.682,366.336 220.618,365.976 221.626,365.616 L 221.626,365.616 z M 221.626,381.528 L 221.626,388.584 C 220.69,389.808 219.754,390.96 218.746,392.04 L 218.746,387.936 C 219.754,385.848 220.762,383.688 221.626,381.528 L 221.626,381.528 z M 221.626,397.512 L 221.626,401.472 C 220.618,401.976 219.682,402.408 218.746,402.768 L 218.746,398.736 C 219.682,398.376 220.618,397.944 221.626,397.512 L 221.626,397.512 z M 221.626,424.872 L 221.626,426.096 L 220.906,427.464 C 221.122,426.6 221.338,425.736 221.626,424.872 L 221.626,424.872 z M 221.626,434.88 L 221.626,444.672 L 219.106,441.072 L 218.746,441.432 L 218.746,437.688 C 219.61,436.608 220.546,435.672 221.626,434.88 z M 218.746,604.8 C 217.954,604.728 217.09,604.584 216.298,604.512 C 217.162,604.368 217.954,604.224 218.746,604.08 L 218.746,604.8 L 218.746,604.8 z M 218.746,565.416 C 211.762,562.608 206.218,557.496 201.97,550.08 C 207.154,555.48 212.914,559.224 218.746,561.528 L 218.746,565.416 L 218.746,565.416 z M 218.746,247.752 L 218.746,276.192 C 217.378,275.904 216.082,275.688 214.714,275.4 C 214.57,278.352 214.066,281.736 213.13,285.84 C 215.002,284.688 216.874,283.392 218.746,281.952 L 218.746,308.592 C 217.306,305.064 216.37,301.032 215.002,296.856 C 213.49,303.768 208.45,309.888 203.338,316.008 C 199.738,310.104 196.858,303.624 194.41,296.928 C 191.242,322.2 194.338,347.76 184.762,372.6 C 188.794,348.552 189.946,322.992 189.946,296.928 C 186.778,302.544 183.178,307.152 179.218,310.896 C 174.466,306.072 170.578,295.416 167.41,289.368 C 163.522,295.848 158.122,301.968 153.658,307.584 L 149.554,301.32 C 145.882,352.08 142.642,394.344 134.434,426.672 C 128.17,451.296 116.938,467.928 102.826,475.2 C 137.098,445.536 139.402,370.008 144.37,291.384 L 139.546,275.616 L 122.842,300.672 C 115.858,288.648 108.586,273.384 108.73,257.328 L 105.922,265.104 C 101.17,297.216 99.2263,319.68 95.2663,337.248 C 89.6503,362.376 78.3463,373.176 67.1863,377.136 C 100.234,347.976 94.6183,303.552 100.018,272.664 C 96.7783,277.128 93.5383,279.648 90.2983,283.032 C 84.6823,271.584 82.3783,256.104 78.4903,243.504 C 75.9703,246.888 73.3783,250.632 64.7383,254.52 L 61.4983,239.4 C 58.6903,258.336 52.3543,267.048 45.5143,274.32 C 58.9063,254.376 58.1863,231.624 59.1943,200.448 L 63.2263,201.96 C 62.9383,209.088 62.2903,215.352 62.3623,222.552 C 62.3623,228.888 63.3703,236.664 67.1863,248.832 C 79.3543,240.768 80.7943,234.864 82.9543,229.896 L 86.9143,230.4 C 83.0263,245.088 85.4743,260.712 90.8743,276.84 C 98.9383,270.288 104.842,261.792 108.37,251.28 L 111.394,253.008 C 111.322,266.76 115.354,280.224 122.842,293.472 C 128.53,286.056 133.714,278.496 137.89,270.36 L 141.562,271.368 C 145.666,281.088 145.882,289.44 153.802,300.528 C 158.986,295.632 163.522,289.368 166.474,280.368 L 169.858,280.656 C 171.514,288.216 173.53,295.848 179.146,305.712 C 184.978,299.664 189.37,293.184 190.738,285.696 L 195.202,285.696 C 196.354,294.552 199.306,302.832 204.202,310.608 C 208.81,304.416 211.402,297.36 211.834,290.016 C 210.322,290.376 208.522,291.672 207.298,291.024 C 208.954,286.056 209.962,280.584 210.25,274.464 C 144.802,260.064 76.2583,223.488 76.4023,156.96 C 104.842,209.592 152.002,235.008 204.994,245.376 C 204.778,239.4 204.778,233.352 205.282,227.16 C 145.45,208.368 116.29,179.64 96.2743,152.352 C 124.354,182.448 160.498,212.904 210.034,223.992 C 209.53,231.336 209.242,238.752 209.674,246.312 C 212.698,246.816 215.722,247.32 218.746,247.752 L 218.746,247.752 z M 218.746,366.552 C 217.306,366.912 215.938,367.2 214.498,367.272 L 218.746,370.224 L 218.746,366.552 L 218.746,366.552 z M 218.746,387.936 C 217.378,390.528 215.866,393.12 214.354,395.64 C 215.938,394.56 217.378,393.408 218.746,392.04 L 218.746,387.936 L 218.746,387.936 z M 218.746,398.736 C 213.058,400.968 207.37,401.688 201.682,401.184 L 204.202,404.712 L 210.682,404.784 C 209.818,409.68 207.586,413.784 208.162,419.328 C 201.754,422.424 203.338,427.392 188.866,428.544 C 195.85,431.496 202.474,429.552 208.738,422.784 C 210.826,429.912 212.986,431.496 215.146,435.816 C 209.386,439.488 204.13,440.856 199.234,440.352 L 200.962,444.312 L 215.29,439.992 L 216.01,444.024 L 218.746,441.432 L 218.746,437.688 C 218.602,437.832 218.53,437.976 218.386,438.12 C 215.65,426.672 208.09,421.92 214.498,403.848 C 215.866,403.704 217.234,403.344 218.746,402.768 L 218.746,398.736 z "
       style="fill:white;fill-rule:evenodd;stroke:none" />
  </g>
</svg>
