<?xml version="1.0" encoding="UTF-8" standalone="no"?>
<!-- Creator: CorelDRAW -->
<svg
   xmlns:dc="http://purl.org/dc/elements/1.1/"
   xmlns:cc="http://web.resource.org/cc/"
   xmlns:rdf="http://www.w3.org/1999/02/22-rdf-syntax-ns#"
   xmlns:svg="http://www.w3.org/2000/svg"
   xmlns="http://www.w3.org/2000/svg"
   xmlns:sodipodi="http://sodipodi.sourceforge.net/DTD/sodipodi-0.dtd"
   xmlns:inkscape="http://www.inkscape.org/namespaces/inkscape"
   xml:space="preserve"
   width="744.09448"
   height="834.4187"
   style="shape-rendering:geometricPrecision; text-rendering:geometricPrecision; image-rendering:optimizeQuality; fill-rule:evenodd; clip-rule:evenodd"
   viewBox="0 0 210 297"
   id="svg2"
   sodipodi:version="0.32"
   inkscape:version="0.45.1"
   sodipodi:docname="POL Środa Śląska COA.svg"
   inkscape:output_extension="org.inkscape.output.svg.inkscape"
   sodipodi:docbase="C:\Users\Mistrz\Desktop"
   version="1.0"><metadata
   id="metadata69"><rdf:RDF><cc:Work
       rdf:about=""><dc:format>image/svg+xml</dc:format><dc:type
         rdf:resource="http://purl.org/dc/dcmitype/StillImage" /></cc:Work></rdf:RDF></metadata><sodipodi:namedview
   inkscape:window-height="480"
   inkscape:window-width="640"
   inkscape:pageshadow="2"
   inkscape:pageopacity="0.0"
   guidetolerance="10.0"
   gridtolerance="10.0"
   objecttolerance="10.0"
   borderopacity="1.0"
   bordercolor="#666666"
   pagecolor="#ffffff"
   id="base" />
 <defs
   id="defs4">
  <style
   type="text/css"
   id="style6">
   
    .fil2 {fill:white}
    .fil0 {fill:black}
    .fil5 {fill:#0A9145}
    .fil4 {fill:#24211C}
    .fil1 {fill:#FCF500}
    .fil3 {fill:white}
   
  </style>
 </defs>
 <g
   id="Warstwa_x0020_1"
   transform="matrix(1.2610319,0,0,1.2610319,-27.425161,-38.744699)">
  <metadata
   id="CorelCorpID_0Corel-Layer" />
  <g
   id="_111913024">
   <path
   id="_75232152"
   class="fil0"
   d="M 209.814,173.266 L 209.814,173.3602 C 208.0701,224.7966 161.6176,266.246 105.015,266.246 C 48.3823,266.246 1.712,224.7652 -1.4210855e-014,173.2974 L -1.4210855e-014,173.3295 L -1.4210855e-014,30.7545 L 210,30.7545 L 209.8141,173.2655 L 209.814,173.266 z "
   style="fill:#000000" />
   <path
   id="_111912280"
   class="fil1"
   d="M 205.952,171.057 C 205.6288,222.2156 158.5394,261.0508 105.193,262.0476 L 104.8515,262.0499 L 104.8515,34.1079 L 206.1485,34.1079 L 205.9513,171.0569 L 205.952,171.057 z "
   style="fill:#fcf500" />
   <path
   id="_111913936"
   class="fil2"
   d="M 102.645,261.996 C 49.2458,261.1147 5.4105,219.8054 3.7818,171.3672 L 3.7818,171.398 L 3.3095,34.108 L 102.645,34.108 L 102.645,261.996 L 102.645,261.996 z "
   style="fill:#ffffff" />
   <path
   id="_75232368"
   class="fil0"
   d="M 163.759,77.2661 C 155.6817,77.2661 149.0641,71.1994 149.0641,63.7643 C 149.0641,56.33 155.6817,50.2633 163.759,50.2633 C 163.9144,50.2633 164.039,50.2633 164.195,50.2633 L 164.195,50.2325 C 174.1673,49.7974 186.4711,61.0894 186.7203,71.7907 C 189.2058,102.3386 182.3698,126.4155 191.7221,141.254 C 176.9635,149.4976 174.8831,122.7141 175.2246,98.9483 C 175.2246,98.916 175.2246,98.8852 175.2246,98.8236 C 175.1308,97.8273 174.4164,98.2315 174.2918,98.7297 C 173.3605,123.6789 165.4063,167.6648 183.4881,172.3933 C 163.8528,175.5356 158.1673,167.3859 159.4416,117.7677 C 159.4101,117.4882 158.9748,117.271 158.6956,117.4258 L 158.5403,117.6122 C 158.5095,117.6753 158.5095,117.7369 158.5095,117.8308 L 158.4773,117.7985 C 156.0855,145.298 150.5546,191.4005 170.4712,198.9294 C 151.9219,208.0123 142.6949,194.6353 142.7565,130.7097 C 142.6319,129.5578 142.2282,129.8689 142.0112,130.4918 C 139.8049,139.4191 137.3501,149.7155 139.4319,159.3589 C 133.2488,154.4748 130.1426,146.4807 127.3772,139.108 L 127.3464,139.108 L 127.3156,139.1396 C 128.403,149.9649 130.608,167.7278 135.5483,172.3933 C 133.4042,172.7667 130.7941,171.4608 128.713,169.4072 C 128.2785,169.003 127.9363,169.5011 127.9978,169.7799 L 127.9978,169.7799 C 128.7445,176.4688 129.1175,183.2509 132.5036,189.1298 C 133.0319,190.3433 134.803,190.5913 135.9205,189.4717 C 141.7628,180.73 148.6604,187.3257 144.2484,192.9566 L 143.5339,192.0234 C 144.5584,187.9471 142.4143,189.3792 142.1974,191.2141 C 139.8364,192.3646 137.3816,193.2985 134.9892,193.6089 C 133.9633,193.7644 134.2439,194.1694 134.803,194.3873 C 138.0023,195.6932 141.6383,196.6895 144.2484,198.7108 C 145.0552,199.9558 146.6709,202.195 145.149,203.8751 C 144.7137,209.2251 140.6747,208.5406 138.4998,206.8927 L 138.4061,206.2082 C 142.0728,207.0483 142.7873,204.341 140.9546,204.3102 L 140.5823,204.3102 C 138.7168,203.9991 138.686,202.2889 138.4383,199.8928 C 135.5175,199.6125 133.5603,197.9639 131.6646,195.9118 C 130.8886,195.3829 130.9194,195.4452 131.0747,196.0667 C 132.7205,199.2713 133.8402,202.6925 133.5903,205.4929 C 132.0061,209.0695 128.9929,209.9719 126.6942,207.3909 L 127.2526,206.768 C 129.0237,207.2963 132.2545,205.7731 128.6507,204.9331 C 126.7866,203.9683 126.2275,201.9463 127.8747,199.6448 C 128.2162,198.1818 126.8804,196.4716 126.8496,194.9163 C 126.8496,194.4797 126.6627,194.1694 126.3213,193.983 C 124.301,193.4856 122.2822,192.9874 120.7896,191.5252 C 119.0192,192.2413 118.0256,192.1782 116.3469,190.2494 C 115.1979,189.5025 114.8256,191.245 115.1041,192.2413 L 114.5149,192.7695 C 113.0223,191.4005 113.6752,184.8686 118.8016,185.9258 C 120.7896,186.7028 122.5607,187.8547 123.9281,189.0051 C 124.7979,189.5971 127.8747,190.0946 127.0973,187.4812 C 126.3828,181.7879 123.6489,175.8158 123.4935,170.091 L 123.4935,170.091 C 123.1205,169.2201 122.5607,169.6567 122.4984,169.8746 C 122.0016,171.6779 120.2305,173.0477 118.0872,174.0741 C 119.7652,169.0969 117.2482,163.124 116.3784,157.7727 C 116.1915,156.3413 115.2909,157.182 115.1664,157.6171 L 115.1664,157.6171 L 115.1664,157.6479 C 112.9614,163.2473 111.3142,169.9047 110.4444,175.9083 C 118.2432,176.4373 119.7967,184.9926 110.2583,187.0139 C 110.599,194.3242 115.074,200.7335 120.0136,206.2698 C 119.3607,206.7064 118.5539,206.6125 117.8388,206.768 C 127.6564,219.8332 145.5219,223.1003 161.1182,212.8347 C 155.7132,230.3174 138.1276,239.6497 118.5847,214.9176 C 118.2432,214.5449 117.3419,214.9176 117.5896,215.3233 C 123.3382,224.3754 129.1175,233.3651 138.4691,234.5477 C 123.8035,242.2308 117.8073,230.5962 111.874,218.8068 C 111.1904,217.5625 110.5683,218.6828 110.7236,219.1179 C 113.5506,229.6013 116.969,239.1207 124.7363,241.671 C 122.4984,244.2227 118.7401,244.0671 113.4891,241.2359 C 113.2399,241.1119 113.2091,241.0173 112.93,241.142 C 112.7438,241.3599 112.7438,241.2359 112.6808,241.5785 C 112.6193,246.8976 109.4622,251.4649 104.6458,255.1354 L 104.7667,83.0864 C 110.1101,75.7768 108.2073,69.4894 107.3067,62.8937 C 107.1814,62.2092 107.0891,61.5246 107.0891,60.7778 C 107.0891,54.9612 111.7187,50.2011 117.4035,50.2011 C 117.5588,50.2011 117.6834,50.2011 117.8388,50.2011 C 119.4853,50.2327 121.5363,51.1344 122.4984,49.5166 C 123.2444,48.3347 125.4515,47.1843 126.8181,48.8328 C 139.8049,33.8696 143.7201,50.171 142.9426,50.0148 L 141.9805,49.8593 C 141.8552,46.375 137.5055,47.7441 135.859,50.1395 C 134.4301,52.4418 132.6905,54.3706 129.9243,53.7785 C 130.5772,57.1703 129.1483,60.3742 128.5892,63.5165 C 128.1847,65.0088 130.0489,65.6934 131.0117,63.4535 C 132.0061,58.5386 133.3741,53.8416 139.3704,49.2378 L 140.0225,49.3303 C 138.3753,55.1784 132.9382,66.036 131.3539,66.9377 L 131.3539,66.9377 L 131.3224,66.9685 L 131.3224,66.9685 L 130.0796,68.5862 C 130.0796,68.5862 130.0796,68.5862 130.0796,68.5862 L 129.8627,68.8665 C 127.3156,70.7014 125.42,75.3052 124.8916,77.6082 C 124.1772,80.2832 124.5502,83.1144 125.1708,85.0432 C 123.6804,85.5722 123.0268,84.1723 122.5299,83.0513 L 121.7539,83.1144 C 119.3915,92.0733 121.7224,93.3176 122.9029,95.8062 C 124.1142,97.7966 126.0098,99.9742 126.5689,101.7475 L 126.5997,101.6851 C 128.2477,108.1561 129.3036,102.556 130.4218,100.5971 L 130.4218,100.5971 C 131.1055,98.9485 132.5652,97.7658 134.3055,97.7658 C 135.4552,97.7658 136.5118,98.3256 137.2879,99.1664 C 138.2507,100.0681 138.5306,99.1664 138.5614,98.7299 C 138.6559,96.3968 140.3325,94.5311 142.3835,94.5311 C 143.3464,94.5311 144.2162,94.9353 144.8998,95.5876 L 144.8998,95.5876 C 145.6143,96.4599 146.3295,95.8986 146.5471,93.4724 C 146.7017,91.0777 148.6282,89.1797 150.9591,89.1797 C 151.7974,89.1797 152.5748,89.4291 153.2585,89.8334 C 154.0975,90.176 154.1898,88.7761 154.3151,88.0608 C 154.4383,85.8833 156.2408,84.1723 158.415,84.1723 C 159.0056,84.1723 159.5969,84.2956 160.0937,84.5451 C 160.4975,84.6067 160.5898,84.2032 160.5283,83.4878 C 160.4667,83.176 160.4345,82.8649 160.4345,82.5546 C 160.4345,80.3448 162.051,78.5106 164.0082,78.5106 C 165.1264,78.5106 166.09,79.1012 166.7736,79.9721 C 167.0528,80.3448 167.3019,80.5935 167.6119,80.2523 C 168.5125,78.8833 167.4566,77.1724 165.344,77.2032 C 164.8157,77.234 164.2874,77.2663 163.759,77.2663 L 163.759,77.2661 z "
   style="fill:#000000" />
   <path
   id="_75232440"
   class="fil3"
   d="M 110.723,63.9206 C 111.6866,64.418 112.6187,63.9822 113.3023,62.3953 L 113.7054,61.6492 C 113.8306,61.432 113.9545,61.3065 114.2337,61.6183 C 118.4588,65.8494 124.3004,62.9874 120.5105,56.7959 L 123.6483,54.8994 C 124.7665,57.6668 123.9905,61.8663 123.9905,65.3513 C 124.9841,70.7012 126.9098,69.3953 128.2156,69.2089 C 128.7747,69.0526 129.3646,68.9602 129.8929,68.8355 L 131.1665,67.1862 C 128.8062,67.4973 127.8111,67.2801 126.3514,64.947 C 125.6062,62.5508 125.7293,60.374 126.1954,57.7915 C 126.2577,56.5171 125.9477,55.5208 124.8288,53.9969 C 124.3942,53.3741 124.1136,52.7835 123.7721,52.1606 C 123.3684,51.4768 123.0884,50.5436 122.3117,49.7974 C 122.001,50.1708 121.598,50.3572 121.1312,50.4497 C 121.6903,51.4152 122.8708,52.6587 122.5923,53.6551 L 117.9312,56.0806 C 112.1211,59.0666 110.9413,62.1473 110.723,63.9206 L 110.723,63.9206 z "
   style="fill:#ffffff" />
   <path
   id="_75232512"
   class="fil4"
   d="M 115.011,60.5611 L 116.2538,59.6279 C 117.7142,61.8355 119.05,60.622 117.3412,58.8803 L 118.7086,57.8546 C 122.996,61.6183 117.4658,64.2933 115.011,60.5611 L 115.011,60.5611 z "
   style="fill:#24211c" />
   <path
   id="_75232584"
   class="fil3"
   d="M 104.821,132.357 C 134.0885,131.3614 171.9,114.0035 176.0628,72.3192 C 155.6501,104.5149 131.0746,113.0703 107.865,112.3549 L 107.865,105.231 L 114.4203,105.231 L 114.4203,99.1657 L 107.865,99.1657 L 107.865,92.6639 L 104.821,92.6639 L 104.821,132.357 L 104.821,132.357 z "
   style="fill:#ffffff" />
   <path
   id="_75232656"
   class="fil0"
   d="M 102.739,83.6432 C 99.8804,77.4833 96.2452,72.2258 91.8948,67.7152 C 91.4294,67.2493 91.5218,66.8436 92.1754,66.4708 C 94.754,65.3204 96.7112,63.8582 98.327,62.3028 C 98.7,61.8355 98.7,61.5553 98.2962,61.4628 L 96.5867,60.7776 C 96.1514,60.6536 96.0591,60.4987 96.4005,60.0321 C 97.5495,58.3836 98.0779,56.7035 97.9855,54.961 C 98.0156,54.4012 97.8602,54.3704 97.3949,54.432 C 96.4005,54.4012 95.6861,54.8671 95.0948,55.7072 C 94.7218,56.0182 94.1627,56.0182 94.1011,55.3653 C 94.1942,54.2765 94.1011,53.2494 93.7596,52.286 C 93.6344,51.8818 93.3867,51.8818 93.076,52.0681 C 91.1188,53.2494 89.8452,54.7746 88.4471,55.5839 C 88.1972,55.7394 87.825,55.7702 87.9188,55.3029 C 88.8193,51.5392 88.3526,47.9611 85.8678,44.6338 C 85.5256,44.2281 85.2457,44.2281 85.0595,44.7263 C 84.7803,45.567 84.3451,46.3748 83.8168,47.1841 C 83.7545,47.278 83.6929,47.5267 83.5068,47.1841 C 82.264,44.9126 80.8351,43.5443 79.2186,42.9838 C 78.9394,42.7975 78.6903,42.8914 78.535,43.2017 C 77.6337,45.1614 76.8884,47.0902 76.3293,48.9882 C 76.2986,49.2993 76.1124,49.2684 75.8017,49.2684 C 74.4645,49.2054 73.1293,48.895 71.8558,48.49 C 71.3897,48.4284 71.2645,48.6147 71.3267,49.019 L 71.7312,52.2552 C 71.7312,52.534 71.5451,52.6896 71.2029,52.5663 C 68.9658,51.5076 66.6363,51.1342 64.2739,51.5392 C 63.9639,51.6015 63.8701,51.7879 63.9947,52.0681 C 64.5538,52.9705 64.8652,53.8106 64.8652,54.6184 C 64.926,54.961 64.926,54.9918 64.6476,55.0549 C 62.472,55.5208 60.6086,56.2992 58.9298,57.3249 C 58.496,57.5743 58.433,57.8546 58.6821,58.1334 C 59.8311,59.0358 60.887,60.0006 61.7575,61.2449 C 62.1298,61.6492 62.3796,61.9609 62.069,62.3645 C 61.633,62.9874 61.3846,63.6396 61.323,64.3241 C 61.3538,64.8531 61.633,65.2265 62.1298,65.476 C 63.8085,66.3468 65.5796,66.8127 67.3808,66.9375 C 67.9714,66.9991 68.0029,67.4664 67.5369,67.6836 C 65.5489,68.3681 64.3984,69.7063 63.8085,71.4796 C 63.684,71.8531 63.684,72.0086 64.0562,72.1011 L 65.0205,72.3197 C 65.5489,72.506 65.3935,72.6609 65.2375,73.0035 C 64.6783,73.9991 64.2431,75.1186 63.9639,76.3006 C 63.8393,76.9235 64.15,77.0159 64.5846,77.1414 C 65.8273,77.4524 67.0393,77.4833 68.2205,77.3277 C 68.7489,77.1722 68.935,77.3277 68.9658,77.7943 C 69.0595,78.6029 69.2772,79.3813 69.5249,80.1274 C 69.6187,80.5625 69.6187,80.6256 70.0217,80.407 C 71.9481,79.4436 73.75,78.2602 75.4903,76.7987 C 75.8941,76.3945 76.1432,76.426 76.2356,76.9235 C 76.4539,78.1993 77.0746,79.4121 77.9143,80.6564 C 78.1928,81.1854 78.5665,81.2778 78.9702,81.1545 L 79.9639,80.718 C 80.3691,80.5009 80.5244,80.5625 80.7413,80.8435 C 81.798,82.5221 83.1023,83.9851 84.7188,85.2294 C 85.2149,85.572 85.837,85.6644 86.1477,85.1985 C 86.986,83.4561 87.5143,81.6828 87.5458,79.7547 C 87.5143,79.1626 87.6081,79.101 87.9803,79.5361 C 88.4471,80.0027 89.0062,80.3761 89.5954,80.6564 C 90.0005,80.8119 90.4043,80.718 90.4351,80.2521 L 90.5597,77.8567 C 90.715,77.4216 90.7773,77.4833 91.088,77.8875 C 97.0534,84.7004 96.3068,93.1934 96.6482,101.5924 C 96.5867,102.3386 96.3068,102.4633 95.8414,101.9336 C 86.3653,87.4062 74.1538,79.1626 57.6878,80.5933 C 57.0657,79.4436 56.6003,78.2602 56.445,77.0475 C 56.4142,76.7371 56.5695,76.4877 56.9733,76.2705 C 58.1538,75.7107 59.2104,75.0262 60.111,74.093 C 60.421,73.9052 60.484,73.5948 60.1425,73.1275 C 59.3028,71.8531 58.1853,70.9198 56.8795,70.297 C 56.5065,70.2353 56.3512,70.049 56.445,69.7063 C 56.9733,68.8046 57.3148,67.8392 57.221,66.7203 C 57.284,66.316 57.0034,66.0974 56.445,66.0666 C 52.3129,66.3777 49.1122,67.5603 46.8436,69.644 C 46.2229,69.5508 45.9738,69.3336 46.3167,68.9279 C 52.3437,65.5684 54.86,61.3381 53.0589,56.1437 C 52.9035,55.6455 52.6229,55.4893 52.1576,55.7072 L 50.9771,56.33 C 50.6349,56.4225 50.3865,56.3608 50.2311,56.1437 C 50.045,54.8671 49.7951,53.5604 49.3921,52.286 C 49.1745,51.8187 48.77,51.7262 48.2417,52.0051 C 46.8128,53.0322 45.5392,54.1209 44.3272,55.2728 C 44.0795,55.5516 43.7989,55.5516 43.4882,55.3337 C 42.9291,54.6499 42.2777,54.1518 41.5618,53.7475 C 41.0027,53.468 40.5996,53.5604 40.3512,53.9654 C 38.8285,57.3249 38.7978,61.0277 39.3569,64.8839 C 39.1392,65.476 38.8901,65.5376 38.6109,65.0395 C 38.331,60.4357 37.4612,56.0182 35.6901,51.8495 C 35.3479,51.5076 34.9757,51.5076 34.6034,51.7879 C 33.7329,52.7211 32.9877,53.7167 32.4286,54.8055 C 32.1179,55.2104 31.8065,55.3337 31.4958,54.8363 C 30.3468,53.1877 28.8856,51.8495 27.2391,50.7299 C 26.6184,50.5127 26.1209,50.6683 25.7794,51.2281 C 24.9712,53.1877 24.3505,55.1474 23.9453,57.0762 C 23.9453,57.6052 23.6669,57.7915 23.1693,57.7607 C 22.1435,57.6668 21.2429,57.7299 20.5592,58.1033 C 20.0001,58.3513 19.7517,58.6323 19.9063,59.1613 C 21.492,62.7996 22.4857,66.6572 27.4567,69.0526 C 27.9844,69.7063 27.892,69.8619 27.3637,69.6755 C 25.2511,68.3681 23.1385,67.6528 21.026,67.5281 C 20.6208,67.6528 20.4039,67.9646 20.3423,68.399 L 21.2737,71.3241 C 21.3045,71.6968 21.1491,72.0086 20.8083,72.2881 L 16.8001,74.8699 C 16.3964,75.0878 16.3649,75.3989 16.6756,75.8032 C 17.7014,77.4524 19.2234,78.6337 21.4598,79.2257 C 21.9266,79.349 22.0511,79.5676 21.802,79.9719 L 20.6838,82.3358 C 20.59,82.7099 20.9007,83.0819 21.429,83.2697 C 26.5862,84.3277 29.8492,83.7356 34.1051,79.0702 C 34.9757,78.9447 35.2556,79.2257 34.8819,79.9411 C 30.8436,82.2433 28.9794,84.4201 28.4819,86.5353 C 28.5127,87.2198 28.9794,87.6872 29.6939,88.0606 C 30.4083,88.3717 31.1228,88.5889 31.9002,88.558 C 32.2102,88.5272 32.3656,88.6505 32.3963,88.9315 C 32.5517,91.2022 33.5468,93.1618 35.1002,94.9043 C 35.3794,95.3085 35.6901,95.3085 36.0631,94.9043 L 39.6046,91.8867 C 39.9153,91.4201 40.2267,91.4201 40.5689,91.8867 C 41.2833,93.0063 42.1839,94.0642 43.2405,95.0598 C 43.5512,95.3386 43.955,95.3085 44.4525,94.9351 C 46.4713,91.7312 47.4657,88.4333 47.1858,84.9799 C 47.1858,84.6065 47.3719,84.451 47.7764,84.5757 C 52.1576,85.6336 56.5695,86.3181 61.1047,86.2558 C 61.7268,86.3181 61.9129,86.4737 61.7268,86.9396 L 61.5707,87.2506 L 61.6022,87.2506 C 61.0739,88.4333 60.421,89.4289 59.6758,90.1758 C 59.4281,90.393 59.4581,90.3621 59.2104,90.2682 C 57.6878,89.4913 56.3204,88.4333 55.0776,87.1582 C 54.9223,86.8163 54.7047,86.8471 54.3324,87.0643 C 53.2142,87.4062 52.4675,88.1215 51.8469,89.0548 C 51.6915,89.2103 51.6292,89.2425 51.8161,89.4289 L 54.3625,92.1655 C 54.5493,92.4157 54.4878,92.539 54.1463,92.5081 C 49.5782,92.6644 47.8379,94.7796 48.46,98.5118 C 48.6777,100.1603 49.5167,101.3738 51.3185,101.9336 C 51.9392,102.0892 52.3129,102.4318 52.3752,103.0546 C 52.0638,105.0759 52.9959,106.6313 54.8292,107.814 C 55.6997,111.3907 57.2532,113.5997 59.6443,114.1602 C 60.887,117.9541 63.0619,119.8521 66.2633,119.6965 C 66.6971,119.6041 66.8224,119.7274 66.9778,120.0076 C 68.7489,124.4251 74.7759,123.461 74.3091,117.7369 C 74.2168,117.3018 74.3091,117.0209 74.589,116.8345 C 76.1124,115.2483 76.174,113.5058 75.0866,111.6401 C 74.9928,111.3907 75.0558,111.1111 75.2419,110.8 C 76.3293,108.0928 76.64,105.6673 73.7192,104.299 C 73.2532,103.9563 73.3162,103.4274 73.4715,102.96 C 74.4337,101.3122 74.3413,99.6636 72.974,98.0143 C 72.6325,96.1486 72.0419,95.2462 71.2344,95.0906 C 71.0476,94.9968 70.923,94.8412 70.9538,94.6233 C 70.5199,92.0415 69.2149,91.0466 67.3192,91.0158 C 66.6664,91.0158 66.6363,90.9219 67.0701,90.5177 C 67.5676,89.9263 68.3129,89.5837 69.2149,89.3974 L 69.1827,89.3974 L 70.6753,89.3049 C 81.3942,94.0642 88.6024,103.8001 94.1319,115.9328 L 94.6602,117.4258 C 94.8464,117.8924 94.5987,118.0487 93.915,117.9233 L 88.4149,115.497 C 85.0287,113.0708 85.091,110.489 88.1972,108.6218 C 88.3841,108.3114 88.2917,108.1251 87.9495,108.0928 C 80.8967,106.3518 78.7841,109.3371 79.6231,115.1866 C 79.7462,116.1815 79.6231,117.0832 79.2186,117.9541 C 72.7564,124.519 83.1338,131.9848 88.1049,124.3942 C 88.4149,123.7097 88.2917,123.4295 87.8558,123.4295 C 83.1653,124.7369 83.8483,119.946 86.7068,120.9409 C 94.2257,123.99 97.1458,130.304 96.2144,139.3259 C 96.1829,140.1344 95.8722,140.2592 95.3131,139.761 C 86.0539,131.2695 75.0558,125.8557 61.9745,124.1448 C 61.4784,124.0208 61.1984,123.7714 61.2922,123.3055 L 61.7268,121.8425 C 61.8513,121.4698 61.7268,121.2211 61.323,121.1272 C 59.3028,120.4119 57.284,120.07 55.2638,120.194 C 54.9846,120.1639 54.8292,119.946 54.9223,119.541 C 56.2274,115.621 56.0104,112.106 54.6123,108.8712 C 54.394,108.3731 54.0518,108.2483 53.5865,108.5594 L 51.194,109.7736 C 50.8518,109.8983 50.4788,109.8353 50.2927,109.4618 C 49.5475,107.3158 48.3362,105.5425 46.7204,104.1119 C 46.1921,103.7076 45.7561,103.77 45.4147,104.299 L 43.6436,107.8756 C 43.2706,108.4039 42.8368,108.4354 42.4008,108.0003 C 41.3449,106.8485 40.0405,106.1023 38.4864,105.7597 C 38.0511,105.5117 37.7103,105.1698 37.4612,104.7333 C 36.4353,103.0546 35.131,101.5924 33.6391,100.1926 C 33.3606,99.9432 33.1738,100.0987 32.8939,100.3481 C 32.0234,101.343 31.7127,102.3694 31.7449,103.4582 C 31.7757,103.77 31.5265,103.9563 31.1536,103.7076 L 23.9146,98.3562 C 23.48,98.0452 23.2309,98.1391 23.1693,98.6372 C 22.8271,102.4941 22.6102,106.3202 22.6718,110.0539 C 22.6718,110.3951 22.5164,110.7061 22.2687,110.9248 C 20.7768,111.8264 19.2549,112.4178 17.7315,112.7597 C 17.4208,112.8844 17.3592,113.1948 17.453,113.475 C 19.3472,116.6481 22.0819,119.1059 25.4988,120.9717 C 26.0901,121.2211 26.1209,121.5322 25.5303,121.8117 C 23.1078,122.4654 21.1491,123.6158 19.5026,125.2035 C 19.3164,125.4207 19.2857,125.6694 19.4718,125.8866 C 20.1555,126.3847 20.8706,126.8205 21.6781,127.1631 C 21.9881,127.4111 22.0511,127.6921 21.802,128.034 C 19.5334,130.7405 18.7573,133.9136 19.0373,137.4595 C 19.068,137.8322 19.378,138.0809 19.8441,137.8946 C 22.5472,136.0589 24.4737,135.2504 25.3757,135.3751 C 25.8102,135.3751 26.1825,135.4368 26.2448,135.8726 L 27.0222,138.7346 C 27.2699,139.2944 27.892,139.3883 28.6995,139.1704 C 30.9674,138.4242 32.707,136.7133 34.0128,134.1 C 34.2304,133.6327 34.7895,133.9753 34.6335,134.3172 C 32.0864,137.6458 31.931,140.6326 32.3348,143.557 C 32.3656,143.9921 32.5839,144.1784 32.9877,144.1476 L 34.5411,144.0229 C 34.8511,143.9921 35.1002,144.1168 35.2556,144.4594 C 36.0316,146.5746 37.119,148.5651 38.394,150.4315 C 38.8285,150.8974 39.3261,150.929 39.8537,150.5247 C 41.2518,149.2188 42.5561,147.7558 43.7989,146.232 C 44.0795,145.9209 44.358,145.8901 44.6079,146.2012 C 45.0732,146.8226 45.6008,147.3516 46.1921,147.8497 C 46.782,148.1923 47.4041,148.3479 47.8379,147.7874 C 49.206,145.0192 50.1066,142.1572 50.6657,139.1704 C 50.7287,138.8593 50.9771,138.7654 51.2555,138.7977 C 53.3066,139.2636 55.4499,139.4191 57.6255,139.4499 C 58.2461,139.3259 58.496,138.9532 58.4638,138.3612 L 58.4638,135.2819 C 58.496,135.064 58.5883,134.877 58.8682,134.7537 L 61.9129,133.3538 C 62.1613,133.2592 62.4104,133.1668 62.845,133.0729 C 63.4671,133.042 63.9331,132.9804 64.0562,132.4514 C 64.0562,131.8286 63.8393,131.2379 63.4971,130.6466 C 63.3418,130.304 63.4671,130.0868 63.9009,130.056 C 65.1759,130.2115 66.574,130.8021 68.1575,131.8909 C 68.5312,132.1712 68.5935,132.5138 68.4067,132.9481 L 66.6048,134.9092 L 66.6363,134.9092 C 65.6412,135.8726 64.9883,137.0868 64.8022,138.6099 C 64.5538,139.9789 63.9331,141.1308 62.8135,141.7207 C 57.3763,143.0904 57.1594,146.2936 61.2922,150.9605 C 61.633,151.3648 61.7268,151.7998 61.6022,152.2672 C 60.0802,155.8747 61.633,158.0536 65.9519,158.9245 C 66.3249,159.0478 66.511,159.2979 66.7601,159.5768 L 68.562,161.3816 C 69.4934,162.1586 70.0217,163.1857 70.1778,164.43 C 71.0168,166.5143 72.7564,167.4469 75.3035,167.3229 C 75.5841,167.2913 75.7702,167.4168 75.9879,167.6648 C 78.6288,170.6824 81.3942,170.091 83.1023,166.4205 C 83.1961,166.1725 83.2884,166.2033 83.5991,166.1725 C 87.3274,165.5188 88.6332,161.8797 84.9972,158.9245 C 84.5312,158.4263 84.5312,157.8974 85.0595,157.3992 C 87.6381,155.7514 86.7068,151.8937 83.8798,150.3075 C 83.413,150.0266 83.5991,149.6223 83.6929,149.2188 C 84.5312,145.4228 82.6678,143.028 79.2186,142.9341 C 79.001,142.904 78.8764,142.7786 78.8149,142.4675 C 78.535,141.2232 77.8205,140.4462 76.4539,140.4147 C 76.2678,140.4462 76.1124,140.1344 75.8626,139.8864 C 74.8374,139.232 73.6884,139.0765 72.4765,139.2636 C 72.1042,139.2636 72.0734,139.1396 72.2595,138.8593 C 72.6941,137.8637 73.5023,136.9613 74.559,136.1535 L 74.8374,136.0288 C 75.2419,135.6554 75.6457,135.6245 76.0179,135.8726 C 82.9785,139.3259 88.7578,144.9253 94.9401,149.8402 C 95.7169,150.3075 96.0276,150.8365 95.903,151.3956 L 95.9338,151.3956 L 96.5251,173.763 L 96.5867,174.011 L 96.6804,177.0917 C 96.6174,178.1489 96.0591,178.2736 95.2501,177.8995 C 83.413,169.4072 68.7174,168.6611 53.618,168.9721 C 52.9035,168.9721 52.5305,168.7535 52.6859,168.1937 C 53.182,165.5188 53.5557,162.813 53.618,160.1373 C 53.5557,159.6398 53.2758,159.4535 52.6859,159.5459 C 52.2814,159.9509 51.8161,160.1373 51.3185,160.2305 C 50.8518,160.3243 50.5733,160.2305 50.5733,159.7015 C 50.4487,157.8035 50.1681,155.9377 49.5782,154.1336 C 49.3921,153.6362 49.0191,153.5416 48.4915,153.915 C 46.1921,156.0933 42.6184,157.4616 40.7858,159.3589 C 40.382,159.6398 40.1329,159.4219 39.7291,159.2356 L 37.119,157.7727 C 36.6222,157.5856 36.2184,157.7727 35.97,158.2701 C 34.6958,160.6662 34.3858,163.2789 34.5089,165.9861 C 34.5411,166.4835 34.3536,166.6391 33.9498,166.4835 C 32.1179,165.3016 30.0046,164.6472 27.6121,164.6164 C 26.9284,164.5862 26.8361,164.8651 26.7416,165.2077 C 26.3078,166.2341 26.214,167.3544 26.4309,168.5672 C 26.4631,169.003 26.2448,169.1893 25.8102,169.0969 C 24.692,168.7227 23.5731,168.4432 22.4549,168.3493 C 21.7404,168.2876 21.5543,168.5672 21.5844,169.003 C 21.5543,171.7718 22.0511,174.3845 23.6976,176.6552 C 23.9776,177.0601 24.1329,177.5583 23.6669,177.8687 C 22.7348,178.1489 21.8958,178.6148 21.2121,179.1438 C 20.8083,179.6728 21.026,180.1702 21.429,180.5745 C 23.6976,183.1261 26.4309,184.5568 29.6939,184.5876 C 30.253,184.5568 30.4083,184.7432 30.1599,185.1474 C 26.7416,188.2897 25.0958,191.9603 24.3505,195.8488 C 24.4429,196.2853 24.692,196.5333 25.1265,196.5025 L 28.265,196.4408 C 28.6372,196.3777 28.8856,196.5333 29.0102,196.8759 C 29.5693,200.1107 31.2166,202.8795 33.0184,205.6176 C 33.4215,205.9595 33.8575,206.0218 34.3228,205.8039 C 36.716,203.9368 38.6109,201.7908 39.1392,198.7739 C 39.3261,198.2134 39.7291,198.0894 40.1959,198.1195 C 41.8725,199.5817 43.6758,199.1158 45.633,196.7512 C 45.943,196.3777 46.2845,196.3777 46.5959,196.7512 C 47.9317,198.3374 49.3613,199.8003 51.1632,200.8891 C 51.5977,201.1063 52.0022,201.0754 52.3129,200.6081 C 53.4619,199.2398 53.8657,197.622 53.648,195.7871 C 53.7103,195.1334 53.7418,195.1334 54.3016,195.4137 C 55.2638,195.8179 56.3204,196.0982 57.4086,196.1907 C 57.9047,196.0667 58.2776,195.8179 58.4638,195.3513 C 58.6821,193.7967 58.3406,192.4276 57.594,191.1833 C 57.3763,190.7468 57.4701,190.5913 57.9047,190.6544 L 58.9921,191.2758 C 59.5519,191.4313 59.9249,191.0894 59.8941,190.5296 C 59.8619,189.347 60.0487,188.1342 60.3286,186.8899 C 60.3594,186.3609 60.6701,186.0814 61.3538,186.2369 C 62.3167,186.8584 63.4048,187.1393 64.6153,187.1078 C 65.2375,186.9838 65.5166,186.672 65.5489,186.143 C 65.7966,183.997 65.3305,182.099 63.8393,180.5745 C 63.684,180.1086 63.9009,179.8283 64.4292,179.7667 L 66.3557,179.6728 C 66.947,179.5803 66.947,178.8642 66.7601,178.3969 C 65.8596,177.1841 64.7707,176.0646 63.4971,175.069 C 63.1249,174.7894 63.4048,174.6031 63.9639,174.6955 C 66.5418,175.4417 69.1827,175.8782 71.8866,175.9083 C 72.5072,176.0646 72.6941,176.4373 72.5387,176.9971 L 71.5129,178.8334 L 71.4821,178.8334 C 70.3023,180.73 69.2457,182.6588 68.3451,184.5876 C 65.4243,185.9258 64.4292,187.9471 64.6153,191.5568 C 63.0941,193.578 62.099,195.6624 62.7834,197.9331 C 63.0003,198.4929 62.7519,198.9294 62.1298,199.3337 C 59.272,200.9199 59.0859,203.0659 60.6701,205.5237 C 61.1369,205.991 61.1369,206.4254 60.8262,206.8296 C 59.6443,209.3813 59.9865,211.4657 62.099,213.0211 C 62.535,213.1759 62.6896,213.5178 62.5658,213.9851 C 63.4048,219.8641 66.0457,220.1135 69.774,217.1891 C 70.2085,216.754 70.55,216.9095 71.1406,217.1891 C 75.3973,218.4018 77.9444,216.0387 77.8205,210.8428 C 77.8205,210.3769 78.0066,210.035 78.2866,209.8164 C 79.5909,209.2566 80.1514,208.3234 79.8092,206.9544 C 79.7777,206.3021 80.0884,205.991 80.6798,205.9595 C 85.9923,205.0578 87.2659,199.8928 83.7545,197.3117 C 83.413,196.8451 83.3206,196.3161 83.3514,195.6932 C 84.7803,192.2721 83.6929,190.0946 79.8092,189.3161 C 79.5909,189.1606 79.4678,188.9743 79.374,188.7255 C 79.4678,187.4812 78.8457,186.672 77.789,186.143 C 77.2306,185.8011 76.8269,185.366 76.5462,184.8371 C 76.174,183.4989 76.4847,182.2854 77.2306,181.4468 L 77.2306,181.4145 L 79.1571,179.424 L 80.2438,179.4857 L 94.9086,188.57 C 96.0276,189.41 96.5867,190.5296 96.6174,191.8356 L 96.5867,191.9295 C 96.9904,196.2853 97.0534,200.6712 96.8981,205.0578 C 95.7784,212.8655 90.7458,218.5889 79.8407,219.7408 C 68.0344,221.5133 62.5028,226.9256 61.2292,234.7957 C 61.1369,235.2323 61.2292,235.5118 61.5406,235.6673 C 62.3796,236.1963 63.2494,236.6321 64.1192,237.0364 C 64.7098,237.1919 65.3935,237.5653 65.9211,236.9425 C 69.2772,229.8501 75.1481,225.8677 84.4389,226.0232 C 84.9672,226.0232 85.1225,226.1788 84.8734,226.4597 C 77.323,229.3519 70.5199,233.8324 68.5312,238.2498 C 68.3129,238.7466 68.4374,239.1515 68.9042,239.525 C 70.2085,240.302 71.6682,240.894 73.1909,241.3284 C 74.0306,241.4846 74.6513,241.3284 74.9928,240.7693 C 77.0438,238.0004 79.5601,235.8229 82.7923,234.6094 C 83.5991,234.6402 83.7545,234.8904 83.5991,235.2946 C 81.5803,237.5962 80.0269,240.1156 78.9087,242.8536 C 78.7533,243.4443 78.9702,243.8801 79.5293,244.1596 C 80.8029,244.7502 82.264,245.0935 83.9105,245.1244 C 84.7188,245.1559 85.3394,244.8441 85.6809,244.0671 C 86.9237,241.2044 88.4471,238.4978 90.4351,236.1024 C 91.0558,235.6982 91.1803,235.9476 91.0558,236.5074 C 89.0678,239.1824 87.3597,241.9204 86.303,244.9688 C 86.3954,245.467 86.6438,245.6225 86.986,245.8089 C 88.0111,246.4927 89.2231,246.8668 90.4967,247.0847 C 90.9634,247.0847 91.4294,246.8346 91.9256,246.1501 C 92.7961,243.4443 93.915,240.8309 95.1885,238.2498 C 95.5,237.7825 95.7784,237.8764 95.8106,238.4362 C 94.6602,241.3599 93.852,244.2227 93.4482,247.0224 C 93.3559,247.613 93.5735,248.0481 94.1011,248.329 C 95.6231,248.982 97.2703,249.4171 99.0106,249.6034 C 99.6313,249.6343 100.1281,249.3232 100.5011,248.6401 C 100.9049,245.2168 101.5885,241.8889 102.739,239.9601 L 102.739,191.2758 L 102.739,191.1525 L 102.739,181.1966 L 102.739,173.5451 L 102.739,173.5143 L 102.739,151.2092 L 102.739,151.1476 L 102.739,115.5909 L 102.739,115.5285 L 102.739,100.4406 L 102.739,100.3481 L 102.739,83.6432 L 102.739,83.6432 z "
   style="fill:#000000" />
   <path
   id="_75159472"
   class="fil5"
   d="M 102.894,89.5214 L 102.894,234.4534 C 100.6869,238.5598 99.258,242.8841 98.5436,247.3631 C 98.2329,247.8613 97.7984,248.0785 97.2085,248.0785 C 96.6171,247.986 96.0588,247.8298 95.6228,247.457 C 95.2498,247.1452 95.0945,246.6478 95.0945,246.0264 C 96.2449,240.5825 98.109,235.2942 101.4329,230.2847 C 101.4021,229.1651 100.9984,228.7616 99.9417,229.4146 C 95.2498,233.7073 92.0806,238.8401 89.968,244.5326 C 89.8127,244.8745 89.5342,245.124 89.1297,245.248 C 88.7575,245.248 88.4468,245.124 88.2292,244.8437 C 88.0416,244.5642 88.1354,244.2839 88.2292,243.9112 C 90.1549,237.8445 93.8839,232.3383 99.3518,227.3919 C 99.631,226.0551 99.321,225.7125 98.3882,226.4285 C 92.7958,231.1248 88.0738,236.5378 83.8165,242.2612 C 83.5065,242.6977 83.0705,242.9457 82.5121,243.0396 C 82.0146,243.0396 81.5493,242.9149 81.2386,242.5113 C 80.9894,242.1996 80.9272,241.7953 81.2386,241.1724 C 84.3133,234.9516 90.4656,228.6362 97.1455,223.2862 C 97.5807,222.2591 97.3316,222.0419 96.431,222.6325 C 91.7391,227.2363 85.3084,231.1248 80.0574,233.3955 C 77.0435,234.7029 75.2416,236.4131 73.5328,238.8709 C 73.129,239.3067 72.7561,239.4307 72.3516,239.2128 C 71.9478,239.0572 71.5126,238.9017 71.1718,238.5913 C 70.7673,238.3111 70.675,237.9384 70.8611,237.5341 C 74.341,232.2766 82.6982,228.8856 88.9744,225.215 C 91.9575,223.4733 94.0393,220.8901 96.7424,218.962 C 97.3008,217.6245 96.9286,217.375 95.6228,218.185 C 91.4599,221.7308 86.7373,223.6898 81.4863,224.0947 C 72.7246,225.1842 67.3189,228.5437 65.2064,234.2363 C 64.8334,234.7344 64.4289,234.9516 63.9636,235.0132 C 63.5276,234.9208 63.1861,234.6713 62.9385,234.2363 C 63,227.9208 71.1718,222.6633 86.4266,219.7404 C 94.2254,217.4073 98.6997,212.5541 98.9166,204.4653 C 99.1335,199.9232 99.0719,195.3509 98.7612,190.6855 C 98.6682,188.1969 96.9901,186.2057 93.9763,184.5564 C 90.2787,182.037 86.4888,179.891 82.5737,178.1485 C 80.8964,177.0282 79.4675,176.7487 78.317,177.7127 C 75.9253,179.2989 74.4334,181.4772 73.2214,183.8404 C 72.9107,184.2138 72.5069,184.4948 71.9786,184.6811 C 71.5756,184.6811 71.2642,184.6811 70.9227,184.3693 C 70.7673,183.9027 70.8303,183.4368 71.1088,182.9695 C 72.3516,180.3884 73.8127,178.1485 75.5838,176.2505 C 76.4844,175.5044 76.3598,175.0062 75.1793,174.7582 C 67.412,172.6423 59.5516,171.9263 51.5974,171.8023 C 51.1629,171.7714 50.7591,171.6775 50.3547,171.4912 C 50.0125,171.1185 50.0755,170.8067 50.51,170.5271 C 51.349,170.0906 52.2188,169.8118 53.1509,169.8118 C 67.3504,169.2828 81.1133,171.0869 94.7537,179.7964 C 96.9286,180.9174 98.2014,180.6063 98.6059,178.8947 L 98.1405,151.2088 C 98.2329,149.7151 97.4569,148.4708 95.8719,147.5067 C 90.807,143.5566 85.5883,139.7606 80.1189,136.1531 C 75.7391,132.6058 72.4454,133.8193 69.8975,137.9572 C 69.6184,138.3608 69.2146,138.6095 68.6548,138.7342 C 68.1572,138.6726 67.7843,138.5163 67.5673,138.2052 C 67.3504,137.9257 67.3189,137.8017 67.3189,137.3344 C 67.4743,135.25 69.1208,133.2904 72.4454,132.046 C 73.7497,131.5171 73.6574,131.0512 72.134,130.6147 C 68.4679,129.2464 64.678,128.3131 60.7944,127.7225 C 60.3899,127.4415 60.0484,127.0996 59.7692,126.6337 C 59.4578,125.9808 59.8,125.5443 60.7314,125.3579 C 68.6856,124.5802 85.4945,133.509 95.2498,142.2801 C 97.27,144.0225 98.1713,144.0225 98.0153,142.2184 L 97.8599,131.798 C 97.9229,128.7489 96.7424,126.0732 94.07,123.771 C 92.3612,121.7805 90.3102,120.1635 87.7939,119.0747 C 86.2712,118.1723 85.3391,118.2963 84.6247,119.1364 C 81.7354,121.4694 81.3309,123.3051 83.9102,124.4863 C 84.3448,124.7049 84.5001,124.9845 84.3763,125.2955 C 84.3133,125.669 84.0964,125.8553 83.8165,126.0417 C 78.6585,125.8245 76.9189,120.7849 82.729,117.3323 C 83.7241,116.8341 83.2881,116.5861 82.8844,115.9632 C 80.8026,112.2919 80.8348,109.5553 84.5309,108.435 C 85.5253,108.3426 85.8675,108.6536 85.556,109.3367 C 83.8795,110.7057 83.5065,112.0131 84.5309,114.3462 C 87.9492,117.2075 92.4536,118.9808 95.8719,122.0299 C 96.8033,122.8693 97.1147,122.7761 96.8978,121.6558 C 97.1455,117.7673 96.3372,114.3154 94.5661,111.2032 C 90.9932,104.9207 87.0794,98.6985 81.3939,93.3793 C 74.4026,87.3441 68.0026,84.6376 63.3723,91.171 L 62.3471,91.8863 C 61.5403,91.9487 61.1366,91.8232 61.1044,91.4813 C 61.4151,89.1174 62.3471,87.562 65.0202,86.0998 C 65.5793,86.0059 66.1384,85.3214 66.6968,85.2598 C 67.7535,84.9487 67.5673,84.6692 66.0762,84.3889 C 58.4012,85.3537 51.8774,83.7044 45.8503,80.8115 C 45.3836,80.5313 45.3836,80.127 45.2905,79.6296 C 45.1967,79.1314 45.4774,78.8827 46.161,78.9142 C 49.2057,80.2202 52.6226,81.5269 55.9471,81.5269 C 58.9918,81.496 62.1925,82.025 64.8957,82.2114 C 79.2806,83.1446 89.6266,93.3485 97.3631,108.84 C 98.4512,111.1107 98.8858,110.9867 98.7297,108.435 C 99.7556,96.8313 97.8907,79.3486 87.4209,68.3677 C 86.7373,68.0258 85.929,67.6832 85.8059,67.0618 C 85.7429,65.6928 86.7988,65.4433 88.5391,66.3773 C 94.8461,73.097 99.7248,80.7485 102.894,89.521 L 102.894,89.5214 z "
   style="fill:#0a9145" />
   <path
   id="_75159400"
   class="fil5"
   d="M 86.8936,64.4797 C 85.837,64.4496 85.0595,64.8223 84.5004,65.476 C 84.0029,66.6572 84.1904,67.4356 85.091,67.8707 C 88.4471,70.1414 89.5954,73.4084 89.3784,77.2969 C 89.1615,77.7943 88.9124,77.8875 88.6024,77.608 L 87.2967,76.6124 C 86.8621,76.3945 86.613,76.5185 86.5206,76.955 C 86.3653,78.6967 86.0847,80.3761 85.6193,82.0878 C 85.2149,82.4605 84.8419,82.5544 84.5312,82.0254 C 83.01,80.6564 82.0149,78.9763 81.425,76.955 C 81.3004,76.4568 80.8351,76.239 80.5552,76.674 C 80.3691,77.3585 79.9331,77.8567 79.4356,78.2918 C 79.001,78.572 78.6903,78.4473 78.5035,77.9183 C 77.9759,75.4928 78.2558,72.9411 79.1571,70.2668 C 79.3432,69.6755 80.3691,68.7724 81.0212,67.1546 C 80.8029,66.4708 80.4299,66.2221 79.9016,66.7203 C 77.8205,68.8663 76.2986,71.5104 75.3658,74.6219 C 74.4645,75.9279 73.3162,76.9858 71.9181,77.5141 C 71.6374,77.6703 71.3897,77.5764 71.2344,77.2338 L 71.2344,76.3321 C 71.2645,75.8971 71.0783,75.5236 70.4885,75.6792 C 69.3072,75.8971 68.0029,76.1451 66.7916,75.9279 C 66.2003,75.9279 66.1387,75.5552 66.4494,75.1186 C 67.0085,73.9991 67.9714,73.035 68.9042,72.1011 C 69.3695,71.5721 69.2772,71.3241 68.6551,71.3857 L 66.9778,71.2302 C 66.108,71.1685 65.8596,70.8883 66.511,70.3593 C 68.562,68.6799 71.3582,67.6528 74.6198,66.9683 C 75.4903,66.5332 75.5841,65.8494 74.6828,64.9162 C 74.2168,64.1378 73.7815,63.8891 73.347,64.3241 C 70.6753,66.6887 67.257,65.8179 63.6224,64.0761 C 63.1249,63.7335 63.1864,63.578 63.3418,63.2053 C 63.5594,62.6763 64.3054,62.4584 65.3935,62.2398 C 66.2941,61.8663 66.3864,61.4936 65.362,61.0585 C 63.5909,60.7475 62.3167,59.9067 61.7268,58.3836 C 61.323,57.9169 61.3538,57.5435 62.0067,57.2625 C 63.3418,56.8898 65.0205,56.6726 66.9778,56.578 C 67.5984,56.4547 67.7538,56.267 67.5984,55.7702 C 67.4431,55.0857 67.1023,54.432 66.4802,53.8414 C 66.1387,53.1569 66.4187,52.939 67.1331,53.0322 C 69.774,53.2816 72.2288,54.3704 74.2476,56.7336 C 74.8697,57.4804 75.2419,58.5699 76.2986,59.0989 C 78.0381,59.8142 78.7841,59.3777 78.3481,57.4496 C 77.9759,56.9837 77.5721,56.6096 77.0746,56.2992 C 75.2734,56.6096 74.0922,55.3968 73.7815,52.2552 C 73.6269,51.4768 73.8753,51.1664 74.559,51.2897 C 75.6457,51.3528 76.5162,51.7262 77.3552,52.2552 C 78.0066,52.5032 78.5665,52.0997 78.535,51.3528 C 78.225,49.7974 78.2558,48.3667 79.0318,46.9669 C 79.2809,46.0645 79.7777,46.1569 80.5244,47.2149 L 82.2325,50.0769 C 82.4186,50.6998 82.8539,50.8238 83.2884,50.2633 C 83.6306,49.4555 84.1904,48.7086 84.8111,47.9611 C 85.0595,47.5267 85.3394,47.5267 85.6809,47.9611 C 86.303,48.5839 86.7068,49.548 86.7068,51.1664 C 86.7991,53.9969 85.5886,56.7336 83.6929,59.4401 C 83.0708,60.5912 84.3136,61.4628 85.4948,60.5296 C 87.0175,58.4144 88.7578,56.4856 90.8696,54.8055 C 91.491,54.2457 91.8332,54.3704 92.0193,54.8055 L 91.8948,56.2992 C 91.8332,56.6411 92.0501,56.7651 92.5169,56.7035 C 93.2005,56.2992 93.9458,56.1121 94.8163,56.1437 C 95.5608,56.0806 95.7784,56.1745 95.5923,56.6411 C 95.0332,57.8854 94.318,59.0358 93.479,60.0938 C 93.1375,60.5296 93.1068,60.8399 93.852,61.151 C 94.3803,60.903 94.9401,60.8722 95.4685,61.0894 C 95.9653,61.2449 96.0276,61.5553 95.6553,62.0219 C 93.3237,64.1378 90.3105,64.7915 86.8936,64.4797 L 86.8936,64.4797 z "
   style="fill:#0a9145" />
   <path
   id="_75026296"
   class="fil0"
   d="M 84.7495,77.608 C 84.7495,76.3945 84.5004,74.9946 83.8798,73.564 C 83.5376,72.7239 83.6929,71.4488 83.2884,70.2668 C 82.8231,68.3681 82.7923,66.6572 83.5068,65.3204 C 83.7244,64.7606 84.1582,64.418 84.8419,64.3241 L 85.0595,63.7027 C 83.1023,62.7379 81.7672,61.2141 81.5173,58.2897 L 81.1451,52.5971 C 80.8967,52.3168 80.6475,52.286 80.4299,52.5663 C 79.9016,55.7394 80.2746,58.7247 80.7105,61.8355 C 80.8659,62.6132 80.7721,62.6132 80.0269,62.3028 C 75.5519,61.4004 71.2029,60.2493 66.947,58.9742 C 66.4802,59.0358 66.3864,59.2537 66.6048,59.6587 C 71.7312,61.0585 76.7947,62.6447 81.7357,64.4496 C 82.2325,64.5105 82.3879,64.6976 82.2325,65.0395 C 80.213,67.9954 81.9841,71.1994 83.1338,74.0607 C 83.8483,75.2742 83.786,76.5493 84.1274,77.7943 C 84.5312,78.2918 84.7495,78.2294 84.7495,77.608 L 84.7495,77.608 z "
   style="fill:#000000" />
   <path
   id="_75349400"
   class="fil5"
   d="M 43.9858,78.3857 C 44.4525,77.4524 45.1047,77.0783 46.0675,77.4524 C 48.4285,79.349 51.0694,80.2521 53.9902,80.1274 C 54.86,79.9102 55.1714,79.4121 54.8292,78.5412 L 53.4927,76.2081 C 53.245,75.6161 53.4619,75.4297 54.1148,75.5552 C 55.3576,75.7716 56.3204,75.5236 56.8795,74.6527 C 57.5632,73.6564 57.5632,72.8164 56.8172,72.1333 C 56.0104,71.7276 55.2022,71.6043 54.4248,71.7276 C 53.8041,71.8222 53.648,71.6352 53.9902,71.1377 C 54.5801,70.4833 54.9538,69.6755 55.0469,68.7416 C 55.2638,68.0879 54.86,67.7467 53.5557,67.8091 C 50.5411,67.8392 48.2109,69.1781 46.8128,72.1641 C 45.8191,72.9411 45.0417,72.8795 44.5449,71.8222 C 44.2027,70.3908 44.2349,69.0526 45.2593,68.1201 C 49.9204,65.1025 50.9456,61.8054 50.9456,58.4452 C 51.0694,57.7915 50.9456,57.4804 50.4487,57.636 L 49.3613,58.3513 C 48.7084,58.6624 48.4915,58.5699 48.5223,57.9779 L 48.3362,54.9918 C 48.1493,54.4951 47.6826,54.4951 46.9681,54.6807 C 45.4454,54.9918 44.794,56.0182 44.5764,57.4496 C 44.1103,58.0094 43.6436,57.9779 43.1782,57.5435 L 42.37,56.2361 C 41.6863,55.7072 41.1895,56.0182 41.0657,56.7336 C 40.6612,59.6895 40.4436,62.6447 40.5374,65.6623 C 40.4436,66.4085 40.009,66.8436 39.3569,67.0622 C 38.4248,67.1862 37.7103,66.8127 37.2744,65.8802 C 35.9392,63.0182 35.131,59.5956 35.0694,55.4592 C 34.8196,54.6807 34.3536,54.4951 33.6713,54.9918 C 33.143,55.5839 32.7385,56.267 32.4901,57.0454 C 32.0864,57.5743 31.4643,57.5113 30.7806,56.859 C 29.9108,55.3653 28.8549,54.1518 27.5806,53.1877 C 26.9914,52.8451 26.5247,52.9705 26.214,53.4995 L 25.9348,59.0666 C 25.8102,59.6279 25.438,59.7827 24.8159,59.5648 C 24.0083,59.0989 23.1693,58.7247 22.2372,58.476 C 21.6151,58.5699 21.3674,58.8803 21.4598,59.4401 C 23.7592,64.6359 26.9592,67.3725 30.5329,69.115 C 31.5895,69.7379 31.6203,70.7335 30.9674,71.9147 C 30.0976,72.4121 29.1348,72.3505 28.1089,71.7592 C 26.5555,70.3278 24.8781,69.3014 23.1078,68.6491 C 22.3303,68.399 21.9573,68.7107 22.0203,69.5508 L 23.4492,71.8222 C 24.0391,72.382 23.9776,72.8795 23.2309,73.3145 C 21.2121,73.3776 19.7517,73.8435 18.8189,74.5588 C 18.1982,74.9323 18.3221,75.2434 18.9435,75.6476 C 20.4662,77.0475 22.2687,77.9183 24.3183,78.2294 C 25.2203,78.4473 25.468,78.8831 25.0335,79.5361 C 24.5982,80.1274 24.3183,80.6256 24.226,81.0915 C 24.0083,81.5588 24.1637,81.8068 24.7228,81.8068 C 28.1397,82.3666 31.1536,81.4964 33.516,78.2918 C 34.5089,77.6388 35.5348,77.3585 36.6537,77.3894 C 37.555,77.5764 37.865,78.1047 37.5858,78.9447 C 36.0015,81.4649 32.5209,83.2375 30.2215,85.1046 C 29.8492,85.8508 30.0661,86.2873 30.8751,86.4106 C 31.6511,86.7532 32.4901,86.7847 33.3606,86.6292 C 34.1051,86.6909 34.4166,86.9718 34.292,87.4685 L 35.0064,91.5756 C 35.2248,92.1354 35.6593,92.2601 36.3122,91.9792 C 37.8027,91.4817 39.0455,90.5793 40.1021,89.4289 C 40.6297,88.9931 40.9103,88.9623 40.9411,89.3974 C 41.0027,90.2682 41.2833,90.9219 41.8417,91.3885 C 42.7738,91.8544 43.6758,91.8544 44.4525,91.1714 C 45.6638,88.6197 45.9115,85.4164 44.1719,80.9359 C 43.9242,80.1891 43.8927,79.3182 43.9858,78.3857 L 43.9858,78.3857 z "
   style="fill:#0a9145" />
   <path
   id="_75349472"
   class="fil5"
   d="M 66.108,97.5793 C 64.4922,97.5793 63.1864,96.2102 63.1864,94.4986 C 63.1864,92.8199 64.6783,91.8544 66.2941,91.8544 C 67.9091,91.8544 69.4633,92.9755 69.4633,94.6857 C 69.4633,96.3658 67.723,97.5793 66.108,97.5793 L 66.108,97.5793 z "
   style="fill:#0a9145" />
   <path
   id="_75349544"
   class="fil5"
   d="M 58.2776,99.0099 C 56.5065,99.0099 56.072,97.175 56.072,95.5257 C 56.072,93.908 57.5317,92.5705 59.3028,92.5705 C 61.0739,92.5705 62.5028,93.908 62.5028,95.5257 C 62.5028,97.175 60.0487,99.0099 58.2776,99.0099 L 58.2776,99.0099 z "
   style="fill:#0a9145" />
   <path
   id="_75349616"
   class="fil5"
   d="M 70.3947,103.397 C 68.872,103.397 67.1331,101.9033 67.1331,100.3486 C 67.1331,98.8241 68.9658,97.9833 70.4885,97.9833 C 72.0104,97.9833 73.1608,99.0721 73.1608,100.5974 C 73.1608,102.1527 71.9181,103.397 70.3947,103.397 L 70.3947,103.397 z "
   style="fill:#0a9145" />
   <path
   id="_75349688"
   class="fil5"
   d="M 62.9073,103.8 C 61.26,103.8 59.9249,102.5872 59.9249,101.1257 C 59.9249,99.6327 61.26,98.45 62.9073,98.45 C 64.523,98.45 66.3557,99.5696 66.3557,101.0318 C 66.3557,102.5256 64.523,103.8 62.9073,103.8 L 62.9073,103.8 z "
   style="fill:#0a9145" />
   <path
   id="_75349760"
   class="fil5"
   d="M 71.8558,110.644 C 70.55,110.644 69.4633,109.1818 69.4633,107.4092 C 69.4633,105.6359 70.6123,104.7959 71.9481,104.7959 C 73.2847,104.7959 74.5275,106.2266 74.5275,107.9998 C 74.5275,109.7731 73.1909,110.644 71.8558,110.644 L 71.8558,110.644 z "
   style="fill:#0a9145" />
   <path
   id="_75349832"
   class="fil5"
   d="M 66.574,110.893 C 65.2682,110.893 63.3726,108.9334 63.3726,107.2855 C 63.3726,105.6047 64.3369,104.2371 65.6412,104.2371 C 66.947,104.2371 68.7489,105.4491 68.7489,107.0991 C 68.7489,108.7778 67.8791,110.893 66.574,110.893 L 66.574,110.893 z "
   style="fill:#0a9145" />
   <path
   id="_75349904"
   class="fil5"
   d="M 70.986,116.305 C 69.5249,116.305 68.2205,114.9991 68.2205,113.6308 C 68.2205,112.2309 69.5249,111.2977 70.986,111.2977 C 72.4765,111.2977 74.4337,112.5728 74.4337,113.9727 C 74.4337,115.3417 72.4765,116.305 70.986,116.305 z "
   style="fill:#0a9145" />
   <path
   id="_75349976"
   class="fil5"
   d="M 70.5808,121.532 C 69.1827,121.532 68.0029,120.6303 68.0029,119.5408 C 68.0029,118.4212 69.2457,117.2708 70.6753,117.2708 C 72.1042,117.2708 73.1608,118.4212 73.1608,119.5408 C 73.1608,120.6303 72.0104,121.532 70.5808,121.532 z "
   style="fill:#0a9145" />
   <path
   id="_75350048"
   class="fil5"
   d="M 64.7399,118.141 C 63.0941,118.141 61.3538,116.9597 61.3538,115.3097 C 61.3538,113.6612 63.6224,111.8886 65.2375,111.8886 C 66.8525,111.8886 67.257,113.6612 67.257,115.3097 C 67.257,116.9597 66.3557,118.141 64.7399,118.141 z "
   style="fill:#0a9145" />
   <path
   id="_75350120"
   class="fil5"
   d="M 60.2349,112.542 C 58.6821,112.542 56.848,111.6704 56.848,110.0534 C 56.848,108.4349 58.5883,106.5376 60.1425,106.5376 C 61.6645,106.5376 63.0003,107.9998 63.0003,109.6169 C 63.0003,111.2346 61.7575,112.542 60.2349,112.542 z "
   style="fill:#0a9145" />
   <path
   id="_75350192"
   class="fil5"
   d="M 56.1028,106.601 C 54.5493,106.601 53.2758,105.3567 53.2758,103.8321 C 53.2758,102.3083 54.9846,100.6898 56.5373,100.6898 C 58.0908,100.6898 59.3658,102.1219 59.3658,103.645 C 59.3658,105.2004 57.657,106.601 56.1028,106.601 z "
   style="fill:#0a9145" />
   <path
   id="_75350264"
   class="fil5"
   d="M 53.8349,100.441 C 52.6537,100.8144 50.2311,99.6948 49.7028,97.9531 C 49.1745,96.2415 50.6041,94.3757 51.7839,94.0023 C 52.9644,93.6281 54.4248,94.9047 54.9846,96.6457 C 55.5129,98.3566 54.9846,100.0683 53.8349,100.441 L 53.8349,100.441 z "
   style="fill:#0a9145" />
   <path
   id="_75350336"
   class="fil0"
   d="M 40.9103,76.1451 C 40.9411,75.6161 41.3757,75.305 42.3392,75.2742 C 43.8619,75.1186 45.3839,75.1817 46.8758,75.5236 C 49.0506,75.7107 51.4739,75.4297 53.3695,74.6836 C 54.084,74.4033 54.9223,74.4033 55.6368,74.4341 C 55.9474,74.2793 56.0412,74.1238 55.8859,73.9374 C 54.7677,73.7503 53.8349,73.7188 52.9959,73.9682 C 52.033,74.2162 51.1009,74.1546 50.045,74.4033 C 47.621,74.4972 45.0732,73.9682 42.6499,73.3145 C 42.1839,73.0665 41.967,72.6931 41.9355,72.1641 C 42.2777,69.9859 43.0229,67.7152 44.421,65.3513 C 45.5392,63.1429 46.1613,60.9955 46.2229,59.0358 C 46.006,58.6624 45.7876,58.6939 45.5392,59.0666 C 45.2908,61.0585 44.3902,63.1737 42.9921,65.3821 C 41.8417,67.4048 41.0657,69.239 40.5689,71.0123 C 40.4436,71.3549 40.2267,71.4488 39.9468,71.2302 C 38.4556,70.297 37.0882,69.0835 35.8147,67.5603 C 34.1366,65.2574 32.2732,63.0798 30.2838,60.9646 C 29.943,61.0894 29.8492,61.3065 30.0046,61.6492 C 31.9002,65.6932 34.7273,69.1465 38.1757,72.1641 C 38.5801,72.506 38.5171,72.7547 37.9888,72.9411 C 35.2556,73.035 33.8267,73.5009 31.4342,74.4972 C 29.1348,74.7144 25.6857,74.8699 23.2939,74.7452 C 22.7656,74.9323 22.5794,75.2125 22.7971,75.5552 C 24.9096,76.3006 27.0838,76.4568 29.3216,76.0526 C 32.2102,75.3681 35.2248,75.0262 38.3618,75.1502 C 38.7348,75.1186 39.1085,75.0563 39.4492,74.9946 C 39.6676,75.0878 39.6983,75.0563 39.7914,75.2125 C 39.2946,75.7107 39.5738,77.203 40.1637,79.9102 C 40.1637,81.7143 39.7914,83.2066 39.1392,84.514 C 38.7978,85.6336 38.0511,86.6607 37.0882,87.7796 L 36.8083,88.4641 C 36.7775,88.9315 36.9329,89.0239 37.3059,88.7759 C 39.1707,86.9087 40.6612,84.5757 41.2518,81.0298 C 41.4072,79.6916 41.2518,78.2918 40.755,76.8296 L 40.9103,76.1451 z "
   style="fill:#000000" />
   <path
   id="_75350408"
   class="fil5"
   d="M 56.4758,92.2601 C 55.4821,91.3577 54.5493,90.393 53.6795,89.335 C 53.5242,89.1486 53.5557,89.087 53.648,88.9931 C 53.7733,88.806 53.8964,88.6197 54.0518,88.4641 C 54.1763,88.3394 54.3016,88.3394 54.457,88.4333 C 55.5129,89.3974 56.4758,90.4546 57.3148,91.5756 C 57.4086,91.7312 57.4701,91.7928 57.3456,91.8544 L 56.6311,92.3526 C 56.5373,92.3834 56.5065,92.3218 56.4758,92.2601 L 56.4758,92.2601 z "
   style="fill:#0a9145" />
   <path
   id="_75350480"
   class="fil5"
   d="M 56.6003,126.789 C 57.8431,125.8249 58.9298,124.6422 59.8003,123.2116 C 59.9557,122.621 59.7065,122.1536 59.0236,121.8117 C 55.1714,120.3502 52.5305,121.1272 51.6607,125.1404 C 51.1009,126.3231 50.3235,127.1309 49.3613,127.5982 C 48.0556,127.9709 46.2845,127.1939 47.0934,125.9812 C 52.1883,121.4383 55.1084,116.6173 53.5242,111.2351 C 53.4003,110.5198 52.9644,110.3327 52.2191,110.6753 L 49.9505,111.9813 C 49.3921,112.3239 49.0506,112.1691 48.8638,111.6401 C 48.5839,109.9908 47.9632,108.4039 46.9989,106.8808 C 46.5651,106.4442 46.1291,106.3826 45.6953,106.8485 C 44.8556,108.1251 44.3272,109.5249 44.2965,111.1426 C 44.1719,111.7949 43.8927,111.8888 43.4267,111.4537 C 42.9291,110.2711 42.0901,109.4618 40.7858,109.0884 C 40.2882,108.9644 39.9153,109.2755 39.6676,109.8661 C 38.4864,113.227 39.2316,115.2175 41.158,116.3679 C 42.2455,117.4258 42.2147,118.2042 41.1272,118.7017 C 39.6983,119.1059 38.6109,118.5153 38.0203,116.6481 C 37.3996,111.9813 36.8405,106.8485 34.2612,102.8045 C 33.7945,102.1831 33.3606,102.1831 32.9554,102.8045 L 32.7385,107.7824 C 32.6762,108.2175 32.2732,108.467 31.9625,108.062 C 30.1599,105.7913 28.1397,103.6761 25.841,101.6548 C 25.3127,101.3122 25.0335,101.343 25.0335,101.7473 C 24.1329,105.4486 24.4737,109.0268 25.438,112.5425 C 25.438,113.227 25.1265,113.5689 24.5059,113.5997 L 20.6838,113.4442 C 20.1247,113.475 20.0309,113.7868 20.3724,114.2842 C 23.6669,118.2042 27.5806,120.6305 32.4901,120.6305 C 33.6083,121.3458 34.1051,121.9981 33.6713,122.5901 C 32.9554,123.461 32.0864,123.6789 30.9674,122.932 C 27.892,121.9056 24.8781,122.9636 22.175,124.9849 C 21.7404,125.2035 21.7096,125.4522 22.0819,125.7633 C 22.8894,126.4786 23.8222,127.0076 24.7844,127.4419 C 25.2511,127.7229 25.3757,128.2519 24.7844,128.3443 C 23.0448,128.3766 21.802,130.5226 21.0875,133.9136 C 21.2429,134.6591 21.6151,134.8153 22.175,134.5666 C 23.5115,134.1616 25.002,133.1668 26.6492,131.6422 C 26.9914,131.3935 27.2391,131.4558 27.3945,131.7669 C 27.1468,133.5094 27.4567,135.0017 28.0788,136.3399 C 28.4203,136.8689 28.8549,136.9921 29.4455,136.7441 C 31.4958,135.0956 33.3291,133.1983 35.0372,131.2071 C 35.4417,130.7405 36.2492,131.0824 36.8713,131.5483 C 37.3059,132.0773 37.7103,132.7618 37.2744,133.4771 C 34.9141,135.717 33.919,138.3612 34.4166,141.4418 C 34.4166,141.9386 34.6335,142.2188 35.1002,142.3435 L 36.6222,142.3751 C 37.0267,142.2805 37.2443,142.4052 37.3059,142.7478 C 37.4612,144.7382 38.1757,146.4807 39.2316,148.0361 C 39.6983,148.5651 40.0405,148.5034 40.319,147.9114 C 41.5618,146.2936 42.5261,144.615 43.2706,142.904 C 43.5512,142.5915 43.7989,142.6231 44.0473,143.028 C 44.421,144.1476 45.0109,145.0809 46.0983,145.5167 C 46.6574,145.5482 47.0619,145.4228 47.3096,145.0809 C 48.8946,140.0728 48.7084,136.1535 46.8436,135.064 C 44.9186,133.9753 44.4525,132.9173 45.4454,131.8286 C 46.4713,131.3619 47.4349,132.2328 48.3362,133.9753 C 49.7028,136.3399 51.9084,137.615 54.7985,137.9884 C 55.8229,137.9261 56.4758,137.3348 56.5373,135.9349 L 55.9167,133.7266 C 55.7921,133.2908 55.9167,132.9804 56.2589,132.8249 L 61.9745,131.4558 C 62.2852,131.1132 62.2243,130.6781 61.7575,130.1807 C 60.4532,128.7493 58.806,127.8784 56.8172,127.5674 C 56.072,127.4735 55.9782,127.1939 56.6003,126.789 L 56.6003,126.789 z "
   style="fill:#0a9145" />
   <path
   id="_75350552"
   class="fil5"
   d="M 74.5275,146.387 C 73.0986,146.387 71.8866,145.2051 71.8866,143.7429 C 71.8866,142.28 72.911,140.8493 74.3721,140.8493 C 75.8318,140.8493 77.7582,142.28 77.7582,143.7429 C 77.7582,145.2051 75.9879,146.387 74.5275,146.387 z "
   style="fill:#0a9145" />
   <path
   id="_75350624"
   class="fil5"
   d="M 80.6475,149.715 C 79.374,149.715 77.6029,148.222 77.6029,146.8852 C 77.6029,145.5477 79.374,143.9608 80.6475,143.9608 C 81.9225,143.9608 82.9477,145.0488 82.9477,146.387 C 82.9477,147.693 81.9225,149.715 80.6475,149.715 z "
   style="fill:#0a9145" />
   <path
   id="_75350696"
   class="fil5"
   d="M 83.3206,156.964 C 81.8903,156.964 79.5909,155.3778 79.5909,153.7594 C 79.5909,152.1416 81.2074,150.7418 82.637,150.7418 C 84.0967,150.7418 85.6809,152.4842 85.6809,154.102 C 85.6809,155.7197 84.7495,156.964 83.3206,156.964 z "
   style="fill:#0a9145" />
   <path
   id="_75350768"
   class="fil5"
   d="M 76.1432,154.258 C 74.6198,154.258 72.3841,153.2001 72.3841,151.6762 C 72.3841,150.1517 74.4645,148.0673 75.9879,148.0673 C 77.4783,148.0673 78.9087,149.9961 78.9087,151.4899 C 78.9087,153.0137 77.6659,154.258 76.1432,154.258 z "
   style="fill:#0a9145" />
   <path
   id="_75350840"
   class="fil5"
   d="M 69.2457,152.018 C 67.7538,152.018 65.7042,150.12 65.7042,148.6263 C 65.7042,147.1641 67.9091,146.0452 69.401,146.0452 C 70.8922,146.0452 72.1343,147.2265 72.1343,148.7202 C 72.1343,150.2132 70.7361,152.018 69.2457,152.018 L 69.2457,152.018 z "
   style="fill:#0a9145" />
   <path
   id="_75350912"
   class="fil5"
   d="M 68.2821,145.175 C 66.8525,145.175 65.1759,144.2725 65.1759,143.0282 C 65.1759,141.8148 67.2885,140.1977 68.7174,140.1977 C 70.147,140.1977 71.296,141.2234 71.296,142.4362 C 71.296,143.6812 69.711,145.175 68.2821,145.175 L 68.2821,145.175 z "
   style="fill:#0a9145" />
   <path
   id="_75350984"
   class="fil5"
   d="M 61.9437,149.25 C 60.6393,149.25 59.5519,147.7878 59.5519,145.983 C 59.5519,144.1788 60.6393,142.7174 61.9437,142.7174 C 63.2802,142.7174 65.1129,144.2727 65.1129,146.0768 C 65.1129,147.881 63.2802,149.25 61.9437,149.25 L 61.9437,149.25 z "
   style="fill:#0a9145" />
   <path
   id="_75351056"
   class="fil5"
   d="M 65.0821,157.617 C 63.311,157.617 61.7883,155.8129 61.7883,154.2575 C 61.7883,152.7029 63.2172,151.4578 64.9883,151.4578 C 66.7916,151.4578 68.4067,152.7029 68.4067,154.2575 C 68.4067,155.8129 66.8525,157.617 65.0821,157.617 z "
   style="fill:#0a9145" />
   <path
   id="_75351128"
   class="fil5"
   d="M 83.5376,164.803 C 82.0779,164.803 81.7357,163.6841 81.7357,162.2212 C 81.7357,160.7282 81.828,159.1112 83.2884,159.1112 C 84.7495,159.1112 86.2092,160.6665 86.2092,162.1288 C 86.2092,163.5902 84.9972,164.803 83.5376,164.803 z "
   style="fill:#0a9145" />
   <path
   id="_75351200"
   class="fil5"
   d="M 78.5665,161.443 C 77.013,161.443 75.7702,160.1371 75.7702,158.5509 C 75.7702,156.9639 75.8318,154.9111 77.386,154.9111 C 78.9087,154.9111 81.3312,156.9639 81.3312,158.5509 C 81.3312,160.1371 80.0884,161.443 78.5665,161.443 L 78.5665,161.443 z "
   style="fill:#0a9145" />
   <path
   id="_75351272"
   class="fil5"
   d="M 79.1256,168.909 C 77.9759,168.909 77.0438,166.9801 77.0438,165.6742 C 77.0438,164.336 77.5413,162.8437 78.6903,162.8437 C 79.8407,162.8437 81.5496,164.4299 81.5496,165.7681 C 81.5496,167.074 80.2746,168.909 79.1256,168.909 L 79.1256,168.909 z "
   style="fill:#0a9145" />
   <path
   id="_75351344"
   class="fil5"
   d="M 73.9369,166.173 C 72.2595,166.173 70.8922,165.0842 70.8922,163.746 C 70.8922,162.44 71.5759,160.7592 73.2532,160.7592 C 74.9312,160.7592 76.3909,162.3461 76.3909,163.6843 C 76.3909,164.9903 75.6149,166.173 73.9369,166.173 z "
   style="fill:#0a9145" />
   <path
   id="_75411208"
   class="fil5"
   d="M 68.6859,159.609 C 67.7846,158.7991 68.2205,156.8086 69.3072,155.5958 C 70.3947,154.3823 72.1042,153.4807 73.0048,154.2885 C 73.8753,155.0977 74.8374,157.8357 73.75,159.0478 C 72.6626,160.2613 69.5879,160.4168 68.6859,159.609 z "
   style="fill:#0a9145" />
   <path
   id="_75411280"
   class="fil5"
   d="M 74.6828,192.552 C 72.8494,192.552 71.3582,190.9643 71.3582,189.0362 C 71.3582,187.0759 72.3519,185.5212 74.186,185.5212 C 76.0179,185.5212 78.0381,187.0759 78.0381,189.0362 C 78.0381,190.9643 76.5462,192.552 74.6828,192.552 L 74.6828,192.552 z "
   style="fill:#0a9145" />
   <path
   id="_75411352"
   class="fil5"
   d="M 74.9312,201.106 C 73.2217,201.106 71.7928,199.5197 71.7928,197.5902 C 71.7928,195.6621 72.1965,193.7641 73.9369,193.7641 C 75.6457,193.7641 78.0696,195.6621 78.0696,197.5902 C 78.0696,199.5197 76.6715,201.106 74.9312,201.106 L 74.9312,201.106 z "
   style="fill:#0a9145" />
   <path
   id="_75411424"
   class="fil5"
   d="M 67.1947,200.018 C 65.3935,200.018 63.9331,198.4311 63.9331,196.4714 C 63.9331,194.5118 65.4859,193.8581 67.257,193.8581 C 69.0595,193.8581 70.4255,194.5118 70.4255,196.4714 C 70.4255,198.4311 68.9658,200.018 67.1947,200.018 L 67.1947,200.018 z "
   style="fill:#0a9145" />
   <path
   id="_75411496"
   class="fil5"
   d="M 80.2746,197.031 C 78.8764,197.031 77.3552,195.4448 77.3552,193.6407 C 77.3552,191.8044 78.8764,190.3737 80.2746,190.3737 C 81.6419,190.3737 82.7923,191.8674 82.7923,193.7024 C 82.7923,195.5373 81.6419,197.031 80.2746,197.031 z "
   style="fill:#0a9145" />
   <path
   id="_75411568"
   class="fil5"
   d="M 69.338,206.208 C 67.5984,206.208 66.511,204.9945 66.511,203.4076 C 66.511,201.8522 68.872,200.2044 70.6123,200.2044 C 72.3841,200.2044 72.5387,201.7597 72.5387,203.3467 C 72.5387,204.9329 71.1091,206.208 69.338,206.208 z "
   style="fill:#0a9145" />
   <path
   id="_75411640"
   class="fil5"
   d="M 69.1519,211.808 C 67.5061,211.808 66.1695,210.7185 66.1695,209.3817 C 66.1695,208.0743 67.5061,206.9856 69.1519,206.9856 C 70.8306,206.9856 72.1658,208.0743 72.1658,209.3817 C 72.1658,210.7185 70.8306,211.808 69.1519,211.808 z "
   style="fill:#0a9145" />
   <path
   id="_75411712"
   class="fil5"
   d="M 65.9211,217.563 C 64.3677,217.563 64.2116,215.9144 64.2116,214.5139 C 64.2116,213.1456 65.4859,211.9952 67.0085,211.9952 C 68.562,211.9952 69.8356,213.1456 69.8356,214.5139 C 69.8356,215.9144 67.4746,217.563 65.9211,217.563 L 65.9211,217.563 z "
   style="fill:#0a9145" />
   <path
   id="_75411784"
   class="fil5"
   d="M 67.9399,192.801 C 66.574,192.801 65.362,191.5868 65.362,189.8142 C 65.362,188.0101 66.4802,186.5472 67.8476,186.5472 C 69.2149,186.5472 70.3331,188.0101 70.3331,189.8142 C 70.3331,191.5868 69.3072,192.801 67.9399,192.801 z "
   style="fill:#0a9145" />
   <path
   id="_75411856"
   class="fil5"
   d="M 63.7456,206.177 C 62.6273,206.177 60.9815,204.5908 60.9815,202.8483 C 60.9815,201.1367 62.6273,199.8924 63.7456,199.8924 C 64.8652,199.8924 65.7658,201.2922 65.7658,203.0347 C 65.7658,204.7463 64.8652,206.177 63.7456,206.177 L 63.7456,206.177 z "
   style="fill:#0a9145" />
   <path
   id="_75411928"
   class="fil5"
   d="M 63.7456,206.208 C 63.1864,206.208 62.6581,205.8353 62.2852,205.2748 C 61.9129,204.6834 61.696,203.9065 61.696,203.0349 C 61.696,202.164 61.9129,201.3548 62.2852,200.7634 C 62.6581,200.2044 63.1864,199.8309 63.7456,199.8309 C 64.3054,199.8309 64.8337,200.2044 65.2067,200.7634 C 65.5796,201.3548 65.7966,202.164 65.7966,203.0349 C 65.7966,203.9065 65.5796,204.6834 65.2067,205.2748 C 64.8337,205.8353 64.3054,206.208 63.7456,206.208 L 63.7456,206.208 z M 63.7456,206.1141 C 64.2739,206.1141 64.7707,205.7729 65.1437,205.2124 C 65.4859,204.6519 64.8652,203.8441 64.8652,202.9732 C 64.8652,202.1332 65.4859,201.3863 65.1437,200.8258 C 64.7707,200.266 64.2739,199.9234 63.7456,199.9234 C 63.2172,199.9234 62.7211,200.266 62.3796,200.8258 C 62.0067,201.3863 61.7883,202.164 61.7883,203.0349 C 61.7883,203.8749 62.0067,204.6519 62.3796,205.2124 C 62.7211,205.7729 63.2172,206.1141 63.7456,206.1141 L 63.7456,206.1141 z "
   style="fill:#0a9145" />
   <path
   id="_75412000"
   class="fil5"
   d="M 76.2678,208.572 C 74.7143,208.572 72.8802,207.7011 72.8802,206.2081 C 72.8802,204.7144 73.8753,202.1641 75.3973,202.1641 C 76.95,202.1641 79.0318,204.404 79.0318,205.8655 C 79.0318,207.3585 77.789,208.572 76.2678,208.572 z "
   style="fill:#0a9145" />
   <path
   id="_75412072"
   class="fil5"
   d="M 80.8351,204.933 C 79.2809,204.933 78.8764,201.8523 78.8764,200.36 C 78.8764,198.8971 80.7413,198.0893 82.264,198.0893 C 83.786,198.0893 85.0287,199.302 85.0287,200.7951 C 85.0287,202.258 82.3564,204.933 80.8351,204.933 L 80.8351,204.933 z "
   style="fill:#0a9145" />
   <path
   id="_75412144"
   class="fil5"
   d="M 63.2494,211.808 C 62.3167,211.9951 61.3846,211.0618 61.1369,209.7853 C 60.887,208.48 61.4469,207.2665 62.3796,207.1103 C 63.311,206.9239 65.0205,207.764 65.2682,209.0391 C 65.5166,210.3458 64.1815,211.6216 63.2494,211.808 L 63.2494,211.808 z "
   style="fill:#0a9145" />
   <path
   id="_75412216"
   class="fil5"
   d="M 72.2903,216.318 C 71.1406,215.7897 70.8922,213.8294 71.7312,211.9952 C 72.601,210.128 74.2168,209.0392 75.3658,209.5682 C 76.4847,210.0972 77.2607,212.1815 76.3909,214.0473 C 75.5519,215.9144 73.4393,216.8161 72.2903,216.318 z "
   style="fill:#0a9145" />
   <path
   id="_75412288"
   class="fil0"
   d="M 43.2706,129.652 C 43.5512,129.4334 43.8304,129.3101 44.0795,129.3101 L 46.8758,129.8384 C 49.143,130.8333 51.6915,131.1759 54.4878,131.0211 L 57.6255,130.6784 C 57.8739,130.429 57.7801,130.2735 57.4393,130.1487 L 50.6041,129.7137 C 48.6469,129.341 46.8128,128.5941 45.2285,127.3813 C 44.6079,127.0387 44.3272,126.5714 44.358,125.9815 C 44.8556,125.0482 44.9493,123.8964 45.3531,122.87 C 46.0675,121.0351 46.9989,119.1679 47.2488,116.8656 C 47.3719,115.0931 47.3719,113.2581 47.2173,111.391 C 46.8128,111.0175 46.4713,111.0483 46.1291,111.4848 C 46.0675,114.2215 46.0983,116.399 45.4454,118.4217 C 44.7632,120.5985 43.7681,122.6521 42.4946,124.6425 C 42.37,125.0482 42.1531,125.1715 41.8417,124.9852 C 40.0713,122.7768 38.3618,120.7233 36.0631,118.8883 C 32.9877,115.1547 30.5329,111.1429 28.5449,106.8811 C 28.1089,106.5384 27.8612,106.6008 27.7982,107.0043 C 29.2271,110.8312 31.2473,114.377 33.7637,117.6756 C 35.3794,120.9096 37.5858,123.7717 40.5689,126.1979 C 41.4072,126.6029 41.6556,127.1312 41.0349,127.319 C 38.1449,127.7232 35.1926,127.754 32.241,127.754 C 30.253,128.0966 28.5127,128.5941 27.0222,129.2155 C 26.6184,129.652 26.6807,129.9624 27.2391,130.181 C 28.9486,129.5581 30.7197,129.1847 32.5839,129.2155 L 41.3449,129.2155 C 41.5618,129.1847 41.5002,129.3711 41.5618,129.4334 C 40.5374,132.2654 40.0713,135.3754 40.2574,138.798 L 39.8852,143.7752 C 40.1021,144.1171 40.4135,144.1787 40.7858,143.9307 C 41.3757,142.7173 41.6248,140.8193 41.6556,138.3615 C 41.4694,136.9924 41.531,135.531 42.0278,133.9139 C 42.3392,131.9227 42.7122,130.3365 43.2706,129.652 L 43.2706,129.652 z "
   style="fill:#000000" />
   <path
   id="_75412360"
   class="fil5"
   d="M 48.77,172.113 C 48.2417,171.2113 48.46,170.1856 49.4537,169.003 C 50.8518,167.105 51.7216,165.0529 51.7216,162.6574 C 51.7839,162.2209 51.5662,162.003 51.1009,162.0661 C 50.3865,162.5951 49.6398,162.8746 48.8638,162.8438 C 48.4285,162.9054 48.2417,162.7499 48.2417,162.3456 C 48.6147,160.8533 48.5223,159.328 48.0248,157.7727 C 47.8079,157.2129 47.4041,157.0573 46.8128,157.2129 C 43.3329,159.5144 41.5618,161.1321 40.8473,162.9993 C 40.5374,163.4029 40.319,163.4029 39.9468,163.061 C 39.7599,161.8797 39.2631,160.7902 38.1449,160.1057 C 37.3996,159.8262 36.9329,160.1057 36.7775,160.9458 C 35.6593,165.4256 36.4983,168.6912 39.9468,170.2781 C 41.1272,171.0873 41.158,171.9267 40.382,172.7975 C 39.543,173.3588 38.7663,173.1717 38.0511,172.2686 C 35.4417,168.3801 32.304,166.4527 28.731,166.2972 C 28.2027,166.2033 27.9844,166.4205 28.0788,166.9186 L 28.9171,170.0609 C 29.104,170.6824 28.8856,170.9626 28.295,170.8687 L 24.0391,170.1856 C 23.4177,170.091 23.2939,170.4336 23.3555,170.9934 C 24.0391,173.3588 25.065,175.2869 26.8969,176.3756 C 27.6429,176.7799 27.7674,177.278 27.2391,177.8995 C 26.0901,178.5525 24.9096,178.9259 23.7284,179.0814 C 23.48,179.5803 23.5115,179.953 23.8222,180.2333 C 27.4882,183.2186 30.9674,183.5928 34.1674,180.2333 C 35.1926,179.7358 35.9077,179.8914 36.6537,180.7931 C 37.0267,181.6331 36.8083,182.3169 36.0631,182.7835 C 32.0234,185.895 29.2271,189.1914 27.0838,193.2046 C 27.0838,194.3565 27.4567,194.8224 28.2342,194.6045 L 30.4083,193.7336 C 30.9059,193.6089 31.2166,193.7967 31.3719,194.2626 C 31.0612,197.5905 31.7757,200.1422 33.3606,202.1026 C 34.1366,202.5369 34.7895,202.4136 35.2864,201.7291 C 36.2184,199.7372 37.0574,197.6851 37.6781,195.5069 C 37.7726,195.0718 37.8965,194.9163 38.1757,195.3513 L 39.9468,196.5956 C 40.4436,196.782 40.8473,196.5333 41.158,196.0043 C 41.4072,193.2046 41.2833,190.2809 40.4744,187.1393 C 40.5996,185.9258 41.2518,185.1797 42.4323,184.8686 C 43.7373,184.6507 44.421,185.3969 44.2349,187.6368 C 43.2706,190.2809 42.9921,192.7387 43.1782,195.041 C 43.4574,195.5692 43.9242,195.5692 44.4826,195.1334 C 44.9186,194.1378 45.5392,193.391 46.4713,193.0491 C 46.782,192.8312 46.9373,192.9566 47.0619,193.2046 C 48.1186,194.8854 49.3921,196.253 51.1324,197.0314 C 51.6607,197.1561 52.0022,197.0006 52.0946,196.5333 C 52.4675,195.6008 52.4053,194.2009 52.033,192.4585 C 52.0946,192.0857 52.4053,191.9295 52.7474,192.3337 C 53.4003,193.2677 54.3324,193.7644 55.6368,193.7028 C 56.1336,193.7644 56.3512,193.4856 56.2889,192.8627 C 56.7872,190.468 54.5801,187.2318 50.1066,183.3433 C 49.2368,181.9743 49.5167,181.0726 50.9456,180.6375 C 52.1576,180.6684 52.9336,181.2912 53.245,182.5355 C 53.1197,185.1166 54.6431,186.8899 57.8123,187.8238 C 58.5883,188.0718 58.7129,187.8855 58.7129,187.3257 L 58.806,184.2773 C 58.806,183.9662 58.9921,183.9354 59.3966,184.1526 C 60.2979,184.7432 61.323,184.9611 62.4104,184.8686 C 62.845,184.8062 63.0941,184.5876 63.0619,184.1834 C 62.6896,182.3485 62.099,180.5128 61.3846,178.6779 C 61.26,178.336 61.4784,178.3661 61.9745,178.2736 L 63.4048,178.2106 C 63.8393,177.9626 63.8085,177.931 63.4971,177.4644 C 60.6701,173.6376 56.2889,172.3625 50.6657,173.1717 C 49.8266,173.1717 49.206,172.8298 48.77,172.113 L 48.77,172.113 z "
   style="fill:#0a9145" />
   <path
   id="_75412432"
   class="fil0"
   d="M 59.5204,182.13 C 60.111,182.1931 60.2979,181.9437 60.1726,181.3839 C 58.3406,179.144 55.9782,177.1843 52.7167,175.692 L 48.9254,173.8557 L 45.4777,170.3722 C 43.4574,167.136 42.9921,164.3994 44.5764,162.315 C 44.5764,161.9108 44.421,161.6613 43.9858,161.8169 C 41.4072,165.4573 42.0901,169.1279 45.2285,172.8608 C 45.4454,173.2342 45.2593,173.5145 44.9801,173.7632 C 39.6046,175.9709 33.7945,175.2871 27.7367,172.9533 C 26.9284,172.9533 26.8046,173.2342 27.3945,173.8557 C 32.1787,176.2203 37.2128,177.4338 42.6814,176.5937 C 43.1467,176.5629 43.2405,176.6862 42.9599,176.9664 C 38.2064,182.2548 36.0316,188.6641 33.9813,195.1336 C 33.9813,195.6626 34.1989,195.7242 34.5719,195.3515 C 37.5858,188.7566 39.9153,181.5394 45.3223,176.9973 C 45.57,176.7801 45.9115,176.7493 45.9738,177.1227 C 46.0368,183.2188 47.8694,188.8189 50.1373,194.2319 C 50.4487,194.5738 50.6657,194.4799 50.7594,194.0449 C 48.3362,187.5431 46.5651,181.3839 47.621,176.6862 C 47.6518,175.7221 47.621,175.3186 48.2739,175.5666 C 52.7167,177.0288 56.4142,179.2687 59.5204,182.13 L 59.5204,182.13 z "
   style="fill:#000000" />
  </g>
 </g>
</svg>