<?xml version="1.0" standalone="no"?>
<!DOCTYPE svg PUBLIC "-//W3C//DTD SVG 1.1//EN" "http://www.w3.org/Graphics/SVG/1.1/DTD/svg11.dtd">
<svg xmlns="http://www.w3.org/2000/svg">
<metadata>Generated by Fontastic.me</metadata>
<defs>
<font id="portalrowerowy" horiz-adv-x="512">
<font-face font-family="portalrowerowy" units-per-em="512" ascent="480" descent="-32"/>
<missing-glyph horiz-adv-x="512" />

<glyph glyph-name="bicycle" unicode="&#98;" d="M499 234c-17 30-49 49-83 49-9 0-19-2-28-4l-52 121 37 0c6 0 11 5 11 11 0 6-5 10-11 10l-53 0c-6 0-11-4-11-10 0-2 1-3 1-5l22-51-133-38-21 40 25 0c6 0 10 5 10 11 0 6-4 11-10 11l-75 0c-6 0-11-5-11-11 0-6 5-11 11-11l26 0 26-50-32-40c-44 29-104 16-133-28-28-45-16-104 29-133 44-29 104-16 133 29 8 12 13 26 14 41l65 0c1 0 1 0 2 0 1 0 1 1 2 1 2 1 4 2 5 4l0 1 79 146 25-58c-46-26-62-85-36-131 26-46 85-62 131-35 46 26 62 84 35 130z m-403-122c-41 0-75 33-75 74 0 42 33 75 75 75 13 0 27-3 38-10l-46-58c-4-4-3-11 1-15 2-1 4-2 7-2l74 0c-6-37-37-64-74-64z m22 85l33 40c10-11 17-25 19-40z m73 0c-2 22-11 41-26 57l26 32 47-89z m65 12l-47 89 111 32z m180-94c-6-2-13-3-20-3-41 0-75 33-75 75 0 26 14 50 36 63l29-68c3-5 9-7 14-5 6 2 8 9 6 14l-29 68c39 11 81-13 91-53 11-39-12-80-52-91z"/>
<glyph glyph-name="camera" unicode="&#99;" d="M495 395c-10 10-24 17-40 17l-81 0 0 1c0 12-5 24-13 31-9 9-20 13-32 13l-146 0c-13 0-24-4-32-13-8-8-13-19-13-31l0-1-81 0c-16 0-30-7-40-17-10-11-17-25-17-41l0-242c0-16 6-30 17-40 10-11 25-17 40-17l398 0c16 0 30 6 40 17 10 10 17 24 17 40l0 242c0 16-6 30-17 41z m-8-283l-1 0c0-9-3-17-9-22-6-6-14-10-22-10l-398 0c-8 0-16 4-22 10-6 5-9 13-9 22l0 242c0 9 3 17 9 23 6 6 14 9 22 9l94 0c8 0 14 6 14 13l0 14c0 6 1 10 5 14 3 3 8 5 13 5l146 0c5 0 10-2 14-5 3-4 5-8 5-14l0-14c0-7 6-13 13-13l94 0c9 0 17-3 22-9 6-6 10-14 10-23z m-231 241c-33 0-63-14-85-35-22-22-35-52-35-85 0-33 14-63 35-85 22-21 52-35 85-35 33 0 63 14 85 35 22 22 35 52 35 85 0 33-14 63-35 85-22 21-52 35-85 35z m66-187c-17-16-40-27-66-27-26 0-49 11-66 27-17 17-27 41-27 67 0 25 10 49 27 66 17 17 40 27 66 27 26 0 49-11 66-27 17-17 27-41 27-66 1-26-10-50-27-67z m131 163c0-13-11-23-24-23-13 0-24 10-24 23 0 14 11 24 24 24 13 0 24-10 24-24z"/>
<glyph glyph-name="church" unicode="&#100;" d="M224 367c-5 0-10-5-10-10 0-6 5-10 10-10 6 0 10 4 10 10 0 5-4 10-10 10z m60-100l-10 0 0 10c0 5-5 10-10 10-6 0-10-5-10-10l0-10-10 0c-5 0-10-5-10-10 0-6 5-10 10-10l10 0 0-30c0-5 4-10 10-10 5 0 10 5 10 10l0 30 10 0c5 0 10 4 10 10 0 5-5 10-10 10z m122-100c-16 0-29-13-29-30l0-39c0-6 4-10 9-10l40 0c6 0 10 4 10 10l0 39c0 17-13 30-30 30z m10-59l-20 0 0 29c0 6 5 10 10 10 6 0 10-4 10-10z m-294 59c-17 0-30-13-30-30l0-39c0-6 4-10 10-10l39 0c6 0 10 4 10 10l0 39c0 17-13 30-29 30z m9-59l-19 0 0 29c0 6 4 10 10 10 5 0 9-4 9-10z m350-45l-5 0 0 106c7 3 13 7 17 14 7 15 2 33-13 41l-126 66 0 23 17 17c4 4 4 10 0 14l-19 19-79 144c-2 3-5 5-9 5-4 0-7-2-9-5l-79-144-19-19c-4-4-4-10 0-14l17-17 0-28-126-61c-14-7-20-25-13-40 4-7 10-12 17-15l0-106-21 0c-17 0-30-14-30-30l0-23c0-6 4-10 10-10l490 0c6 0 10 4 10 10l0 23c0 16-13 30-30 30z m-127 204l117-61c5-3 7-9 4-13-3-5-9-7-14-5l-107 57z m0-45l98-51c1-1 3-1 4-2l0-104-102 0z m-163 128c1 0 2 1 2 2l71 129 63-114-63 0c-6 0-10-5-10-10 0-6 4-10 10-10l76 0 9-10-9-10-152 0-10 10z m73-167c-27 0-50-22-50-50l0-68-20 0 0 242 140 0 0-23c0 0 0 0 0 0l0-46c0 0 0 0 0 0l0-173-20 0 0 68c0 27-23 50-50 50z m10-65l0 43c12-4 20-16 20-28l0-15z m20-20l0-35-20 0 0 35z m-60 20l0 15c0 13 8 24 20 28l0-43z m20-20l0-35-20 0 0 35z m-197 108l117 57 0-22-108-53 0 0c-5-2-11 0-13 5-3 5-1 11 4 13z m117 13l0-154-102 0 0 104c1 0 2 1 3 1z m317-199l-470 0 0 13c0 5 4 10 10 10l450 0c6 0 10-5 10-10z"/>
<glyph glyph-name="cloud" unicode="&#101;" d="M406 293c-1 78-65 141-143 141-35 0-69-12-95-35-23-21-39-48-45-79-1 0-1 0-2 0-67 0-121-54-121-121 0-67 54-121 121-121l283 0c60 0 108 48 108 107 0 59-47 107-106 108z m-2-193l-283 0c-55 0-99 44-99 99 0 55 44 100 99 100 3 0 6-1 10-1 6 0 11 4 12 10 4 28 18 55 40 74 22 20 50 30 80 30 67 0 121-54 121-121 0-2 0-5 0-8l0-1c-1-3 1-6 3-8 2-2 5-4 9-3 3 0 6 0 8 0 48 0 86-38 86-86 0-47-38-85-86-85z m-141 283c-46 0-85-34-91-79-1-6 3-12 9-13 1 0 1 0 2 0 5 0 10 4 10 10 5 34 35 60 70 60 6 0 11 5 11 11 0 6-5 11-11 11z"/>
<glyph glyph-name="double-arrow" unicode="&#102;" d="M428 340l-22-22 46-46-392 0 46 46-22 22-84-84 84-84 22 22-46 46 392 0-46-46 22-22 84 84z"/>
<glyph glyph-name="facebook-letter-logo" unicode="&#103;" d="M188 413c0-13 0-71 0-71l-51 0 0-86 51 0 0-256 106 0 0 256 72 0c0 0 6 41 9 87-9 0-80 0-80 0 0 0 0 50 0 59 0 8 11 20 23 20 11 0 35 0 58 0 0 12 0 53 0 90-30 0-64 0-79 0-111 0-109-86-109-99z"/>
<glyph glyph-name="flag" unicode="&#104;" d="M448 486l-375 0 0 17c0 5-4 9-9 9-5 0-9-4-9-9l0-494c0-5 4-9 9-9 5 0 9 4 9 9l0 187 375 0c5 0 9 4 9 9l0 273c0 5-4 8-9 8z"/>
<glyph glyph-name="flag-1" unicode="&#105;" d="M439 319l-354 164 0 20c0 5-3 9-8 9-5 0-9-4-9-9l0-494c0-5 4-9 9-9 5 0 8 4 8 9l0 156 353 139c4 1 6 4 6 7 0 4-2 7-5 8z"/>
<glyph glyph-name="forest" unicode="&#106;" d="M512 227c0 66-53 119-119 119-23 0-46-7-65-19-5 22-12 43-20 62-21 50-50 78-79 78-30 0-58-27-80-78-8-18-14-38-19-58l-30 109c-1 4-4 7-9 7-4 0-7-3-8-7l-83-302c0-2 0-5 2-8 2-2 4-3 7-3l73 0 0-73c0-5 4-9 9-9 5 0 10 4 10 9l0 73 73 0c3 0 5 1 7 3 1 2 2 5 2 7 11-5 23-9 36-10l0-73c0-5 5-9 10-9 5 0 9 4 9 9l0 73c23 2 45 12 62 26 21-25 51-42 84-44l0-55c0-5 4-9 9-9 5 0 9 4 9 9l0 55c62 5 110 56 110 118z m-350-82l-61 0 0 15 16 16c3 3 3 9 0 13-4 3-10 3-13 0l-3-3 0 60c0 5-5 9-10 9-5 0-9-4-9-9l0-42-12 12c-3 3-9 3-12 0-4-4-4-10 0-13l24-25 0-15c0 0 0 0 0 0l0-18-61 0 70 258 31-114c-2-17-3-35-3-52 0-35 16-66 41-86z m76 15l34 34c3 3 3 9 0 12-4 4-10 4-13 0l-21-20 0 38 24 24c4 4 4 10 0 13-3 4-9 4-12 0l-12-11 0 23c0 5-4 9-9 9-5 0-10-4-10-9l0-46c0 0 0 0 0 0l0-23-21 21c-3 3-9 3-12 0-4-4-4-10 0-13l33-34 0-15c0 0 0 0 0 0l0-17c-46 4-82 43-82 91 0 48 11 103 29 145 18 43 41 67 63 67 21 0 44-25 62-67 18-43 29-97 29-145 0-48-36-87-82-91z m164-33l0 14 34 34c4 4 4 10 0 13-3 4-9 4-13 0l-21-21 0 60c0 5-4 10-9 10-5 0-9-5-9-10l0-42-21 21c-4 4-9 4-13 0-3-3-3-9 0-12l34-34 0-15c0 0 0 0 0 0l0-18c-28 3-54 17-71 40 16 19 25 43 25 70 0 23-2 47-6 70 17 14 39 21 61 21 56 0 101-45 101-101 0-52-41-95-92-100z"/>
<glyph glyph-name="maps-and-flags" unicode="&#107;" d="M256 512c-102 0-185-83-185-185 0-127 166-314 173-321 6-8 18-8 24 0 8 7 173 194 173 321 0 102-83 185-185 185z"/>
<glyph glyph-name="park" unicode="&#108;" d="M504 87l-54 0 0 73c20 4 35 21 35 41 0 10-4 35-10 59-10 33-20 49-33 49-13 0-24-16-33-49-7-24-11-49-11-59 0-20 15-37 35-41l0-73-54 0 0 206c11 4 18 13 18 25l0 35c0 5-4 9-8 9l-10 0 0 10 19 0c4 0 8 3 8 8 0 4-4 8-8 8l-54 0c-4 0-8-4-8-8 0-5 4-8 8-8l19 0 0-10-10 0c-4 0-8-4-8-9l0-35c0-12 7-21 18-25l0-206-29 0-6 28 8 0c4 0 8 4 8 8 0 5-4 9-8 9l-18 0c0 0 0 0 0 0l-1 0 0 18 10 0c4 0 8 4 8 9 0 4-4 8-8 8l-10 0 0 10 10 0c4 0 8 4 8 8 0 5-4 9-8 9l-159 0c-5 0-9-4-9-9 0-4 4-8 9-8l9 0 0-10-9 0c-5 0-9-4-9-8 0-5 4-9 9-9l9 0 0-18-1 0c0 0 0 0 0 0l-17 0c-5 0-9-4-9-9 0-4 4-8 9-8l7 0-5-28-65 0 0 82c35 4 62 33 62 69 0 63-60 193-63 198-1 3-4 5-7 5-3 0-6-2-8-5-2-5-62-135-62-198 0-36 27-65 62-69l0-82-72 0c-4 0-8-3-8-8 0-5 4-8 8-8l496 0c4 0 8 3 8 8 0 5-4 8-8 8z m-89 114c0 7 3 29 9 52 9 32 16 38 18 39 1-1 9-7 18-39 6-23 9-45 9-52 0-11-8-21-19-24l0 17c0 5-4 8-8 8-5 0-9-3-9-8l0-17c-10 3-18 13-18 24z m-53 144l18 0 0-27c0-5-4-9-9-9-5 0-9 4-9 9z m-328-107c0 46 38 137 54 175 16-38 54-129 54-175 0-26-20-49-46-53l0 27c0 0 0 0 0 0l0 23 24 24c4 3 4 8 0 12-3 3-8 3-11 0l-13-13 0 16c0 4-4 8-8 8-5 0-8-4-8-8l0-36c0 0 0 0 0 0l0-6-13 12c-3 3-8 3-11 0-4-3-4-8 0-12l24-24 0-23c-26 4-46 27-46 53z m160-61l107 0 0-10-107 0z m0-27l107 0 0-18-107 0z m-11-35l128 0 6-28-139 0z"/>
<glyph glyph-name="picture" unicode="&#109;" d="M0 54c0-30 24-54 54-54l404 0c30 0 54 24 54 54l0 404c0 30-24 54-54 54l-404 0c-30 0-54-24-54-54 0 0 0-404 0-404z m458-28l-404 0c-16 0-28 12-28 28l0 67 97 98 83-83c5-5 13-5 18 0l150 149 112-112 0-119c0-16-12-28-28-28z m-404 460l404 0c16 0 28-12 28-28l0-249-103 104c-5 5-13 5-19 0l-149-150-83 83c-5 5-13 5-18 0l-88-88 0 300c0 16 12 28 28 28z m105-179c36 0 65 29 65 65 0 36-29 65-65 65-36 0-65-29-65-65 0-36 29-65 65-65z m0 105c22 0 39-18 39-40 0-22-18-40-39-40-22 0-40 18-40 40 0 22 18 40 40 40z"/>
<glyph glyph-name="road" unicode="&#110;" d="M511 323c-3 5-7 8-12 8l-117 0c-2 0-4-1-6-2l-18-9 0 25c22 6 38 27 38 51 0 29-23 52-52 52-18 0-35-9-44-23-9 29-37 50-69 50-27 0-50-14-63-36-10 36-43 62-82 62-48 0-86-39-86-86 0-43 31-78 72-84l0-157-62-32c-6-3-9-11-6-18 4-7 12-9 18-6l364 186 15 0-21-16c-6-5-7-13-2-19 2-4 6-6 10-6 3 0 6 1 8 3l50 38 26 0-203-271c-4-6-3-15 3-19 2-2 5-3 8-3 4 0 8 2 11 5l218 293c3 4 4 10 2 14z m-167 99c14 0 26-12 26-26 0-14-12-25-26-25-14 0-25 11-25 25 0 14 11 26 25 26z m-47-49c7-14 19-24 34-28l0-39-87-44 0 69c24 4 44 20 53 42z m-66 75c25 0 46-21 46-46 0-25-21-46-46-46-26 0-46 21-46 46 0 25 20 46 46 46z m-204-33c0 33 26 59 59 59 32 0 59-26 59-59 0-32-27-59-59-59-33 0-59 27-59 59z m72-84c28 4 51 22 63 46 9-24 30-42 55-46l0-83-118-61z m97-190l-98-80c-6-4-7-13-2-19 3-3 6-5 10-5 3 0 6 1 9 3l98 80c6 5 7 13 2 19-4 6-13 7-19 2z m160 92c6 4 7 13 2 18-4 6-13 7-19 3l-89-70c-5-5-6-13-2-19 3-3 7-5 11-5 3 0 6 1 8 3z"/>
<glyph glyph-name="sun" unicode="&#111;" d="M347 347c-23 23-56 38-91 38-35 0-68-15-91-38-23-23-38-56-38-91 0-35 15-68 38-91 23-23 56-38 91-38 35 0 68 15 91 38 23 23 38 56 38 91 0 35-15 68-38 91z m-25-157c-17-17-40-27-66-27-26 0-49 10-66 27-17 17-27 40-27 66 0 26 10 49 27 66 17 17 40 27 66 27 26 0 49-10 66-27 17-17 27-40 27-66 0-26-10-49-27-66z m172 84l-52 0c-9 0-17-9-17-18 0-9 8-18 17-18l52 0c10 0 18 9 18 18 0 9-8 18-18 18z m-238-187c-9 0-18-8-18-17l0-52c0-10 9-18 18-18 9 0 18 8 18 18l0 52c0 9-9 17-18 17z m181 13l-37 37c-7 7-18 7-25 0-7-7-7-18 0-25l37-37c7-7 18-7 25 0 7 7 7 18 0 25z m-181 412c-9 0-18-8-18-18l0-52c0-9 9-17 18-17 9 0 18 8 18 17l0 52c0 10-9 18-18 18z m182-75c-7 7-18 7-25 0l-37-37c-7-7-7-18 0-25 6-7 17-7 24 0l38 37c6 7 6 18 0 25z m-368-163l-52 0c-10 0-18-9-18-18 0-9 7-18 18-18l52 0c9 0 17 9 17 18 0 9-8 18-17 18z m66-137c-6 7-17 7-24 0l-38-37c-6-7-6-18 0-25 7-7 18-7 25 0l37 37c7 7 7 18 0 25z m0 263l-37 37c-7 7-18 7-25 0-6-7-6-18 0-25l38-37c7-7 17-7 24 0 7 7 7 18 0 25z"/>
<glyph glyph-name="tree" unicode="&#112;" d="M351 416c-27 62-60 96-95 96-35 0-68-34-95-96-23-53-37-117-37-169 0-65 48-121 112-130l-6-100-9 0c-5 0-9-4-9-9 0-4 4-8 9-8l70 0c5 0 9 4 9 8 0 5-4 9-9 9l-9 0-6 100c30 4 57 19 78 42 22 24 34 55 34 88 0 52-14 116-37 169z m-104-399l9 160c0 0 0 0 0 0 0 0 0 0 0 0l9-160z m95 153c-18-20-41-33-67-37l-3 56 43 43c3 4 3 9 0 12-3 3-9 3-12 0l-32-32-2 36 19 20c4 3 4 8 0 12-3 3-8 3-11 0l-10-10-3 57c0 5-4 8-8 8-4 0-8-3-8-8l-5-90-34 34c-3 3-9 3-12 0-3-4-3-9 0-12l44-44-4-82c-55 9-97 57-97 114 0 49 14 113 36 162 24 55 53 86 80 86 27 0 56-31 80-86 22-49 36-113 36-162 0-29-11-56-30-77z"/>
<glyph glyph-name="arrow-point-to-right-1" unicode="&#113;" d="M391 231l-220-220c-14-14-36-14-50 0-14 14-14 36 0 50l194 195-194 195c-14 14-14 37 0 50 14 15 36 15 50 0l220-220c7-7 11-16 11-25 0-9-4-18-11-25z"/>
<glyph glyph-name="arrowhead-thin-outline-to-the-left" unicode="&#114;" d="M110 256c0 9 4 18 11 25l220 220c14 15 36 15 50 0 14-13 14-36 0-50l-194-195 194-195c14-14 14-36 0-50-14-14-36-14-50 0l-220 220c-7 7-11 16-11 25z"/>
<glyph glyph-name="menu" unicode="&#97;" d="M492 276l-472 0c-11 0-20-9-20-20 0-11 9-20 20-20l472 0c11 0 20 9 20 20 0 11-9 20-20 20z m0 160l-472 0c-11 0-20-9-20-20 0-11 9-20 20-20l472 0c11 0 20 9 20 20 0 11-9 20-20 20z m0-320l-472 0c-11 0-20-9-20-20 0-11 9-20 20-20l472 0c11 0 20 9 20 20 0 11-9 20-20 20z"/>
<glyph glyph-name="cancel" unicode="&#115;" d="M293 256l211 209c10 10 10 26 0 36-10 10-27 10-37 0l-210-209-212 212c-10 10-27 10-37 0-10-10-10-26 0-36l212-212-212-212c-11-10-11-26 0-36 10-10 26-10 36 0l213 211 211-211c10-10 26-10 36 0 11 10 11 26 0 36z"/>
<glyph glyph-name="instagram-logo" unicode="&#116;" d="M371 512l-230 0c-78 0-141-63-141-141l0-230c0-78 63-141 141-141l230 0c78 0 141 63 141 141l0 230c0 78-63 141-141 141z m96-371c0-53-43-96-96-96l-230 0c-53 0-96 43-96 96l0 230c0 53 43 96 96 96l230 0c53 0 96-43 96-96l0-230z m-211 247c-73 0-132-59-132-132 0-73 59-132 132-132 73 0 132 59 132 132 0 73-59 132-132 132z m0-219c-48 0-86 39-86 87 0 48 38 86 86 86 48 0 87-38 87-86 0-48-39-87-87-87z m138 257c-9 0-18-3-24-9-6-7-10-15-10-24 0-9 4-17 10-23 6-7 15-10 24-10 8 0 17 3 23 10 6 6 10 14 10 23 0 9-4 17-10 24-6 6-15 9-23 9z"/>
<glyph glyph-name="006-pinterest" unicode="&#117;" d="M405 460c-35 33-84 52-137 52-82 0-132-33-160-61-34-35-53-81-53-126 0-57 24-101 64-117 2-1 5-2 8-2 8 0 15 6 17 15 1 5 4 17 6 23 3 10 0 15-6 23-12 14-17 30-17 51 0 62 47 129 133 129 68 0 111-39 111-102 0-39-9-76-24-103-11-19-30-41-59-41-12 0-24 5-31 14-6 9-9 20-6 31 3 13 7 27 11 40 8 23 15 46 15 64 0 30-19 51-47 51-36 0-64-36-64-82 0-23 6-40 9-47-5-19-31-132-36-153-3-12-21-111 8-118 33-9 62 86 65 97 3 9 11 42 16 63 16-15 42-26 66-26 47 0 89 21 119 59 28 37 44 89 44 146 0 44-19 88-52 120z"/>
<glyph glyph-name="008-youtube" unicode="&#118;" d="M492 405c-18 22-53 31-118 31l-236 0c-67 0-102-9-120-33-18-23-18-56-18-103l0-88c0-90 21-136 138-136l236 0c57 0 88 8 108 27 21 20 30 52 30 109l0 88c0 49-1 83-20 105z m-163-161l-108-56c-2-2-5-2-7-2-3 0-6 1-9 2-5 3-8 8-8 14l0 112c0 6 3 11 8 14 5 3 11 3 16 1l108-56c5-3 9-8 9-15 0-6-4-11-9-14z"/>
<glyph glyph-name="005-google-plus" unicode="&#119;" d="M500 289l-32 0 0 33c0 6-6 12-13 12l-43 0c-7 0-12-6-12-12l0-33-32 0c-7 0-13-5-13-12l0-43c0-7 6-12 13-12l32 0 0-32c0-7 5-13 12-13l43 0c7 0 13 6 13 13l0 32 32 0c7 0 12 5 12 12l0 43c0 7-5 12-12 12z m-334 54c14 0 29-4 41-12l14-9c4-4 11-3 15 1l40 40c3 3 4 6 4 10 0 3-2 7-5 9l-24 16c0 0-1 1-1 1l-23 11c0 0-1 0-1 0-19 8-40 12-61 12-44 0-85-17-116-47-31-31-49-73-49-118 0-45 17-87 48-118 31-31 74-49 120-49 45 0 87 17 115 48 23 24 37 56 41 93 0 0 0 1 0 1l0 33c0 1 0 1 0 2l-2 11c-1 6-6 11-12 11l-141 0c-6 0-12-6-12-12l0-49c0-7 6-12 12-12l72 0c-3-8-8-15-15-22-14-16-36-25-58-25-24 0-46 10-62 25-32 34-32 92 1 124 15 16 37 25 59 25z"/>
<glyph glyph-name="004-twitter" unicode="&#120;" d="M500 417c-8-3-16-6-24-9 10 12 17 25 22 39 1 4 0 7-3 9-2 2-6 3-9 1-18-11-37-18-58-23-20 20-48 32-77 32-60 0-110-50-110-110 0-5 1-10 1-15-75 7-145 44-193 103-2 2-4 3-7 3-3 0-5-2-6-4-10-17-15-36-15-55 0-27 9-52 26-72-5 2-10 4-15 7-2 1-5 1-8 0-2-2-4-4-4-7 0-1 0-1 0-2 0-39 21-75 54-94-3 0-6 1-9 1-3 1-5 0-7-3-2-2-3-5-2-7 12-38 43-66 80-74-31-20-66-30-103-30-8 0-16 1-24 2-4 0-7-2-9-6-1-4 1-8 4-10 48-30 103-47 160-47 112 0 182 53 221 97 49 56 77 129 77 201 0 3 0 6-1 9 20 14 36 32 50 52 2 3 1 7-1 10-2 3-6 4-10 2z"/>
<glyph glyph-name="003-linkedin" unicode="&#121;" d="M119 347l-103 0c-4 0-8-3-8-8l0-330c0-5 4-8 8-8l103 0c5 0 8 3 8 8l0 330c0 5-3 8-8 8z m-51 164c-38 0-68-30-68-67 0-38 30-68 68-68 37 0 68 30 68 68 0 37-31 67-68 67z m313-156c-42 0-72-17-91-37l0 21c0 5-3 8-8 8l-98 0c-5 0-9-3-9-8l0-330c0-5 4-8 9-8l102 0c5 0 8 3 8 8l0 163c0 55 15 77 54 77 42 0 45-35 45-80l0-160c0-5 4-8 8-8l103 0c4 0 8 3 8 8l0 181c0 82-16 165-131 165z"/>
<glyph glyph-name="009-clip" unicode="&#122;" d="M97 30c-23 0-45 9-61 25-34 34-34 90 0 124l269 269c22 22 51 34 82 34 30 0 59-12 81-34 22-21 34-50 34-81 0-31-12-60-34-81l-212-213c-7-6-17-6-23 0-7 7-7 17 0 23l212 213c16 15 24 36 24 58 0 22-8 43-24 58-16 16-36 25-58 25-22 0-43-9-59-25l-269-269c-22-22-22-56 0-78 20-20 56-20 77 0l181 182c5 4 8 11 8 18 0 7-3 14-8 19-10 10-27 10-37 0l-124-124c-6-6-17-6-23 0-6 7-6 17 0 23l124 124c23 23 60 23 83 0 11-11 17-26 17-42 0-15-6-31-17-42l-181-181c-16-16-38-25-62-25z"/>
<glyph glyph-name="009-magnifying-glass" unicode="&#65;" d="M495 46l-118 118c29 35 47 81 47 130 0 114-92 207-206 207-115 0-207-93-207-207 0-114 92-206 207-206 49 0 95 17 130 47l118-118c8-8 21-8 29 0 8 8 8 21 0 29z m-277 83c-92 0-166 74-166 165 0 92 74 166 166 166 91 0 165-74 165-166 0-91-74-165-165-165z"/>
<glyph glyph-name="006-youtube-logo" unicode="&#66;" d="M404 137l-29 0 1 17c0 7 6 13 13 13l2 0c7 0 13-6 13-13z m-106 35c-7 0-13-4-13-10l0-80c0-5 6-10 13-10 7 0 13 5 13 10l0 80c0 6-6 10-13 10z m171 45l0-151c0-36-31-66-69-66l-288 0c-38 0-69 30-69 66l0 151c0 36 31 66 69 66l288 0c38 0 69-30 69-66z m-337-168l0 160 35 0 0 23-95 0 0-23 30 0 0-160z m106 136l-29 0 0-85c0-12 0-19 0-21-3-6-14-13-18 0-1 2 0 9 0 20l0 86-30 0 0-84c0-13 0-23 1-27 0-8 0-17 7-22 14-10 39 1 46 15l-1-17 24-1z m95-97l0 70c0 27-20 43-47 22l0 52-30 0 0-181 24 0 3 11c31-28 50-9 50 26z m93 9l-22 0c0-1 0-2 0-3l0-13c0-6-6-12-12-12l-5 0c-6 0-12 6-12 12l0 33 51 0 0 19c0 14 0 28-2 36-3 26-39 30-57 17-5-4-10-10-12-17-3-7-4-17-4-30l0-42c0-70 85-60 75 0z m-114 229c1-4 4-7 7-9 3-2 7-4 12-4 4 0 8 2 12 4 3 2 6 6 8 11l-1-12 33 0 0 141-26 0 0-110c0-6-5-11-10-11-6 0-11 5-11 11l0 110-27 0 0-95c0-12 0-20 0-24 0-5 1-8 3-12z m-100 79c0 14 1 24 3 32 2 7 6 14 12 18 6 5 14 7 23 7 7 0 14-1 19-4 6-3 10-7 13-12 3-5 5-10 6-15 1-5 2-12 2-23l0-35c0-13-1-23-2-29-1-6-3-12-6-17-4-5-8-9-13-12-5-2-11-3-18-3-7 0-14 1-19 3-5 2-9 5-12 9-3 5-5 10-6 16-2 6-2 16-2 28z m26-56c0-8 6-14 13-14 7 0 13 6 13 14l0 75c0 8-6 15-13 15-7 0-13-7-13-15z m-92-37l31 0 0 107 37 93-34 0-20-69-19 69-34 0 39-93z"/>
<glyph glyph-name="021-printer" unicode="&#67;" d="M424 407l-13 0 0 29c0 42-34 76-76 76l-159 0c-42 0-76-34-76-76l0-29-12 0c-41 0-75-34-75-76l0-122c0-41 34-75 75-75l12 0 0-96c0-21 17-38 38-38l235 0c20 0 37 17 37 38l0 96 14 0c41 0 75 34 75 75l0 122c0 42-34 76-75 76z m-295 29c0 26 21 47 47 47l159 0c26 0 47-21 47-47l0-29-253 0z m253-398c0-5-4-10-9-10l-235 0c-5 0-9 5-9 10l0 158 253 0z m89 171c0-26-21-47-47-47l-13 0 0 34 18 0c8 0 15 6 15 14 0 8-7 14-15 14l-350 0c-8 0-14-6-14-14 0-8 6-14 14-14l21 0 0-34-12 0c-26 0-47 21-47 47l0 122c0 26 21 47 47 47l336 0c26 0 47-21 47-47z m-307-84l182 0c8 0 14 7 14 15 0 8-6 14-14 14l-182 0c-8 0-15-6-15-14 0-8 7-15 15-15z m183-30l-182 0c-8 0-15-6-15-14 0-8 7-14 15-14l182 0c8 0 14 6 14 14 0 8-6 14-14 14z m76 256l-29 0c-8 0-14-7-14-15 0-7 6-14 14-14l29 0c8 0 15 7 15 14 0 8-7 15-15 15z"/>
<glyph glyph-name="tick" unicode="&#68;" d="M505 437c-10 10-27 10-37 0l-306-307-118 118c-10 10-27 10-37 0-10-10-10-27 0-37l136-136c10-10 27-9 37 0l325 325c10 10 10 27 0 37z"/>
<glyph glyph-name="phone-call" unicode="&#69;" d="M405 195c-11 11-23 17-37 17-13 0-26-6-37-17l-34-34c-3 1-6 3-8 4-4 2-8 4-11 6-32 20-61 47-89 81-13 17-23 31-29 46 9 8 17 17 25 25 3 3 6 6 9 9 23 23 23 52 0 75l-29 29c-4 3-7 7-11 10-6 7-13 14-20 20-10 11-23 16-36 16-13 0-26-5-37-16 0 0 0 0 0 0l-37-37c-14-14-21-30-23-50-3-32 7-61 14-80 17-47 43-91 82-138 48-57 105-101 170-133 25-11 58-25 95-28 2 0 4 0 7 0 25 0 45 9 62 27 0 0 0 0 0 0 6 7 12 13 19 20 5 4 10 9 14 14 11 11 17 24 17 37 0 14-6 26-17 37z m38-114c0 0 0 0 0 0-4-4-8-9-13-13-7-7-14-14-21-22-11-11-23-17-40-17-2 0-4 0-5 0-32 2-62 15-85 25-61 30-114 72-159 125-37 45-62 86-78 130-10 27-14 48-12 68 1 12 6 23 15 32l37 37c5 5 11 7 16 7 7 0 13-4 16-7 0 0 0-1 0-1 7-6 13-12 20-19 3-3 7-7 10-11l30-29c11-11 11-22 0-34-4-3-7-6-10-9-9-9-18-18-27-26 0 0 0 0 0-1-10-9-8-18-6-24 0-1 0-1 0-1 8-19 19-36 35-57l0 0c30-37 62-66 96-88 5-2 9-5 14-7 3-2 7-4 10-6 1 0 1 0 2 0 3-2 7-3 10-3 9 0 15 6 17 7l37 37c3 4 9 9 16 9 7 0 12-5 15-8 1 0 1 0 1-1l59-59c11-11 11-23 0-34z m-166 309c28-5 54-18 74-38 21-21 34-47 39-75 1-7 7-12 14-12 1 0 2 0 3 0 8 1 13 9 12 17-6 34-22 65-47 90-25 25-56 41-90 47-8 1-16-4-17-12-1-8 4-15 12-17z m234-104c-9 57-36 108-77 149-40 41-92 67-148 77-8 1-16-4-17-12-1-8 4-16 12-17 50-9 96-32 133-69 36-36 60-82 69-133 1-7 7-12 14-12 1 0 2 0 3 1 7 1 13 8 11 16z"/>
<glyph glyph-name="blank-home-button" unicode="&#70;" d="M427 3l-342 0c-8 0-14 6-14 14l0 222-56 0c-6 0-12 3-14 8-2 6-1 12 3 16l242 242c5 5 15 5 20 0l242-242c4-4 5-10 3-15-2-6-8-9-14-9l-56 0 0-222c0-8-6-14-14-14z m-327 29l312 0 0 221c0 8 7 15 15 15l35 0-206 206-206-206 35 0c8 0 15-7 15-15l0-221z"/>
<glyph glyph-name="013-contrast-icon" unicode="&#71;" d="M75 437c-24-23-42-51-55-81-13-32-20-65-20-100 0-35 7-68 20-100 13-30 31-58 55-81 23-24 51-42 81-55 32-13 65-20 100-20 35 0 68 7 100 20 30 13 58 31 81 55 24 23 42 51 55 81 13 32 20 65 20 100 0 35-7 68-20 100-13 30-31 58-55 81-23 24-51 42-81 55-32 13-65 20-100 20-35 0-68-7-100-20-30-13-58-31-81-55z m181-394c-57 0-110 22-151 62-40 41-62 94-62 151 0 57 22 110 62 151 41 40 94 62 151 62z"/>
<glyph glyph-name="018-email" unicode="&#72;" d="M464 448l-416 0c-27 0-48-21-48-48l0-288c0-27 21-48 48-48l416 0c27 0 48 21 48 48l0 288c0 27-21 48-48 48z m-12-32l-196-140-196 140z m28-304c0-9-7-16-16-16l-416 0c-9 0-16 7-16 16l0 284 215-153c5-4 13-4 18 0l215 153z"/>
</font>
</defs>
</svg>
