<?xml version="1.0" standalone="no"?>
<!DOCTYPE svg PUBLIC "-//W3C//DTD SVG 20010904//EN"
 "http://www.w3.org/TR/2001/REC-SVG-20010904/DTD/svg10.dtd">
<svg version="1.0" xmlns="http://www.w3.org/2000/svg"
 width="700.000000pt" height="700.000000pt" viewBox="0 0 700.000000 700.000000"
 preserveAspectRatio="xMidYMid meet">
<metadata>
Created by potrace 1.11, written by Peter Selinger 2001-2013
</metadata>
<g transform="translate(0.000000,700.000000) scale(0.100000,-0.100000)"
fill="#000000" stroke="none">
<path d="M4350 5650 c-82 -10 -135 -67 -132 -142 1 -23 56 -165 146 -375 79
-186 146 -344 148 -352 3 -12 -143 -61 -317 -106 -44 -11 -717 -203 -895 -255
-60 -17 -335 -97 -490 -141 -65 -18 -65 -18 -80 3 -14 19 -146 264 -191 353
-12 22 -33 65 -49 95 -16 30 -29 58 -29 61 -1 3 80 6 178 7 196 1 222 7 259
60 51 71 27 168 -53 210 -26 13 -100 15 -555 16 -506 1 -526 0 -564 -19 -56
-28 -79 -64 -80 -124 -1 -57 21 -94 72 -124 27 -16 57 -19 222 -20 l191 -2 48
-90 c26 -49 70 -133 98 -185 28 -52 87 -164 132 -248 l81 -153 -166 -202 c-91
-111 -182 -222 -202 -246 -20 -24 -43 -52 -50 -62 -12 -17 -15 -17 -55 6 -371
218 -819 239 -1206 58 -185 -87 -373 -244 -495 -416 -84 -118 -184 -337 -202
-443 -2 -16 -7 -36 -10 -44 -19 -52 -31 -293 -20 -390 37 -326 195 -628 436
-835 156 -134 362 -239 548 -280 37 -8 81 -18 97 -21 48 -10 318 -13 361 -4
21 5 55 11 74 13 129 18 316 93 458 183 289 185 513 523 563 855 l12 79 444 0
c476 0 484 1 529 51 12 13 61 98 109 189 48 91 104 197 125 235 21 39 57 106
80 150 24 44 55 103 70 130 15 28 47 86 70 130 23 44 56 107 74 140 31 58 100
189 194 365 24 47 57 108 72 135 38 70 87 160 158 295 34 63 74 139 90 168
l29 53 23 -53 c12 -29 29 -69 37 -88 9 -19 21 -48 28 -65 7 -16 61 -141 119
-277 58 -136 110 -258 116 -272 8 -23 3 -28 -73 -78 -45 -29 -125 -96 -178
-148 -213 -210 -339 -465 -376 -758 -17 -136 -3 -341 32 -477 181 -694 905
-1109 1590 -910 299 87 531 255 716 520 64 90 160 307 175 393 3 15 9 43 14
62 53 210 24 511 -69 738 -241 585 -869 908 -1483 763 l-77 -18 -107 251 c-59
138 -115 269 -125 291 -42 92 -452 1051 -456 1068 -5 16 12 17 255 17 285 0
306 4 347 58 30 40 28 127 -4 169 -41 55 -52 57 -435 57 -193 1 -371 -1 -396
-4z m0 -1236 c0 -6 -129 -251 -220 -419 -15 -27 -51 -95 -80 -150 -29 -55 -65
-122 -80 -150 -15 -27 -53 -99 -85 -160 -59 -113 -110 -208 -175 -330 -21 -38
-75 -140 -120 -225 -46 -85 -84 -156 -85 -158 -3 -3 -103 184 -335 623 -29 55
-65 123 -80 150 -15 28 -55 104 -90 170 -34 66 -76 144 -92 172 -32 57 -31 68
4 76 32 7 78 20 593 167 253 73 485 139 515 147 139 38 293 83 298 88 8 7 32
6 32 -1z m-1635 -719 c37 -71 100 -191 140 -265 39 -74 96 -180 125 -235 119
-226 140 -265 195 -370 32 -60 64 -119 72 -130 7 -11 13 -24 13 -30 0 -7 -104
-10 -312 -10 l-312 0 -13 79 c-36 214 -141 437 -287 609 -62 73 -63 64 21 163
41 48 135 162 245 297 17 21 34 34 38 30 4 -4 38 -66 75 -138z m-1150 -208
c39 -9 95 -25 125 -35 58 -20 180 -79 180 -87 0 -4 -270 -338 -344 -425 -19
-23 -134 -164 -163 -200 -7 -8 -37 -46 -68 -84 -69 -85 -75 -96 -77 -144 -2
-50 27 -100 71 -126 31 -18 58 -19 544 -20 l512 -1 -3 -25 c-8 -64 -47 -183
-87 -265 -121 -250 -348 -441 -616 -519 -101 -29 -165 -38 -279 -41 -81 -1
-103 1 -230 26 -93 18 -301 109 -340 149 -3 3 -23 18 -45 34 -180 131 -323
366 -370 606 -14 76 -15 302 -1 365 59 261 183 461 376 610 119 92 301 169
450 193 81 13 284 7 365 -11z m4240 12 c28 -5 63 -12 79 -15 16 -3 69 -20 118
-38 306 -115 532 -368 620 -694 27 -102 33 -317 12 -417 -21 -97 -20 -94 -43
-158 -100 -286 -342 -520 -635 -612 -305 -97 -610 -53 -881 128 -55 37 -169
144 -222 209 -76 94 -154 262 -184 400 -74 338 34 690 286 931 61 59 162 134
169 126 2 -2 93 -213 202 -468 215 -501 216 -503 298 -516 71 -12 146 44 160
119 7 40 -5 72 -208 540 -102 237 -186 433 -186 437 0 28 307 49 415 28z
m-3647 -395 c55 -73 116 -186 145 -269 23 -69 47 -175 39 -176 -19 -4 -672 -4
-672 0 0 5 50 73 60 81 3 3 75 91 160 195 85 105 163 199 172 209 10 11 18 24
18 29 0 21 29 -4 78 -69z"/>
</g>
</svg>
