<svg xmlns="http://www.w3.org/2000/svg" viewBox="0 0 2150.002 612.169"><defs><style>.a{fill:#dfe3b1;}.b{fill:#e9edb9;}.c,.d,.g,.h{fill:none;}.c{stroke:#f8f8ec;}.c,.d{stroke-width:36px;}.d{stroke:#f4f4d1;}.e{fill:#083283;}.f{fill:#279237;}.g,.h{stroke:#083283;stroke-miterlimit:10;stroke-width:3px;}.h{stroke-linecap:round;stroke-linejoin:round;}</style></defs><g transform="translate(677.38 1089)"><path class="a" d="M4527.73,693.227S4629.78,473.339,5039.087,459.6c312.634-10.924,455.469-37.551,624.213-69.729,200.062-38.15,346.919-206.693,510.7-142.6,75.666,29.611,115.9,158.27,151.089,250.458,40.732,106.712,238.125,117.329,196.6,174.6s-333.067,38.625-333.067,38.625L4377.39,726.828Z" transform="translate(-5054.77 -1206.031)"/><path class="b" d="M4377.39,720.632s18.958-103.106,368.713-116.846c267.147-10.924,287.38-147.635,431.573-179.813,170.954-38.15,816.561,28.826,979.742,125.854,70,41.625,193.315,162.516,193.315,162.516S6168.145,725.9,5899.77,726.828c-470.008,1.617-1522.38,0-1522.38,0Z" transform="translate(-5054.77 -1206.031)"/><path class="c" d="M3104.256,10.633V76.642s-8.93,187.557,105.985,190.839" transform="translate(206.137 -3687.585) rotate(90)"/><path class="c" d="M3415.071,442.707c31.633,10.476,42.836,148.307,42.078,195.43-1.988,123.553,62.834,157.521,101.228,158.462,52.884,1.3,103.193,0,103.193,0" transform="translate(1306.969 -4142.871) rotate(90)"/><path class="c" d="M3379.781,748.714c73.03,218.228,186.36,177.719,226.646,179.369s234.448,0,234.448,0" transform="translate(-3318.308 -1506)"/><path class="d" d="M3302.034,84.967l35.645,47.341c25.706,32.6,14,19.908,65.185,87.209s48.375,143.753,88.109,153.913" transform="translate(1264.137 -4210.146) rotate(90)"/><path class="e" d="M86.7,79.643A20.122,20.122,0,0,0,55.528,62.823a62.767,62.767,0,0,0-3.336-10.489C48.535,43.736,43.746,39,38.707,39s-9.834,4.716-13.484,13.28a61.766,61.766,0,0,0-3.194,9.872L16.977,43.625a1.548,1.548,0,0,0-2.987,0L.055,94.719a1.548,1.548,0,0,0,1.494,1.955H13.935V109.06a1.548,1.548,0,1,0,3.1,0V96.674H29.418a1.544,1.544,0,0,0,1.539-1.694,18.46,18.46,0,0,0,6.2,1.629V109.06a1.548,1.548,0,1,0,3.1,0V96.609a18.526,18.526,0,0,0,10.571-4.436,20.124,20.124,0,0,0,14.2,7.536v9.352a1.548,1.548,0,1,0,3.1,0V99.712A20.155,20.155,0,0,0,86.7,79.643ZM27.391,93.577H17.031V91.122l2.74-2.74a1.548,1.548,0,1,0-2.19-2.19l-.55.55v-10.2a1.548,1.548,0,0,0-3.1,0v7.1l-2-2a1.548,1.548,0,0,0-2.19,2.19l4.191,4.191v5.552H3.575L15.483,49.916l5.246,19.234a66.771,66.771,0,0,0-.625,8.92A18.579,18.579,0,0,0,27.13,92.621Zm12.865-2.455L46,85.382a1.548,1.548,0,0,0-2.19-2.19l-3.55,3.55V80.284l4.191-4.191a1.548,1.548,0,0,0-2.19-2.19l-2,2v-4a1.548,1.548,0,0,0-3.1,0V83.646l-3.55-3.55a1.548,1.548,0,1,0-2.19,2.19l5.74,5.74V93.5A15.529,15.529,0,0,1,23.2,78.07a65.935,65.935,0,0,1,4.871-24.576c3.088-7.243,6.965-11.4,10.636-11.4s7.541,4.173,10.635,11.449A65.936,65.936,0,0,1,54.215,78.07,15.529,15.529,0,0,1,40.256,93.5ZM68.125,96.6V94.219l5.74-5.74a1.548,1.548,0,0,0-2.19-2.19l-3.55,3.55v-10.2a1.548,1.548,0,0,0-3.1,0v7.1l-3.55-3.55a1.548,1.548,0,1,0-2.19,2.19l5.74,5.74V96.6a17.032,17.032,0,0,1-12.012-6.657A18.519,18.519,0,0,0,57.311,78.07,68.235,68.235,0,0,0,56.2,66.137,17.03,17.03,0,1,1,68.125,96.6Z" transform="translate(791 -881)"/><path class="e" d="M97,84.469A22.511,22.511,0,0,0,62.121,65.652,70.219,70.219,0,0,0,58.39,53.917C54.3,44.3,48.941,39,43.3,39s-11,5.276-15.085,14.856A69.1,69.1,0,0,0,24.645,64.9L18.993,44.174a1.732,1.732,0,0,0-3.342,0L.061,101.335a1.732,1.732,0,0,0,1.671,2.188H15.589v13.857a1.732,1.732,0,1,0,3.464,0V103.522H32.911a1.728,1.728,0,0,0,1.722-1.895,20.652,20.652,0,0,0,6.939,1.822v13.93a1.732,1.732,0,1,0,3.464,0V103.45a20.725,20.725,0,0,0,11.826-4.963,22.513,22.513,0,0,0,15.888,8.43v10.462a1.732,1.732,0,1,0,3.464,0V106.921A22.548,22.548,0,0,0,97,84.469ZM30.643,100.058H19.054V97.311l3.065-3.065a1.732,1.732,0,0,0-2.45-2.45l-.616.615V81a1.732,1.732,0,0,0-3.464,0v7.943L13.35,86.708a1.732,1.732,0,1,0-2.45,2.45l4.689,4.689v6.211H4L17.321,51.212,23.19,72.731a74.7,74.7,0,0,0-.7,9.979,20.785,20.785,0,0,0,7.86,16.279Zm14.393-2.747,6.421-6.421a1.732,1.732,0,0,0-2.45-2.45l-3.972,3.971V85.186L49.725,80.5a1.732,1.732,0,0,0-2.45-2.45l-2.239,2.239V75.808a1.732,1.732,0,1,0-3.464,0V88.947L37.6,84.976a1.732,1.732,0,0,0-2.45,2.45l6.421,6.421v6.124A17.373,17.373,0,0,1,25.955,82.709,73.764,73.764,0,0,1,31.4,55.215c3.455-8.1,7.792-12.751,11.9-12.751s8.436,4.669,11.9,12.809a73.765,73.765,0,0,1,5.45,27.436A17.372,17.372,0,0,1,45.036,99.971Zm31.179,6.132v-2.667l6.421-6.421a1.732,1.732,0,1,0-2.45-2.45l-3.972,3.971V84.469a1.732,1.732,0,0,0-3.464,0v7.943L68.778,88.44a1.732,1.732,0,1,0-2.45,2.45l6.421,6.421v6.132A19.055,19.055,0,0,1,59.312,96a20.718,20.718,0,0,0,4.8-13.286,76.337,76.337,0,0,0-1.239-13.35,19.052,19.052,0,1,1,13.337,34.083Z" transform="translate(51 -659)"/><path class="e" d="M113.547,143.77h-12.09V127.4a9.5,9.5,0,0,0,7.977-9.177,62.9,62.9,0,0,0-2.407-13.276c-2.133-7.524-4.5-11.029-7.439-11.029s-5.306,3.5-7.439,11.029a62.9,62.9,0,0,0-2.407,13.276,9.5,9.5,0,0,0,7.977,9.177V143.77H85.5V97.345a5.867,5.867,0,0,0,3.988-5.55V83.818a1.869,1.869,0,0,0-1.87-1.87H85.5V79.7h4.113a1.87,1.87,0,1,0,0-3.739H77.651a1.87,1.87,0,1,0,0,3.739h4.113v2.244H79.645a1.869,1.869,0,0,0-1.87,1.87v7.977a5.867,5.867,0,0,0,3.988,5.55V143.77H75.227l-1.27-6.232h1.7a1.87,1.87,0,1,0,0-3.739H71.543v-4.238h2.119a1.87,1.87,0,0,0,0-3.739H71.543v-2.244h2.119a1.87,1.87,0,1,0,0-3.739h-35.9a1.87,1.87,0,0,0,0,3.739h2.119v2.244H37.766a1.87,1.87,0,0,0,0,3.739h2.119V133.8H35.772a1.87,1.87,0,1,0,0,3.739h1.7L36.2,143.77H21.687V125.458a15.85,15.85,0,0,0,13.96-15.715c0-14.045-13.556-43.417-14.133-44.66a1.87,1.87,0,0,0-3.392,0C17.545,66.326,3.988,95.7,3.988,109.743a15.85,15.85,0,0,0,13.96,15.715V143.77H1.87a1.87,1.87,0,1,0,0,3.739H113.547a1.87,1.87,0,1,0,0-3.739ZM93.48,118.218a59.2,59.2,0,0,1,2.107-11.687c2-7.317,3.68-8.66,4-8.856.32.2,2,1.539,4,8.856a59.181,59.181,0,0,1,2.107,11.687,5.69,5.69,0,0,1-4.238,5.339v-3.843a1.87,1.87,0,1,0-3.739,0v3.843A5.69,5.69,0,0,1,93.48,118.218ZM81.515,85.687h4.238v6.107a2.119,2.119,0,0,1-4.238,0ZM7.728,109.743c0-10.377,8.405-30.819,12.09-39.281,3.685,8.462,12.09,28.9,12.09,39.281a12.109,12.109,0,0,1-10.22,11.945v-11.17l5.435-5.435a1.87,1.87,0,0,0-2.644-2.644l-2.791,2.791v-3.463a1.87,1.87,0,1,0-3.739,0v9.446l-2.791-2.791a1.87,1.87,0,1,0-2.644,2.644l5.435,5.435v5.188A12.109,12.109,0,0,1,7.728,109.743Zm35.9,13.835H67.8v2.244H43.624Zm0,5.983H67.8V133.8H43.624Zm-2.337,7.977H70.141l1.27,6.232H40.017Z" transform="translate(-171 -731)"/><g transform="translate(333.998 -760.653)"><g transform="translate(0.002 90.653)"><path class="f" d="M141.641,143.7a27.214,27.214,0,0,0-31.529-12.548L95.339,96.7h10.538a3.026,3.026,0,0,0,0-6.051H90.749a3.025,3.025,0,0,0-2.78,4.218l6.239,14.555L56.435,120.218l-6.051-11.412H57.47a3.026,3.026,0,0,0,0-6.051H36.292a3.026,3.026,0,1,0,0,6.051h7.261l7.6,14.371-9.161,11.194a27.214,27.214,0,1,0,12.274,25.864H72.6a3.074,3.074,0,0,0,.6-.06,2.94,2.94,0,0,0,.517-.154,3.024,3.024,0,0,0,1.513-1.307l.051-.091,22.188-41.6,7.085,16.534A27.187,27.187,0,1,0,141.641,143.7ZM27.215,178.39A21.178,21.178,0,1,1,38.127,139.1L24.873,155.3a3.026,3.026,0,0,0,2.342,4.941H48.15A21.192,21.192,0,0,1,27.215,178.39Zm6.383-24.2,9.209-11.255a21.082,21.082,0,0,1,5.343,11.255Zm20.667,0A27.139,27.139,0,0,0,46.674,138.2l7.564-9.227,13.345,25.211ZM72.6,150.765,59.318,125.684,90.767,116.7Zm51.13,26.87a21.181,21.181,0,0,1-16.773-38.469L115.2,158.4a3.025,3.025,0,0,0,5.561-2.384l-8.247-19.23a21.178,21.178,0,1,1,11.215,40.844Z" transform="translate(-0.002 -90.653)"/></g></g><g transform="translate(770 -1089)"><g transform="translate(14.175 14.175)"><path class="e" d="M99.629,79.422a14.374,14.374,0,0,0-10.1-4.222,14.062,14.062,0,0,0-10.1,4.222,14.325,14.325,0,0,0,10.1,24.429,14.062,14.062,0,0,0,10.1-4.222,14.374,14.374,0,0,0,4.222-10.1A14.062,14.062,0,0,0,99.629,79.422ZM96.914,96.914a10.559,10.559,0,1,1,3.016-7.389A10.429,10.429,0,0,1,96.914,96.914Z" transform="translate(-75.2 -75.2)"/></g><g transform="translate(47.274 26.54)"><path class="e" d="M258.566,140.8H252.76a1.96,1.96,0,0,0,0,3.921h5.806a1.96,1.96,0,1,0,0-3.921Z" transform="translate(-250.8 -140.8)"/></g><g transform="translate(26.54 47.274)"><path class="e" d="M142.76,250.8a2,2,0,0,0-1.96,1.96v5.806a1.96,1.96,0,1,0,3.921,0V252.76A2,2,0,0,0,142.76,250.8Z" transform="translate(-140.8 -250.8)"/></g><g transform="translate(41.204 41.204)"><path class="e" d="M226.027,223.312l-4.147-4.147a1.919,1.919,0,0,0-2.714,2.714l4.147,4.147a1.919,1.919,0,0,0,2.714-2.714Z" transform="translate(-218.6 -218.6)"/></g><g transform="translate(26.54)"><path class="e" d="M142.76,0a2,2,0,0,0-1.96,1.96V7.766a1.96,1.96,0,0,0,3.921,0V1.96A2,2,0,0,0,142.76,0Z" transform="translate(-140.8)"/></g><g transform="translate(41.28 7.804)"><path class="e" d="M226.427,41.965a1.911,1.911,0,0,0-2.714,0l-4.147,4.147a1.919,1.919,0,1,0,2.714,2.714l4.147-4.147A1.911,1.911,0,0,0,226.427,41.965Z" transform="translate(-219 -41.4)"/></g><g transform="translate(0 26.54)"><path class="e" d="M7.766,140.8H1.96A2,2,0,0,0,0,142.76a1.947,1.947,0,0,0,1.96,1.96H7.766a1.96,1.96,0,0,0,0-3.921Z" transform="translate(0 -140.8)"/></g><g transform="translate(7.728 41.204)"><path class="e" d="M48.427,219.165a1.911,1.911,0,0,0-2.714,0l-4.147,4.147a1.919,1.919,0,0,0,2.714,2.714l4.147-4.147A1.911,1.911,0,0,0,48.427,219.165Z" transform="translate(-41 -218.6)"/></g><g transform="translate(7.728 7.804)"><path class="e" d="M48.427,46.112,44.28,41.965a1.919,1.919,0,0,0-2.714,2.714l4.147,4.147a1.919,1.919,0,1,0,2.714-2.714Z" transform="translate(-41 -41.4)"/></g></g><path class="e" d="M154.67,18.009C149.635,6.4,143.29,0,136.8,0s-12.831,6.4-17.866,18.009c-4.279,9.87-6.937,22.017-6.937,31.7a24.769,24.769,0,0,0,21.052,24.52L132.01,92.987h-1.848a1.557,1.557,0,1,0,0,3.113h13.284a1.557,1.557,0,1,0,0-3.113H141.6l-1.042-18.755a24.809,24.809,0,0,0,21.052-24.521C161.607,40.026,158.949,27.879,154.67,18.009ZM135.128,92.987l1.672-30.1h.007l1.672,30.1Zm17.763-28.728a21.643,21.643,0,0,1-12.51,6.843l-.587-10.558,8.072-8.072a1.557,1.557,0,0,0-2.2-2.2l-6.1,6.1-.38-6.84,3.7-3.7a1.557,1.557,0,0,0-2.2-2.2l-1.733,1.733-.593-10.681a1.557,1.557,0,0,0-3.108,0l-.943,16.974-6.365-6.365a1.557,1.557,0,1,0-2.2,2.2l8.335,8.335-.849,15.282a21.66,21.66,0,0,1-18.112-21.4c0-9.145,2.622-21.1,6.68-30.463C126.239,8.994,131.71,3.113,136.8,3.113s10.564,5.881,15.01,16.134c4.058,9.361,6.68,21.318,6.68,30.463A21.641,21.641,0,0,1,152.891,64.259Z" transform="translate(822 -960)"/><g transform="translate(223 -923.305)"><path class="g" d="M267.3,177.612,267.7,2H393.094V177.612" transform="translate(2.972 0)"/><path class="g" d="M141.71,175.8V42.825h2.022V31.449h2.73V26.7H104.7" transform="translate(1.15 2.581)"/><path class="g" d="M270.272,10.3H8.371v18L2,28.413v4.639H5.741V43.1l2.022,1.436V99.652H6.045v2.872H7.663l.1,53.567H6.045l.1,21.427" transform="translate(0 0.867)"/><path class="g" d="M238.417,34.6h4.55s1.719-.11,1.719,1.988a1.78,1.78,0,0,1-1.719,1.988h-4.55a1.768,1.768,0,0,1-1.517-1.988C236.9,34.6,238.417,34.6,238.417,34.6Z" transform="translate(2.631 3.406)"/><path class="g" d="M257.081,167.218V119.946s.4-16.346-17.595-16.346S222.7,119.5,222.7,119.5v47.934C222.7,167.328,257.688,167.218,257.081,167.218Z" transform="translate(2.472 10.615)"/><path class="g" d="M71.053,175.8V42.825H69.03V31.449H66.3V26.7h41.864" transform="translate(0.72 2.581)"/><line class="g" x2="198.398" transform="translate(71.773 45.406)"/><line class="g" x2="411.054" transform="translate(69.043 34.03)"/><line class="g" x2="329.652" transform="translate(147.613 29.281)"/><path class="g" d="M191.617,34.6h4.55s1.719-.11,1.719,1.988a1.78,1.78,0,0,1-1.719,1.988h-4.55a1.768,1.768,0,0,1-1.517-1.988C190,34.6,191.617,34.6,191.617,34.6Z" transform="translate(2.107 3.406)"/><path class="g" d="M163.217,34.6h4.55s1.719-.11,1.719,1.988a1.78,1.78,0,0,1-1.719,1.988h-4.55a1.768,1.768,0,0,1-1.517-1.988C161.7,34.6,163.217,34.6,163.217,34.6Z" transform="translate(1.789 3.406)"/><path class="g" d="M229.5,83.952V53.8h21.943V85.057H229.5Z" transform="translate(2.549 5.412)"/><path class="g" d="M52.517,34.2h4.55s1.719-.11,1.719,1.988a1.78,1.78,0,0,1-1.719,1.988h-4.55A1.768,1.768,0,0,1,51,36.188C51,34.2,52.517,34.2,52.517,34.2Z" transform="translate(0.549 3.364)"/><path class="g" d="M24.117,34.2h4.55s1.719-.11,1.719,1.988a1.78,1.78,0,0,1-1.719,1.988h-4.55A1.768,1.768,0,0,1,22.6,36.188C22.6,34.2,24.117,34.2,24.117,34.2Z" transform="translate(0.231 3.364)"/><path class="g" d="M7.5,91.2H478.114" transform="translate(0.062 9.32)"/><line class="g" x2="470.614" transform="translate(7.562 103.391)"/><path class="g" d="M159.6,177.2" transform="translate(1.766 18.305)"/><line class="g" x2="474.153" transform="translate(5.843 178.054)"/><path class="g" d="M286.1,90.767V48.576S285.392,37.2,297.122,37.2s11.123,11.487,11.123,11.487V90.767Z" transform="translate(3.183 3.678)"/><path class="g" d="M319.1,90.767V48.576S318.392,37.2,330.122,37.2s11.123,11.487,11.123,11.487V90.767Z" transform="translate(3.552 3.678)"/><path class="g" d="M353.3,90.767V48.576S352.592,37.2,364.322,37.2s11.123,11.487,11.123,11.487V90.767Z" transform="translate(3.935 3.678)"/><line class="g" x1="59.358" transform="translate(7.966 29.281)"/><line class="g" x1="61.582" transform="translate(5.438 33.919)"/><line class="g" x1="61.481" transform="translate(7.764 45.406)"/><g transform="translate(86.334 58.66)"><path class="g" d="M113.4,83.563V53.3h15.168V84.667H113.4Z" transform="translate(-85.086 -53.3)"/><path class="g" d="M85.4,83.563V53.3h15.168V84.667H85.4Z" transform="translate(-85.4 -53.3)"/></g><g transform="translate(19.898 58.328)"><path class="g" d="M47.8,83.152V53H62.969V84.257H47.7Z" transform="translate(-19.386 -53)"/><path class="g" d="M19.8,83.152V53H34.969V84.257H19.7Z" transform="translate(-19.7 -53)"/></g><g transform="translate(160.152 58.328)"><path class="g" d="M186.4,83.152V53h15.168V84.257H186.4Z" transform="translate(-158.086 -53)"/><path class="g" d="M158.4,83.152V53h15.168V84.257H158.4Z" transform="translate(-158.4 -53)"/></g><g transform="translate(19.898 114.657)"><path class="g" d="M47.8,134.152V104H62.969v31.257H47.7Z" transform="translate(-19.386 -104)"/><path class="g" d="M19.8,134.152V104H34.969v31.257H19.7Z" transform="translate(-19.7 -104)"/></g><g transform="translate(86.031 115.43)"><path class="g" d="M113.1,134.852V104.7h15.168v31.257H113.1Z" transform="translate(-84.786 -104.7)"/><path class="g" d="M85.1,134.852V104.7h15.168v31.257H85.1Z" transform="translate(-85.1 -104.7)"/></g><g transform="translate(160.152 114.657)"><path class="g" d="M186.4,134.152V104h15.168v31.257H186.4Z" transform="translate(-158.086 -104)"/><path class="g" d="M158.4,134.152V104h15.168v31.257H158.4Z" transform="translate(-158.4 -104)"/></g><path class="g" d="M286.8,138.5V104.7h21.741v35.122H286.7Z" transform="translate(3.189 10.73)"/><path class="g" d="M319.1,138.5V104.7h21.842v35.122H319.1Z" transform="translate(3.552 10.73)"/><path class="g" d="M353.4,138.5V104.7h21.842v35.122H353.4Z" transform="translate(3.937 10.73)"/><g transform="translate(417.301 114.657)"><path class="g" d="M440.8,134.152V104h15.168v31.257H440.7Z" transform="translate(-412.386 -104)"/><path class="g" d="M412.8,134.152V104h15.168v31.257H412.7Z" transform="translate(-412.7 -104)"/></g><g transform="translate(417.301 57.997)"><path class="g" d="M440.8,82.852V52.7h15.168V83.957H440.7Z" transform="translate(-412.386 -52.7)"/><path class="g" d="M412.8,82.852V52.7h15.168V83.957H412.7Z" transform="translate(-412.7 -52.7)"/></g><path class="g" d="M392,10.4h80.9v18h6.371v4.639h-3.64l-.1,10.051L473.6,44.639v55h1.618l.1,2.982H473.6v53.567h1.618l-.1,21.316" transform="translate(4.369 0.878)"/><line class="g" x2="219.937" transform="translate(259.654 156.958)"/><line class="g" x2="218.42" transform="translate(6.652 156.958)"/><line class="g" x2="81.604" transform="translate(396.369 45.406)"/><g transform="translate(160.051 167.561)"><path class="g" d="M158.3,161.951V151.9h15.168v9.94" transform="translate(-158.3 -151.9)"/><path class="g" d="M186.4,161.951V151.9h15.168v9.94" transform="translate(-157.985 -151.9)"/></g><path class="g" d="M117.717,34.3h4.55s1.719-.11,1.719,1.988a1.78,1.78,0,0,1-1.719,1.988h-4.55a1.768,1.768,0,0,1-1.517-1.988C116.1,34.3,117.717,34.3,117.717,34.3Z" transform="translate(1.279 3.375)"/><path class="g" d="M89.317,34.3h4.55s1.719-.11,1.719,1.988a1.78,1.78,0,0,1-1.719,1.988h-4.55A1.768,1.768,0,0,1,87.8,36.288C87.8,34.3,89.317,34.3,89.317,34.3Z" transform="translate(0.961 3.375)"/><path class="g" d="M445.117,34.4h4.55s1.719-.11,1.719,1.988a1.78,1.78,0,0,1-1.719,1.988h-4.55a1.768,1.768,0,0,1-1.517-1.988C443.5,34.4,445.117,34.4,445.117,34.4Z" transform="translate(4.947 3.385)"/><path class="g" d="M416.717,34.4h4.55s1.719-.11,1.719,1.988a1.78,1.78,0,0,1-1.719,1.988h-4.55a1.768,1.768,0,0,1-1.517-1.988C415.2,34.4,416.717,34.4,416.717,34.4Z" transform="translate(4.629 3.385)"/><g transform="translate(85.222 167.561)"><path class="g" d="M84.3,161.951V151.9H99.468v9.94" transform="translate(-84.3 -151.9)"/><path class="g" d="M112.4,161.951V151.9h15.168v9.94" transform="translate(-83.985 -151.9)"/></g><g transform="translate(19.19 167.23)"><path class="g" d="M19,161.761V151.71l15.168-.11v10.051" transform="translate(-19 -151.6)"/><path class="g" d="M47.2,161.761l-.1-10.051,15.168-.11.1,10.051" transform="translate(-18.685 -151.6)"/></g><g transform="translate(416.896 167.23)"><path class="g" d="M412.3,161.761V151.71l15.168-.11v10.051" transform="translate(-412.3 -151.6)"/><path class="g" d="M440.4,161.761V151.71l15.168-.11v10.051" transform="translate(-411.985 -151.6)"/></g><path class="g" d="M286.4,162.124V151.3h21.842v11.155H286.4Z" transform="translate(3.186 15.599)"/><path class="g" d="M318.8,162.124V151.3h21.741v11.155H318.7Z" transform="translate(3.548 15.599)"/><path class="g" d="M353.1,162.124V151.3h21.842v11.155H353.1Z" transform="translate(3.933 15.599)"/></g><g transform="translate(773.5 -736.2)"><path class="h" d="M24.4,233.708l.107-43,5.241-2.353.107-3.53s5.134-1.391,8.557-9.253l-2.3-.107s11.5-11.98,11.5-15.564" transform="translate(-10.652 -73.728)"/><path class="h" d="M100.711,174.689v-19.9L96.7,149.124s9.52,1.551,15.564-20.163l66.266-.16c6.044,21.768,15.564,20.163,15.564,20.163l-4.011,5.669v64.341" transform="translate(-44.283 -59.262)"/><line class="h" x2="89.639" y2="0.053" transform="translate(56.374 95.478)"/><path class="h" d="M131.6,201.62l.107-16.42h9.788l-.107,16.42Z" transform="translate(-60.518 -85.497)"/><path class="h" d="M233.4,201.62l.107-16.42h9.788l-.107,16.42Z" transform="translate(-107.871 -85.497)"/><path class="h" d="M131.6,254.445l.107-16.045h9.788l-.107,16.045Z" transform="translate(-60.518 -110.243)"/><path class="h" d="M165,254.445l.107-16.045h9.788l-.107,16.045Z" transform="translate(-76.054 -110.243)"/><path class="h" d="M233.1,254.445l.107-16.045h9.788l-.107,16.045Z" transform="translate(-107.732 -110.243)"/><path class="h" d="M198.8,254.445l.107-16.045h9.734l-.053,16.045Z" transform="translate(-91.777 -110.243)"/><path class="h" d="M198.8,198.464l.107-13.264h9.734l-.053,13.264Z" transform="translate(-91.777 -85.497)"/><line class="h" x2="97.287" transform="translate(52.577 89.862)"/><path class="h" d="M110.9,227.459c.481-.107,86.162,0,86.162,0" transform="translate(-50.889 -105.132)"/><path class="h" d="M165.6,198.571l.107-13.371h9.788l-.107,13.371Z" transform="translate(-76.333 -85.497)"/><path class="h" d="M193.251,219.406,161,219.353V210.1l32.3.107Z" transform="translate(-74.193 -97.079)"/><path class="h" d="M64.1,198.111l.053-6.311h4.011l-.053,6.311Z" transform="translate(-29.119 -88.567)"/><path class="h" d="M44.8,237.536,44.907,227H52.93l-.107,10.536Z" transform="translate(-20.142 -104.941)"/><circle class="h" cx="3.049" cy="3.049" r="3.049" transform="translate(38.243 63.013)"/><path class="h" d="M73.5,76.756h3.69V71.407s-1.979-2.086-3.583.053Z" transform="translate(-33.492 -32.141)"/><path class="h" d="M4.549,171.139l.267-59.848-3.316.053s10.429-7.113,14.173-13.906c4.76-8.557,4.814-13.745,4.814-13.745H26l.374-13.21H23.535s5.509-3.156,7.434-5.562a20.1,20.1,0,0,0,2.942-6.365l.107-1.391.642-.107.107-9.306s-1.284-.16-1.658-.642c-.535-.642,1.872-1.658,1.872-1.658s.16-6.044,4.707-9.734a2.793,2.793,0,0,0,.749-1.016l.7-1.658a2.4,2.4,0,0,0,.214-1.07V27.963h0a1.228,1.228,0,0,1-.321-1.391A14.771,14.771,0,0,1,42.041,24.7" transform="translate(0 -10.838)"/><path class="h" d="M90.752,233.447l.053-42.84-5.241-2.353-.107-3.53s-5.134-1.391-8.557-9.253l2.3-.107S67.7,163.383,67.7,159.8" transform="translate(-30.794 -73.682)"/><path class="h" d="M51.075,146.7,31.5,166.275v16.473" transform="translate(-13.955 -67.588)"/><path class="h" d="M67.9,147l19.361,19.254H76.243" transform="translate(-30.887 -67.728)"/><line class="h" x2="18.452" transform="translate(27.707 101.789)"/><line class="h" x2="35.299" transform="translate(19.15 111.042)"/><line class="h" x2="35.406" transform="translate(19.096 114.625)"/><line class="h" x2="46.156" transform="translate(13.855 116.925)"/><line class="h" x2="10.536" transform="translate(17.545 98.687)"/><line class="h" x2="12.729" transform="translate(4.816 100.398)"/><path class="h" d="M110.9,280.059c.481-.107,86.162,0,86.162,0" transform="translate(-50.889 -129.599)"/><line class="h" x2="141.465" transform="translate(4.763 159.926)"/><path class="h" d="M102.23,72.747h-9.36l-.053-13.264h2.835s-5.509-3.156-7.434-5.562a20.1,20.1,0,0,1-2.942-6.365l-.107-1.391-.642-.053-.107-9.306s1.284-.16,1.658-.642c.535-.642-1.872-1.658-1.872-1.658s-.107-6.1-4.653-9.788A2.793,2.793,0,0,1,78.8,23.7l-.7-1.658a2.394,2.394,0,0,1-.214-1.07V16.964h0a1.228,1.228,0,0,0,.321-1.391A14.772,14.772,0,0,0,77.2,13.7V1.4" transform="translate(-35.213)"/><path class="h" d="M335.5,108.8" transform="translate(-155.364 -49.958)"/><line class="h" x2="14.066" transform="translate(34.981 34.56)"/><line class="h" x2="14.387" transform="translate(34.82 36.86)"/><line class="h" x2="14.655" transform="translate(34.713 46.166)"/><line class="h" x2="31.288" transform="translate(26.37 59.59)"/><line class="h" x2="32.465" y2="0.053" transform="translate(25.996 72.801)"/><path class="h" d="M125.9,116.3l33.588-14.6,32.679,14.441" transform="translate(-57.866 -46.656)"/><line class="h" x2="8.664" transform="translate(5.083 122.755)"/><path class="h" d="M23.8,281.3" transform="translate(-10.373 -130.199)"/><line class="h" x1="9.092" transform="translate(4.602 150.245)"/><path class="h" d="M76.1,237.536,76.153,227h8.023l-.053,10.536Z" transform="translate(-34.701 -104.941)"/><rect class="h" width="12.943" height="20.11" transform="translate(22.305 139.816)"/><rect class="h" width="12.943" height="20.11" transform="translate(39.58 139.762)"/><rect class="h" width="10.162" height="3.69" transform="translate(70.922 153.508)"/><rect class="h" width="10.162" height="3.69" transform="translate(125.261 153.454)"/></g></g></svg>