<svg xmlns="http://www.w3.org/2000/svg" viewBox="0 0 236.414 48.773"><defs><style>.a{fill:#2b9237;}.b{fill:none;stroke:#95c11f;stroke-linecap:round;stroke-miterlimit:10;stroke-width:2.803px;}.c{fill:#3c3c3b;font-size:28px;}.c,.d{font-family:Anago-Medium, Anago;font-weight:500;}.d{fill:#424243;font-size:17px;}</style></defs><g transform="translate(0.001 0.541)"><g transform="translate(28.418 0.116)"><path class="a" d="M92.1,25.631A13.074,13.074,0,0,0,80.685,18.95a12.862,12.862,0,0,0-3.766.607L69.752,2.915h5.1a1.4,1.4,0,0,0,1.458-1.458A1.506,1.506,0,0,0,74.732,0H67.444a1.4,1.4,0,0,0-1.458,1.458,1.1,1.1,0,0,0,.121.607l3.037,7.046L50.923,14.334,48.008,8.868h3.4A1.4,1.4,0,0,0,52.867,7.41a1.4,1.4,0,0,0-1.458-1.458h-10.2A1.4,1.4,0,0,0,39.747,7.41a1.4,1.4,0,0,0,1.458,1.458h3.523l3.644,6.924L44,21.258A13.174,13.174,0,1,0,47.886,39.48a13.476,13.476,0,0,0,2.065-5.709h9.111c.121,0,.121,0,.243-.121a1.244,1.244,0,0,0,.729-.607h0l10.69-20.165,3.4,8.017A13.169,13.169,0,0,0,87.245,43.731,13.394,13.394,0,0,0,92.1,25.631ZM36.832,42.4a10.2,10.2,0,0,1,0-20.408,10.4,10.4,0,0,1,5.345,1.458l-6.438,7.774a1.516,1.516,0,0,0,.243,2.065,1.379,1.379,0,0,0,.972.364H47.036A10.519,10.519,0,0,1,36.832,42.4Zm3.037-11.662,4.495-5.466a9.956,9.956,0,0,1,2.551,5.466Zm9.961,0a13.635,13.635,0,0,0-3.644-7.774l3.644-4.495,6.438,12.148H49.83Zm8.868-1.7L52.259,16.885l15.185-4.373Zm24.781,13a10.284,10.284,0,0,1-13-9.84,10.24,10.24,0,0,1,4.859-8.746L79.349,32.8a1.468,1.468,0,1,0,2.672-1.215L78.012,22.23a10.271,10.271,0,0,1,5.466,19.8Z" transform="translate(-23.642)"/></g><path class="b" d="M26.729,15.9H7.9" transform="translate(1.396 3.531)"/><path class="b" d="M19.321,30.4H2.8" transform="translate(0.301 6.645)"/><path class="b" d="M21.686,22.8H1.4" transform="translate(0 5.013)"/><text class="c" transform="translate(111.413 39.232)"><tspan x="0" y="0">rowerowy</tspan></text><text class="d" transform="translate(112.648 15.459)"><tspan x="0" y="0">Powiat Średzki</tspan></text></g></svg>